<svg xmlns="http://www.w3.org/2000/svg" width="1000" height="667" fill="none" xmlns:v="https://vecta.io/nano"><style><![CDATA[.B{fill:#fff}.C{fill:#161620}.D{fill:#161b31}.E{fill:#131314}.F{fill:#d83840}.G{fill:#a3b1de}.H{fill:#363a5c}.I{fill:#e7e2eb}.J{fill-rule:evenodd}.K{fill:#b8c5e9}.L{fill:#ed6055}]]></style><g class="J"><g class="B"><path d="M833.333 666.667H166.667V0h666.666v666.667z"/><path d="M1000 666.667H0V0h1000v666.667z"/></g><path d="M541.388 104.56a1.22 1.22 0 0 0-1.219-1.22 1.22 1.22 0 0 0-1.218 1.22v2.867h-2.867a1.22 1.22 0 0 0-1.22 1.218 1.22 1.22 0 0 0 1.22 1.22h2.867v2.868a1.22 1.22 0 0 0 1.218 1.22 1.22 1.22 0 0 0 1.219-1.22v-2.868h2.867a1.22 1.22 0 0 0 1.221-1.22 1.22 1.22 0 0 0-1.221-1.218h-2.867v-2.867z" class="G"/><path d="M869.052 84.884a14.98 14.98 0 0 1-14.976-14.975c0-8.27 6.705-14.973 14.976-14.973s14.975 6.704 14.975 14.973-6.704 14.975-14.975 14.975zM233.212 443.91h-80.007c-43.06 0-78.3 35.23-78.3 78.3s35.23 78.3 78.3 78.3h676.51c69.727 0 126.773-57.048 126.773-126.772v-.003c0-69.724-57.046-126.772-126.773-126.773-29.48-.002-53.6-24.123-53.6-53.604s24.12-53.602 53.6-53.602h64.513c30.65 0 55.727-25.078 55.727-55.73s-25.076-55.73-55.727-55.73H812.65c-11.932 0-21.695-9.764-21.695-21.697s9.763-21.696 21.695-21.696h14.38c8.237 0 14.974-6.74 14.974-14.975s-6.74-14.973-14.974-14.973H732.67c-19.872 0-22.085 23.477-72.284 23.477H543.987c-10.747 0-19.54 8.792-19.54 19.54s8.792 19.54 19.54 19.54h18.764c15.57 0 28.312 12.74 28.312 28.3v.003c0 15.568-12.743 28.31-28.312 28.31h-56.475c-76.256 0-87.027 19.928-100.384 59.566s-82.72 42.832-82.72 42.832H228.33c-23.465 0-42.664 19.197-42.664 42.662s19.2 42.666 42.664 42.666h4.883c22.57 0 41.036 18.465 41.036 41.034s-18.467 41.038-41.036 41.038" fill="#e5eaf8"/><path d="M764.685 314.66c8.107-11.756 25.1-31.312 57.583-50.774 51.383-30.788 90.313-71.6 73.204-95.734-16.79-23.692-92.043 22.067-154.537 136.447 9.2 4.807 17.04 8.05 23.75 10.06z" class="K"/><path d="M754.648 304.207c1.423-.07 5.19-.068 10.136 1.386a.65.65 0 0 0 .809-.44c.102-.344-.096-.706-.44-.81-4.328-1.276-7.833-1.473-9.73-1.46l3.33-5.573c2.27-.05 9.584-.196 12.33-.045a.65.65 0 1 0 .074-1.304c-2.523-.14-8.727-.036-11.602.022l6.252-9.957c2.196.04 9.003.24 16.532 1.252.356.047.687-.2.735-.56s-.2-.687-.557-.736a154.38 154.38 0 0 0-15.883-1.244l6.31-9.448c3.01.052 12.798.327 23.6 1.78a.65.65 0 0 0 .734-.56c.05-.357-.2-.686-.557-.736-10.008-1.346-19.125-1.69-22.896-1.774 2.765-4 5.52-7.838 8.263-11.528 3.146-.134 16.2-.47 25.985 2.673a.65.65 0 1 0 .403-1.243c-9.127-2.928-20.968-2.9-25.4-2.768 3.376-4.505 6.727-8.774 10.045-12.83 4.29.243 21.56 1.553 29.64 7.273.295.207.7.136.9-.16s.134-.7-.16-.907c-7.84-5.55-23.8-7.077-29.36-7.45 3.53-4.27 7.016-8.297 10.453-12.087 3.134.71 16.238 3.895 28.558 10.083.322.163.713.032.877-.288s.032-.713-.29-.875c-11.672-5.864-24.026-9.057-28.143-10.028l6.057-6.434c3 .614 15.766 3.533 32.662 11.71a.65.65 0 0 0 .872-.301c.158-.326.02-.715-.302-.872-15.766-7.63-28.005-10.724-32.152-11.638a288.31 288.31 0 0 1 13.855-13.269c3.792 1.253 22.995 7.755 33.093 14.177a.65.65 0 1 0 .702-1.1c-9.702-6.17-27.57-12.37-32.662-14.074 2.612-2.307 5.172-4.478 7.67-6.512 3.246 1.1 18.132 6.337 31.7 14.21a.65.65 0 0 0 .891-.236c.18-.312.075-.71-.237-.892-12.795-7.416-26.727-12.508-31.167-14.05 5.85-4.702 11.355-8.684 16.432-12.04 3.21.758 17.713 4.388 28.6 10.704a.65.65 0 0 0 .891-.236c.18-.312.076-.71-.233-.892-10.014-5.805-22.994-9.368-27.76-10.554 2.1-1.36 4.12-2.6 6.06-3.762 2.593.264 12.235 1.507 24.7 6.287.337.13.716-.037.845-.373s-.04-.715-.375-.846c-10.64-4.08-19.284-5.617-23.31-6.158 15.635-9.028 25.348-11.324 25.43-11.346.524-.13.842-.664.708-1.186s-.66-.843-1.186-.71c-.055.012-4.327 1.023-11.743 4.304 2.03-2.56 4.912-6.1 5.675-6.567a.65.65 0 0 0 .216-.896c-.188-.305-.6-.402-.896-.216-1.18.722-5.95 6.768-7.586 8.863-3.008 1.41-6.428 3.152-10.22 5.296l6.446-12.81a.65.65 0 0 0-1.164-.586l-7.336 14.577c-2.6 1.52-5.356 3.223-8.247 5.12l6.948-15.186a.65.65 0 0 0-.317-.864c-.33-.15-.718-.007-.868.318l-7.826 17.104c-4.333 2.922-8.953 6.268-13.817 10.128l6.023-15.737c.128-.337-.04-.715-.378-.845s-.7.038-.844.376l-6.822 17.833c-2.22 1.8-4.482 3.695-6.792 5.707l5.105-14.182c.124-.34-.053-.713-.388-.837-.34-.12-.717.052-.84.392l-5.912 16.412c-4.276 3.8-8.694 7.976-13.22 12.55l3.847-13.848c.096-.346-.1-.706-.456-.802a.65.65 0 0 0-.803.453l-4.476 16.115-5.432 5.733 2.156-10.573c.07-.354-.156-.698-.51-.77s-.694.157-.768.508l-2.585 12.695c-3.396 3.726-6.84 7.682-10.32 11.87l2.008-11.788a.65.65 0 0 0-.53-.751c-.358-.06-.694.18-.754.534l-2.4 14.013c-3.047 3.72-6.12 7.635-9.216 11.73l1.3-10.47c.047-.36-.206-.685-.565-.732a.66.66 0 0 0-.732.567l-1.59 12.742c-2.7 3.624-5.412 7.394-8.136 11.314l.066-9.45c.002-.36-.287-.655-.647-.66s-.656.287-.66.647l-.08 11.367-5.917 8.842-1.013-8.056c-.047-.357-.372-.6-.728-.565a.65.65 0 0 0-.566.728l1.206 9.593-5.456 8.644-.948-5.206c-.066-.355-.406-.59-.76-.526s-.588.406-.524.76l1.206 6.642-4.068 6.8-2.158-4.272a.65.65 0 0 0-.875-.286c-.32.162-.45.553-.29.876l2.538 5.02-3.314 5.744 1.793.806 3.172-5.494" class="B"/><path d="M755.37 321.317c8.683-5.488 24-12.845 47.14-16.142 39.265-5.596 74.31-21.695 71.656-43.156-2.555-20.68-58.213-12.715-127.484 43.39l8.69 15.91z" class="G"/><path d="M863.568 265.22a1.35 1.35 0 0 0 1.339-1.355 1.35 1.35 0 0 0-1.358-1.337c-.05.001-4.42-.014-11.898.998l6.406-4.325c.412-.277.52-.835.243-1.244s-.836-.52-1.245-.24l-9.52 6.426c-3.48.572-7.445 1.342-11.815 2.388l6.73-6.425a.9.9 0 0 0 .028-1.271c-.34-.36-.908-.372-1.268-.03l-9.018 8.612a185.48 185.48 0 0 0-14.66 4.483l5.634-5.795c.344-.355.338-.92-.02-1.268s-.92-.34-1.265.016l-8.224 8.46c-5.446 2.045-11.175 4.475-17.104 7.368l4.76-6.117c.305-.388.237-.954-.154-1.258a.9.9 0 0 0-1.257.156l-7.073 9.09c-5.558 2.86-11.268 6.12-17.07 9.852l1.953-4.16a.9.9 0 0 0-.432-1.194c-.448-.2-.98-.018-1.193.432l-3.19 6.796c-4.402 2.93-8.842 6.125-13.3 9.622l1.786-4.232a.9.9 0 0 0-.476-1.177.9.9 0 0 0-1.177.479l-3.073 7.278a223.17 223.17 0 0 0-6.514 5.507l1.324 2.427c2.17-1.922 4.343-3.764 6.5-5.536 2.22.142 7.54.596 9.776 1.77a.9.9 0 0 0 1.214-.373.9.9 0 0 0-.376-1.215c-1.976-1.036-5.864-1.564-8.577-1.816 1.716-1.367 3.43-2.692 5.14-3.97 2.18.364 7.532 1.414 11.096 3.432a.9.9 0 0 0 1.224-.338.9.9 0 0 0-.34-1.223c-3.057-1.733-7.29-2.787-10.013-3.332a207.8 207.8 0 0 1 10.525-7.2c2.99 1.235 12.45 5.26 16.164 8.312.38.313.945.26 1.26-.124a.9.9 0 0 0-.12-1.263c-3.484-2.864-11.598-6.465-15.453-8.094a202.29 202.29 0 0 1 11.049-6.428c2.987 1.146 12.706 5.09 19.115 10.162.388.307.953.242 1.26-.148a.9.9 0 0 0-.148-1.261c-5.773-4.567-14.115-8.23-18.153-9.86a191.77 191.77 0 0 1 5.341-2.703c3.1.984 13.577 4.624 23.287 11.658a.9.9 0 0 0 1.252-.199c.292-.4.205-.96-.196-1.252-8.498-6.157-17.586-9.773-22.018-11.32 6.4-3.01 12.534-5.477 18.3-7.497 3.428 2.123 16.707 10.47 22.513 15.99.358.342.927.327 1.268-.033s.326-.925-.033-1.268c-5.375-5.108-16.86-12.495-21.555-15.44 4.315-1.453 8.4-2.65 12.227-3.644l17.1 13.34c.372.325.94.285 1.262-.088s.284-.94-.088-1.264c-2.42-2.087-11.945-9.404-16.054-12.55 4.997-1.23 9.48-2.102 13.328-2.715l10.984 9.77a.9.9 0 0 0 1.268 0c.352-.352.352-.92 0-1.27-1.388-1.385-6.76-6.093-9.924-8.85 7.95-1.136 12.633-1.122 12.685-1.122" class="K"/><path d="M732.34 138.148c.005.076.005.152-.003.228-.003.03-.915 9.687.224 19.263 18.916-10.8 33.123-16.95 38.836-19.28a273.61 273.61 0 0 0-18.699-.809c-6.757-.06-13.554.136-20.358.597h0zm-40.852 6.287c.032.122.046.252.044.382-.003.058-.504 19 3.72 36.7 12.445-8.872 24.17-16.265 34.584-22.308-1.287-9.385-.552-19.164-.412-20.846-12.848 1.024-25.575 3.018-37.937 6.072zM644.95 162.28c.08.143.137.303.164.475.018.105 5.778 35.083 11.77 49.435a442.6 442.6 0 0 1 35.826-28.848c-4.24-16.902-4.138-35.224-4.094-38.178a202.43 202.43 0 0 0-19.26 6.046c-8.43 3.118-16.594 6.798-24.406 11.07h0zm-34.287 25.05c.253.254.415.605.42.993.001.072.27 24.017 14.567 54.86a424.18 424.18 0 0 1 28.956-28.936c-5.855-13.186-11.5-46.018-12.268-50.507-8.047 4.585-15.703 9.815-22.866 15.728a152.91 152.91 0 0 0-8.809 7.863h0zm-21.617 26.218a1.46 1.46 0 0 1 .682 1.176c.776 20.247 9.503 48.28 12.33 56.896a409.68 409.68 0 0 1 21.481-26.098c-13.052-27.656-15.017-50.184-15.312-55.8-7.06 7.127-13.494 15.052-19.182 23.817h0zm-16.167 32.774a1.45 1.45 0 0 1 .977 1.268c1.567 22.865 6.906 43.997 9.04 51.742a398.17 398.17 0 0 1 17.044-24.878c-1.7-5.054-11.628-35.164-13.013-57.542a154.66 154.66 0 0 0-6.932 12.604c-2.623 5.342-5 10.94-7.115 16.806h0zm-9.453 39.245c.654.08 1.188.6 1.266 1.28.004.067 2.315 21.03 5.998 33.222 3.273-5.974 6.658-11.776 10.134-17.412-1.172-3.994-7.478-26.354-9.606-51.507-3.476 10.62-6.112 22.08-7.792 34.416h0zm-1.53 51.52a391.38 391.38 0 0 1 6.893-13.508c-2.97-8.244-5.174-22.523-6.25-30.53l-.284 2.958a251.49 251.49 0 0 0-.968 21.38 290.42 290.42 0 0 0 .61 19.7h0zm67.7 6.044c-22.038-3.44-52.192-15.096-58.536-17.608-2.557 4.8-5.044 9.7-7.453 14.73 24.748 5.548 46.64 6.1 66 2.877h0zm37.134-11.94c-10.435-2.746-66.138-17.602-83.8-26.412-3.606 5.872-7.112 11.93-10.5 18.172 7.435 2.935 40.746 15.718 62.262 17.916a1.46 1.46 0 0 1 1.257 1.051c11.107-2.392 21.344-6.05 30.77-10.727zm33.748-23.688L602.08 276.44c-6.065 8.192-11.958 16.808-17.614 25.865 19.366 9.564 84.478 26.465 84.673 26.515.388.1.7.35.888.672 11.3-6 21.407-13.488 30.44-21.986h0zm24.254-28.437l-99.024-31.6c-7.413 8.3-14.713 17.128-21.8 26.538 16.002 5.412 97.986 30.918 98.232 30.996.228.07.426.193.585.35 8.216-8.04 15.513-16.923 21.997-26.272h0zm19.476-33.955c-10.66-5.46-79.686-26.496-87.492-28.868a423.51 423.51 0 0 0-28.872 28.84l98.235 31.36a1.46 1.46 0 0 1 .339.159c4.226-6.28 8.093-12.75 11.63-19.307a261.04 261.04 0 0 0 6.16-12.183zm16.36-42.23l-65.953-17.347c-11.372 8.216-23.315 17.667-35.383 28.443 13.082 3.988 75.612 23.156 86.206 28.5 6.237-13.498 11.204-27.008 15.13-39.606zm8.752-33.372l-.033-.01c-9.42-3.075-33.984-7.36-37.645-8a437.83 437.83 0 0 0-33.959 21.832l63.737 16.762c3.398-11.212 5.974-21.633 7.9-30.594zm5.027-29.202c-3.565 1.4-18.203 7.344-38.75 18.94 8 1.428 26.175 4.8 34.33 7.404 2.702-13.045 3.973-22.594 4.42-26.344h0zm-215.39 199.865c-.57-7.823-.833-15.417-.805-22.785.03-7.483.36-14.7.98-21.65 2.317-26.003 8.634-48.436 18.05-67.6 10.188-20.737 24-37.642 40.304-51.098 15.108-12.468 32.34-21.96 50.795-28.787 19.8-7.32 41.013-11.58 62.532-13.155a271.76 271.76 0 0 1 21.92-.7 278.31 278.31 0 0 1 22.197 1.09v-.005c.834.073 1.56.48 2.063 1.077.497.594.77 1.376.7 2.208l-.03.2c-.298 2.867-6.913 64.296-36.844 119.8-30.273 56.144-84.298 106.252-179.517 84.184-.68-.16-1.253-.536-1.664-1.04-.4-.5-.644-1.105-.677-1.76h-.003M329.07 523.985s-28.898-14.904-23.6-51.498-17.08-48.167-22.76-59.054 7.05-28.442 5.604-43.814-19.176-19.486-10.87-40.574 1.28-29.093-9.657-51.682 5.27-57.108 12.972-56.916-1.688 8.264 5.082 23.28 35.33 19.585 44.267 32.14-6.77 29.2 3.425 46.137 40.58 11.7 48.615 28.136-11.12 36.156-5.55 53.397 26.1 27.014 34.725 40.867 24.8 40.385-1.677 72.068-80.578 7.513-80.578 7.513" class="G"/><g class="K"><path d="M277.59 251.777a1.88 1.88 0 0 1 1.078-2.428 1.88 1.88 0 0 1 2.43 1.076L400.64 560.97l-4.5-1.224-118.552-307.97"/><path d="M305.112 486.87l-.277-4.47 78.518 44.127-6.946-18.047c-.035-.074-.066-.153-.1-.23l-3.56-9.254-66.485-37.362-.166-4.408 64.53 36.265-6.283-16.323-61.42-34.517a49.47 49.47 0 0 0-2.656-5.808l61.957 34.817-16.858-43.796-61.482-34.55 1.114-3.688 58.25 32.734-6.812-17.696-48.44-27.22c.206-1.37.346-2.737.4-4.1l45.92 25.804-5.124-13.3a1.89 1.89 0 0 1-.073-.189l-14.887-38.675-35.947-20.2 1.18-3.652 32.647 18.347-12.997-33.767c-.03-.064-.055-.13-.076-.196l-21.458-55.74a1.88 1.88 0 0 1 1.078-2.428 1.88 1.88 0 0 1 2.43 1.076l19.498 50.65 11.142-38.064 3.415 1.744-12.33 42.108 14.65 38.06a1.23 1.23 0 0 1 .058.153l13.55 35.195 21.392-45.863 3.636 1.112-23.15 49.633 5.163 13.415 28.186-59.956 3.54 1.328-29.446 62.636.448.25a1.88 1.88 0 0 1 .142 3.196l19.998 51.946 20.878-44.41 2.618 3.287-21.623 45.993 3.17 8.23 23.154-49.25 2.88 2.735-24.16 51.385 10.38 26.963 29.66-63.092 2.58 3.372-30.366 64.6 8.63 22.418-4.487 1.186-79.193-44.506"/></g><path d="M315.63 600.707c-7.952-6.187-16.124-8.99-20.45-12.993-8.612-7.97-2.808-27.857-9.056-41.223s-23.524-11.36-22.835-33.004-8.212-26.587-25.32-43.39-13.635-53.072-6.644-55.38 1.14 7.98 12.064 19.312c10.923 11.326 38.088 6.25 50.168 14.67s3.3 28.44 17.93 40.405 40.27-2.54 52.79 9.67 1.63 36.105 12.19 49.825 32.165 15.9 44.392 25.59c6.874 5.444 17.182 13.73 22.466 26.52H315.63" fill="#c4cdec"/><path d="M413.497 600.707l2.846-29.563 3.405 2.205-2.635 27.358h-3.616zm-23.645 0l3.823-39.712 3.47 1.533-3.674 38.18h-3.62zm-9.73 0l4.312-44.788 3.412 2.113-4.108 42.675h-3.616zm-6.545 0l-17.373-20.174-66.43-11.3-.185-3.676 62.938 10.704-11.824-13.726-52.336-8.902c-.256-1.3-.57-2.575-.958-3.8l49.617 8.442-8.893-10.327c-.046-.048-.087-.097-.127-.15l-25.84-30-38.84-6.608-.113-3.665 35.275 5.998-59.932-69.6c-.648-.75-.563-1.886.188-2.532s1.885-.564 2.532.19l33.84 39.292-2.224-37.83 3.633.472 2.46 41.85 25.427 29.525a1.87 1.87 0 0 1 .101.119l23.516 27.306 4.488-48.147 3.628-.17-4.856 52.104 8.963 10.404 6.065-63.008 3.612.055-6.337 65.827.485.085c.98.163 1.64 1.088 1.475 2.068-.048.284-.162.54-.32.76l33.084 38.415h-4.74" fill="#e5eaf8"/><path d="M74.024 611.73h-7.26a5.53 5.53 0 0 1-5.511-5.511 5.53 5.53 0 0 1 5.511-5.513h7.26a5.53 5.53 0 0 1 5.512 5.513 5.53 5.53 0 0 1-5.512 5.511zm17.7 0H890.74a5.53 5.53 0 0 0 5.512-5.511 5.53 5.53 0 0 0-5.512-5.513H91.725a5.53 5.53 0 0 0-5.511 5.513 5.53 5.53 0 0 0 5.511 5.511z" class="E"/><path d="M152.308 382.1a15.57 15.57 0 0 0-3.477 1.481c-1.1.642-2.135 1.416-3.052 2.3-.18.172-.444.2-.65.08l-4.144-2.395a1.03 1.03 0 0 0-.752-.085 1.02 1.02 0 0 0-.621.473l-.018.03-2.9 5.024a1.02 1.02 0 0 0 .374 1.398l.03.017 4.1 2.363a.54.54 0 0 1 .258.6c-.15.608-.266 1.236-.344 1.876-.076.624-.115 1.26-.115 1.912a15.8 15.8 0 0 0 .115 1.91c.078.64.193 1.268.345 1.874a.55.55 0 0 1-.288.62l-4.1 2.358v.002a1.03 1.03 0 0 0-.474.62c-.068.25-.04.535.1.776l2.918 5.053c.14.246.368.407.62.476a1 1 0 0 0 .773-.102l.032-.014 4.095-2.365a.54.54 0 0 1 .647.08 15.71 15.71 0 0 0 3.052 2.298c1.1.63 2.262 1.134 3.5 1.488a.55.55 0 0 1 .395.527v4.756c0 .277.116.536.3.72a1.02 1.02 0 0 0 .72.298h5.836a1.02 1.02 0 0 0 1.02-1.019v-4.76c0-.257.18-.472.42-.53a15.48 15.48 0 0 0 3.476-1.482c1.112-.64 2.136-1.414 3.054-2.298a.54.54 0 0 1 .676-.062l4.096 2.364a1.03 1.03 0 0 0 .776.1 1.02 1.02 0 0 0 .62-.476l.017-.028 2.9-5.025a1.02 1.02 0 0 0 .1-.776 1.03 1.03 0 0 0-.472-.621l-4.12-2.378a.54.54 0 0 1-.257-.6c.15-.608.266-1.236.344-1.876a15.8 15.8 0 0 0 .114-1.91 15.86 15.86 0 0 0-.114-1.915c-.078-.64-.194-1.265-.344-1.873a.54.54 0 0 1 .288-.618l4.1-2.362c.24-.14.404-.368.472-.622s.04-.532-.1-.773l-.015-.03-2.902-5.027a1.02 1.02 0 0 0-.62-.473c-.255-.067-.534-.042-.776.098v.002l-4.123 2.38c-.22.125-.492.084-.663-.092a15.66 15.66 0 0 0-3.04-2.287 15.46 15.46 0 0 0-3.5-1.488.55.55 0 0 1-.396-.525v-4.756a1.01 1.01 0 0 0-.3-.72 1.02 1.02 0 0 0-.721-.298h-5.836a1.02 1.02 0 0 0-1.021 1.019v4.756c0 .26-.178.475-.42.532h0zm-1.916 8.795a8.84 8.84 0 0 1 12.549 0 8.84 8.84 0 0 1 2.599 6.276c0 2.45-.993 4.668-2.6 6.272a8.85 8.85 0 0 1-12.549 0 8.84 8.84 0 0 1-2.599-6.272c0-2.452.994-4.672 2.6-6.276zm-61.617-104.97a35.56 35.56 0 0 0-3.91 1.956 36.2 36.2 0 0 0-3.684 2.439 36.53 36.53 0 0 0-3.359 2.869.25.25 0 0 1-.146.067c-.046.004-.114-.004-.16-.03l-9.34-5.393c-.37-.202-.768-.323-1.17-.368a3.34 3.34 0 0 0-2.372.653 3.2 3.2 0 0 0-.839.955c-2.256 3.653-4.398 7.614-6.557 11.35a3.25 3.25 0 0 0-.406 1.21c-.055.432-.024.864.085 1.27a3.27 3.27 0 0 0 .563 1.143 3.23 3.23 0 0 0 .954.839c2.977 1.838 6.208 3.585 9.255 5.344.048.026.084.07.105.12s.028.1.015.162l-.213.864.012.004a40.19 40.19 0 0 0-.26 1.28c-.135.74-.246 1.47-.334 2.183a36.82 36.82 0 0 0-.198 2.193 37.07 37.07 0 0 0-.068 2.216c0 .722.023 1.46.068 2.214a37 37 0 0 0 .198 2.196 38.22 38.22 0 0 0 .335 2.182 38.14 38.14 0 0 0 .462 2.147c.015.057.008.116-.018.168s-.066.1-.113.124c-3.4 1.817-6.854 3.955-10.217 5.897l.12.15-.102.128a3.24 3.24 0 0 0-.562 1.144c-.108.4-.14.84-.085 1.27a3.2 3.2 0 0 0 .408 1.208l7.046 12.203.13-.078c.07.064.142.126.218.182.343.26.734.453 1.143.562a3.29 3.29 0 0 0 1.268.083 3.17 3.17 0 0 0 1.176-.387c3.083-1.634 6.256-3.612 9.3-5.368a.29.29 0 0 1 .155-.028c.055.004.112.032.152.07a36.54 36.54 0 0 0 3.356 2.867 36.52 36.52 0 0 0 3.681 2.436 35.43 35.43 0 0 0 3.938 1.965 35.75 35.75 0 0 0 4.147 1.472.26.26 0 0 1 .135.091.24.24 0 0 1 .052.158v10.686a3.22 3.22 0 0 0 .25 1.244c.167.402.4.76.712 1.058a3.22 3.22 0 0 0 1.055.708 3.19 3.19 0 0 0 1.244.25h13.116a3.19 3.19 0 0 0 1.242-.25 3.32 3.32 0 0 0 1.06-.708 3.27 3.27 0 0 0 .708-1.058 3.25 3.25 0 0 0 .249-1.244v-10.688a.28.28 0 0 1 .05-.162.24.24 0 0 1 .147-.086l.04-.018a35.81 35.81 0 0 0 4.12-1.46 36.43 36.43 0 0 0 3.913-1.957 36.1 36.1 0 0 0 3.682-2.438 36.61 36.61 0 0 0 3.36-2.869.24.24 0 0 1 .151-.071c.057-.005.117.008.166.042l9.256 5.342a3.19 3.19 0 0 0 1.201.403 3.28 3.28 0 0 0 1.27-.083 3.3 3.3 0 0 0 1.144-.562 3.27 3.27 0 0 0 .823-.927c2.43-3.9 4.728-8.193 7.048-12.207l-.124-.074a3.65 3.65 0 0 0 .053-.31 3.31 3.31 0 0 0-.083-1.268c-.1-.4-.3-.798-.565-1.142a3.21 3.21 0 0 0-.95-.84l-9.257-5.344c-.047-.027-.083-.07-.105-.12s-.028-.1-.014-.166l.24-.978-.013-.003a36.04 36.04 0 0 0 .232-1.16c.135-.74.248-1.47.335-2.185a36.26 36.26 0 0 0 .198-2.196c.046-.755.07-1.492.07-2.214a36.37 36.37 0 0 0-.07-2.213 37.3 37.3 0 0 0-.198-2.2 36.79 36.79 0 0 0-.335-2.183c-.136-.735-.3-1.45-.46-2.14-.014-.057-.007-.116.018-.172s.066-.096.118-.12l9.245-5.34a3.17 3.17 0 0 0 .95-.84c.262-.345.453-.736.562-1.14a3.3 3.3 0 0 0 .083-1.266 3.25 3.25 0 0 0-.389-1.18c-2.204-4.083-4.73-8.198-7.062-12.235l-.132.08c-.07-.064-.142-.124-.217-.183a3.36 3.36 0 0 0-1.144-.563 3.35 3.35 0 0 0-1.268-.084 3.22 3.22 0 0 0-1.203.4l-.685.394.003.006-8.586 4.955a.24.24 0 0 1-.164.032.24.24 0 0 1-.147-.071l-.023-.024a36.41 36.41 0 0 0-3.352-2.856 36.44 36.44 0 0 0-3.663-2.425 35.58 35.58 0 0 0-3.937-1.965 35.93 35.93 0 0 0-4.147-1.471c-.056-.016-.103-.05-.134-.1-.037-.048-.058-.102-.054-.158v-10.687a3.25 3.25 0 0 0-.25-1.245 3.24 3.24 0 0 0-.712-1.058 3.35 3.35 0 0 0-1.056-.708c-.386-.16-.807-.25-1.242-.25H96.397c-.438 0-.858.1-1.244.25a3.4 3.4 0 0 0-1.059.708c-.6.592-.958 1.407-.958 2.303V284.2c0 .062-.02.118-.053.165a.28.28 0 0 1-.144.087l-.042.014a35.99 35.99 0 0 0-4.122 1.463h0zm4.6.405a33.83 33.83 0 0 0-3.853 1.374 33.76 33.76 0 0 0-3.7 1.848 34.42 34.42 0 0 0-3.487 2.31 34.58 34.58 0 0 0-3.184 2.72 2.19 2.19 0 0 1-1.252.596c-.463.057-.945-.037-1.362-.28l-9.305-5.373a1.29 1.29 0 0 0-.452-.14 1.35 1.35 0 0 0-.514.04c-.167.046-.33.122-.47.23a1.34 1.34 0 0 0-.338.385c-2.238 3.387-4.485 7.763-6.557 11.354-.1.153-.143.317-.165.482a1.37 1.37 0 0 0 .041.528 1.35 1.35 0 0 0 .228.47 1.34 1.34 0 0 0 .387.34c2.763 1.825 6.32 3.653 9.248 5.344.43.248.742.616.922 1.036a2.14 2.14 0 0 1 .138.456l.2.062-.213.863c-.167.68-.315 1.357-.44 2.032a33.71 33.71 0 0 0-.312 2.064 44.65 44.65 0 0 0-.2 2.08 34.36 34.36 0 0 0-.061 2.102c0 .73.02 1.432.06 2.1a34.42 34.42 0 0 0 .19 2.082 33.64 33.64 0 0 0 .312 2.062 35.76 35.76 0 0 0 .439 2.035 2.17 2.17 0 0 1-.14 1.443 2.18 2.18 0 0 1-.989 1.025l-8.2 4.73v.004l-.97.56c-.155.088-.284.206-.387.34a1.37 1.37 0 0 0-.228.47c-.048.176-.062.358-.04.53a1.28 1.28 0 0 0 .165.48l6.557 11.353a1.32 1.32 0 0 0 .338.386c.14.106.3.184.47.23a1.38 1.38 0 0 0 .526.038 1.28 1.28 0 0 0 .48-.163c2.934-1.843 6.244-3.603 9.27-5.35a2.21 2.21 0 0 1 1.353-.278 2.18 2.18 0 0 1 1.252.59l.005.004a34.27 34.27 0 0 0 3.187 2.719c1.113.838 2.277 1.612 3.483 2.3 1.195.7 2.44 1.312 3.726 1.86a34.26 34.26 0 0 0 3.922 1.388 2.19 2.19 0 0 1 1.147.786c.282.374.442.836.443 1.324l.003 10.686c0 .18.035.352.1.502a1.29 1.29 0 0 0 .292.43 1.32 1.32 0 0 0 .431.293 1.31 1.31 0 0 0 .502.099H109.5a1.32 1.32 0 0 0 .501-.099 1.27 1.27 0 0 0 .433-.3c.123-.127.224-.275.3-.434.064-.15.1-.322.1-.502v-10.688a2.18 2.18 0 0 1 .475-1.355 2.2 2.2 0 0 1 1.212-.78 33.5 33.5 0 0 0 3.852-1.373 34.15 34.15 0 0 0 3.702-1.848 34.29 34.29 0 0 0 3.484-2.31 34.3 34.3 0 0 0 3.186-2.72c.372-.355.84-.558 1.318-.6a2.18 2.18 0 0 1 1.406.353l9.15 5.28a1.3 1.3 0 0 0 .485.163c.172.023.352.007.528-.04.17-.046.33-.124.47-.23a1.31 1.31 0 0 0 .34-.386l6.56-11.344a1.3 1.3 0 0 0 .164-.483 1.43 1.43 0 0 0-.039-.527c-.047-.172-.124-.333-.23-.47a1.19 1.19 0 0 0-.378-.338l-9.257-5.345a2.17 2.17 0 0 1-.923-1.035 2.2 2.2 0 0 1-.116-.352l-.24-.05.243-.98c.168-.68.314-1.36.438-2.033.12-.658.226-1.347.312-2.064a32.66 32.66 0 0 0 .191-2.082c.04-.67.06-1.37.06-2.1s-.02-1.43-.06-2.1c-.04-.684-.104-1.38-.2-2.078l-.314-2.07a33.73 33.73 0 0 0-.438-2.029c-.124-.504-.063-1.012.138-1.445a2.2 2.2 0 0 1 .986-1.023l9.165-5.293a1.22 1.22 0 0 0 .383-.339 1.3 1.3 0 0 0 .229-.471 1.42 1.42 0 0 0 .039-.525 1.31 1.31 0 0 0-.164-.484c-2.24-3.328-4.48-7.775-6.556-11.355a1.33 1.33 0 0 0-.34-.385 1.37 1.37 0 0 0-.996-.269c-.163.02-.328.076-.486.166l-9.26 5.346a2.17 2.17 0 0 1-1.388.277 2.2 2.2 0 0 1-1.253-.62c-1.005-.97-2.065-1.872-3.17-2.704a34.27 34.27 0 0 0-3.473-2.298c-1.196-.7-2.44-1.312-3.725-1.858-1.263-.537-2.572-1-3.92-1.388-.475-.137-.87-.42-1.148-.788a2.2 2.2 0 0 1-.442-1.322l-.004-10.687a1.28 1.28 0 0 0-.099-.501 1.33 1.33 0 0 0-.292-.431c-.12-.125-.268-.224-.43-.293a1.32 1.32 0 0 0-.501-.098h-13.12a1.31 1.31 0 0 0-.502.098 1.39 1.39 0 0 0-.434.29 1.33 1.33 0 0 0-.388.935v10.687a2.19 2.19 0 0 1-.47 1.357 2.2 2.2 0 0 1-1.216.777h0zm2.3 15.384a19.02 19.02 0 0 0-6.155 4.123 18.98 18.98 0 0 0-4.122 6.156c-.925 2.23-1.434 4.683-1.434 7.257s.5 5.027 1.434 7.26c.96 2.313 2.37 4.403 4.122 6.155a19.03 19.03 0 0 0 6.156 4.122 18.92 18.92 0 0 0 7.257 1.435 18.91 18.91 0 0 0 7.254-1.435 18.98 18.98 0 0 0 6.16-4.122c1.753-1.752 3.164-3.842 4.122-6.155.924-2.232 1.435-4.684 1.435-7.26a18.9 18.9 0 0 0-1.435-7.257c-.958-2.315-2.368-4.404-4.122-6.156a19.02 19.02 0 0 0-6.157-4.123 18.91 18.91 0 0 0-7.257-1.434c-2.574 0-5.026.5-7.258 1.434zm-7.526 2.754a20.95 20.95 0 0 1 6.792-4.54c2.467-1.02 5.165-1.585 8-1.585s5.525.564 8 1.585c2.565 1.06 4.87 2.615 6.793 4.54a20.97 20.97 0 0 1 4.538 6.792c1.02 2.465 1.584 5.164 1.584 8a20.86 20.86 0 0 1-1.584 7.994 20.97 20.97 0 0 1-4.538 6.79 20.91 20.91 0 0 1-6.79 4.537c-2.464 1.023-5.166 1.587-7.994 1.587a20.84 20.84 0 0 1-7.991-1.585c-2.565-1.062-4.87-2.615-6.793-4.54a20.97 20.97 0 0 1-4.537-6.79c-1.02-2.467-1.585-5.167-1.585-7.994a20.83 20.83 0 0 1 1.585-7.99 20.95 20.95 0 0 1 4.537-6.792m374.887-173.884a15.59 15.59 0 0 0-3.477 1.481 15.75 15.75 0 0 0-3.052 2.3.54.54 0 0 1-.649.08l-4.146-2.395c-.237-.126-.505-.15-.752-.085a1.01 1.01 0 0 0-.621.475l-.017.026-2.902 5.026a1.03 1.03 0 0 0-.1.776 1.02 1.02 0 0 0 .475.621l.028.02 4.1 2.36c.213.124.312.37.256.6v.001a15.52 15.52 0 0 0-.343 1.875 15.81 15.81 0 0 0-.116 1.912c0 .648.04 1.288.116 1.9.077.64.193 1.267.344 1.876a.55.55 0 0 1-.287.62l-4.1 2.36c-.243.14-.407.37-.475.62a1.03 1.03 0 0 0 .1.776l2.92 5.054a1.03 1.03 0 0 0 1.395.374l.032-.016 4.094-2.365c.214-.12.476-.084.647.08a15.77 15.77 0 0 0 3.052 2.3c1.088.63 2.263 1.132 3.5 1.5.24.067.396.287.397.523v4.757a1.02 1.02 0 0 0 .299.72c.187.184.44.3.72.3h5.838c.28 0 .533-.116.718-.3s.302-.44.302-.72v-4.757c0-.256.178-.474.418-.53a15.63 15.63 0 0 0 3.478-1.482 15.85 15.85 0 0 0 3.052-2.299c.186-.18.468-.2.676-.063l4.096 2.364c.24.14.52.167.776.102a1.03 1.03 0 0 0 .62-.476l.017-.028 2.9-5.028c.14-.24.168-.52.102-.774s-.234-.48-.474-.62l-4.12-2.377a.55.55 0 0 1-.257-.602h-.001c.152-.6.268-1.234.342-1.874a15.23 15.23 0 0 0 .118-1.912c0-.65-.04-1.3-.118-1.912a14.6 14.6 0 0 0-.342-1.875c-.063-.253.064-.5.288-.62l4.1-2.36a1.03 1.03 0 0 0 .372-1.396l-.016-.03-2.9-5.024a1.01 1.01 0 0 0-.62-.475 1.02 1.02 0 0 0-.774.1v.001l-4.125 2.38a.54.54 0 0 1-.66-.091 15.76 15.76 0 0 0-3.041-2.288 15.54 15.54 0 0 0-3.502-1.488c-.237-.07-.393-.285-.394-.522V125.3a1.01 1.01 0 0 0-1.02-1.02h-5.838a1.02 1.02 0 0 0-1.019 1.02v4.758c0 .257-.178.473-.42.53h0zm-1.917 8.796c1.607-1.607 3.825-2.6 6.275-2.6a8.85 8.85 0 0 1 6.276 2.599 8.84 8.84 0 0 1 0 12.549c-1.608 1.606-3.826 2.6-6.276 2.6a8.85 8.85 0 0 1-6.275-2.599c-1.605-1.605-2.6-3.824-2.6-6.274s.994-4.67 2.6-6.275zm434.468 160.088a15.62 15.62 0 0 0-3.477 1.48 15.79 15.79 0 0 0-3.052 2.3c-.18.172-.446.198-.65.08l-4.144-2.393a1.01 1.01 0 0 0-.752-.086c-.256.067-.48.23-.623.474l-.018.028-2.898 5.024a1.02 1.02 0 0 0 .375 1.397l.025.02 4.092 2.36a.55.55 0 0 1 .258.601 15.81 15.81 0 0 0-.347 1.876 16.64 16.64 0 0 0-.112 1.911c0 .648.04 1.286.112 1.912a16.06 16.06 0 0 0 .347 1.874.55.55 0 0 1-.29.619l-4.085 2.36c-.243.14-.407.37-.477.62a1.01 1.01 0 0 0 .102.778l2.916 5.052c.142.242.367.406.623.474a1.02 1.02 0 0 0 .773-.098l.03-.018 4.095-2.365a.55.55 0 0 1 .648.08 15.77 15.77 0 0 0 3.052 2.3c1.088.628 2.26 1.13 3.5 1.486a.55.55 0 0 1 .396.525v4.756a1.02 1.02 0 0 0 .302.72c.184.185.44.3.72.3h5.837c.28 0 .532-.115.72-.3s.302-.44.302-.72v-4.756c0-.257.177-.475.417-.532a15.69 15.69 0 0 0 3.479-1.479 15.97 15.97 0 0 0 3.052-2.301c.185-.18.47-.2.677-.063l4.093 2.366a1.02 1.02 0 0 0 .776.098c.254-.068.48-.232.62-.474l.02-.028 2.9-5.028a1.02 1.02 0 0 0 .099-.774c-.068-.253-.232-.48-.472-.62l-4.12-2.377a.54.54 0 0 1-.257-.602c.15-.6.265-1.234.344-1.873a16.27 16.27 0 0 0 .114-1.913 16.23 16.23 0 0 0-.114-1.912c-.08-.64-.194-1.267-.344-1.875-.063-.253.062-.508.286-.62l4.1-2.36a1.02 1.02 0 0 0 .373-1.394l-.018-.03-2.9-5.024c-.143-.243-.37-.407-.623-.474s-.533-.042-.776.098v.001l-4.122 2.38c-.22.128-.492.083-.662-.1a15.61 15.61 0 0 0-3.038-2.29 15.45 15.45 0 0 0-3.503-1.486.55.55 0 0 1-.393-.526v-4.756c0-.28-.118-.534-.302-.72a1.01 1.01 0 0 0-.72-.3h-5.837c-.28 0-.535.115-.72.3a1.02 1.02 0 0 0-.302.72v4.756a.54.54 0 0 1-.42.53h0zm-1.917 8.796a8.85 8.85 0 0 1 6.276-2.599c2.45 0 4.666.994 6.273 2.6a8.85 8.85 0 0 1 0 12.549c-1.607 1.606-3.823 2.6-6.273 2.6s-4.67-.993-6.276-2.6a8.85 8.85 0 0 1 0-12.549z" fill="#c4cdec"/><path d="M927.096 360.603a1.52 1.52 0 1 0-3.041 0v3.58h-3.582a1.52 1.52 0 0 0-1.52 1.52c0 .84.68 1.524 1.52 1.524h3.582v3.577a1.52 1.52 0 1 0 3.041 0v-3.577h3.58c.84 0 1.522-.683 1.522-1.524a1.52 1.52 0 0 0-1.522-1.52h-3.58v-3.58z" class="G"/><path d="M598.48 341.967h-90.69c-3.29 0-5.985 2.692-5.985 5.985s2.696 5.985 5.985 5.985h90.69c3.295 0 5.988-2.693 5.988-5.985s-2.693-5.985-5.988-5.985z" class="E"/><g class="H"><path d="M595.445 299.303h-41.97a.75.75 0 0 0-.716.626l-7.523 53.38c-.046.344.195.628.542.628h57.366c.347 0 .587-.284.54-.628l-7.524-53.38a.75.75 0 0 0-.716-.626z"/><path d="M620.617 341.967H529.93c-3.293 0-5.986 2.692-5.986 5.985s2.693 5.985 5.986 5.985h90.688c3.292 0 5.987-2.693 5.987-5.985s-2.695-5.985-5.987-5.985z"/></g><path d="M666.263 181.697H465.21a3.11 3.11 0 0 0-3.1 3.1V319.25a3.11 3.11 0 0 0 3.1 3.1h201.054a3.11 3.11 0 0 0 3.098-3.1V184.797a3.11 3.11 0 0 0-3.098-3.1z" class="E"/><path d="M676.09 181.697H475.037a3.11 3.11 0 0 0-3.098 3.1V319.25a3.11 3.11 0 0 0 3.098 3.1H676.09a3.11 3.11 0 0 0 3.102-3.1V184.797a3.11 3.11 0 0 0-3.102-3.1z" class="H"/><path d="M674.415 183.715H476.72c-1.13 0-2.055.926-2.055 2.053v121.235a1.28 1.28 0 0 0 1.279 1.278h199.245a1.28 1.28 0 0 0 1.279-1.278V185.768c0-1.127-.926-2.053-2.052-2.053z" class="D"/><path d="M670.66 189.524v112.95H480.472v-112.95H670.66z" fill="#66c0bb"/><path d="M557.943 327.884l-1.984 14.083h-9.123l2.763-19.616h49.72l.693 4.904H558.66a.75.75 0 0 0-.716.629" class="D"/><path d="M480.47 196.02h190.846v-6.496H480.47v6.496zm0 106.455h190.846v-6.498H480.47v6.498z" class="B"/><path d="M481.667 194.64h47.93v-3.737h-47.93v3.737z" class="I"/><path d="M527.297 193.588a.82.82 0 0 0 .818-.817.82.82 0 0 0-.818-.819.82.82 0 0 0-.818.819.82.82 0 0 0 .818.817zm-2.492 0a.82.82 0 0 0 .82-.817c0-.45-.37-.82-.82-.82a.82.82 0 0 0-.818.819.82.82 0 0 0 .818.817zm-2.493 0a.82.82 0 0 0 .821-.817c0-.45-.37-.82-.82-.82a.82.82 0 0 0-.817.819c0 .452.366.817.817.817z" class="F"/><path d="M531.86 194.64h47.93v-3.737h-47.93v3.737z" class="I"/><path d="M577.487 193.588a.82.82 0 0 0 .82-.817.82.82 0 0 0-.82-.819.82.82 0 0 0-.818.819.82.82 0 0 0 .818.817zm-2.5 0a.82.82 0 0 0 .818-.817.82.82 0 0 0-.818-.819c-.45 0-.82.368-.82.82a.82.82 0 0 0 .82.817zm-2.492 0a.82.82 0 0 0 .82-.817.82.82 0 0 0-.82-.819.82.82 0 0 0-.817.819c0 .452.367.817.817.817z" class="F"/></g><g class="B"><path d="M502.527 266.322h-3.974v-7.128h3.974v.736h-3.145v2.296h2.955v.732h-2.955v2.623h3.145v.74zm2.413-2.965v2.965h-.83v-7.128h1.955c.875 0 1.52.167 1.936.502s.63.838.63 1.5c0 .943-.478 1.58-1.433 1.9l1.935 3.204h-.98l-1.726-2.965h-1.487zm0-.712h1.136c.585 0 1.014-.115 1.287-.346s.4-.583.4-1.048c0-.47-.14-.8-.42-1.02s-.722-.312-1.336-.312h-1.078v2.725zm6.173.712v2.965h-.83v-7.128h1.955c.874 0 1.52.167 1.935.502s.63.838.63 1.5c0 .943-.477 1.58-1.433 1.9l1.936 3.204h-.98l-1.726-2.965h-1.487zm0-.712h1.136c.585 0 1.014-.115 1.287-.346s.4-.583.4-1.048c0-.47-.14-.8-.42-1.02s-.722-.312-1.336-.312h-1.077v2.725zm11.53.103c0 1.14-.3 2.038-.868 2.7s-1.376.98-2.403.98c-1.05 0-1.86-.32-2.433-.96s-.853-1.55-.853-2.72c0-1.16.286-2.06.858-2.696s1.384-.96 2.438-.96c1.023 0 1.823.326 2.398.976s.863 1.547.863 2.7zm-5.68 0c0 .965.205 1.698.615 2.2s1 .746 1.794.746c.8 0 1.386-.25 1.8-.746s.605-1.23.605-2.2c0-.96-.202-1.685-.605-2.18s-.993-.746-1.78-.746-1.392.25-1.804.75-.615 1.223-.615 2.175zm8.103.6v2.965h-.828v-7.128h1.955c.874 0 1.52.167 1.935.502s.63.838.63 1.5c0 .943-.478 1.58-1.433 1.9l1.935 3.204h-.98l-1.726-2.965h-1.487zm0-.712h1.136c.585 0 1.015-.115 1.288-.346s.4-.583.4-1.048c0-.47-.14-.8-.42-1.02s-.722-.312-1.336-.312h-1.078v2.725zm23.087-21.594h6.14v5.723h-6.14v12.8h-6.7v-12.8h-20.846v-4.13l20.505-38.243h7.05v36.65zm-20.126 0h13.417v-26.228l-13.417 26.228zm62.576-5.003c0 8.136-1.188 14.226-3.563 18.27-2.375 4.017-6.102 6.026-11.18 6.026-4.927 0-8.604-1.933-11.03-5.8s-3.7-9.677-3.8-17.435v-9.475c0-8.06 1.188-14.074 3.563-18.042 2.4-3.967 6.128-5.95 11.18-5.95 4.978 0 8.654 1.882 11.03 5.647 2.4 3.765 3.664 9.463 3.8 17.094v9.665zm-6.7-9.6c0-5.837-.644-10.133-1.933-12.887-1.288-2.78-3.348-4.17-6.178-4.17-2.754 0-4.775 1.364-6.064 4.093-1.3 2.704-1.958 6.797-2 12.28v11.37c0 5.812.67 10.183 2 13.114 1.34 2.906 3.386 4.36 6.14 4.36 2.73 0 4.738-1.377 6.026-4.13s1.96-6.962 2-12.622V226.46zm40.972 14.592h6.14v5.723h-6.14v12.8h-6.708v-12.8H597.31v-4.13l20.504-38.243h7.05v36.65zm-20.126 0h13.418v-26.228L604.74 241.05z"/><path d="M549.8 290.937h22.7v-7.566h-22.7v7.566zm28.83 0h22.7v-7.566h-22.7v7.566z" class="J"/></g><path d="M555.047 288.362v.988h-.276v-2.376h.65c.292 0 .507.056.646.168s.21.28.21.504c0 .314-.16.526-.478.637l.646 1.067h-.327l-.575-.988h-.496zm0-.237h.38c.195 0 .338-.04.43-.115s.136-.195.136-.35-.046-.27-.14-.34-.24-.104-.445-.104h-.36v.91zm3.106 1.225h-1.325v-2.376h1.325v.246h-1.05v.765h.985v.244h-.985v.874h1.05v.247zm.528 0v-2.376h.276v2.126h1.048v.25h-1.324zm3.79-1.19c0 .38-.096.68-.29.897s-.46.327-.8.327c-.35 0-.62-.107-.81-.32s-.285-.517-.285-.907.096-.687.287-.9.46-.32.812-.32c.34 0 .608.108.8.325s.287.516.287.897zm-1.893 0c0 .322.068.566.205.733s.337.25.598.25.462-.083.596-.25.202-.4.202-.733-.067-.562-.202-.726-.33-.25-.593-.25-.464.083-.6.25-.205.408-.205.725zm3.918 1.19l-.295-.755h-.953l-.292.755h-.28l.94-2.385h.233l.934 2.385h-.286zm-.382-1.004l-.276-.736c-.036-.093-.072-.208-.1-.343a3.03 3.03 0 0 1-.103.343l-.28.736h.768zm2.892-.206c0 .392-.107.692-.32.9s-.518.3-.918.3h-.658v-2.376h.728c.37 0 .657.103.86.307s.308.49.308.86zm-.293.01c0-.3-.078-.543-.234-.7s-.386-.236-.692-.236h-.402v1.898h.337c.33 0 .577-.08.742-.242s.25-.402.25-.72zm2.628 1.2h-.276v-1.118h-1.252v1.118h-.276v-2.376h.276v1.01h1.252v-1.01h.276v2.376zm2.716-1.19c0 .38-.097.68-.3.897s-.458.327-.8.327c-.35 0-.62-.107-.81-.32s-.284-.517-.284-.907.095-.687.286-.9.46-.32.812-.32c.342 0 .608.108.8.325s.288.516.288.897zm-1.894 0c0 .322.07.566.205.733s.337.25.598.25.462-.083.597-.25.2-.4.2-.733-.067-.562-.2-.726-.33-.25-.594-.25-.463.083-.6.25-.205.408-.205.725zm3.477 1.19l-.807-2.106h-.013a6.38 6.38 0 0 1 .023.595v1.51h-.255v-2.376h.416l.753 1.96h.013l.76-1.96h.412v2.376h-.276v-1.53l.023-.572h-.013l-.813 2.103h-.222zm3.28 0h-1.324v-2.376h1.324v.246h-1.048v.765h.985v.244h-.985v.874h1.048v.247z" class="F"/><g class="J"><path d="M495.137 271.195h160.855c.563 0 1.024.46 1.024 1.022s-.46 1.026-1.024 1.026H495.137a1.03 1.03 0 0 1-1.024-1.026 1.03 1.03 0 0 1 1.024-1.022zm12.603 4.845H643.4a1.03 1.03 0 0 1 1.024 1.024c0 .563-.462 1.023-1.024 1.023H507.74c-.563 0-1.024-.46-1.024-1.023a1.03 1.03 0 0 1 1.024-1.024z" class="B"/><path d="M574.153 335.976h117.9c6.587 0 11.976 5.388 11.976 11.976s-5.39 11.975-11.976 11.975h-117.9c-6.582 0-11.973-5.4-11.973-11.975s5.39-11.976 11.973-11.976z" class="D"/><path d="M551.65 335.976h54.606c6.584 0 11.975 5.388 11.975 11.976s-5.39 11.975-11.975 11.975H551.65c-6.586 0-11.976-5.4-11.976-11.975s5.4-11.976 11.976-11.976z" class="C"/><path d="M490.763 355.565h365.59c3.687 0 6.703 3.018 6.703 6.703v31.283c0 3.684-3.016 6.7-6.703 6.7h-365.59c-3.687 0-6.703-3.017-6.703-6.7v-31.283c0-3.685 3.016-6.703 6.703-6.703z" class="D"/><g class="E"><path d="M490.577 355.565h365.96c3.587 0 6.52 3.018 6.52 6.703v12.304c0 3.687-2.932 6.7-6.52 6.7h-365.96c-3.585 0-6.517-3.014-6.517-6.7v-12.304c0-3.685 2.932-6.703 6.517-6.703z"/><path d="M390.304 356.12h101.15c3.822 0 6.95 3.13 6.95 6.947V593.45c0 3.817-3.128 6.947-6.95 6.947h-101.15c-3.823 0-6.95-3.13-6.95-6.947V363.068c0-3.817 3.126-6.947 6.95-6.947"/></g><path d="M490.204 356.12h90.548a6.24 6.24 0 0 1 6.22 6.22v231.836a6.24 6.24 0 0 1-6.22 6.221h-90.548a6.24 6.24 0 0 1-6.221-6.221V362.34a6.24 6.24 0 0 1 6.221-6.22z" class="D"/><path d="M486.344 347.952h392.35a2.29 2.29 0 0 1 2.284 2.284v10.66a2.29 2.29 0 0 1-2.284 2.284h-392.35a2.29 2.29 0 0 1-2.284-2.284v-10.66a2.29 2.29 0 0 1 2.284-2.284z" fill="#d47a40"/><path d="M373.8 347.952h112.016a2.29 2.29 0 0 1 2.284 2.284v10.66a2.29 2.29 0 0 1-2.284 2.284H373.8a2.29 2.29 0 0 1-2.284-2.284v-10.66a2.29 2.29 0 0 1 2.284-2.284z" fill="#b35d37"/><path d="M496.876 370.888h77.203c2.85 0 5.186 2.333 5.186 5.185v59.844c0 2.85-2.336 5.186-5.186 5.186h-77.203c-2.853 0-5.188-2.335-5.188-5.186v-59.844c0-2.852 2.335-5.185 5.188-5.185z" class="B"/><path d="M579.205 436.692h-76.15c-2.03 0-3.8-1.184-4.65-2.895a5.13 5.13 0 0 1-.537-2.293V371.66a5.05 5.05 0 0 1 .059-.773h-1.05c-2.853 0-5.188 2.333-5.188 5.185v59.844c0 2.85 2.335 5.186 5.188 5.186h77.203c2.588 0 4.75-1.923 5.126-4.41" class="I"/><path d="M516.847 375.028h37.26a2.01 2.01 0 0 1 2.002 2.003v.63a2.01 2.01 0 0 1-2.002 2.003h-37.26a2.01 2.01 0 0 1-2.003-2.003v-.63a2.01 2.01 0 0 1 2.003-2.003" class="C"/><path d="M496.876 444.82h77.203c2.85 0 5.186 2.334 5.186 5.188v59.843c0 2.85-2.336 5.187-5.186 5.187h-77.203c-2.853 0-5.188-2.336-5.188-5.187V450.01c0-2.854 2.335-5.188 5.188-5.188z" class="B"/><path d="M579.205 510.624h-76.15a5.2 5.2 0 0 1-4.65-2.893 5.13 5.13 0 0 1-.537-2.294v-59.844c0-.26.02-.518.06-.772h-1.05c-2.853 0-5.188 2.334-5.188 5.188v59.843c0 2.85 2.335 5.187 5.188 5.187h77.203c2.588 0 4.75-1.924 5.126-4.415" class="I"/><path d="M516.847 448.963h37.26a2.01 2.01 0 0 1 2.002 2.002v.628a2.01 2.01 0 0 1-2.002 2.003h-37.26a2.01 2.01 0 0 1-2.003-2.003v-.628a2.01 2.01 0 0 1 2.003-2.002" class="C"/><path d="M496.876 518.755h77.203c2.85 0 5.186 2.334 5.186 5.19v59.84c0 2.854-2.336 5.187-5.186 5.187h-77.203c-2.853 0-5.188-2.333-5.188-5.187v-59.84c0-2.855 2.335-5.19 5.188-5.19" class="B"/><path d="M579.205 584.56h-76.15c-2.03 0-3.8-1.184-4.65-2.893-.345-.694-.537-1.472-.537-2.296V519.53c0-.264.02-.52.06-.774h-1.05c-2.853 0-5.188 2.334-5.188 5.19v59.84c0 2.854 2.335 5.187 5.188 5.187h77.203c2.588 0 4.75-1.923 5.126-4.412" class="I"/><path d="M516.847 522.897h37.26a2.01 2.01 0 0 1 2.002 2.002v.63a2.01 2.01 0 0 1-2.002 2.002h-37.26a2.01 2.01 0 0 1-2.003-2.002v-.63a2.01 2.01 0 0 1 2.003-2.002" class="C"/><path d="M801.648 356.12h-13.965a.62.62 0 0 0-.618.618v245.997a.62.62 0 0 0 .618.62h13.965a.62.62 0 0 0 .62-.62V356.74a.62.62 0 0 0-.62-.618z" fill="#ada7ba"/><path d="M801.505 356.12h-4.354a3.13 3.13 0 0 0-3.118 3.115V600.24a3.13 3.13 0 0 0 3.118 3.116h4.354a3.13 3.13 0 0 0 3.118-3.116V359.236a3.13 3.13 0 0 0-3.118-3.115z" class="B"/><path d="M867.044 356.12H853.08c-.342 0-.618.276-.618.618v245.997a.62.62 0 0 0 .618.62h13.965c.34 0 .62-.28.62-.62V356.74a.62.62 0 0 0-.62-.618z" fill="#ada7ba"/><path d="M866.9 356.12h-4.355c-1.713 0-3.115 1.402-3.115 3.115V600.24a3.13 3.13 0 0 0 3.115 3.116h4.355c1.716 0 3.117-1.404 3.117-3.116V359.236c0-1.713-1.4-3.115-3.117-3.115z" class="B"/><path d="M650.89 347.952h227.804a2.29 2.29 0 0 1 2.284 2.284v10.66a2.29 2.29 0 0 1-2.284 2.284h-212.97c-4.076-5.585-9.317-10.71-14.833-15.228z" fill="#b35d37"/><path d="M733.615 281.85l2.86 4.784s1.112 5.807-.544 9.782c-1.653 3.97 18.98 8.274 18.98 8.274l15.997-12.912 3.53-4.413s-7.503-8.165-7.945-11.696-32.88 6.18-32.88 6.18" class="L"/><path d="M697.97 327.59s-10.813 8.716-14.565 9.378-20.188-6.95-23.5-7.833-10.7-.884-15.888-.884-10.704 1.987-13.46 7.724h11.033c2.98 0 13.02 8.163 22.73 14.784s17.434 12.14 23.836 11.476 28.467-17.213 28.467-17.213l-18.65-17.432" fill="#f4a072"/><path d="M664.317 350.76c9.71 6.62 17.434 12.14 23.836 11.476s28.467-17.213 28.467-17.213l-18.65-17.432s-2.5 2.013-5.51 4.177c7.857 12.484 4.315 17.877-4.904 21.565-7.392 2.958-26.19-7.317-38.01-13.058l14.77 10.485" class="L"/><path d="M786.193 429.445s-55.826-.506-62.73.084-13.557 7.86-12.41 19.08 16.776 98.66 16.776 98.66 1.052.78 2.265 1.03 11.2 1.896 11.2 1.896l.675-8.1-5.844-85.058 51.49-9.396-1.424-18.184" class="C"/><path d="M741.972 542.08s1.168.322 1.684 1.816 1.587 11.152 1.484 12.534-3.54 4.048-9.435 6.55-28.322 9.05-28.322 9.05l-.247-.815s-1.055-.46-1.485-1.84-.284-4.436.945-6.18 8.47-6.7 9.792-7.774c1.317-1.063 7.877-10.19 8.412-10.803s4-2.81 8.093-.524c4.1 2.285 8.738 1.477 9.08-2.014" class="F"/><path d="M707.136 571.216l27.276-9.936c4.905-1.725 10.673-6.383 10.673-6.383s.795.36.962 1.013.3 2.94.357 3.423-.11 2.646-2.56 3.695-33.705 12.063-35.133 12.535-2.006-3.312-2.006-3.312-.088-.8.43-1.035z" class="B"/><path d="M820.76 394.79l-157.377 18.995c-8.167 1.767-15.006 11.475-11.914 24.717s36.528 119.57 36.528 119.57 1.38.772 2.87.882 13.685.55 13.685.55l4.797-4.9-26.71-94.9 109.013-5.518c30.582-4.928 34.73-42.164 29.107-59.376" fill="#1a1f35"/><path d="M715.78 406.157s11.916 8.828 19.088 5.958 41.598-62.342 41.598-62.342l-16.55-59.58s-11.034.44-24.165 3.31l-2.484 2.26s-9.705 1.653-15.224 7.832-23.612 22.288-24.276 23.61 15.78 19.42 19.975 22.29c0 0 1.984.66 3.197-.552l1.99-1.6s4.415 22.98 4.415 29.793v6.807s-2.317 17.574-4.08 19.23-3.482 2.984-3.482 2.984" class="F"/><path d="M769.057 417.484c2.763 0 5.006-2.24 5.006-5.003a5.01 5.01 0 0 0-5.006-5.005H724.92c-6.02 0-11.5-2.465-15.473-6.44-2.904-2.904-5.005-6.612-5.924-10.746-2.923 1.158-6.076 2.73-9.175 4.447 1.542 5.11 4.336 9.688 8.023 13.375 5.784 5.784 13.767 9.373 22.55 9.373h44.136" class="B"/><path d="M769.328 561.463h12.683V457.136h-12.683v104.327z" class="C"/><path d="M752.5 450.336h12.357V422.1H752.5v28.247zm85.4 0h12.356V422.1H837.9v28.247z" class="E"/><path d="M769.33 482.9h12.68a7.37 7.37 0 0 0 7.341-7.343v-13.564c0-4.037-3.305-7.34-7.34-7.34h-12.68c-4.036 0-7.342 3.303-7.342 7.34v13.564a7.37 7.37 0 0 0 7.342 7.343z" class="H"/><path d="M759.237 473.73H792.1a2.11 2.11 0 0 0 2.104-2.105v-17.057a2.11 2.11 0 0 0-2.104-2.104h-32.864a2.11 2.11 0 0 0-2.101 2.104v17.057a2.11 2.11 0 0 0 2.101 2.105z" class="C"/><path d="M678.355 444.38h102.833c3.885 0 7.06 3.178 7.06 7.062v7.945c0 3.884-3.175 7.06-7.06 7.06H678.355c-3.886 0-7.063-3.177-7.063-7.06v-7.945c0-3.884 3.177-7.062 7.063-7.062z" fill="#ef7d15"/><path d="M753.16 444.38h102.833c3.883 0 7.063 3.178 7.063 7.062v7.945c0 3.884-3.18 7.06-7.063 7.06H753.16c-3.886 0-7.063-3.177-7.063-7.06v-7.945c0-3.884 3.177-7.062 7.063-7.062z" fill="#f7bc0a"/><path d="M769.33 554.663h12.68c4.036 0 7.34 3.302 7.34 7.34v13.564c0 4.037-3.305 7.34-7.34 7.34h-12.68c-4.036 0-7.342-3.303-7.342-7.34v-13.564c0-4.04 3.306-7.34 7.342-7.34z" class="H"/><path d="M760.172 568.116h30.995a3.05 3.05 0 0 1 3.038 3.039v24.63a3.05 3.05 0 0 1-3.038 3.036h-30.995c-1.67 0-3.036-1.365-3.036-3.036v-24.63c0-1.675 1.367-3.04 3.036-3.04z" class="C"/><path d="M809.323 591.297c0 5.006-4.096 9.1-9.102 9.1h-49.1a9.13 9.13 0 0 1-9.101-9.101 9.13 9.13 0 0 1 9.101-9.102h49.1c5.006 0 9.102 4.096 9.102 9.102z" fill="#696d86"/><path d="M857.1 600.398c0 5.006-4.1 9.104-9.102 9.104H723.205c-5.008 0-9.104-4.098-9.104-9.104a9.13 9.13 0 0 1 9.104-9.101h124.792c5.003 0 9.102 4.094 9.102 9.1z" class="D"/><path d="M778.98 600.398c0 5.006-4.096 9.104-9.104 9.104h-66.533c-5.008 0-9.104-4.098-9.104-9.104a9.13 9.13 0 0 1 9.104-9.101h66.533a9.13 9.13 0 0 1 9.104 9.101z" class="E"/><path d="M750.52 383.943a5.01 5.01 0 0 1 5.006 5.004 5.01 5.01 0 0 1-5.006 5.005h-44.133c-6.024 0-11.503 2.467-15.476 6.443s-6.445 9.453-6.445 15.474v39.776c0 2.764-2.24 5.004-5.003 5.004s-5.005-2.24-5.005-5.004V415.87c0-8.782 3.6-16.766 9.377-22.552s13.765-9.374 22.552-9.374h44.133z" class="B"/><path d="M848.49 330.627c0-30.162-24.677-54.84-54.84-54.84h-7.276c-30.164 0-54.84 24.678-54.84 54.84v81.564c0 7.75 6.344 14.094 14.097 14.094h88.765c7.752 0 14.096-6.344 14.096-14.094v-81.564" fill="#ef7d15"/><path d="M863.055 330.627c0-30.162-24.678-54.84-54.842-54.84h-7.276c-30.164 0-54.84 24.678-54.84 54.84v81.564c0 7.75 6.344 14.094 14.097 14.094h88.766c7.752 0 14.096-6.344 14.096-14.094v-81.564" fill="#f7bc0a"/><path d="M708.18 550.788s1.908.02 3.123 1.62 5.517 12.633 5.738 14.288-4.413 5.848-12.908 10.59-41.654 19.31-41.654 19.31l-.607-.883s-1.765-.223-2.812-1.7-1.656-5.13-.22-7.558 11.36-10.48 13.128-12.14 9.492-14.397 10.153-15.28 5.46-4.525 12.468-3.092 14.013-.937 13.592-5.145" class="F"/><path d="M661.872 595.712l39.78-20.03c7.172-3.53 14.885-10.774 14.885-10.774s1.333.182 1.776.898 1.27 3.365 1.49 3.917.552 3.143-2.983 5.13c-3.528 1.985-49.21 24.496-51.304 25.488-2.1.992-4.03-3.283-4.03-3.283s-.356-.924.385-1.348" class="B"/><path d="M724.115 214.7l5.3-1.24c12.65-2.96 25.42 4.97 28.382 17.622l5.927 25.33c2.96 12.652-4.972 25.426-17.625 28.386l-5.294 1.238c-12.654 2.96-25.428-4.97-28.388-17.62l-5.925-25.33c-2.96-12.653 4.972-25.425 17.623-28.385" fill="#f4a072"/><path d="M758.476 233.987l5.248 22.424c2.96 12.652-4.972 25.426-17.625 28.386l-5.294 1.238c-5.248 1.228-10.513.58-15.092-1.496.626.264 5.118 2.012 6.118-1.292 1.078-3.555-5.06-14.972-5.06-14.972s-.407-.755.106-1.455 4.027-6.972 2.5-14.58 8.306-12.91 8.306-12.91l-22.762 6.165v4.632s-2.468-5.156-8.126-5.748l-.303-1.293c-1.393-5.96-.372-11.944 2.423-16.92 7.554.922 32.278 4.074 49.56 7.822" class="L"/><path d="M716.44 257.23s-2.063-.22-2.745-3.13l-.9-3.863s-2.19-2.908-3.495-8.486c0 0-13.464-1.88-16.08-14.346s8.987-25.638 10.696-26.942 8.87-3.786 17.86.246c0 0 1.53.95 4.472-.238s19.45-5.86 27.435-6.12 13.134 7.99 16.88 17.98c0 0 .464-4.034 4.492-4.875s1.87 6.705-1.044 9.296c0 0 6.86 3.527 8.174 10.863s-1.172 39.702-7.305 46.165-21.6 9.217-26.528 10.37-14.713-3.938-18.69-17.493c0 0 1.946-6.74.344-12.3s-3.062-9.645-5.144-10.365-7.208 4.653-7.648 7.07.532 5.7.532 5.7-.562.51-1.305.458" class="D"/><path d="M716.44 257.23s-2.063-.22-2.745-3.13l-.9-3.863s-2.188-2.908-3.495-8.486c0 0-13.464-1.88-16.08-14.346s8.987-25.638 10.696-26.942c0 0-12.693 13.85 1.3 20.96s34.682 11.632 48.252 10.77 23.212-24.406 23.216-24.42c1.557 1.48-.312 6.87-2.684 8.98 0 0 6.86 3.527 8.174 10.863s-1.172 39.702-7.305 46.165-21.6 9.217-26.528 10.37-14.716-3.938-18.69-17.493c0 0 1.943-6.74.344-12.3s-3.062-9.645-5.14-10.365-7.21 4.653-7.65 7.07.532 5.7.532 5.7-.562.508-1.305.458" class="C"/><path d="M902.972 464.004c0-.843-.683-1.524-1.524-1.524a1.52 1.52 0 0 0-1.52 1.524v3.58h-3.58a1.52 1.52 0 0 0-1.522 1.52c0 .842.683 1.522 1.522 1.522h3.58v3.578c0 .842.682 1.525 1.52 1.525a1.53 1.53 0 0 0 1.524-1.525v-3.578h3.577c.84 0 1.524-.68 1.524-1.522s-.685-1.52-1.524-1.52h-3.577v-3.58zm-91.336-315.367c0-.84-.683-1.522-1.524-1.522a1.52 1.52 0 0 0-1.52 1.522v3.58h-3.578a1.522 1.522 0 1 0 0 3.043h3.578v3.58a1.52 1.52 0 0 0 1.521 1.522c.84 0 1.524-.68 1.524-1.522v-3.58h3.577a1.52 1.52 0 0 0 1.524-1.52c0-.842-.682-1.523-1.524-1.523h-3.577v-3.58zm-172.333-56.87a1.52 1.52 0 0 0-3.042 0v3.58h-3.577a1.52 1.52 0 1 0 0 3.043h3.577v3.578c0 .84.683 1.522 1.52 1.522a1.52 1.52 0 0 0 1.522-1.522V98.4h3.58a1.522 1.522 0 0 0 0-3.044h-3.58v-3.58zM213.647 395.07c0-.84-.682-1.522-1.523-1.522a1.52 1.52 0 0 0-1.521 1.522v3.577h-3.58c-.84 0-1.523.684-1.523 1.523s.682 1.524 1.523 1.524h3.58v3.578a1.52 1.52 0 0 0 1.52 1.522c.84 0 1.523-.683 1.523-1.522v-3.578h3.578c.84 0 1.523-.683 1.523-1.524s-.683-1.523-1.523-1.523h-3.578v-3.577zm148.205-196.458c0-.84-.683-1.52-1.523-1.52a1.52 1.52 0 0 0-1.522 1.521v3.58h-3.58a1.52 1.52 0 0 0-1.521 1.52c0 .84.68 1.523 1.52 1.523h3.58v3.577c0 .842.682 1.524 1.522 1.524s1.523-.682 1.523-1.524v-3.577h3.58c.84 0 1.52-.683 1.52-1.523a1.52 1.52 0 0 0-1.521-1.52h-3.58v-3.58zM187.797 539.828a1.52 1.52 0 0 0-1.522-1.52c-.84 0-1.522.682-1.522 1.52v3.58h-3.578a1.52 1.52 0 0 0-1.523 1.522c0 .84.68 1.523 1.523 1.523h3.578v3.58a1.522 1.522 0 1 0 3.044 0v-3.58h3.58c.84 0 1.523-.683 1.523-1.523s-.682-1.522-1.523-1.522h-3.58v-3.58zM51.656 429.536a1.522 1.522 0 1 0-3.044 0v3.58h-3.58a1.52 1.52 0 1 0 .001 3.043h3.58v3.58a1.522 1.522 0 1 0 3.044 0v-3.58h3.58a1.52 1.52 0 1 0 0-3.043h-3.58v-3.58z" class="G"/><path d="M420.62 423.743c21.57-11.466 27.047 13.48 18.66 34.136s-51.418 90.13-53.666 117.684c-.87 10.678-2.862 9.513-4.566 2.023-8.502-37.35 9.88-138.063 39.573-153.843" fill="#2a4838"/><path d="M374.947 329.1c-24.734-22.27-40.198 8.9-35.923 38.973s38.247 136.102 32.13 173.267c-2.372 14.405.646 13.52 5.368 4.182 23.557-46.573 32.472-185.767-1.576-216.422z" fill="#499270"/><path d="M370.64 551.665c.528 1.382 1.702.698 3.278-1.6 25.778-85.87-14.378-214.164-14.504-214.576a1.34 1.34 0 0 0-1.676-.884c-.708.217-1.104.968-.884 1.675.126.414 40.83 130.46 13.786 215.386" fill="#296f51"/><path d="M320.925 400.447c-23.966-10.434-27.728 16.636-17.06 37.97s62.364 91.862 67.06 121.066c1.82 11.32 3.847 9.912 5.04 1.78 5.955-40.555-22.05-146.46-55.04-160.817z" fill="#9ccf54"/><path d="M373.11 567.305c.737.896 1.44.092 2.042-2-2.17-70.378-64.013-155.948-64.21-156.226-.34-.472-.997-.578-1.47-.24s-.58.994-.242 1.468c.198.276 62.884 87.014 63.878 157.008z" fill="#559b46"/><g class="H"><path d="M354.672 551.72h46.043l12.02 10.85-9.82 37.827H352.47l-9.818-37.827 12.02-10.85z"/><path d="M342.65 537.645h70.084c2.096 0 3.8 1.715 3.8 3.81v17.303c0 2.096-1.714 3.812-3.8 3.812H342.65c-2.096 0-3.812-1.716-3.812-3.812v-17.303c0-2.096 1.716-3.81 3.812-3.81z"/></g><path d="M412.735 562.57l-2.018 7.774h-66.05l-2.017-7.774h70.084z" class="D"/></g></svg>