<svg xmlns="http://www.w3.org/2000/svg" width="464" height="464" fill="none" xmlns:v="https://vecta.io/nano"><path d="M0 304H464V0H0V304ZM32 32H432V272H32V32Z" fill="#ffa442"/><path d="M32 32v240h280v-32h96v32h24V32H32z" fill="#383838"/><path d="M312 240v32h96v-32h-96z" fill="#ffebdb"/><path d="M72 464h48l40-160h-48L72 464zm272 0h48l-40-160h-48l40 160zm-88-160h-48v160h48V304z" fill="#ffa442"/><path d="M154 328l6-24h-48l-6 24h48zm204 0l-6-24h-48l6 24h48zm-102-24h-48v24h48v-24z" fill="#db8d39"/><path d="M128 240H72v16h56v-16z" fill="#ffebdb"/><path d="M95.563 140.677c3.174.828 5.635 2.277 7.383 4.347s2.622 4.6 2.622 7.6c0 2.852-.805 5.336-2.415 7.452-1.564 2.07-3.772 3.68-6.624 4.83-2.852 1.104-6.118 1.656-9.798 1.656s-6.946-.552-9.798-1.656c-2.852-1.15-5.083-2.76-6.693-4.83-1.564-2.116-2.346-4.6-2.346-7.452 0-3 .874-5.52 2.622-7.6 1.794-2.116 4.255-3.565 7.383-4.347-2.76-.92-4.922-2.346-6.486-4.278s-2.346-4.21-2.346-6.83c0-2.668.76-5.014 2.277-7.038s3.61-3.565 6.28-4.623c2.714-1.104 5.75-1.656 9.108-1.656s6.37.552 9.04 1.656c2.714 1.058 4.83 2.6 6.348 4.623s2.277 4.37 2.277 7.038-.805 4.99-2.415 6.97c-1.564 1.978-3.703 3.358-6.417 4.14zM86.73 124.53c-2.3 0-4.14.53-5.52 1.587-1.334 1.058-2 2.6-2 4.623 0 1.932.667 3.496 2 4.692 1.38 1.15 3.22 1.955 5.52 2.415 2.3-.46 4.117-1.265 5.45-2.415 1.38-1.196 2.07-2.76 2.07-4.692 0-2.024-.7-3.565-2.07-4.623-1.334-1.058-3.15-1.587-5.45-1.587zm0 33.74c2.714 0 4.853-.552 6.417-1.656 1.6-1.104 2.415-2.714 2.415-4.83 0-1.978-.805-3.588-2.415-4.83-1.564-1.242-3.703-2.07-6.417-2.484-2.714.414-4.876 1.242-6.486 2.484-1.564 1.242-2.346 2.852-2.346 4.83 0 2.116.782 3.726 2.346 4.83 1.6 1.104 3.772 1.656 6.486 1.656zm37.992-19.458v13.593c0 1.932.506 3.358 1.518 4.278 1.012.874 2.323 1.31 3.933 1.31 1.012 0 2.162-.16 3.45-.483v8.073c-1.656.644-3.657.966-6.003.966-4.324 0-7.636-1.22-9.936-3.657-2.254-2.438-3.38-5.865-3.38-10.28v-13.8h-6.624v-7.797h6.624v-8.21l10.42-3.38v11.592h8.9v7.797h-8.9zm35.844-8.694c8.28 0 12.42 4.9 12.42 14.697V166h-10.42v-20.7c0-2.438-.46-4.21-1.38-5.313-.874-1.15-2.277-1.725-4.21-1.725-2.3 0-4.14.736-5.52 2.208s-2.07 3.45-2.07 5.934V166h-10.42v-50.784h10.42v20.562c1.242-1.84 2.83-3.243 4.76-4.21s4.07-1.45 6.417-1.45zm40.54 13.1h21.46v8.21h-21.46v-8.21zm84.565 14.145V166h-32.016v-8.625h10.626v-28.497l-9.936 5.865V125.3l14.42-8.418h6.28v40.503h10.626zm22.95 9.246c-5.934 0-10.488-2.162-13.662-6.486-3.128-4.324-4.692-10.58-4.692-18.768 0-8.096 1.564-14.283 4.692-18.56 3.174-4.278 7.728-6.417 13.662-6.417s10.465 2.14 13.593 6.417c3.174 4.278 4.76 10.465 4.76 18.56 0 8.188-1.587 14.444-4.76 18.768-3.128 4.324-7.66 6.486-13.593 6.486zm0-8.28c2.714 0 4.692-1.334 5.934-4.002s1.863-6.992 1.863-12.972c0-5.842-.62-10.074-1.863-12.696-1.242-2.668-3.22-4.002-5.934-4.002s-4.692 1.334-5.934 4.002c-1.242 2.622-1.863 6.854-1.863 12.696 0 5.98.62 10.304 1.863 12.972s3.22 4.002 5.934 4.002zm37.992-19.527v13.593c0 1.932.506 3.358 1.518 4.278 1.012.874 2.323 1.31 3.933 1.31 1.012 0 2.162-.16 3.45-.483v8.073c-1.656.644-3.657.966-6.003.966-4.324 0-7.636-1.22-9.936-3.657-2.254-2.438-3.38-5.865-3.38-10.28v-13.8h-6.624v-7.797h6.624v-8.21l10.42-3.38v11.592h8.9v7.797h-8.9zm35.845-8.694c8.28 0 12.42 4.9 12.42 14.697V166h-10.42v-20.7c0-2.438-.46-4.21-1.38-5.313-.874-1.15-2.277-1.725-4.21-1.725-2.3 0-4.14.736-5.52 2.208s-2.07 3.45-2.07 5.934V166h-10.42v-50.784h10.42v20.562c1.242-1.84 2.83-3.243 4.76-4.21s4.07-1.45 6.417-1.45z" fill="#c5c5c5"/></svg>