<svg xmlns="http://www.w3.org/2000/svg" viewBox="0 0 480 480" xmlns:v="https://vecta.io/nano"><path d="M168,64h-56V8H64v56H8v48h56v56h48v-56h56V64z" fill="#e9686a"/><path d="M472,64v48H312V64H472z" fill="#32b1cc"/><g fill="#55b56a"><path d="M472,352v48H312v-48H472z"/><circle cx="392" cy="304" r="24"/><circle cx="392" cy="448" r="24"/></g><path d="M392,232H248V88h-16v144H88v16h144v144h16V248h144V232z" fill="#195c85"/><path d="M176 328l-40-40-40 40-40-40-40 39.104L56 368l-40 40 40 40 40-40 40 40 40-40-40-40 40-40z" fill="#f49e21"/><path d="M56 176h64v-56h56V56h-56V0H56v56H0v64h56v56zm-40-72V72h56V16h32v56h56v32h-56v56H72v-56H16zm288 16h176V56H304v64zm16-48h144v32H320V72zm-16 336h176v-64H304v64zm16-48h144v32H320v-32zm40-56c0 17.673 14.327 32 32 32s32-14.327 32-32-14.327-32-32-32-32 14.327-32 32zm48 0c0 8.837-7.163 16-16 16s-16-7.163-16-16 7.163-16 16-16 16 7.163 16 16zm16 144c0-17.673-14.327-32-32-32s-32 14.327-32 32 14.327 32 32 32 32-14.327 32-32zm-48 0c0-8.837 7.163-16 16-16s16 7.163 16 16-7.163 16-16 16-16-7.163-16-16zM232 88v144H88v16h144v144h16V248h144v-16H248V88h-16zM56 459.312l40-40 40 40L187.312 408l-40-40 40-40L136 276.688l-40 40-39.936-39.936-51.376 50.224 40.064 40.96L4.688 408 56 459.312zM27.312 327.2l28.624-28L96 339.312l40-40L164.688 328l-40 40 40 40L136 436.688l-40-40-40 40L27.312 408l39.936-39.936L27.312 327.2z"/></svg>