<svg xmlns="http://www.w3.org/2000/svg" width="1320" height="174" fill="none" xmlns:v="https://vecta.io/nano"><path fill="#fff" d="M0 0h1320v40H0z"/><path d="M1109.32 21.687c-49.87 3.825-93.34 15.857-141.788 21.922-54.48 6.83-114.912 5.724-167.63-3.052-38.086-6.348-71.603-16.42-108.595-23.776-36.963-7.342-80.527-11.888-119.33-6.26-48.02 6.955-75.34 27.175-117.427 38.775-44.804 12.353-106.932 13.728-154.854 3.412-26.8-5.77-48.655-14.705-75.112-20.736C156.878 16.538 74.247 22.742-.033 34.46v62.27c54.48 8.233 97.556 26.716 152.116 35.525 86.823 14.017 185.08.95 270.762-14.128 85.697-15.097 175.585-32.703 268.233-27.4 64.79 3.7 121.957 18.222 180.14 30.227 58.195 12.02 124.483 21.942 187.982 15.57 66.14-6.63 116.26-29.77 182.57-36.22 25.52-2.47 52.06-2.287 78.2-.82V39.397c-68.26-11.115-139.1-23.206-210.66-17.7z" fill="#0f7dc2"/><path d="M1109.34 14.808c-49.88 1.902-93.35 7.887-141.792 10.904-54.48 3.398-114.914 2.847-167.632-1.518-38.086-3.158-71.604-8.168-108.597-11.827-36.963-3.652-80.528-5.913-119.332-3.114-48.02 3.46-75.342 13.517-117.428 19.287-44.805 6.144-106.935 6.828-154.857 1.697-26.8-2.87-48.656-7.314-75.113-10.314-67.708-7.677-150.34-4.59-224.622 1.238v30.974c54.48 4.095 97.557 13.29 152.118 17.67 86.825 6.972 185.084.473 270.767-7.028C508.55 55.268 598.44 46.51 691.1 49.144c64.79 1.84 121.958 9.063 180.142 15.035 58.197 5.978 124.485 10.914 187.988 7.744 66.14-3.297 116.26-14.808 182.57-18.016 25.53-1.228 52.07-1.138 78.2-.408V23.617c-68.26-5.53-139.1-11.543-210.66-8.81z" fill="#d2d2d2"/><path d="M1241.73 90.38c-66.35 5.13-116.5 23.534-182.7 28.805-63.55 5.07-129.888-2.823-188.126-12.38-58.227-9.548-115.438-21.096-180.275-24.04-92.718-4.2-182.673 9.792-268.435 21.8-85.745 11.993-184.076 22.384-270.964 11.237C96.63 108.793 53.52 94.094-1 87.547v58.456c19.3-1.396 38.75-2.464 58.584-2.647 70.043-.687 136.445 8.845 202.93 15.93 66.468 7.07 141.996 11.617 204.594 1.563 32.34-5.21 58.665-13.96 92.634-17.96 53.38-6.26 112.6.537 163.526 8.61s102.868 17.763 159.724 17.398c31.127-.208 62.025-3.584 87.035-9.522 22.736-5.39 40.964-12.866 66.684-16.643 56.12-8.266 119.32 3.907 170 15.185 34.25 7.605 75.58 15.017 115.3 16.085V89.728c-26.16-1.167-52.72-1.312-78.27.652" fill="#0c659d"/></svg>