<svg xmlns="http://www.w3.org/2000/svg" xmlns:xlink="http://www.w3.org/1999/xlink" width="266" height="245" fill="none" xmlns:v="https://vecta.io/nano"><style><![CDATA[.B{fill:#212637}.C{fill:#f89a78}.D{fill:#d3d3d3}.E{fill:#c4d8df}.F{fill:#0f7dc2}.G{fill:#f14957}]]></style><path d="M118 17.913c-.117 0-.22-.11-.233-.26-.015-.16.077-.307.205-.327a21.45 21.45 0 0 1 3.136-.235c.13 0 .235.13.235.293s-.105.294-.235.294c-1.018 0-2.054.08-3.08.232l-.027.001zm9.28.718l-.057-.008a20.52 20.52 0 0 0-3.034-.712c-.128-.02-.22-.166-.202-.328s.114-.266.26-.255a21.16 21.16 0 0 1 3.09.724c.125.04.2.2.17.357-.027.133-.122.22-.227.22zm-15.335 1.08l-.22-.195c-.042-.152.02-.32.142-.374a24.43 24.43 0 0 1 3.012-1.123c.11-.04.25.06.28.217s-.048.317-.174.354a24.22 24.22 0 0 0-2.96 1.103l-.08.017zm21.047 1.942l-.127-.046c-.872-.7-1.786-1.3-2.716-1.788-.12-.062-.175-.235-.126-.383s.19-.22.305-.16c.956.5 1.896 1.12 2.79 1.836.108.087.14.27.07.406l-.196.136zm-26.65 1.452l-.2-.14c-.067-.138-.033-.318.076-.404.892-.692 1.82-1.33 2.754-1.896.12-.068.257-.007.312.138s.007.32-.108.392c-.92.558-1.832 1.185-2.71 1.866l-.123.044zm31.36 3.632l-.172-.094-2.205-2.713-.024-.415.33-.028c.748.82 1.482 1.723 2.24 2.76l-.013.414-.158.078zm-35.862 1.696l-.14-.057c-.103-.096-.125-.278-.05-.4.672-1.158 1.346-2.14 2.058-2.998l.33.008-.008.417c-.69.835-1.346 1.788-2.004 2.92l-.19.12zm39.816 4.356l-.184-.114-.065-.107-1.856-2.968c-.083-.125-.068-.3.033-.413s.25-.083.33.043l1.864 2.977.065.107a.35.35 0 0 1-.042.412l-.144.06zM98.57 35.098l-.117-.04c-.114-.082-.15-.262-.086-.4l.567-1.23 1.002-2.158c.067-.138.208-.184.322-.1s.145.263.08.403l-.998 2.148-.568 1.235-.203.145zm47.056 3.725l-.17-.09-2.055-2.973c-.082-.126-.067-.3.033-.413s.25-.083.33.04l2.034 2.94-.01.415-.16.08zm34.09.32l-.088-.022c-1.012-.52-2-.844-2.94-.97-.128-.017-.22-.162-.208-.32s.14-.278.257-.262c.98.13 2.014.47 3.066 1 .12.06.178.233.128.382l-.216.183zm-8.687 1.477l-.18-.105c-.082-.124-.068-.3.03-.413.782-.82 1.698-1.727 2.673-2.172.12-.054.256.025.3.176s-.02.32-.14.377c-.904.41-1.782 1.285-2.535 2.07l-.15.068zm-76.05.853l-.16-.08-.008-.415c.648-.854 1.277-1.84 1.917-3.018.075-.133.217-.17.325-.075s.134.274.062.407c-.656 1.203-1.3 2.215-1.967 3.09l-.17.1zM185 43.26l-.148-.065c-.858-.872-1.7-1.64-2.502-2.278-.11-.087-.14-.27-.073-.406s.215-.18.323-.1c.818.65 1.674 1.43 2.548 2.317.1.102.115.286.033.412l-.18.11zm-34.523.406l-.11-.035c-.9-.604-1.754-1.323-2.617-2.2a.35.35 0 0 1-.034-.414c.08-.123.226-.145.33-.043.838.855 1.67 1.555 2.54 2.14.114.076.156.253.096.397l-.205.155zm15.202.8c-.1 0-.194-.084-.224-.213-.036-.155.036-.318.16-.363.957-.342 1.82-.77 2.64-1.307l.188-.13c.11-.084.255-.036.32.107s.027.32-.085.4l-.21.144a12.78 12.78 0 0 1-2.724 1.348l-.064.01zM89.74 45.5c-.105 0-.2-.09-.227-.22-.032-.158.044-.318.17-.357.918-.29 1.754-.725 2.557-1.334l.22-.172c.11-.087.253-.05.323.087s.038.318-.07.406l-.234.18c-.84.64-1.72 1.1-2.684 1.402l-.056.008zm69.807.144c-.12 0-.232-.114-.243-.266-.012-.162.075-.303.203-.318l3.088-.4c.123-.023.247.1.263.25s-.07.31-.2.33l-3.09.41-.02.001zm-3.128.093h-.015c-1.08-.084-2.124-.3-3.107-.644-.125-.043-.2-.203-.164-.36s.157-.25.288-.203c.95.33 1.965.54 3.013.62.13.01.227.15.218.312-.008.156-.11.275-.233.275zm-69.878.204c-1 0-2.017-.09-3-.18-.13-.012-.235-.154-.226-.314s.115-.292.24-.273l2.98.18.115-.001c.13 0 .234.132.234.293s-.105.294-.234.294h-.1zm-9.213.022c-.11 0-.207-.097-.23-.237-.024-.16.057-.313.184-.345a12.77 12.77 0 0 1 1.639-.305c.468-.054.962-.082 1.504-.086h.001c.13 0 .233.13.235.294s-.103.293-.233.293l-1.465.083c-.502.06-1.038.158-1.6.296l-.046.005zm112.24 2.618l-.168-.087-2.214-2.74-.01-.415.33-.012 2.23 2.757-.002.415-.165.083zm-118.1.02l-.206-.158c-.06-.144-.015-.32.098-.396.926-.608 1.895-1.142 2.883-1.6.12-.055.256.022.3.176s-.02.32-.14.377c-.97.44-1.917.963-2.825 1.557l-.108.035zm-4.94 4.708l-.15-.07-.027-.414c.628-.93 1.413-1.835 2.332-2.69.1-.098.248-.07.325.06s.056.314-.048.41a15.33 15.33 0 0 0-2.252 2.597l-.177.104zm127.164 1.125l-.182-.11-2.002-2.982.02-.414.33.026 2.014 3c.083.126.067.31-.033.414l-.148.065zM64.075 60.42l-.057-.008c-.126-.04-.202-.2-.17-.356l.902-3.783c.05-.15.187-.22.303-.166s.18.23.132.38c-.383 1.226-.65 2.547-.884 3.71-.028.134-.122.22-.227.22zm133.45.203l-.185-.113-1.894-3.108c-.078-.13-.06-.313.043-.41s.247-.076.328.053l1.894 3.108c.078.13.06.314-.045.412l-.14.06zm3.88 6.12l-.178-.104-1.976-3.036c-.082-.127-.064-.313.037-.413s.248-.078.327.047l1.968 3.02-.026.414-.152.07zm-139.726.825l-.15-.066c-.098-.104-.112-.29-.03-.415.6-.915 1.085-1.997 1.48-3.3.046-.15.187-.23.3-.17.122.058.183.227.137.38-.413 1.372-.924 2.5-1.56 3.476l-.18.106zm-5.063 4.453l-.212-.17c-.055-.148-.004-.322.112-.392 1.06-.617 1.943-1.226 2.7-1.86.107-.1.25-.054.324.08s.043.317-.065.407c-.775.65-1.68 1.275-2.76 1.907l-.1.026zm149.123.335l-.153-.073-2.264-2.724.007-.415.332.007 2.232 2.69.02.415-.175.1zM50.862 75.053l-.214-.174c-.053-.148 0-.323.12-.388l2.604-1.36.287-.144c.12-.057.253.014.304.162s-.01.322-.13.383l-.285.144-2.6 1.35-.094.025zm159.942 1.83l-.113-.037c-.9-.626-1.792-1.334-2.653-2.108-.105-.094-.13-.278-.055-.4s.22-.163.326-.068a27.08 27.08 0 0 0 2.607 2.072c.114.08.153.257.092.4l-.204.15zm-165.07 2.487l-.15-.07-.027-.414c.628-.938 1.42-1.78 2.42-2.575.107-.085.253-.047.323.09s.036.318-.074.406c-.96.76-1.715 1.566-2.313 2.457l-.177.104zm170.823.46l-.062-.01a24.14 24.14 0 0 1-2.971-1.272c-.12-.06-.176-.233-.127-.384s.182-.223.304-.16a23.51 23.51 0 0 0 2.919 1.25c.124.044.198.205.163.36-.03.13-.124.215-.226.215zM43.913 86.646c-.127 0-.23-.125-.235-.284l-.006-.508c-.002-1.24.122-2.4.37-3.448.034-.155.162-.24.3-.2.123.047.194.21.158.365-.235.995-.352 2.1-.35 3.282l.005.49c.003.162-.097.298-.226.303h-.008z" fill="#adcfd4"/><path d="M111.027 28.163H91.472L80.988 38.917 85.7 28.163h-4.805c-.832 0-1.506-.847-1.506-1.892V1.892C79.4.847 80.064 0 80.896 0h30.13c.832 0 1.508.847 1.508 1.892V26.27c0 1.045-.676 1.892-1.508 1.892z" class="E"/><path d="M135.897 47.727h23.445l12.57 12.892-5.65-12.892h5.76c.997 0 1.806-1.015 1.806-2.27V16.23c0-1.254-.81-2.27-1.806-2.27h-36.124c-.998 0-1.807 1.015-1.807 2.27v29.227c0 1.254.81 2.27 1.807 2.27z" fill="#adcfd4"/><path d="M166.586 90.786s-2.783-1.856-4.47-4.435c-.864-1.32-.392-3.93-.564-5.142-.542-3.812-.566-5.238-1.916-5.19-1.393.048-1.236 1.845-.792 5.17.605 4.522-3.404-.897-4.654-2.857-2.528-3.964-4.47-5.992-5.673-5.095-.997.743-.78 1.777 2.45 6.12l2.78 3.73s-2.3-2.3-3.5-4.14-4.094-5.332-5.296-4.435c-2.116 1.578 2.03 5.63 2.704 6.378l4.357 4.946s-2.892-2.667-4.168-4.435c-2.264-3.132-3.687-2.926-3.95-1.604s2.3 3.757 3.088 4.89c.196.28.54.652.948 1.05 1.23 1.2 3.032 2.65 3.032 2.65l-4.77-4.105c-1.043-.965-2.555.71-.15 3.54s6.116 4.4 8.615 4.828c3.005.504 8.74 4.184 8.74 4.184l3.192-6.04z" class="C"/><path d="M231.457 55.953c11.957 0 34.543 11.557 34.543 45.632a149.92 149.92 0 0 1-.983 17.167c-2.606 22.63-16.332 40.03-33.33 42.654l-.23.036-23.028-3.556s-11.514-22.223-11.514-56.3 22.585-45.632 34.542-45.632z" class="D"/><path d="M220.534 57.117c-.273 0-.528-.033-.794-.048-.254 4.32-.667 8.68-1.333 10.568 0 0 4.254 4.842 10.502-.418 0 0-1.27-5.652-1.46-12.2-1.914 1.314-4.21 2.098-6.914 2.098z" fill="#f57e5d"/><path d="M228.003 34.526s-3.256-3.84-7.5-3.173-6.696 1.732-7.693 6.115-2.54 15.403-2.54 15.403.942 9.803 7.82 6.31 14.08-10.005 12.848-13.888-2.927-10.77-2.927-10.77z" class="C"/><g class="B"><path d="M226.857 32.898s-3.69 1.878-3.5 4.07 1.297 6.198.2 10.895c0 0 1.097 1.002 1.844 0s0-4.947 2.144-4.57 1.994 5.134-.3 5.823c0 0-1.77 3.193-4.088 3.256s-5.433-2.85-6.604-3.005-5.085.062-5.857.72c0 0-2.394 11.552 1.444 13.243S224.76 60.76 229.073 54c0 0 5.288-.386 4.097-9.42-.897-6.8 2.505-8.744-.75-13.302-2.32-3.247-5.563 1.622-5.563 1.622z"/><path d="M230.93 30.57s-1.298-4.976-7.512-5.393-6.547 4.05-8.84 4.55-2.892-1.146-2.06-1.867c0 0-1.594-1.705-3.888 2.7s1.63 10.5 6.514 10.72c5.848.25 11.968-2.112 15.787-10.72z"/></g><path d="M212.95 53.936s2.493 1.095 4.61.407c0 0-.37 1.6-2.916 1.628-1.445.01-1.695-2.035-1.695-2.035z" fill="#fff"/><path d="M215.744 242.576h3.366v-75.182h-3.366v75.182z" class="E"/><path d="M202.63 244.64c.365-9.755 6.82-17.542 14.798-17.542s14.433 7.787 14.798 17.542H202.63z" class="B"/><path d="M191.148 180.55h52.558c3.46 0 6.266-3.524 6.266-7.87V160.7c0-4.348-2.806-7.87-6.266-7.87h-52.558c-3.46 0-6.266 3.522-6.266 7.87v11.982c0 4.346 2.806 7.87 6.266 7.87z" class="D"/><path d="M163.457 86.38l-4.35 10.49s26.638 19.346 33.65 18.112 21.84-28.012 21.84-28.012-.22-17.846-3.92-16.223c-2.856 1.254-17.508 30.114-18.486 31.34S163.457 86.38 163.457 86.38z" class="F"/><path d="M204.035 90.75c-2.872 4.493-5.405 9.657-9.224 13.013-4.214 3.7-8.6 4.498-13.323 1.66-2.413-1.454-4.92-2.55-7.346-3.95-1.023-.6-1.992-1.473-2.955-2.377v5.963c8.012 5.11 17.73 10.602 21.57 9.926 7.013-1.235 21.84-28.012 21.84-28.012s-.095-7.2-1.1-12.036c-2.597 5.775-6.123 10.607-9.452 15.814z" fill="#215084"/><g fill="#040606"><path d="M189.86 227.907s-12.866 4.352-18.188 6.494c-4.423 1.78-3.858 6.77.884 9.084s8.828 1.54 10.062-.28 3.906-.82 4.896-.09 10.206-.847 10.818-3.16-.278-11.547-.278-11.547l-8.194-.5z"/><path d="M199.593 229.385s-13.147 2.712-18.614 4.173c-4.542 1.215-4.378 6.25.155 9.15s8.66 2.64 10.034.984 3.953-.322 4.88.528 10.222.44 11.015-1.783.058-13.73.058-13.73l-7.527.677z"/></g><path d="M205.507 120.816h19.18s6.364.126 7.566 15.225-9.12 16.294-20.134 16.797-16.24 2.642-16.528 6.417 1.062 69.453 1.062 69.453l-13.022.64-2.513-81.093c1.94-9.058 23.635-19.646 23.635-19.646l.755-7.794z" class="B"/><path d="M205.507 120.815h19.18s6.364.126 7.566 15.225-9.12 16.295-20.134 16.797-16.24 2.643-16.528 6.418 1.062 69.453 1.062 69.453l-7.606.375-2.195-79.187c1.942-9.058 21.106-20.93 21.106-20.93l-2.45-8.15z" fill="#131928"/><path d="M217.487 123.594h19.18s6.365.126 7.567 15.225-9.122 16.295-20.134 16.8-16.24 2.642-16.528 6.417.2 68.642.2 68.642l-14.074-.446-3.055-78.954c2.003-7.8 25.613-22.272 25.613-22.272l1.232-5.41z" class="B"/><use xlink:href="#B" fill="#28363e"/><use xlink:href="#B" class="F"/><path d="M236.4 118.93c2.897-3.46 4.36-9.085 5.115-15.604l-.755-21.757v-9.5l-1.137-.608c-1.848.154-4 1.7-5.083 2.746-3.735 3.574-5.852 7.754-7.898 13-2.396 6.14-5.415 16.755-12.497 14.79-3.106-.86-6.4-3.62-8.448-7.253-.212 3.697-.47 13.464-.68 22.155 19.605 6.1 29.615 4.143 31.383 2.034z" fill="#215084"/><g class="B"><path d="M239.307 152.83h1.463v-20.305h-1.463v20.305z"/><path d="M216.385 136.115h33.824c1.498 0 2.714-1.082 2.714-2.416v-3.678c0-1.334-1.216-2.415-2.714-2.415h-33.824c-1.498 0-2.713 1.08-2.713 2.415v3.678c0 1.334 1.215 2.416 2.713 2.416z"/></g><path d="M50.256 242.576H46.9v-75.182h3.367v75.182z" class="E"/><path d="M34.542 55.953C22.586 55.953 0 67.51 0 101.585a150.3 150.3 0 0 0 .982 17.167c2.606 22.63 16.333 40.03 33.33 42.654l.23.036 23.03-3.556s11.514-22.223 11.514-56.3S46.5 55.953 34.542 55.953z" class="D"/><path d="M63.37 244.64c-.364-9.755-6.82-17.542-14.797-17.542s-14.432 7.787-14.797 17.542H63.37z" class="B"/><path d="M74.852 180.55H22.294c-3.46 0-6.266-3.524-6.266-7.87V160.7c0-4.348 2.806-7.87 6.266-7.87h52.558c3.46 0 6.266 3.522 6.266 7.87v11.982c0 4.346-2.806 7.87-6.266 7.87z" class="D"/><path d="M101.352 109.625l3.334.4c.584-.008 8.14-5.457 8.963-4.733s8.59 7.384 8.365 8.707-2.387.555-6.515-3.738c0 0 5.49 4.778 4.448 5.965s-5.837-4.182-5.837-4.182 4.944 4.536 3.783 5.577-5.527-4.386-5.527-4.386 3.42 4.07 2.958 4.76-2.614-.46-4.972-3.17c0 0-.43-.288-1.67.56s-8.888-.676-8.888-.676l1.56-5.085z" class="C"/><path d="M104.713 107.023v10.665s-29.67-1.533-36.682-2.766-16.628-27.95-16.628-27.95.22-17.846 3.92-16.223c2.854 1.254 17.508 30.113 18.484 31.34s30.904 4.936 30.904 4.936z" class="G"/><g class="B"><path d="M127.145 123.158H93.74v-6h33.406v6z"/><path d="M136.177 78.212l-10.822 42.162-1.692-.78 10.823-42.16 1.69.78z"/></g><path d="M38.17 51.994s2.42 13.23-4.226 19.326c0 0 2.39 8.444 10.232 6.568s3.286-8.585 3.286-8.585-2.464-5.02-1.194-14.307l-8.097-3.002z" fill="#f57e5d"/><path d="M39.06 31.588s11.688-2.223 13.033-.595 1.57 7.538 1.513 12.534 1.62 14.557-3.025 16.324-13.5-3.682-16.636-13.58C29.95 33.67 38.26 31.733 39.06 31.588z" class="C"/><g fill="#040606"><path d="M76.14 227.907s12.865 4.352 18.188 6.494c4.423 1.78 3.858 6.77-.884 9.084s-8.828 1.54-10.062-.28-3.907-.82-4.896-.09-10.206-.847-10.82-3.16.28-11.547.28-11.547l8.194-.5z"/><path d="M66.517 229.068s13.15 2.712 18.616 4.173c4.542 1.215 4.378 6.25-.155 9.15s-8.66 2.64-10.033.984-3.953-.322-4.88.528-10.222.44-11.016-1.784-.056-13.728-.056-13.728l7.525.677z"/></g><g class="B"><path d="M37.08 30.416s5.527.235 6.498 10.696c.437 4.715 1.382 8.35.224 8.585s-2.353-.752-2.353-2.112-.336-5.8-2.54-4.565-1.457 6.583 1.344 8.13c0 0 .58 3.002-1.662 4.69 0 0-5.826-4.604-6.666-12.822s1.624-12.837 5.153-12.603z"/><path d="M34.866 31.34s1.308-6.568 7.47-7.083 11.1 4.128 14.04 10.32c0 0-1.68 3.706-8.03 4.175-2.638.195-7.33-.727-9.672-2.25-3.293-2.144-3.8-5.16-3.8-5.16zm25.626 89.476h-19.18s-6.365.126-7.566 15.225 9.12 16.294 20.134 16.797 16.24 2.642 16.527 6.417-1.06 69.453-1.06 69.453l13.022.64 2.514-81.093c-1.942-9.058-23.635-19.646-23.635-19.646l-.756-7.794z"/></g><path d="M60.492 120.816h-19.18s-6.365.126-7.566 15.225 9.12 16.295 20.134 16.797 16.24 2.643 16.527 6.418-1.06 69.453-1.06 69.453h6.825s4.947-76.728 3.313-79.74c-4.584-8.44-22.144-21.363-22.144-21.363l3.152-6.8z" fill="#131928"/><path d="M48.513 123.594h-19.18s-6.365.126-7.567 15.225 9.122 16.295 20.134 16.8 16.24 2.642 16.528 6.417-.2 68.642-.2 68.642l14.073-.446 3.056-78.954c-2.003-7.8-25.614-22.272-25.614-22.272l-1.23-5.41z" class="B"/><path d="M46.292 65.077s1.12 3.96-1.586 4.187-7.038-4.38-7.038-4.38-3.467 2.922-9.81 5.36l-4.3 59.566s18.976 7.2 37.693-1.202l-.984-34.332c-.186-2.687-2.285-20.887-4.424-23.133-1.025-1.075-3.36-2.08-5.53-3.128-1.75-.846-3.383-1.867-4.018-2.94z" class="G"/><path d="M58.418 80.343c-.044 3.844.165 7.693-.1 10.43-.64 6.654-3.613 17.683-9.83 19.137-5.96 1.394-10.883-2.15-12.43-9.77-1.24-6.1-1.116-27.895-8.38-27.414l-4.12 57.086s18.976 7.2 37.693-1.202l-.984-34.332c-.107-1.536-.84-8.138-1.847-13.935z" fill="#df313a"/><path d="M77.848 123.158H93.15c.657-.51 1.063-1.135 1.063-1.93 0-2.573-3.902-5.76-8.714-5.76s-8.715 3.188-8.715 5.76c0 .795.407 1.42 1.063 1.93z" class="B"/><path d="M68.33 115.45l3.346.19c.583-.043 7.912-5.96 8.764-5.3s8.872 6.835 8.7 8.172-2.363.705-6.656-3.325c0 0 5.674 4.428 4.68 5.68s-5.997-3.812-5.997-3.812 5.12 4.22 4 5.333-5.694-4.034-5.694-4.034 3.578 3.85 3.144 4.568-2.628-.292-5.092-2.853c0 0-.442-.26-1.646.663s-8.904-.116-8.904-.116l1.354-5.175z" class="C"/><path d="M71.276 112.46l.45 11.134s-33.178 3.02-42.747 1.258-9.96-7.2-9.216-28.435c.507-14.425 4.458-25.794 8.093-26.17 9.627-1 3 39.108 4.954 40.052s38.465 2.162 38.465 2.162z" class="G"/><g fill="#6b8ea1"><path d="M65.216 244.5V123.16H62.8V244.5h2.418zm146.338 0V123.16h-2.418V244.5h2.418z"/><path d="M211.554 123.158v3.56H62.8v-3.56h148.755z"/></g><g class="B"><path d="M26.692 152.83H25.23v-20.305h1.462v20.305z"/><path d="M49.614 136.115H15.8c-1.498 0-2.713-1.082-2.713-2.416v-3.678c0-1.334 1.216-2.415 2.713-2.415h33.824c1.5 0 2.714 1.08 2.714 2.415v3.678c0 1.334-1.215 2.416-2.714 2.416zm119.628-65.69v45.18l21.495 4.27V75.3l-21.495-4.884z"/></g><path d="M198.673 102.267l-2.51 6.984c.17-.296-5.448-1.947-5.754-1.886s-4.92.324-6.605-.25-4.405-2.6-4.94-3.076c-.595-.52-1.56-2.108-.612-2.387.832-.242 3.146 1.7 3.665 2.024s2.385.482 2.385.482-2.14-.912-3.47-1.708c-1.615-.97-3.992-2.38-4.455-3.04-.437-.627-.26-1.89 1.004-1.48 1.525.493 2.897 1.5 3.152 1.622l4.094 1.874-4.235-2.115-4.475-2.8c-1.367-.905-.95-2.874.34-2.652.952.163 4.062 2.62 4.56 2.87l4.123 2.176-4.483-2.606c-.426-.408-3.32-2.062-3.605-3.2-.14-.552.106-1.622 1.126-1.323 1.187.347 2.87 1.322 3.638 1.9.623.466 5.904 4.05 6.822 3.82s2.202-.532 2.288-1.866l-.034-3.5s2.454 1.658 2.806 4.745c.19 1.67 2.284 3.953 5.176 5.414z" class="C"/><path d="M219.1 64.278l1.507 3.92 7.582-5.044 2.2 2.724-7.357 8.63-2.854-5.332-3.088 3.067V67.28l2.01-3.002z" fill="#fff"/><path d="M195.803 99.286l-2.278 10.785s22.597 6.42 32.174 8.122c7.85 1.396 11.96-2.522 16.745-22.908 3.603-15.35 1.66-22.082-3.137-24.032-9.2-3.736-9.728 34.065-11.682 35.01s-31.822-6.975-31.822-6.975z" class="F"/><path d="M156.197 40.12h-4.383v-5.145h4.383v5.145zm3.455-13.793c0 3.782-3.787 4.895-3.787 6.367v.584h-3.786v-1.4c0-2.03 2.88-3.2 2.88-5.45 0-1.028-.532-1.946-1.46-1.946-1.196 0-1.44 1.168-1.44 2.335l.02.752h-4.073l-.067-1.057c0-3.614 2.57-5.868 6.045-5.868 3.386 0 5.668 2.226 5.668 5.674z" class="B"/><path d="M91.87 20.6H88.2v-4.316h3.66V20.6zm5.75 0h-3.66v-4.316h3.66V20.6zm5.75 0H99.7v-4.316h3.66V20.6z" fill="#231f20"/><defs ><path id="B" d="M218.9 65.59s2.064 5.196 2.704 4.636c2.224-1.948 7.06-5.53 7.06-5.53s5.936 4.137 12.104 7.375v9.5l1.674 48.242s-18.976 7.2-37.692-1.202l.984-34.332c.186-2.687 2.285-20.887 4.424-23.133 1.025-1.076 3.36-2.08 5.53-3.128 1.75-.846 2.575-1.355 3.2-2.428z"/></defs></svg>