<svg xmlns="http://www.w3.org/2000/svg" xmlns:xlink="http://www.w3.org/1999/xlink" width="941" height="861" fill="none" xmlns:v="https://vecta.io/nano"><style><![CDATA[.B{fill:#fff}.C{fill:#d3d3d3}.D{fill:#212637}.E{fill:#131728}.F{fill:#3d4853}.G{fill:#0f7dc2}.H{fill:#f8a688}.I{fill:#107ec2}.J{fill:#dadbd8}.K{fill:#adcfd4}.L{fill:#f46f5c}.M{fill:#f6f8da}.N{fill:#e2edbf}.O{fill:#373e53}]]></style><path d="M790.3 326.3c0 4.1-4.2 6.9-10.2 6.9-5.9 0-10.1-2.8-10.1-6.9 0-4 4.2-6.9 10.1-6.9 6 .1 10.2 2.9 10.2 6.9zm.9-53.3v25l-3.9 17.4H774l-4-17.4v-25h21.2z" fill="#c2c3c1"/><path d="M457.1 822.1h-7.4V814h-4.2v8.1h-7.4v4.6h7.4v8.1h4.2v-8.1h7.4v-4.6z" class="B"/><path d="M272 76.2l1 1c20.7 20.2 46 37.5 75 49.8 61.2 26 127.7 28.5 194.3 19.1 68.5-9.6 126.6-28.8 196.5-6.2 41.2 13.3 74.9 35.4 111.4 54 27.4 14 57.6 27.8 90.7 29.8V.2H190.5c9.7 0 37.6 24.6 44.8 31.5 14.3 13.5 22.9 30.6 36.7 44.5z" class="G"/><path d="M786.442 393.527c-39.4-10.1-63.5-42-101.5-53.4-35.1-10.6-75.7-5.8-110.9 2-34.8 7.7-64.6 25.2-100.9 29.2-15.1 1.7-32.8.6-46.9-2.9s-34.1-12.9-47.1-6.8c.4-.3 2.9-2 4-2.6-.8-.3-1.5-.5-1.1-1.2-.2 0-4.1 0-5.5.1v-1.6c-13.7-2.2-31-6.4-47.1-7.2-33.2-1.6-54.8 12.2-83.4 20.1-13.4 3.7-26.5 6.9-39.1 11.7-29 11.1-41.3 27.7-48.8 50.1-18.9 56.4-113.4 69.6-149.9 118.8-9 12.1-10.3 23.8-5.5 36.7 10.6 28 33.2 54.2 71.3 66.8 43.3 14.3 93 13.8 139.8 14.7 33.1.6 67.3 3.9 95.2 17.6 19.2 9.4 35.9 20.9 51.8 32.9h579.9v-176.5c0-37.9-3-76.9.1-114.5-15-6-27.5-9.7-39.5-18.4-12.3-8.9-25.5-17.6-44.3-16.3-17 1.2-32.6 4.5-50.5 3.7-7.2-.3-13.8-1.4-20.1-3z" class="C"/><path d="M188.7 459.5H181V453h-4.3v6.5H169v3.7h7.7v6.6h4.3v-6.6h7.7v-3.7zm226.1 221.6h-7.7v-6.5h-4.3v6.5h-7.7v3.7h7.7v6.6h4.3v-6.6h7.7v-3.7zm186.8 45.7h-7.7v-6.5h-4.3v6.5h-7.7v3.7h7.7v6.5h4.3v-6.5h7.7v-3.7z" class="B"/><path d="M417.3 131v140.6H223.9l-7-139.6 200.4-1z" class="J"/><path d="M410.4 131.8V271.6H217V131.8H410.4Z" class="B"/><path d="M217.7 270.9h191.9V132.5H217.7v138.4zm193.4 1.4H216.2V131.1h194.9v141.2z" class="J"/><path d="M389.4 146.2v107H237.9v-107h151.5z" class="B"/><g class="J"><path d="M389.4 146.2h-11.1l-31.1.1-109.3.2.3-.3v107l-.4-.4 151.5.1-.3.3.3-105 .1-2v7.5l.1 21.6.2 78.2h-.3l-151.9.1V145.9h.3l151.6.3z"/><path d="M216.9 131.5c.1-.1 1.3.6 3.3 1.9l7.6 5 7.3 5.3 2.8 2.4c-.1.1-1.3-.7-3.2-2l-14.8-10.4c-1.9-1.2-3-2.1-3-2.2zm144.8 81.2c-.2-.1-.4 0-.5-.1-.2-.1-.2-.5-.2-.7-.1-.2-.3-.3-.4-.6-.2-.4-.3-1.4.2-1.5.2 0 .4.1.5.1.3-.1.2-.5.4-.6.1-.1.3-.1.5-.1.2-.1.3-.3.4-.4.1-.2.2-.4.4-.5s.3-.1.5-.3c.4-.3.4-.8.7-1.1s.6.3.7.6c.1.2.4.3.5.5-.2.6-.6.6-.5 1.4 0 .1.1.4.2.5.1.2.3.4.3.5 0 .2-.4.2-.5.5-.1.2 0 .2 0 .6-.1.3-.4.3-.5.6-.1.4 0 .9-.3 1.1-.2 0-.4.2-.6.2-.3 0-.5-.4-.9-.4l-.5.1a.78.78 0 0 0-.4-.4zm-2.9-.8l.4.6c0 .2-.3.2-.4.5-.1.5.1 1-.2 1.2-.1.1-.4.1-.6.1-.5-.4-.9-.9-1.3-1.4-.2-.2-.3-.4-.4-.6-.2-.3-.2-.6-.4-.9-.1-.2-.4-.4-.6-.7-.1-.2-.1-.5-.3-.7-.1-.2-.3-.3-.4-.4l-.2-.4c-.3-.5-1-.7-1.1-1.4.1-.2.3.1.6.1h.5c.3.1.4.5.7.8l.5.4c.2.2.3.4.4.5.2.1.4.2.7.4s.9.5 1 .9v.4c0 .2.2.2.3.4s.2.4.4.5c.2 0 .2-.4.4-.3zm-13.1-6.7c.2.1 1 1.2.8 1.8-.1.2-.3.4-.6.3-.6 0-.5-1.4-.2-2.1z"/><path d="M333.4 172.8c.7.2 1-.7.5-1.1-.1-.1-.4-.2-.6-.4-.2-.3-.1-.7-.6-.6v.1c0 .7.9.9.8 1.4.1.2-.1.3-.1.6zm11.8-3.9c-.3 0-.4.1-.6.3-.1.1-.3.1-.3.3.3-.1.9-.2.9-.6zm7.4 11c.1-.4-.1-.8-.3-1.1-.3.1-.1.4-.1.7s-.3.5-.3.9c-.1.1-.3.2-.3.4.2.1.3-.1.4-.3.2-.2.5-.4.6-.6zm-30.2 10.7c0-.3-.1-.6-.1-1.1-.5-.4-.9.3-1.4.3-.3 0-.6-.5-.9-.4-.2 0-.3.3-.5.3-.4.1-.6-.4-1-.2-.6-.5-.9-1.4-1-2.3-.3-.5-.8-.1-1.1.2-.2 0-.3-.1-.4.1-.1.6.7.6.7 1 0 .3-.3.2-.5.4s-.1.4-.3.5c-.6.1-.7-.3-.7-.8-.2-.4-.5-.7-.8-1-.1-.1-.2-.3-.2-.5 0-.1.1-.3 0-.5-.1-.3-.6-.5-.9-.7s-.7-.3-1-.6c-.2-.2-.2-.4-.4-.5l-.4-.2c-.2-.1-.1-.3-.3-.4l-.3.2c-.1.7.4.7.6 1 .1.2.2.5.4.7.2.1.4.1.6.2l.4.4c.3.2.7.2.7.6-.2.1-.5-.2-.7.1 0 .2.1.3.1.5 0 .3-.3.7-.6.6 0-.2.1-.3.1-.5 0-.4-.7-1-1.1-1.2-.2-.1-.4-.1-.5-.2-.3-.2-.8-.6-.9-.8-.2-.3-.4-.9-.8-.8-.2 0-.3.2-.5.3l-.4.3a1.38 1.38 0 0 0-.4.3c-.3 0-.7-.3-.9-.2l-.3.3c0 .2.1.3 0 .5s-.4.2-.6.3c-.3.2-.5.5-.8.8-.2.2-.3.3-.3.4l.1.4c0 .2-.3.5-.5.6l-.3.2c-.2.1-.3.3-.5.4-.5.1-1.4-.1-1.4.5 0 .4.5.4.8.4.4 0 .7.1.9 0l.5-.3.3-.1a1.38 1.38 0 0 0 .4-.3l1-.3h1.3c.2 0 .3-.1.5-.2.3 0 .7.1 1 .1.2 0 .3-.2.6-.2.2 0 .5.2.5.3v.4c0 .2.2.3.2.5s-.5.5-.4.7l.5.4c.2.1.4.3.6.3h.5c.2 0 .6.2.8.3.3.2.2.5.5.7.1.1.4 0 .5.1.4.1.7.5 1 .4.5-.1.3-.6.3-.9.1-.8 1.5-.8 1.8-.2.2.1.4 0 .6.1l.4.3h.4c.5.1 1 .5 1.5.4.3 0 .5-.4.8-.4.5 0 .9.4 1.5.2.4-.2.3-.7.5-1.2 0-.5.2-.7.2-1zm1.8-3.7c.8-.2.4-.9 0-1.1l-1-.6c-.2-.1-.9-.4-1-.7 0-.3.6-.4.3-.9-.4-.1-1.3.1-1.2.5 0 .3.3.1.4.4-.3.1-.6.4-.9.3-.4-.1-.4-.5-.6-.8-.3 0-.4-.3-.8-.3-.3 0-.5.6-.7.9l-.3.3v.3c-.1.4-.4.5-.3.8 0 .3.3.4.3.6s-.4.1-.3.4c.5.5.5-.2.8-.3.2-.1.6.1.9 0 .2-.1.4-.3.6-.4s.3-.1.5-.1c.9 0 1.5.6 2.2.6.4.2.9.2 1.1.1zm6.6 2.3c.1-1.1-.6-1.2-.8-2l.1-.1c.2-.1.5.2.6-.1 0-.4-.4-.7-.8-.5-.1-.1-.1-.3-.2-.5-.3-.2-1.1-.7-1.1-1.1s.4-.5.9-.5c.2-.2.1-.7-.1-.8-.7-.2-1.1-.1-1.6.3-.2.2-.5.3-.6.4l-.3.5c0 .2.3.3.4.6l.1.4c.1.3.4.5.7.8.2.2.6.6.6.8s-.1.2-.2.4-.1.6-.1.8c.1.3.4.4.7.5s.6.4.9.4.6-.1.8-.3zm2.1-4.1c.5-.1 0-.9-.3-.8-.5.1 0 .9.3.8zm6.5-1.3c-.1-.2-.4.1-.3.3.2 0 .2-.1.3-.3zm-19.1 31.3c.1-.2-.2-.4-.2-.6-.1-.3.1-.6-.2-.8h-.1c-.2.5.1 1.4.5 1.4zm1.7-3.2c.1-.2.3-.4.3-.7-.1-.6-1.1-.3-1.2.1-.1.3.1.5 0 .8.1.2.4.3.7.3.1-.1.1-.3.2-.5zm.4 6.6c.1-.2.3-.9 0-1h-.1c-.1.2-.2.8.1 1zm-15.5-11.3c-.8-.1-1.6.2-2.2.5-.3.2-.6.4-.9.4s-.5-.2-.8-.2-.8 0-1.1.1-.6.3-.9.3c-.5 0-1-.5-1.4-.9-.2-.2-.4-.3-.6-.5s-.5-.3-.6-.5c-.2-.2-.2-.7-.3-1-.1-.4-.5-.7-.9-1-.2-.3-.8-.7-.8-1 0-.2.1-.4.1-.6 0-.3-.2-.4-.2-.6 0-.3.3-.5.4-.7 0-.1 0-.3.1-.4.1-.3.3-.5.2-1 0-.2-.2-.4-.2-.6s.1-.3.1-.4c0-.3-.3-.3-.4-.6 0-.3.3-.6.4-.9.1-.2.1-.4.2-.5.2-.3.4-.4.5-.7.1-.2.1-.5.2-.6.1-.2.3-.3.5-.5s.2-.4.3-.5l.5-.2c.5-.3.9-.6 1.1-1.2-.1-.5 0-.7.2-1.1.2-.3.3-.6.6-.8s.7-.2.9-.7c.1-.2.3-.6.3-.8a1.13 1.13 0 0 0-.5-.8c-.3 0-.6.2-.8-.1v-.4c0-.2-.2-.4-.2-.5 0-.3.3-.6.3-.9.1-.5 0-.8 0-1.4.4-.7 1.3-.4 2.1-.3h.4c.5 0 .9.2 1.1-.3.1-.2.1-.9.1-1.1s-.4-.8-.6-.9c-.3-.2-.7-.1-.8-.5.1-.6.8-.1 1.1-.3.2-.1.2-.4.3-.5l.4.1.8-.4c.2-.1.2-.4.4-.5l.4-.1c.2-.1.5-.3.7-.6s.3-.7.6-.8c.4-.1 1.2.1 1.3-.4.1-.4-.3-.8-.2-1.3.1-.4.4-.3.8-.5.2.2.1.6.2.9.3 0 .8-.1.8-.3.1-.3-.4-.7-.5-.9s-.1-.6-.3-.6c-.4-.1-.8.7-1.4.7-.3 0-.7-.3-.8-.6v-.5c0-.3-.2-.5-.1-.9.2-.4.7-.5 1.1-.7l.4-.3c.2-.1.6 0 .9-.2.2-.1.1-.3.2-.5l.3-.3.1-.3c.2-.3.7-.5.9-.8.1-.2-.1-.2-.1-.4.1-.2.4-.1.6-.1.3 0 .5-.4.8-.5s.7 0 1-.2c.2-.1.3-.3.5-.3h.3l.4-.1c.2 0 .5.1.7.1.4 0 .9-.1 1.2 0 .2.1.2.3.4.4.1.1.3 0 .5 0 .3 0 .6.2.9.3h.4c.4.1.8.3 1.2.4.3.1 1 .3 1 .6 0 .4-.6.5-.9.5-.4 0-1-.3-1.5-.1 0 .7.7 1.3 1.3 1.2.1-.3-.3-.1-.3-.5.3-.2.6.2 1 .1.1 0 .1-.3.2-.5.3-.2.8-.6 1.3-.3l.1-.1c0-.3-.3-.5-.1-.9.1-.2.6-.1.7 0 0 .2-.1.2-.1.4a.37.37 0 0 0 .4.3c.3 0 .3-.3.6-.4l.4-.1.4-.3h.4c.2 0 .3-.2.5-.2s.3.2.5.3c.1 0 .3-.1.4-.1h.4c.3 0 .4-.2.7-.2l.5.1c.2-.2-.2-.4-.1-.5.4 0 .9 0 1.3.1.6.1 1.3.5 1.8.5-.1-.4-.5-.3-.7-.5l-.3-.7.4-.8c.2-.3 1-.3 1.3.1.2.2.1.6.3.6s.3-.6.5-.6.3.4.5.3c.2 0 .4-.5.7-.5.2 0 .2.1.5.1.2-.1-.1-.3 0-.5.3-.3 1-.1 1.4-.2.1-.2-.1-.3 0-.4.3-.3.9-.3 1.5-.4.4-.1.7-.3 1-.4.3 0 .6.2.8.2s.3-.1.5-.1l.4-.3c.3-.1.6 0 .8 0 .3 0 .6-.2.8-.1.2 0 .4.3.6.3.6.1 1.2-.1 1.7.1l.3.2c.4.1.6.1.7.6.3.1.4.4.8.5.2.1.4 0 .7 0s.8 0 1 .1l.4.2h.4c.2 0 .3.1.5.1.3 0 .5-.3.8-.3l.4.1c.5 0 1-.1 1.4 0 .2.1.6.3.8.5.2.1.3.4.4.5l.7.3c.2 0 .2-.3.4-.3.5-.1 1.5.2 2 0 .2-.1.1-.3.3-.4l2.5.1c.3 0 .6-.1.8 0 .3.1.5.4.8.5.2.1.5 0 .8.1.2 0 .3.2.5.2.3 0 .6 0 .9-.1.6-.1 1.5-.1 2.1.2.3.2.5.5.8.5.5.1 1.3 0 1.8 0l.3.1c.2 0 .3-.2.5-.2.3 0 .7.5 1.1.4.2-.1-.1-.3 0-.4.2-.1.4 0 .6 0l.4-.1c.3 0 .6.3 1 .4.3.1.7.1 1.1.1.3 0 .5-.1.8-.1l.4.2h.3l.3.2c.5.2 1.2.3 1.8.4.3.1.6.3.9.3.1 0 .3-.1.4-.1.8 0 1.8.4 1.8 1.3-1 .2-1.8-.8-2.8-.5-.2 0-.4.3-.3.4 0 .5 1.3.5 1.4 1-.2.2-.4 0-.6 0a1.13 1.13 0 0 0-.8.5c-.2.2-.4.7-.6.8-.3.1-.6-.3-1-.2l-.4.3c-.3.1-.7-.2-.9.2.1.3 0 .7.3.8.1.1.3 0 .5.1s.3.4.5.5c.1.1.3.1.4.3 0 .2-.1.3 0 .4 0 .3.4.3.4.5s-.2.2-.3.4c0 .1.2.2.2.4l-.1.4c0 .2.2.3.1.5 0 .2-.1.3-.3.3l-1.6-1.4c-.6-.5-1.5-1.1-1.6-2.2 0-.2.3-.3.4-.5v-.4c0-.4.3-.7.3-.9s-.4-.7-.6-.8c-.2.1 0 .3 0 .4 0 .2-.2.4-.4.4-.5.1-.6-.8-1.4-.5-.2.1-.5.4-.4.9 0 .1.4.3.3.5 0 .2-.8.2-.9.2-.5 0-.7-.4-1.1-.4-.2 0-.4.2-.5.2-.9.2-2.2-.5-2.5.4l-.1.4c-.1.2-.2.3-.2.4s0 .3-.1.4-.6.7-.1.8h.3c.2 0 .6.5.9.5.2 0 .4-.2.5-.2.3 0 .5.2.7.3s.5.3.6.3c.3 0 .1-.2.4-.3.5.2.7.7 1.2 1.2.2.2.4.3.6.5.1.1.5.5.5.6l-.1.3c0 .2.1.3 0 .5-.5-.2-.6-.7-.9-1.1-.1-.2-.2-.3-.4-.6-.1-.1-.4-.5-.6-.4-.4.2.2.8.3.9.2.3.4.7.5.9 0 .2-.1.5-.1.8v.6c0 .2-.1.4-.2.6s-.1.5-.1.7c-.1.3-.5.6-.7.6s-.3-.2-.6-.2-.4.4-.6.7c0 .3.1.4.1.6-.1.3-.5.4-.5.7s.4.4.6.5c.3.2.7.6.9.9.2.2.4.6.4.9s-.8.7-1.1.6-.2-.4-.3-.8c-.1-.2-.2-.3-.3-.5l-.1-.4c-.2-.3-.5-.1-.8-.3-.2-.1-.2-.4-.2-.7-.1-.3-.6-.5-1-.4-.3.1-.4.3-.7.4-.4-.3.1-1-.4-1-.4 0-.6.6-.9.8-.2.1-.4.2-.4.3 0 .3.3.3.6.4s.3.5.5.5.3-.2.5-.3c.3 0 .6.1.8.3-.1.4-.9.7-.9 1.2 0 .3.3.3.5.5s.5.6.7.9l.4.3c.1.2.1.5.3.6 0 .2-.1.2 0 .4s.4.2.4.4c-.1.5.2 1.1-.3 1.3-.2 1-.4 1.7-1 2.3-.5.5-1.2.6-1.9.9-.2.1-.3.3-.4.3-.4.1-1 .1-1.1.6 0 .3.3.4.3.7 0 .4-.3.8-.5.8s-.5-.1-.5-.4c0-.4.4-.5.4-.8.1-.4-.3-.8-.7-.8s-1.2.9-1.2 1.3c0 .3.6 1.1.8 1.3.8.8 1.6 1.2 1.5 3.2-.2.5-.7.6-1.1.8-.3.2-.4.8-.9.9-.2-.1-.1-.4-.1-.6-.1-.2-.5-.3-.7-.6-.2-.2-.3-.5-.4-.7-.2-.2-.5-.3-.7-.4l-.4-.4c-.3 0-.2.3-.2.7-.1.4-.3.8-.3 1.3 0 .2.3.4.4.6.2.4.2.8.4 1l.5.3c.3.2.8.8.9 1 .1.3 0 .7.1 1.1s.6.7.3 1.1c-.3-.1-.5-.3-.7-.4-.4-.3-.6-.5-.8-.9l-.2-.4c-.1-.3-.1-.6-.2-.9a3.33 3.33 0 0 0-.6-1c-.2-.2-.5-.3-.6-.6 0-.4.1-.9.1-1.4l-.1-.3v-.8l-.3-.6c-.1-.2-.2-.4-.2-.6-.1-.4-.2-1.1-.5-1.1s-.6.6-.9.6c-.2 0-.4-.2-.5-.4 0-.2.1-.4.1-.6 0-.4-.3-.6-.5-.9l-.2-.4c-.1-.2-.4-.3-.5-.4-.1-.2-.3-.4-.4-.6s-.1-.6-.3-.6-.3.2-.5.3-.6.1-.8.2c-.6 0-1-.1-.9.6-.1.3-.4.3-.6.5-.3.2-.5.6-.8.9-.1.2-.4.3-.5.4l-.3.4c-.3.3-.8.3-.9.8 0 .5.2.9.2 1.4 0 .2-.2.4-.2.7 0 .2.1.4 0 .6l-.2.3-.2.4-.3.3c-.1.2-.2.3-.3.3-.6.1-.8-1.2-1-1.8-.1-.3-.4-.5-.5-.8-.1-.4-.2-.8-.4-1.2a4.67 4.67 0 0 1-.5-1l-.3-1c-.1-.4-.2-.8-.2-1.1 0-.4.1-.7-.2-.8-.3.1-.4.4-.7.4s-1.1-.6-.9-1.1c-.2-.3-.7-.5-1.1-.9-.2-.2-.4-.7-.8-.8l-.3.1h-.9c-.3 0-.8.1-1.2.1-.3 0-.6-.1-.9-.1-.4 0-.8-.1-1-.3-.1-.1-.2-.5-.4-.6-.3-.1-.4.2-.6.2-.5.1-.9-.1-1.3-.4-.2-.2-.5-.3-.6-.4-.4-.3-.5-1.3-1.2-1.3-.2 0-.6.2-.6.4s.2.6.3.7c.3.5.9.7 1.1 1.4h.5c.1.3 0 .8.3.9 1.2.2 1.5-.5 2-1 .3.2.2.4.3.7s.3.4.5.5c.1.1.3 0 .5.1.1.1.7.6.7.9 0 .2-.4.8-.5 1s-.3.2-.3.4l-.1.4-.4.4c-.2.2-.3.3-.5.4-.2.2-.3.4-.5.4-.4.2-.7.1-1 .3-.2.1-.2.5-.4.7-.3.2-.7.2-1.1.4-.2.1-.4.4-.6.4h-.3c-.2.1-.4.2-.5.3l-.4.1c-.4.1-.8.6-1.3.3-.2-.5-.2-1.2-.5-1.7-.1-.2-.4-.3-.5-.6 0-.2.2-.1.2-.3-.1-.3-.4-.5-.5-.8-.1-.1-.1-.3-.2-.5-.3-.5-1-.8-1.1-1.5v-.5c-.1-.2-.2-.5-.3-.7-.1-.1-.3-.2-.4-.4l-.2-.5c-.3-.6-.7-1.1-1.1-1.5-.2 0-.5.1-.6.2.1.4.3.8.5 1.1a4.67 4.67 0 0 1 .5 1l.1.4c.2.5.7.7.8 1.2.1.4 0 .7.1 1 .1.4.6.6.8.9s.2.7.3 1c.2.4.6.6 1 .9.3.2.5.6.8.9.2.2.3.2.4.3.1.2-.1.3-.1.5.2.3.4.7.8.8.1 0 .3-.2.6-.2h.3c.2 0 .3-.2.5-.2.3-.1.6 0 1-.1.3 0 .6-.4.8-.3.3.4.1.8 0 1.1l-.1.3c-.2.6-.5 1-.7 1.5-.1.2-.1.3-.1.5-.2.5-.6 1-1 1.4l-.6.6c-.2.2-.5.3-.7.5-.4.4-.9.9-1.2 1.4l-.3.6c-.2.2-.5.3-.6.6-.1.2-.2.5-.3.8-.2.4-.5.6-.4 1.1 0 .2.2.3.2.5.1.3 0 .6 0 1 .2.4.3.9.5 1.2v1.8c0 .3.2.6 0 .9-.1.3-.5.8-.8.9-.3.2-.7.2-.9.5l-.6.6c-.3.3-.8.6-.8.9 0 .2.1.5.2.6.1.5.2 1.1 0 1.6s-1.2.4-1.3 1c0 .2.1.3.1.5s-.2.7-.3.9c-.1.3-.4.4-.6.6-.2.3-.3.7-.6 1-.3.4-.8.8-1.2 1.2-.4.3-1 .6-1.6.7-.3 0-.7-.1-1.1 0-.1 0-.3.2-.4.2h-.3c-.2 0-.3.2-.5.2-.4 0-.8-.5-.8-1 0-.2.2-.4.1-.5 0-.2-.2-.5-.4-.8-.2-.4-.2-.8-.4-1-.2-.3-.4-.5-.5-.7-.3-.5-.3-1.1-.4-1.6 0-.2-.2-.4-.2-.6v-.9c0-.2-.2-.4-.3-.6-.2-.4-.3-.9-.5-1.3-.2-.3-.5-.6-.5-.9 0-.2 0-.7.1-.9 0-.2.2-.4.2-.6v-.5c.1-.7.8-1 .8-1.9 0-.4-.3-.6-.3-1 0-.2.1-.4.1-.6 0-.3-.2-.7-.3-.9-.3-.7-.5-1.3-.9-1.9-.2-.3-.5-.5-.7-.8-.2-.2-.3-.6-.3-.8s.1-.3.2-.5.1-.7.1-1c0-.2.2-.6.2-.9s-.4-.8-.7-.9c-.4-.1-.8.1-1.3.1-1.4.6-1.3-.2-2-.3zm6.7-30.9c0 .5-.7.5-.8.9 0 .2.1.5.1.7-.1.3-.3.2-.7.4-.2.1-.4.4-.6.4s-.3-.1-.4-.1c-.2 0-.1.3-.4.3-.2 0-.6-.2-.6.1 0 .2.3.3.6.3.2 0 .3-.2.5-.2.3 0 .6.3.8.3.5 0 1-.5 1.5-.4.2 0 .4.2.5.2.3 0 .5-.4.7-.5-.1-.5 0-1.2.4-1.3.3 0 .8.6.8 0 0-.3-.2-.5-.4-.5s-.4.4-.5.1c0-.3.3-.2.5-.3l.3-.3c.7-.3 1.6.3 1.8-.4-.6-.6-1.6.2-2.3.2-.3 0-.7-.3-.8-.6v-.4c0-.2-.1-.4-.1-.5 0-.6 1.3-.7 1.3-1.4-.2-.3-.9-.2-1.2.1-.1.1-.1.3-.2.5-.3.4-1.1.5-1.3 1-.1.1-.2.4-.1.6 0 .4.6.5.6.8zm10.7-4.7c-.1-.3.5-.3.4 0h-.4z"/><path d="M320.8 190.5c0-.3.5-.4.6-.1 0 .2-.5.4-.6.1zm-9.6-1.7c.3-.3.9-.1 1.3-.1-.1.2-.1.6-.3.7-.3-.1-.8-.3-1-.6zm-2-1.7c.4-.5.8-.2.6.7-.1.3-.5.6-.7.2.1-.3.1-.6.1-.9zm.6-1c0 .3-.1.4-.2.5-.4-.1-.1-.9.2-.5zm-5.5-6.4a.55.55 0 0 0-.3-.5l-.3-.1c-.3-.2-.4-.5-.5-.6 0-.3-.1-.6 0-.8.1-.1.4-.5.6-.6.3-.1.5 0 .7-.2h.1c0 .2-.2.2-.2.4 0 .3.5.1.5.4s-.3.4-.3.6.3.5.5.8c.1.2.3.3.5.5.1.2.1.4.2.4.1.2.5.2.5.4 0 .3-.3.4-.3.8-.4.3-1 .2-1.7.3-.3 0-.6.4-.9.1-.1-.2.2-.2.3-.4 0-.2-.2-.2-.3-.3.1-.2.3-.3.3-.7.3-.3.6-.3.6-.5zm-2.1-.8c.4-.3 1-.1 1.1.3 0 .2-.2.3-.3.5s0 .5-.1.7l-.5.2c-.3.1-1 .6-1.3.1 0-.3.3-.3.4-.6 0-.2-.2-.3-.1-.5 0-.2.2-.2.4-.3.1 0 .2-.2.4-.4zm-19.1-6.8c.1.3-.7.6-.8.3 0-.3.6-.7.8-.3zm-2.1-2.3h.2l-.2.1v-.1zm-2.5 5.1c0 .2-.6.5-.6.1l.1-.3c.1-.1.5 0 .5.2zm-11.7 29.2l-.1.1c-.2.1.1-.4.1-.1zm-11.3-22c.2-.1.4.2.3.3-.3.1-.3-.2-.3-.3z"/><path d="M273.8 205.5c.2 0 .2-.6-.1-.5s-.2.5.1.5zm-8.4-32.2c.2 0 .4.1.5-.1-.1-.7-1-.3-1.5-.2l-.3.6c.4 0 .8-.3 1.3-.3zm.1 2.2c.2-.1.4 0 .4-.2l-.4-.3c-.2 0-.3.2-.5.3s-.6.2-.6.4c.4.1.8-.1 1.1-.2zm5-3.2c.1-.1.2-.2.2-.3-.3-.2-.8 0-1.3-.1-.3-.4-.7-.5-.7.2.5.4 1.3-.3 1.8.2zm10.6-2.5h-.2v.1l.2-.1zm3.2 3.1c.1 0 .2 0 .2-.2-.1-.1-.3.1-.2.2zm-29.3 5v-.1l-.2.1h.2zm11.8 26.4l.1-.1c-.1-.4-.4.1-.1.1zm1.5-23.7c.3 0 .5-1.1 0-.9-.4.1-.4.9 0 .9zm3.5 3.6c-.1-.2-.8 0-.9.2-.1.1-.2.3-.3.5s-.3.3-.4.5c-.1.1-.7 1.1-.2 1.2.2 0 .6-.4.6-.6.1-.6.4-1 .8-1.3.1-.2.4-.2.4-.5zm.4-.5c.6-.3-.1-1.1-.4-1.2-.4-.1-1.1.4-1.6.5-.3.1-.6.1-.6.4.3.5.8-.1 1.2 0 .2 0 .3.3.5.4l.9-.1zm1.2 2.3c-.4-.2-.8.1-1.1.2-.2 0-.5 0-.5.3s.4.2.6.1c.5-.2.8-.3 1-.6zm.4-1.2c.2-.2.1-.6-.1-.7l-.4.1-.4-.2c-.2 0-.5.1-.5.2 0 .2.1.2.1.4-.3.2-.1 1 .1 1 .3 0 .4-.8.8-.9.2 0 .2.1.4.1zm1.5.5c-.1-.1-.5-.1-.8-.1-.2 0-.4.1-.4.2.3.2 1.1.3 1.2-.1zm-19.5-2.8c.1-.2-.1-.5-.3-.3 0 0 0 .3.3.3zm30.2.8c-.1 0-.3 0-.5-.1l-.4-.1c-.3 0-.7.1-.9-.2.3-.5.8-1 1.2-1.4.1-.1.4-.2.3-.5-.2-.2-.5 0-.8.2-.2.2-.5.4-.8.4-.5.1-1.1-.2-1.4.1-.1.2.4.1.4.5-.2 0-.4 0-.5-.1l-.1-.4c-.1-.1-.7-.2-.9-.1-.3.1-.6.3-.6.5.3.2.9-.2 1.1.3-.2.4-.6.6-.6 1.1 0 .2.2.5.4.5l.4-.1c.2 0 .1.2.3.2.3-.1.4-.6.7-.5.4.5-.3.8-.7.9-.4.2-1 .3-1.4.4-.2.1-.8.8-.9.3-.1-.4.3-.3.4-.6-.4-.1-.8.2-1.2.4-.6.2-1.5.4-1.7 1.1v.5c-.1.1-.5.1-.7.2-.3.1-.5.3-.7.4l-.4.1c-.2.1-.3.4-.6.7l-.4.3c-.1.2-.2.6-.4.6s-.3-.1-.5 0c0 .4.1.9 0 1.4-.3.3-.7.5-1.1.8-.2.1-.4.2-.7.3-.2.1-.4.4-.6.5-.5.4-1.2.8-1.2 1.7 0 .2.1.4.1.6v.4c0 .3.2.7 0 1-.4-.2-.9-.2-1.1-.5-.1-.3.1-.6.1-.9 0-.2-.3-.6-.5-.7-.2 0-.3.2-.5.2s-.4-.3-.7-.4c-.4 0-.7.1-1.1 0-.4.3-.6.7-1.1.7-.2 0-.3-.2-.5-.2-.2-.1-.6-.1-.8-.1-.5 0-.8.4-1.2.7-.4.2-.9.5-1 .9-.1.2 0 .6-.1.8l-.2.4c-.3.6-.6 1.5-.3 2.4 0 .1.3.9.5 1.1.1.2.6.4.8.4s.4-.1.6-.2c.2 0 .5 0 .7-.1.6-.2.5-1.1 1.1-1.5.3-.1.6-.2 1-.2.2.1.2.4.2.6s-.1.3-.2.5-.1.4-.1.6c-.1.2-.3.4-.3.6l-.1.4c-.1.2-.3.4-.2.6.6.3 1.3-.1 1.8 0 .2 0 .7.3.7.7 0 .3-.2.5-.2.8 0 .4-.2.9-.2 1.2 0 .5.7 1.4 1.2 1.4s.8-.6 1.5-.3c.2.1.4.5.7.5.2 0 .5-.4.6-.7s.2-.6.4-.8c.3-.2.5-.1.9-.3.2-.1.3-.2.5-.3.1-.1.3-.4.4-.2.2.3-.3.4-.1.7.4.2.6-.4.9-.4l.6.3c.2.2.3.4.5.4s.4-.1.6 0c.3 0 .5.3.7.3.3 0 .4-.3.6-.4.5-.1.7.1.9.4.3 0 .3-.3.5-.2-.1.3 0 .4.1.6l.1.3c.1.1.4.1.6.3.2.1.3.4.6.7.2.3.7.6 1 .7.3 0 .6-.1.8-.1.6.1.9.4 1.3.8.2.2.4.3.5.6.1.2 0 .4.1.6.1.4.6.6.5 1.3.1.2.3.3.5.4s.3.3.5.4h.3c.3 0 .5.2.8.3.2.1.4.1.5.2s.2.5.3.6.4 0 .6 0c.3 0 .7.2 1 .3.2 0 .3-.1.4-.1.7.1 1.1 1 1.7 1.3.2.1.5 0 .7.1.3.1.5 1 .5 1.4.1 1.1-.7 1.5-1.2 2.3-.1.2-.1.4-.3.6-.3.4-.6.5-.5 1.4 0 .2.1.4.1.7s0 .7-.1 1c0 .2-.2.4-.2.6v.5c0 .2-.2.4-.3.7-.3.5-.3 1.2-.8 1.4-.3.1-.7.1-1.1.2-.1.1-.3.2-.5.3-.5.3-1.2.6-1.3 1.2-.1.5.2.9.1 1.5-.1.2-.2.3-.3.5l-.3.6c-.2.2-.4.3-.5.7 0 .1 0 .2-.1.4l-.2.3-.1.3c-.1.3-.5 1-.8 1-.6.2-1.2-.3-1.6-.2 0 .3.3.3.4.5l.2.4c.1.2.2.2.3.4 0 .4-.2.8-.4.9s-.5.2-.8.3c-.2 0-.7 0-.8.2s.1.8 0 1c-.2.5-.8 0-1.1.1 0 .2.1.5.2.6.2.1.4 0 .6.2-.1.3-.4.4-.4.7s.1.4.1.6c-.1.4-.6.4-.6.8 0 .6 1.1.4 1.1 1 0 .4-.3.4-.4.8-.1.2 0 .2 0 .4-.1.2-.3.3-.3.5 0 .3.4.6.6.9.2.2.4.6.7.8.4.2 1 .2 1.2.6-.1.3-.3.3-.5.4h-.9c-.4-.2-.8-.3-1.3-.5-.2-.1-.4-.2-.5-.3l-.4-.2c-.2-.1-.5-.6-.8-.8l-.5-.3-.2-.5-.4-.4c-.2-.3-.5-.8-.5-1.1s.2-.4.1-.7c-.1-.2-.5-.2-.6-.4 0-.2.1-.4.1-.7 0-.1-.2-.3-.1-.5s.3 0 .4-.1c-.1-.5 0-1.2-.4-1.3-.2.2.2.6-.1.8-.3-.2-.3-.7-.3-1-.1-.2-.2-.5-.2-.7v-.4c-.1-.4-.5-.8-.5-1.2 0-.2.1-.4.1-.6v-.5c0-.2.1-.4.1-.6 0-.3 0-.9-.1-1.2-.1-.4-.3-.7-.4-1.1v-.6c0-.2-.1-.3-.1-.5s0-.4.1-.6c0-.4-.1-.8-.1-1.2l.1-.3c0-.3-.1-.7-.1-1 0-.6.1-1 0-1.6l-.3-1.3c-.2-.3-.7-.8-1-1-.2-.1-.4-.2-.7-.3-.4-.3-1.3-.8-1.5-1.3-.1-.1-.1-.3-.1-.5-.1-.3-.4-.6-.6-.9l-1-2c-.2-.3-.3-.7-.5-.9-.1-.1-.5-.3-.5-.5-.1-.3-.3-.7-.2-.9 0-.3.6-.5.6-.8 0-.2-.3-.4-.3-.6-.1-.5.1-.8.3-1.2l.2-.4c.1-.2.3-.2.4-.4l.2-.5c.2-.3.6-.4.6-.7.1-.2.1-1.4 0-1.8 0-.2-.2-.4-.3-.6-.1-.4-.2-.8-.5-.8-.2 0-.4.3-.5.4 0 .2 0 .5-.2.5-.3.1-.4-.4-.8-.5l-.5-.1c-.3-.1-.4-.6-.6-.8-.2-.1-.4-.1-.6-.3-.1-.2 0-.4 0-.6-.3-.2-.6-1-.9-1.1-.2-.1-.6-.1-.9-.2l-.4-.2c-.2 0-.4 0-.5-.1-.6-.3-.9-1.3-1.5-1.3-.3 0-.6.3-.8.3-.3 0-.7-.2-1-.4s-.7-.3-1-.4c-.2-.1-.4-.4-.6-.5l-.5-.2c-.2-.1-.4-.3-.6-.5s-.4-.4-.4-.6.2-.5.2-.7c.1-.8-.4-1.3-.7-1.7-.2-.3-.5-.6-.7-.9v-.4c-.2-.2-.3-.5-.5-.8s-.5-.5-.5-.8c-.1-.4.1-.7 0-1-.2-.6-.9-.3-.8.4 0 .2.3.5.4.7s.1.5.1.7c.1.2.3.5.4.7.1.4.1.9.2 1.2.1.2.4.5.3.8-.3.1-.4-.2-.5-.4-.1-.1-.4-.3-.5-.5s.1-.4 0-.7c-.1-.4-.9-.5-.9-.9 0-.3.3-.3.3-.6s-.4-.6-.4-.8c-.1-.2-.1-.6-.1-.9v-.9c-.1-.2-.3-.5-.5-.6-.3-.2-.4-.1-.6-.3-.1-.2-.2-.6-.2-.8v-2.4c.1-.3.4-.5.5-.8.1-.2.1-.5.2-.7.2-.4.7-.8 1-1.2s.6-.9.8-1.4c.1-.2.3-.6.2-.8 0-.3-.5-.6-.5-.9 0-.2.3-.2.4-.4l.1-.6c0-.3-.1-.6-.1-.9.1-.3.4-.4.2-.7s-.5.2-.7 0 0-.4.1-.7l-.1-.4.2-.5c-.2-.2-.3-.8-.6-.9-.4-.2-.8-.1-1.4-.2-.3-.1-.5-.4-.8-.4-.2 0-.3.3-.6.4s-.6.1-.9.2-.4.3-.7.3c-.2 0-.2-.3-.5-.3-.1 0-.3.1-.5.1-.4.1-1.2.1-1.7 0-.4-.1-.7-.2-1.1-.5-.3-.2-1-.4-.9-.7 0-.2.6-.4.8-.4.4-.1.6-.3.9-.3l.4.1c.2 0 .3-.2.5-.2.4-.1.9 0 .9-.4-.3-.3-1.5.2-1.5-.4 0-.3.5-.5.8-.5.3-.1.8-.2 1.1-.2s.7.4.9 0c.1-.3-.1-.6-.2-.9.2-.4.7-.3 1-.4.4-.1.7-.1 1.1-.3.3-.2.7-.3 1.1-.3l1.1-.3c.3 0 .5 0 .8-.1.2-.1.5-.2.8-.2.2 0 .3.2.5.2h.5l.4.2h.6c.2 0 .3.2.5.2.4.1.9 0 1.3.1.2 0 .3.1.5.2h.5c.2 0 .4.3.7.3.4.1.9-.2 1.4-.3.3 0 .7 0 1-.1s.6-.2.9-.2h.4l.5-.2c.2 0 .2.3.4.4.2-.1.5 0 .8 0s.5-.1.8-.1c.5.1 1.2.7 1.6.3.1-.1.1-.2.2-.4.1-.3.4-.6.3-1-.6 0-1.1.3-1.7.3-.6-.5.2-.7.6-.9s.7-.6 1.2-.6c.4-.1.8.1 1.3.2h.7c.3.1.4.4.7.5l.4.1c.3.1.5.2.7 0 .2 0 .2.3.4.3.2-.1.3-.4.6-.5h.4c.2 0 .5-.4.7-.1-.1.2-.4.3-.5.4-.2.2-.4.5-.4.7 0 .3.4.2.5.6-.1.2-.3.1-.5.2s-.2.3-.4.3c-.5.1-.9-.1-1.4-.1 0 .2.2.3.3.4.4.2.7.2 1.3.2.3 0 .6.1.9-.1l.3-.5c.2-.2.5-.4.8-.3l.3.3c0 .3-.4.2-.4.5.2.2.9-.2.9-.4s-.2-.3-.2-.5c0-.3.4-.3.4-.7-.2-.2-.4 0-.6 0-.3-.1-.5-.4-.6-.7.1-.2.4-.1.6 0 .2-.3.6-.4 1.1-.5.2 0 .4-.1.5.1 0 .3-.4.5-.3.8.4.1.5-.5.8-.7.1-.1.3-.2.5-.3s.4-.3.5-.3l.3.2c.1.1.3 0 .4.2-.3.6-1.5.3-1.9.9.1.4-.2.8 0 1.1.2.2.5.1.6.3.1.3-.3.3-.2.6.3.2.6-.2.9-.3.3-.2.7-.4.7-.8-.1-.3-.7-.1-.8-.4-.1-.2.2-.6.2-.7.3-.4 1.3-.9 2-.8l.4.1c.5.1 1.1-.2 1.4 0 .3-.2.7 0 1.1 0 .3.2.2.7.7.9.1.1.3 0 .5.1l.4.3c.2.1.4.1.4.3s-.2.3-.1.4 0 .3.1.4c.1.3.4.3.7.4.2.1.7.4.7.6s-.4.4-.6.5l-.7.3c-.3 0-.4-.6-.7-.6-.1 0-.3.1-.3.3 0 .4.4.4.4.8s-.2.5-.5.7c-.2-.1-.4-.3-.7-.3-.2.2.3.3.1.6-.4.1-.8-.1-1.2-.3l-.4-.1c-.2-.1-.2-.4-.3-.6-.2-.2-.4-.4-.7-.4s-.8.5-1.1 0c.2-.7 1.1-.2 1.7-.4.2-.1.3-.4.5-.5.4-.2 1-.3.9-.7 0-.2-.3-.2-.5-.3-.2-.2-.4-.7-.7-.8-.2 0-.3.1-.5.2-.4 0-.8-.2-1.1 0-.2.1-.1.3-.2.4-.1.2-.3.2-.4.3-.1.2-.1.4-.2.5-.2.2-.7.3-1 .4l-.4.2c-.2 0-.3-.3-.6-.2 0 .3.3.5.5.6.2.2.5.3.6.6-.2.5-.6 0-1 0s-1 .9-1.3.2c.1-.4.4-.4.5-.8-.4.1-.7.5-1.2.6-.2 0-.4 0-.6.1-.3.1-.6.4-.9.5l-.4.1c-.3.1-.7.4-1.1.6s-.8.4-1 .7l-.4.7c0 .2.3.3.3.4s-.2.4-.1.5c.1.2.3 0 .6.1.4.1.7.5 1 .7s.6.3.9.4c.4.1.8-.1.9.2s-.4.5-.4.7c.2.3-.1.5-.1.7s.2.5.5.6c.3 0 .7-.3.8-.6.1-.4.1-.9.3-1.2 1.3 0 2.4-.7 2.3-2.2 0-.1-.1-.3 0-.5 0-.2.4-.4.4-.8.4-.1.3-.8.7-.9.3-.1.7.3 1.1.2l.5-.1c.3 0 .4.4.6.6s.4.1.4.3c0 .4-.3.4-.3.7a.55.55 0 0 0 .4.5c.2 0 .5-.1.7-.2.4-.2.7-.8 1-.7.2.1.4.9.5 1.3v.9c0 .5.6.5.9.8l.2.4c.1.2.3.2.3.4 0 .5-.4.6-.4 1.2-.1.2-.4.2-.3.5 0 .5.7.1.8.5.1.2 0 .4-.1.7.2.3.2.8-.2.8-.8-.4-.9-.7-1.1-.7z"/><path d="M254.9 177.8v.1h-.2l.2-.1zm-.8 1.8a.78.78 0 0 1-.4.4l-.1-.2c0-.3.4-.5.5-.2z"/></g><path d="M877.5 465.3c0 2-1.3 3.4-3.3 3.4-1.9 0-3.2-1.4-3.2-3.4s1.3-3.4 3.2-3.4c2 0 3.3 1.4 3.3 3.4zm.3-26.3v12.3l-1.3 8.6h-4.3l-1.3-8.6V439h6.9zM111.5 624.3c0 2-1.3 3.4-3.3 3.4-1.9 0-3.2-1.4-3.2-3.4s1.3-3.4 3.2-3.4c2 .1 3.3 1.4 3.3 3.4zm.3-26.3v12.3l-1.3 8.6h-4.3l-1.3-8.6V598h6.9z" class="B"/><path d="M874 366.6h-11.7V358h-6.6v8.6H844v4.8h11.7v8.6h6.6v-8.6H874v-4.8zm-481-36h-11.7V322h-6.6v8.6H363v4.8h11.7v8.6h6.6v-8.6H393v-4.8zM272.3 342h-10.8v-11.1h10.8V342zm8.4-29.8c0 8.2-9.3 10.5-9.3 13.7v1.3h-9.3v-3c0-4.4 7.1-6.9 7.1-11.7 0-2.2-1.3-4.2-3.6-4.2-2.9 0-3.5 2.5-3.5 5 0 .5 0 1.1.1 1.6h-10c-.1-.8-.2-1.5-.2-2.3 0-7.8 6.3-12.6 14.8-12.6 8.4 0 13.9 4.8 13.9 12.2z" fill="#c2c3c1"/><path d="M503.2 804.9c41-2.9 75.3-22.3 113.1-32.9 33-9.3 68.4-16.3 103.7-13.4 71.3 5.9 85.9 65 138.5 92.7 27.1 14.3 56.4 11.5 82.5-.9V715H360c24.6 47.2 77 94.7 143.2 89.9z" class="C"/><path d="M882.7 800.1H875v-6.5h-4.3v6.5H863v3.7h7.7v6.6h4.3v-6.6h7.7v-3.7zM565.9 752h-7.7v-6.6h-4.3v6.6h-7.7v3.7h7.7v6.6h4.3v-6.6h7.7V752zM322.7 391.5H315V385h-4.3v6.5H303v3.7h7.7v6.6h4.3v-6.6h7.7v-3.7z" class="B"/><path d="M914 492.8l.3.4s1.7-1.5 3.4-3.9 3.5-5.7 3.5-9.4c0-1.7-.4-3.4-1.3-5.1-1.5-2.9-2.8-4.7-3.7-6.1l-1-1.8s-.3-1-.3-1.5c0-1.1.6-2.7 1.9-5.3 1.6-3.2 2.5-5.4 2.5-7.6 0-1.5-.4-2.8-1.2-4.3s-1.9-3.1-3.4-5.2c-1.9-2.6-2.3-6.3-2.3-10.4 0-3.5.3-7.2.3-10.5 0-2.5-.2-4.9-1-6.7-.7-1.7-1.6-3.3-2.6-4.4-.5-.6-1-1-1.5-1.4-.5-.3-1-.6-1.6-.6-.4 0-.9.2-1.2.5-.5.5-.9 1.2-1.2 2.3s-.4 2.4-.4 4.2c0 4 .4 6.9.9 9.4.4 2.5.8 4.6.8 7 0 2.2-.3 4.8-1.4 8.2-1.1 3.5-2.4 7-3.6 10.3-1.1 3.3-2 6.4-2 9.2 0 1.5.3 3 .9 4.2.7 1.3 1.7 2.3 3.2 3.2 1.4.8 2.2 1.7 2.8 2.7.5 1 .7 2.1.7 3.3 0 1.6-.4 3.4-.7 5.3-.4 1.9-.8 3.8-.8 5.8 0 1.2.2 2.4.5 3.6.7 2.3 1.8 3.7 3 4.5a6.53 6.53 0 0 0 3.6 1.1c1.6 0 2.8-.5 2.8-.5h.1l.1-.1-.1-.4-.2-.4c-.2.1-1.2.4-2.4.4-1 0-2-.2-3.1-.9-1-.7-2-1.9-2.7-4-.4-1.1-.5-2.2-.5-3.3 0-1.8.4-3.7.7-5.6.4-1.9.7-3.7.7-5.5 0-1.3-.2-2.6-.8-3.8s-1.6-2.2-3.1-3.1c-1.4-.8-2.2-1.7-2.8-2.8s-.8-2.3-.8-3.8c0-2.6.8-5.6 1.9-8.9s2.5-6.8 3.6-10.3 1.4-6.1 1.4-8.5c0-2.5-.4-4.7-.9-7.2-.4-2.5-.9-5.3-.9-9.2 0-2.3.3-3.9.6-4.8.2-.5.4-.8.6-.9.2-.2.4-.2.6-.2.3 0 .6.1 1 .4 1.2.8 2.7 2.9 3.7 5.4.7 1.6.9 3.9.9 6.3 0 3.2-.4 6.9-.4 10.5 0 4.1.5 8 2.5 10.9 1.5 2 2.6 3.6 3.3 5.1.7 1.4 1.1 2.6 1.1 3.9 0 1.9-.8 4-2.4 7.1-1.4 2.6-2 4.2-2 5.7 0 .7.1 1.3.4 1.9.8 1.8 2.5 3.7 4.8 8 .8 1.6 1.2 3.1 1.2 4.7 0 3.3-1.6 6.5-3.3 8.8-.8 1.2-1.7 2.1-2.3 2.8l-1.1 1.1.7.2-.2-.4.2.4z" fill="#355e51"/><path d="M903.7 483.8c-.6-1.3.9-7-2.4-11.3-3.2-4.3-3.4-4.7-1.5-12.2 1.9-7.6-1.2-13.1-1-22.1.3-9 5.8-15.8 8.1-8.2s2.9 8.4 1.4 16.5c-1.5 8 1.8 5.1 2.7 15.3.9 10.3-1.4 35.6-7.3 22z" fill="#577866"/><path d="M895.9 484.6l27.9-.2-8.5 34.6-12.8.1-6.6-34.5z" fill="#eb942f"/><path d="M508.6 168.6c0-32.4 24.5-58.6 54.8-58.6 30.2 0 54.7 26.2 54.7 58.6H508.6z" fill="#ee2b2f"/><g fill="#080909"><path d="M562.6 110.1h1.6v-78h-1.6v78z"/><path d="M796.6 204h.8v-76.4h-49v39.8L563.1 30 240.9 268.8v421.1h644.5V268.8l-88.2-65.4-.6.6-.5.6 87.6 64.9v418.9H242.4V269.5L563.1 31.8 750 170.4V129h45.8v75.3l.3.2.5-.5z"/></g><path d="M481 640c-53.6 0-97-7.6-97-17s43.4-17 97-17c38.8 0 72.3 4 87.8 9.8v14.5c-15.5 5.7-49 9.7-87.8 9.7zm87.8-9.8v-14.5c5.1 2.1 9.2 4.8 9.2 7.2s-4.1 5.3-9.2 7.3zm136.4 19.3c-67.7 0-122.5-7.6-122.5-17s54.9-17 122.5-17c49 0 91.4 4 110.9 9.8l1.7 13.9c-19.6 5.8-63.6 10.3-112.6 10.3zm112.6-10.3l-1.7-13.9c6.4 2.1 11.6 4.8 11.6 7.2s-3.5 4.7-9.9 6.7z" fill="#9c9797"/><path d="M655.3 399.4H474V286h181.4v113.4h-.1z" fill="#17282f" fill-opacity=".9"/><g class="B"><path d="M607.3 359.3v-9.4l-.1-24.5.2.1h-42.3l.2-.2v33.8l-.2-.1 39.2.1h2.9l.1.2h-11.7l-30.9.1v-34.1h42.7v.1l-.1 24.5-.1 6.9v2.3c.1.1.1.2.1.2z"/><path d="M607.1 359.3s.1-.1.3-.2l18.6-9.3-.1.1v-33.3l.2.2h-41.7l-14.2 6.4-3.9 1.7c-.4.2-.8.3-1 .4s-.4.1-.4.1.1-.1.3-.2l1-.5a93.36 93.36 0 0 0 3.8-1.8c3.4-1.5 8.2-3.8 14.1-6.5h42V350h-.1l-13.8 6.8a93.36 93.36 0 0 1-3.8 1.8l-1 .5c-.2.2-.3.2-.3.2z"/><path d="M626 316.7c0 .1-4.1 2.1-9.3 4.5l-9.6 4.3c-.1-.1 4.1-2.1 9.3-4.5l9.6-4.3zm-59.4 41.7c.1.1-.3.3-.9.6-.5.3-1 .4-1.1.3s.3-.3.9-.6c.6-.2 1.1-.4 1.1-.3zm4.2-2.3c.1.1-.3.3-.9.6s-1 .4-1.1.3.3-.3.9-.6c.6-.2 1.1-.4 1.1-.3zm4-1.8c.1.1-.3.3-.9.6s-1.1.4-1.1.3c-.1-.1.4-.3.9-.6.6-.3 1.1-.4 1.1-.3zm4-1.9c.1.1-.3.3-.9.6s-1 .4-1.1.3c0-.1.3-.3.9-.6.6-.2 1.1-.3 1.1-.3zm4.1-1.8c.1.1-.3.3-.9.6-.5.3-1 .4-1.1.3s.3-.3.9-.6c.5-.2 1-.4 1.1-.3z"/><use xlink:href="#B"/><use xlink:href="#B" y="-3.7"/><path d="M584 340c.1 0 .2.4.2.9s-.1.9-.2.9-.2-.4-.2-.9 0-.9.2-.9z"/><use xlink:href="#B" x="0.1" y="-11.1"/><use xlink:href="#B" x="0.1" y="-14.8"/><path d="M584.1 328.9c.1 0 .2.4.2.9s-.1.9-.2.9-.2-.4-.2-.9 0-.9.2-.9z"/><use xlink:href="#B" x="0.2" y="-22.2"/><use xlink:href="#B" x="0.2" y="-25.9"/><use xlink:href="#B" x="0.3" y="-29.6"/><use xlink:href="#C"/><use xlink:href="#C" x="-4.6"/><use xlink:href="#C" x="-9.3"/><use xlink:href="#C" x="-13.9"/><use xlink:href="#C" x="-18.5"/><use xlink:href="#C" x="-23.1"/><use xlink:href="#C" x="-27.8"/><path d="M591.3 350c0-.1.5-.2 1.2-.2.6 0 1.2.1 1.2.2s-.5.2-1.2.2-1.2-.1-1.2-.2zm-4.6 0c0-.1.5-.2 1.2-.2.6 0 1.2.1 1.2.2s-.5.2-1.2.2-1.2-.1-1.2-.2zm-2.8 0c0-.1.1-.2.2-.2s.3.1.3.2-.1.2-.3.2c-.1 0-.2-.1-.2-.2zm47.2-11.2s.4.1 1.1 0c.6-.1 1.6-.5 2.2-1.3s.6-2.1-.1-3.2c-.2-.3-.5-.5-.8-.5a1.39 1.39 0 0 0-1.1.2c-.7.4-1 1.1-1.3 1.8-.3.8-.5 1.5-.6 2.3h-.4l-.1-6.1v-1.8c0-.4 0-.6.1-.6 0 0 0 .2.1.6 0 .5.1 1.1.1 1.8l.2 6.1h-.4c0-.8.3-1.6.6-2.4.2-.4.4-.7.6-1s.5-.7.9-.9.9-.4 1.4-.3.9.4 1.1.7c.8 1.2.7 2.6.1 3.5-.7.9-1.7 1.3-2.4 1.3h-.8c-.4-.2-.5-.2-.5-.2zm-20.5-25.9l-.1.1c-.1.1-.2.2-.4.2-.2.1-.5.1-.8.1a1.93 1.93 0 0 1-1-.3c-.3-.2-.5-.6-.7-.9-.2-.4-.3-.8-.5-1.2-.3-.9-.5-1.8-.6-2.9h.4c.1 1.2.3 2.5-.1 3.9-.3.7-.7 1.5-1.5 2-.4.2-.9.3-1.4.3-.5-.1-.9-.4-1.1-.7-.8-1.3-.5-2.6.1-3.5s1.5-1.4 2.2-1.6c.3-.1.6-.2.8-.2h.3l-1 .3c-.6.3-1.5.7-2 1.6-.3.4-.5 1-.5 1.5 0 .6.1 1.2.5 1.7.2.3.5.5.9.5a1.39 1.39 0 0 0 1.1-.2c.7-.4 1.1-1.1 1.3-1.8.4-1.3.3-2.6.2-3.7h.4c.1 1 .3 2 .5 2.9.1.4.3.8.4 1.2.2.4.3.7.6.9.5.4 1.3.4 1.6.3l.4-.5zm-87.5 18.2v.7c.1.4.1 1.1.2 1.8l.4 6.8c0 2.8-.2 6.3-1.3 10a21.91 21.91 0 0 1-2.4 5.5c-1.1 1.8-2.6 3.5-4.4 5.1s-3.6 3-5.1 4.5-2.7 3.3-3.5 5c-1.6 3.5-2.1 6.9-2.3 9.7a66.83 66.83 0 0 0 .1 6.7c0 .8.1 1.4.1 1.8v.5c0-.1 0-.3-.1-.5 0-.4-.1-1.1-.2-1.8-.1-1.6-.3-3.9-.2-6.8.1-2.8.6-6.3 2.2-9.8.8-1.8 2-3.5 3.5-5.1s3.4-3 5.1-4.5a20.08 20.08 0 0 0 4.3-5 21.91 21.91 0 0 0 2.4-5.5c1.1-3.6 1.3-7 1.3-9.9 0-2.8-.2-5.2-.3-6.7-.1-.8-.1-1.4-.1-1.8v-.5c.3-.1.3-.2.3-.2zm-6.8 9.2l-.8-1.4-1.6-3.5c0-.1-.1-.1-.1-.2h.3c-.8 1.3-1.3 2.5-1.5 3.4-.3.9-.4 1.5-.4 1.5s0-.6.2-1.5.7-2.2 1.5-3.5l.2-.3.1.3c0 .1.1.1.1.2l1.5 3.6.5 1.4z"/><path d="M513.2 391.2c-.1 0 .1-12.6.4-28.1l.7-28.1c.1 0-.1 12.6-.4 28.1l-.7 28.1z"/><path d="M526.8 362.1c0 .1-5 .1-11.2.1s-11.2-.1-11.2-.1c0-.1 5-.1 11.2-.1l11.2.1zm-2.5 2.2s.6-.3 1.7-.7l4.1-1.6v.3c-.1 0-.1 0-.2-.1l-4.4-1.3-1.8-.6s.7.1 1.8.4l4.4 1.2c.1 0 .1 0 .2.1l.4.1-.4.1-4.2 1.5c-.9.4-1.6.6-1.6.6zm2.5-6.1s0 .1-.1.2l-.4.4.3-.4c.2-.4.8-1.1 1.4-1.9.9-1.2 1.7-2 1.8-2s-.6 1-1.5 2.2l-1.6 1.8-.1-.1.2-.2z"/><path d="M530.7 357.9c-.1.1-1-.7-2-1.6l-1.8-1.8c.1-.1 1 .7 2 1.6s1.8 1.7 1.8 1.8zm-20.4-.8s.2-.1.5-.1c.3.1.8.3.9.9.1.5-.1 1.1-.3 1.7-.1.3-.4.6-.7.8s-.8.4-1.3.3-.8-.4-.9-.8c-.2-.4-.2-.7-.1-1 .1-.6.5-1.2.9-1.5.5-.3 1-.4 1.3-.3s.4.2.4.2-.2-.1-.5-.1-.7 0-1.1.3-.7.8-.8 1.4c0 .3 0 .6.1.9s.4.5.7.6.7 0 1-.2.5-.5.6-.7c.3-.6.5-1.1.4-1.5s-.4-.7-.7-.8c-.2-.1-.4-.1-.4-.1zm-3.1-18.3c-.1 0-.5-.4-1-1s-.9-1.1-.8-1.2c.1 0 .5.4 1 1 .5.7.9 1.2.8 1.2z"/><path d="M505.9 341.7c-.1 0 .4-1.3 1.1-2.9s1.3-2.8 1.4-2.8-.4 1.3-1.1 2.9-1.3 2.8-1.4 2.8z"/></g><path d="M481.1 311v-9.8h4.2c.9 0 1.7.3 2.3.8s.9 1.2.9 2c0 .6-.2 1.2-.6 1.7s-.9.8-1.5 1l2.2 4.4h-1.2l-2.1-4.2h-3.1v4.2h-1.1v-.1zm4.1-8.8h-3v3.7h3c.7 0 1.2-.2 1.6-.5s.6-.8.6-1.4-.2-1-.6-1.3c-.4-.4-.9-.5-1.6-.5zm4.9 8.8v-9.8h7v1h-5.9v3.4h3.9v.9h-3.9v3.5h6v1h-7.1zm7.7-1.7l.7-.7c.5.5 1 .9 1.6 1.2s1.2.4 1.8.4c.8 0 1.4-.2 1.9-.5.5-.4.7-.8.7-1.4 0-.5-.2-.9-.5-1.2-.4-.3-.9-.5-1.7-.6l-1.4-.2c-.9-.1-1.6-.4-2.1-.8-.4-.4-.7-1-.7-1.7 0-.8.3-1.5 1-2 .6-.5 1.5-.8 2.5-.8.7 0 1.4.1 2 .3s1.3.5 1.8 1l-.6.8c-.5-.4-1.1-.7-1.6-.9s-1.1-.3-1.7-.3c-.7 0-1.3.2-1.7.5s-.7.7-.7 1.2.2.8.5 1.1c.3.2.8.4 1.5.5l1.4.2c1.1.2 1.8.5 2.3.9s.7 1 .7 1.8c0 .4-.1.8-.3 1.2s-.4.7-.8.9c-.3.3-.7.5-1.2.6s-1 .2-1.5.2c-.8 0-1.5-.2-2.2-.5-.5-.1-1.2-.6-1.7-1.2zm9.3 1.7v-9.8h1.1v9.8h-1.1zm3.3 0v-9.8h1.1v8.8h5.8v1h-6.9zm8.4 0v-9.8h1.1v8.8h5.8v1h-6.9zm8.5 0v-9.8h1.1v9.8h-1.1zm3.2 0v-9.8h7v1h-5.9v3.4h3.9v.9h-3.9v3.5h6v1h-7.1zm8.6-9.8h1.1l5.9 8v-8h1v9.8h-.9l-6-8.2v8.2h-1v-9.8h-.1zm14.8 9c.6 0 1.2-.1 1.7-.3s1-.6 1.4-1l.7.7a6.57 6.57 0 0 1-1.7 1.2c-.7.3-1.4.4-2.1.4s-1.4-.1-2-.4-1.2-.6-1.6-1.1c-.5-.5-.8-1-1.1-1.6s-.4-1.3-.4-2 .1-1.4.4-2 .6-1.2 1.1-1.6c.5-.5 1-.8 1.6-1.1s1.3-.4 2-.4c.8 0 1.5.1 2.2.4s1.3.7 1.7 1.2l-.7.8c-.4-.4-.9-.8-1.4-1-.6-.2-1.1-.4-1.7-.4s-1.1.1-1.6.3-.9.5-1.3.9-.6.8-.8 1.3-.3 1-.3 1.6.1 1.1.3 1.6.5.9.8 1.3c.4.4.8.6 1.3.9.4.2.9.3 1.5.3zm5.5.8v-9.8h7v1h-5.9v3.4h3.9v.9h-3.9v3.5h6v1h-7.1z" fill="#eee"/><g class="B"><path d="M539.7 378c-.1.1-1.5-.7-3.2-1.7s-2.9-1.9-2.8-2 1.5.7 3.2 1.7c1.6 1 2.9 1.9 2.8 2zm-.7 5.8c-.1 0 .1-.6.4-1.6s.8-2.4 1.4-3.9 1.3-2.8 1.9-3.8l1-1.5c.1 0-.2.6-.7 1.6l-1.8 3.8-1.6 3.8c-.3 1-.6 1.6-.6 1.6zm19-8.9c0 .1-1.9.3-4.3.5s-4.3.2-4.4.1c0-.1 1.9-.3 4.3-.5l4.4-.1zm1.4 4.5c0 .1-2.2.3-5 .5l-5 .2c0-.1 2.2-.3 5-.5l5-.2zm13.8 1.3c-.1.1-2.2-1.1-4.6-2.6l-4.2-2.9c.1-.1 2.2 1.1 4.6 2.6l4.2 2.9z"/><path d="M571.9 374c.1 0-.3.6-1 1.5l-5.4 7c-.7.9-1.1 1.5-1.2 1.4-.1 0 .3-.6.9-1.5l2.5-3.6 2.9-3.5c.7-.8 1.2-1.3 1.3-1.3zm3-2.3l2.8-3.3.2.2c-1.9.2-2.1.1-3.2.1s-2.5-.1-2.5-.1c0-.1 1.9 0 5.7-.3h.5l-.2.3-2.8 3.4"/><path d="M575.1 371.4l1.7.6c.6.2 1.1.6 1.2 1.2.2.5-.1 1.2-.5 1.6-.5.4-1 .6-1.5.6-1 .1-1.6-.2-2-.4s-.6-.3-.6-.4l.7.2c.4.1 1.1.4 1.9.3.4-.1.9-.3 1.2-.6.4-.3.5-.8.4-1.2-.3-.9-1.6-1.2-2.8-1.6m3.9 13.7c0 .1-8.1 1.3-18.2 2.7l-18.3 2.3c0-.1 8.1-1.3 18.2-2.7l18.3-2.3zm2.3 2.8c0 .1-7.6 1.3-17 2.6l-17.1 2.3c0-.1 7.6-1.3 17-2.6l17.1-2.3z"/></g><path d="M655.1 400.5H475V291.6H655.1V400.5ZM467 284V408H663V284H467Z" class="K"/><path d="M374 399l8.5 112.6L476 517l-2.6-114.9L374 399zm21 224h-5V522h5v101zm89-5h6v-96h-6v96z" class="F"/><path d="M376 528h127v-16H376v16z" class="D"/><path d="M472.9 405.4c-6.8-1.9-22.5 55.3-20 64.5 1.7 6.3 59.3 4 59.3 4l.6-11s-36.6-3.8-36.4-6.6 10.8-21.1 10.8-21.1-7.4-27.9-14.3-29.8z" class="L"/><g class="H"><path d="M445.8 371.8l-15.5 2.3s4.3 13.1-2.3 24.2c0 0 11.1 11.4 18.9 8.4 8.3-3.2 5.2-11.2 5.2-11.2s-8.5-6.4-6.3-23.7z"/><path d="M427.1 349.9s24-2.5 25.7 1.2 2 14.2 3.6 16.4 4.4 4.9 3.3 6.3-2.2 1.1-2.9 2.7-.4 10.7-3.6 12c-3.2 1.4-19.4.6-25.2-7.9s-12.6-29.9-.9-30.7z"/></g><g class="D"><path d="M421 351.6l16.4 6.9s-.5 8.7 4.2 16.4c0 0-1.5 2.1-3 .9s-2.5-1.8-2.9-4-1.8-8-6.1-5.1.2 6.3 2.4 7.2c0 0 3.5 11.4-3.1 10.6 0 0-6.1-3.5-11.4-17.2-5.2-13.8-.6-18.3 3.5-15.7z"/><path d="M459.6 346.6s5.7 7.8-7.5 13.1c-13.2 5.2-32.3-8.6-32.3-8.6s.5-6.9 11.1-9.8c7.9-2.2 15.3-1.9 19.3 2.5 6.8 7.4 9.4 2.8 9.4 2.8z"/></g><path d="M429.1 393.6l-22.2 6.1s2.4 29.1 2 36.9c-.3 7.8-3.7 41.4-3.7 41.4h66.3l-.4-41.6s-2.1-25.3.7-31.2c0 0-13.9-8.2-20.5-10.6 0 0 .1 8.3-4.6 10.5-4.7 2.3-17.6-11.5-17.6-11.5z" class="L"/><path d="M471.3 436.5l-.2-8.2c-1.3 4.1-2.7 8.2-4.8 12.2-4.3 8.4-15.1 20-26.5 18.8-11.5-1.2-20.6-10.8-23.5-21.2-2.2-7.8-1.1-16.4-3.9-24-1.2-3.3-3-6.1-5-8.6.7 8.8 1.8 25.7 1.6 31.3-.3 7.8-3.7 41.3-3.7 41.3h66.6c-.2-.1-1-34.2-.6-41.6z" fill="#df313a"/><path d="M470.8 472.5l-15.4-24s-3.7-2-3.7 2.1l17.8 22.8c-.1 0 4.1 4.7 1.3-.9z" class="D"/><g class="L"><path d="M456.8 472.1c-.9-.8-3.4-2.3-3.4-2.3s2.1 1 3.4 2.3zm8.6-6.7c-1.2-1.6-2.6-4.1-5.1-5.3s-13.8 3.1-14.5 3.3c-.4.1-7.5 2.1-9 1.6-.3 2.4-.8 4.8-1.5 7.2 2.6.9 11.1-.6 12.1-.8 2-.3 4 .4 5.8 1.5 1.8 1.2 3.4 2.1 4.7 1.9 1.2-.2-.1-1.7-.8-2.4l.1.1c3.1 3.5 4.8 3 5.4 2.3.8-.9-3.4-4.2-3.8-4.7s-3.9-3-3.9-3c1.2.2 4.1 2.6 4.5 2.9.4.4 4.6 6.4 6.1 4.5 1.4-1.8-2.1-4.9-3.5-6.8s-4.7-3.5-4.7-3.5c1.7-.2 4.7 2.8 5.6 3.9 1 1.1 3.5 6.1 5.6 4.8 2-1.3-1.9-6-3.1-7.5zm-1-2.8s4.5 1.2 5.2 2.6c.8 1.4-.5 2.2-1.5 1.9l-3.7-4.5z"/><path d="M405.9 399.9s-7.1 4.6-10.5 10.5-21.7 50.4-19.2 59.5c1.7 6.3 59.3 4 59.3 4l.6-11s-36.6-3.8-36.4-6.6 10.8-21.1 10.8-21.1 5.9-22.5-4.6-35.3z"/></g><g fill="#040606"><path d="M499.8 606.3l26.8 6.4c6.5 1.8 5.7 6.7-1.3 9s-13 1.5-14.8-.3-5.8-.8-7.2-.1-15-.8-15.9-3.1.4-11.4.4-11.4l12-.5z"/><path d="M468.1 607.7l26.8 8.4c6.5 2.3 5.1 7.2-2.2 9-7.4 1.8-13.5.6-15.1-1.3-1.7-2-5.8-1.2-7.4-.6s-15.3-1.9-16-4.3 2.9-13.6 2.9-13.6l11 2.4z"/></g><path d="M510.6 510.5c-2.1-6.8-41.8-27.2-45-33.4h-32c-3.2 4-7.3 10.9-8.5 20.8-1.6 13.5 9.5 12.8 23.3 12.2 3.9-.2 7.9-.4 12-.2 18.6.6 26.1 10.3 26.6 14.6s-2.8 82.8-2.8 82.8l25.3-.1c.1-.1 2.4-92.7 1.1-96.7z" fill="#28363e"/><path d="M429.1 508.6c-3.1-1.7-4.6-5-4-10.7 1-8.5 4-14.7 6.8-18.9-2.8 4.2-5.9 10.4-6.8 18.9-.6 5.8 1 9 4 10.7z" fill="#76a8ba"/><path d="M434 509.6c-1.5-.2-2.9-.5-4-1 1.1.5 2.5.8 4 1z" fill="#161f2e"/><path d="M484.8 607.3l2.9-80.9v-1.9c-.5-4.3-8.1-14.1-26.8-14.6h-2.8c-3.2 0-6.3.1-9.3.3l-8.5.3c-2.4 0-4.6-.1-6.6-.5-1.7-.3-3.2-.8-4.4-1.4-3.1-1.7-4.7-4.9-4-10.6 1-8.4 4-14.5 6.9-18.7l1.6-2.2 22.2.9c9.7 8.1 38 25.7 43.8 33.1 1.9 2.4-6.6 96.1-6.6 96.1l-8.4.1z" fill="#19262e"/><path d="M495 512.1c-1.5-6-42.5-27-51.1-35l-33.7-2c-4.1 4-8.2 10.2-8.2 16.8.2 16.7 14.8 20.8 33.3 21.3 21.3.6 32.3 2.9 32.3 7.3s-13.2 86.6-13.2 86.6l24.9 1.1s16.7-92 15.7-96.1z" fill="#28363e"/><path d="M557 473h-84v-5h84v5z" fill="#3f6683"/><path d="M557.9 471H471c-2.8 0-5.1-2.1-5.1-4.7v-55.6c0-2.6 2.3-4.7 5.1-4.7h86.9c2.8 0 5.1 2.1 5.1 4.7v55.6c0 2.6-2.3 4.7-5.1 4.7z" class="K"/><path d="M469.2 466.3v-55.6c0-2.6 2.1-4.7 4.8-4.7h-4.2c-2.6 0-4.8 2.1-4.8 4.7v55.6c0 2.6 2.1 4.7 4.8 4.7h4.2c-2.6 0-4.8-2.1-4.8-4.7z" fill="#6b8ea1"/><path d="M519 437.5a4.48 4.48 0 1 1-9 0 4.48 4.48 0 1 1 9 0z" class="B"/><g class="F"><path d="M742 625c-.6-10.7-11.6-19.2-25.1-19.2s-24.4 8.5-25.1 19.2H742z"/><path d="M717.9 622.8h-5v-116h5v116z"/></g><path d="M729.8 356.5c-20.1 0-56.3 15-57.9 64.3 0 8.6 1 16.8 2 24.2 11.3 34.4 27.4 56.4 55.9 60.1l38.6-5s19.3-38.1 19.3-79.3c0-64.3-37.9-64.3-57.9-64.3z" fill="#76797c"/><path d="M761 523.2h-88.2c-5.8 0-10.5-3.1-10.5-6.9v-10.4c0-3.8 4.7-6.9 10.5-6.9H761c5.8 0 10.5 3.1 10.5 6.9v10.4c0 3.8-4.7 6.9-10.5 6.9z" class="F"/><g class="H"><path d="M807.3 386.5s5.8-7.4 5.7-12.2c-.1-4.1 2.4.1 2.9-1.2 1.8-4.7 11.8-19.1 14.1-17.4 1.1.9-6.9 13.5-6.9 13.5s9-15.2 12-14.3c3.1.9-8.5 15-8.5 15s9.2-12.9 11-11.4c1.8 1.4.2 4.1-7.9 13.7 0 0 5.6-8.3 7.5-6 1.9 2.2-9 13.7-11.2 15.8s-8.6 6.8-11.1 10.5c.1 0-7.4-2.1-7.6-6z"/><path d="M813 372.3s-.8-8.6 1.5-9.5c1.6-.8 1.9 3.7 2.1 9.6 0 0 2 3.7 1.5 5.2-.1-.1-5.1-.6-5.1-5.3z"/></g><path d="M728.3 334.9l-16.3 2.5s-.9 30.3-13.8 32.8c0 0-4.6 49.7 12.5 45.5 17-4.1 26.2-47.2 26.2-47.2s-15.1-4.2-8.6-33.6z" fill="#f57e5d"/><path d="M731.993 310.31s-16.87-7.298-23.555-2.9-6.154 19.694-7.11 26.79c-1.592 10.997 2.97 21.693 5.623 22.693 2.76 1 23.768-4.998 27.163-20.993 3.396-16.095 1.9-22.893-2.122-25.592z" class="H"/><path d="M727.8 339s-6.1 3.5-10 3.7c-3.9.3-6.3-4.5-11.8-3.3l-6.2 1.4s-2.9 20.4 4.5 19.8c7.5-.6 20.1-8.6 24.6-14.1 0 0 4.7 0 7.6-4.7 3-4.7 7-19.3 4.4-28.2-2.6-8.8-14.2-12.3-19-8.2 0 0-3.7-3.2-10.7-2.8s-8.5 4.2-11.5 6.5-5.9 2.3-6.9.3c0 0-2.1 3.7 1.7 9.9 3.8 6.3 8.2 5.3 14.1 3.9s13.2-7.4 13.2-7.4-.3 12.6 2.7 17.2c0 0 1.1.5 1.6 0 .4-.5.1-7 3.5-5.6 3.5 1.7 1.3 9.2-1.8 11.6z" class="D"/><path d="M702.8 346.6s4.7.6 9.6-.5c0 0-2.6 2.5-5.7 2.4-3.6 0-3.9-1.9-3.9-1.9z" class="B"/><path d="M733.4 364.2l-17.2 13.3-12.9-11.8s-18.2 53.7-16.2 86.8c1.9 33.1 23.6 40.8 39.3 10.1 15.6-30.9 14.5-87.7 7-98.4z" class="K"/><path d="M713.9 382.2s-8.5 43.6-7.7 44.5c.5-.6 5.6 11.8 8.6 0 2.3-9.2 2.6-43.5 3-43.9 0 0 4.4-4.5 7-6.8 1.7-1.5 3.3-3 4.9-4.5.4-.7.8-1.4 1.2-2.2-.2.5-.5 1-.7 1.6 1-1.8 2.1-3.5 3.3-5.1-.3-.4-.5-.7-.8-1l-15.7 8.1-12.2-7s0 .5-.5 2.3c1.3 1.7 2.1 4 3.1 5.7 1.1 2.2 6.5 8.3 6.5 8.3zm-13 33.4c0 .6-.5 1-.9.9-.5 0-.8-.5-.8-1.1s.5-1 .9-.9c.5 0 .8.5.8 1.1z" class="D"/><path d="M820.4 393.5l-13.9-9.8s-25.8 39.4-27.3 38.2-13.8-42.7-23.1-46.9c0 0-4.7 3.3-7.4 12.8-1.9 6.8-2.2 17.7-1.8 28.4 0 0 24.3 34.9 32.9 33.7 8.6-1.1 40.6-56.4 40.6-56.4zm-183.1-20.1l-15.7 5.1s21.5 63.7 33.8 58.1c12.4-5.6 28.8-25.5 28.8-25.5s4.6-6.2 6.4-15.9c1.6-8.5.5-20.1-1.9-25.2 0 0-10.8 5.3-20 20.3-9.1 15-11.9 19.3-12.7 18.3-.8-.7-18.7-35.2-18.7-35.2z" class="G"/><path d="M717.2 371l-11.1-7.5-2.7 2.2 4.3 13.4 9.5-6.3 8.6 7.1 8.3-15.2-4.1-3.8-12.8 10.1z" class="B"/><path d="M643.3 635.1c-.4.4-9.8 9.6-4.7 10.6 5.1.9 17.5 2.2 20.7-.8 3.3-3 2.6-4.6 5.3-5.5s2.1-2.7 2-6.5-.1-11.4-.4-11.3-12.4-.7-13.3-1.8-7 12.5-9.6 15.3z" fill="#030303"/><path d="M686.5 464.3c1.7-.1 34.3.6 34.3.6l-3.4 21.9-23.2-2.2-7.7-20.3z" class="E"/><path d="M694.5 613.6c1.8 2.8 2.6 7.4 2.9 9.1s2.8 3.4 1.5 4.6-15.5 4-15.4 2.5-.2-2.1-1.8-1.7-27.7 6.2-31 3.8-2.2-7.6 1.2-8.6 21.6-11.5 23-15.4 12.4-5.5 12.7-5.4 5.1 8.4 6.9 11.1z" fill="#030303"/><path d="M703.4 365.7c.4.3 3.5 79.5-8.2 96.1-1.6 2.2-12.7 8.2-13.3 6.5-3.6-11.2 21.5-102.6 21.5-102.6z" fill="#1172b0"/><path d="M703.3 365.7s-10.5 2.6-14.6 4.5c0 0-4.4 35.6-8.9 44.8l-5.5 62.4s12.9-10.6 17.1-16.4c.8-1.1 1.6-1.8 1.7-3.2l7.9-48.1 2.3-44z" class="G"/><path d="M679.6 416.5c0 .4-2.9 47.5.6 48s6.8 3.5 6.8 3.5l-13.3 5.8 5.9-57.3z" fill="#1172b0"/><path d="M679.5 470c-4.2 1.9-30.6 19.5-34.9 37.2-.4 2.9 2.9 31 3.8 34.3s10.9 60.4 11.7 62.9.9 9.6 4.5 8.4 7-4.3 10.5-4.5c3.5-.1 12.7-5.7 13.2-5.7s-2.3-11.4-4-14.2-5.2-10-6.5-16.1-6.1-36.5-4.6-43.6 32.9-36.1 32.2-42.4c-2.2-20.6-11.7-21.9-11.7-21.9s-.7-.4-14.2 5.6z" class="E"/><path d="M707.1 476.9c-.3.2-23.3 3.8-30.9 24.6s-13.6 72.4-13.6 72.4l44.5-97z" fill="#06091d"/><path d="M650.6 620.9s13.2 6.6 17.3 5c0 0 25.4-71.5 25.7-76s13.5-25.6 18.3-28.1 17.2-7.6 17.2-7.6 17.7-7.7 19-11.6c6.7-20.9-24.6-34.6-24.6-34.6s-41.5 22.3-45.4 40.3c-1.1 5.1-9.6 39.5-10 45.7s-17.5 66.9-17.5 66.9z" class="D"/><path d="M756.5 375.1l-22.6-10.3-18.9 43.8 1 51.3s5.4 46.1 34.7 39.3l-3.2-82.6s-.3-30.2 9-41.5z" class="G"/><path d="M756.5 502.4h-2.4v-44.2h2.4v44.2z" class="F"/><g class="D"><path d="M589 474h64v-9h-64v9z"/><path d="M571 410.1l21.6 58.9 3.4-1.1-21.6-58.9-3.4 1.1z"/></g><path d="M771.7 467.7h-28.8c-1.3 0-2.3-1.5-2.3-3.4v-5.2c0-1.9 1-3.4 2.3-3.4h28.8c1.3 0 2.3 1.5 2.3 3.4v5.2c0 1.9-1 3.4-2.3 3.4z" fill="#bfbfc0"/><path d="M754.9 467.7h-13.3c-.6 0-1.1-1.5-1.1-3.4v-5.2c0-1.9.5-3.4 1.1-3.4h13.3c.6 0 1.1 1.5 1.1 3.4v5.2c0 1.9-.5 3.4-1.1 3.4z" class="C"/><path d="M278.6 759.5l-15.6 8-12.1-6.9s-6.2 17.6-4.4 37.6 5.2 34.3 19.4 15.7c14.2-18.5 19.5-47.9 12.7-54.4z" class="B"/><g fill="#6b8ea1"><path d="M336 628h-5V471h5v157z"/><path d="M782 471v3H322v-3h460z"/><path d="M782 631h-5V474h5v157z"/></g><path d="M810.9 646.7h-498v-.7l207.6-479.3h85l205.4 480z" fill="#f5dec6" fill-opacity=".15"/><g fill="#434b37"><path d="M666.6 459.5s2.5 11.6-6.4 11.5c-8.9-.2-7.3-11-7.3-11l13.7-.5z"/><path d="M665 464.5c0 1.4 1.3 2.6 2.9 2.6s2.9-1.2 2.9-2.6-1.3-2.6-2.9-2.6-2.9 1.1-2.9 2.6zm-1.4 0c0-2.1 1.9-3.9 4.2-3.9s4.2 1.7 4.2 3.9-1.9 3.9-4.2 3.9c-2.3-.1-4.2-1.8-4.2-3.9z"/></g><path opacity=".53" d="M659.9 456c-.4-.3-.5-.8-.2-1.2l.1-.1c.3-.3.5-.9.6-1.3a1.39 1.39 0 0 0-.2-1.1c-.4-.6-1.2-1.2-2.2-1.6a27.16 27.16 0 0 0-3.4-1.1c-.3-.1-.6-.1-.9-.2s-.6-.1-.9-.2l-2.1-.5c-1.4-.4-2.9-.9-4.4-1.7-.7-.4-1.5-.8-2.3-1.4-.7-.6-1.5-1.3-2.2-2.4a6.43 6.43 0 0 1-.8-4 7.42 7.42 0 0 1 1.5-3.6c1.4-1.8 2.9-2.9 4.3-3.8l.2-.1c.3-.2.7-.4 1.2-.6 2.7-.9 5.6.3 6.6 2.8 1 2.4-.4 5.1-3 6-.4.2-.9.3-1.2.5-.3.1-.6.3-.7.3-.2.1-.2 0-.2-.3 0-.2-.2-.5-.3-.4-.1 0 0 .3.2.6s.5.6.9.9a14.08 14.08 0 0 0 2.7 1.8 11.94 11.94 0 0 0 1.6.8l.9.5c.3.2.6.3 1 .5 1.3.7 2.6 1.4 3.7 2.4.6.5 1.2 1 1.7 1.7s.9 1.4 1.1 2.3 0 1.8-.4 2.5c-.2.4-.4.7-.7 1s-.5.5-.9.8c-.5.3-1 .4-1.3.2z" class="B"/><g class="F"><path d="M375.8 459.3h-48v.5h48v-.5zm0 11.2h-48v.5h48v-.5z"/><path d="M327.9 459.4v11.5h-1.7s-2.1-3.2-2.1-6 2.1-5.5 2.1-5.5h1.7z"/></g><path d="M329.2 459.8h-1.4v10.6h46.8v-10.6h-1c-19 7.4-37.9 2.3-44.4 0z" class="M"/><path d="M373.5 459.8h-44.3c6.5 2.3 25.4 7.4 44.3 0z" class="N"/><g fill="#17282f"><path d="M380.6 447.6h-48v.5h48v-.5zm0 11.2h-48v.5h48v-.5z"/><path d="M332.7 447.7v11.5H331s-2.1-3.2-2.1-6 2.1-5.5 2.1-5.5h1.7z"/></g><path d="M334 448.1h-1.4v10.6h46.8v-10.6h-1c-19 7.4-37.9 2.3-44.4 0z" class="M"/><path d="M378.3 448.1H334c6.5 2.3 25.4 7.4 44.3 0z" class="N"/><g fill="#002b3a"><path d="M421.7 459.3h-48v.5h48v-.5zm0 11.3h-48v.5h48v-.5z"/><path d="M373.9 459.5V471h-1.7s-2.1-3.2-2.1-6 2.1-5.5 2.1-5.5h1.7z"/></g><path d="M375.2 459.9h-1.4v10.6h46.8v-10.6h-1c-19.1 7.4-37.9 2.2-44.4 0z" class="M"/><path d="M419.5 459.9h-44.3c6.5 2.2 25.3 7.4 44.3 0z" class="N"/><path d="M735.6 411.1h-6.3c-1.1 0-2-.9-2-2v-9.6c0-1.1.9-2 2-2h6.3c1.1 0 2 .9 2 2v9.6c0 1.1-.9 2-2 2z" class="B"/><path d="M732.9 402.5c.2.3.5.5.7.8l1.7 1.8s.1.1.1.2l-4.7 2.7v-.1c-.1-.5-.1-1-.2-1.5 0-.2 0-.2-.3-.2-.2 0-.3.1-.5.1h-.1v-.6c.2 0 .4-.1.6-.1h.1s.1 0 0-.1c0-.1 0-.3-.1-.4v-.2c0-.2 0-.4-.1-.5v-.3c0-.2 0-.3-.1-.5 0-.2 0-.4-.1-.5v-.2c0-.2 0-.4-.1-.5 0-.2 0-.4-.1-.6v-.2c0-.2 0-.4-.1-.5 0-.2 0-.4-.1-.6v-.2c0-.2 0-.4-.1-.5v-.2h.1l.8.8c.3.3.6.6.9 1l.8.8c.1.2.3.3.4.5.3-.5.4-.3.5-.2zm-2.4-1.7c0 .2.1.5.1.7.1.6.2 1.1.2 1.7.1.6.2 1.1.2 1.7.1.6.2 1.2.2 1.8 0 .1 0 .2.1.3l3.3-1.9-.3-.3c-.1-.1-.1-.1-.2 0l-2.2 1.3-.1.1c-.1-.5-.1-.9-.2-1.4s-.1-1-.2-1.5c-.1-.6-.2-1.1-.2-1.7 0-.1 0-.1-.1-.2-.2-.3-.4-.5-.6-.6 0-.1 0-.1 0 0-.1-.1-.1-.1 0 0 0 0-.1 0 0 0zm1.3 1.3l.4 3.1c.6-.3 1.1-.6 1.7-1l-.3-.3c0-.1-.1-.1-.1 0-.2.1-.4.2-.6.4h-.1c-.1-.5-.1-.9-.2-1.4v-.1c-.4-.3-.6-.5-.8-.7z" fill="#127ec2"/><path d="M729.7 399.8v.1s-.1 0 0 .1h.1v.1c0 .1-.1.1 0 .1v.1s-.1.1 0 .1c0 0 .1.1 0 .1v.4c.1 0 .1.1.1.2v.1c0 .1 0 .1.1.1v.1c0 .1-.1.1 0 .1v.1s-.1.1 0 .1c0 0 .1.1 0 .1v.4c.1 0 .1.1.1.1v.1c0 .1 0 .1.1.1v.1c0 .1-.1.1 0 .1v.1s-.1.1 0 .1.1.1.1.1v.3c-.1 0 0 .1 0 .1v.2s.1.1 0 .1c0 0 0 .1.1.1v.1c0 .1-.1.1 0 .1v.1s-.1.1 0 .1.1.1.1.1v.1c0 .1 0 .1.1.1v.2c.1 0 .1.1 0 .1 0 .1 0 .1-.1.1h-.2c0 .1-.1 0-.1 0h-.3v-6.4c0-.1 0-.1.1-.1h2.6c.3 0 .6 0 .9.1.3 0 .6.1.9.2.4.1.8.2 1.1.5.2.2.5.3.6.6.2.3.1.6 0 .8-.2.3-.4.5-.7.6-.5.3-1 .4-1.5.5-.2 0-.4.1-.6.1h-.1l-.3-.3c-.2-.2-.3-.3-.4-.5l-.1-.1h.4c.3 0 .5-.1.8-.2l.8-.3s.1 0 .1-.1a.37.37 0 0 0 0-.6c-.2-.1-.3-.2-.5-.3-.3-.1-.7-.2-1-.2s-.6-.1-.9-.1h-1c-.1 0-.1 0-.1.1-.2-.1-.3-.3-.5-.5l-.3-.3h-.1v.2c-.5.8-.5 1-.4 1.2z" class="C"/><path d="M734.3 409v.5s0 .1-.1.1c0 0-.1 0-.1-.1v-.8s0-.1.1-.1h.1s0 .1.1.1c.1.2.2.3.3.5v-.5c0-.1 0-.1.1-.1s.1.1.1.1v.7s0 .1-.1.1-.1 0-.1-.1c-.1-.1-.2-.3-.3-.4 0 .1-.1 0-.1 0zm-5.3.2c.1.1.2.2.2.3v.1h-.1c-.1-.1-.1-.2-.2-.2 0-.1-.1-.1-.2-.1 0 0-.1 0-.1.1v.3c0 .1-.1.1-.1 0v-.7c0-.1 0-.1.2-.2h.3c.2 0 .3.1.2.3 0 0-.1.1-.2.1zm-.2-.3c-.1 0-.1 0-.1.1s0 .1.1.1h.2l.1-.1c0-.1 0-.1-.1-.1h-.2z" class="I"/><path d="M730.5 409.6c-.1 0-.2 0-.3-.1v-.2c.1 0 .1 0 .1.1.1.1.1.1.3.1.1 0 .1-.1.1-.1 0-.1 0-.1-.1-.1h-.1c-.1 0-.1 0-.2-.1s-.1-.3 0-.4.3-.1.5 0c.1 0 .1.1.1.2v.1h-.1s0-.1-.1-.1c-.1-.1-.2-.1-.2 0-.1 0-.1.1 0 .1h.1c.1 0 .1 0 .2.1.1 0 .2.1.2.2s0 .2-.1.2h-.4z" fill="#117ec2"/><path d="M729.4 409.2v-.3c0-.1 0-.1.1-.1h.6v.1s0 .1-.1.1h-.3c-.1 0-.1 0-.1.1s0 .1.1.1h.2s.1 0 .1.1 0 .1-.1.1h-.3c-.1 0-.1 0-.1.1 0 .2 0 .2.2.2h.2s.1 0 .1.1c0 0 0 .1-.1.1h-.5c-.1 0-.1 0-.1-.1.1-.4.1-.5.1-.6zm3.9-.1v-.3c0-.1 0-.1.1-.1h.5s.1 0 .1.1c0 0 0 .1-.1.1h-.3c-.1 0-.1 0-.1.1v.1c0 .1 0 .1.1.1h.3s.1 0 .1.1 0 .1-.1.1h-.3s-.1 0-.1.1c0 .2 0 .2.2.2h.2s.1 0 .1.1 0 .1-.1.1h-.5c-.1 0-.1 0-.1-.1v-.7zm2.7 0v-.3c0-.1 0-.1.1-.1h.4s.1 0 .1.1c0 0 0 .1-.1.1h-.3c-.1 0-.1 0-.1.1s0 .1.1.1h.2s.1 0 .1.1 0 .1-.1.1h-.3c-.1 0-.1 0-.1.1 0 .2 0 .2.2.2h.3s.1 0 .1.1c0 0 0 .1-.1.1h-.5c-.1 0-.1 0-.1-.1.1-.4.1-.5.1-.6z" fill="#107dc2"/><path d="M735.2 409.1v.2c0 .1.1.1.2.1s.2 0 .2-.1v-.1h.1l.1.1c0 .1 0 .1-.1.2-.2.2-.5.2-.6 0s-.1-.4 0-.6.4-.3.6-.1l.1.1v.1h-.1s0-.1-.1-.1c-.1-.1-.3-.1-.4 0v.2z" class="I"/><g fill="#117ec3"><use xlink:href="#D"/><use xlink:href="#D" x="0.8"/></g><path d="M731.2 409.2v.4s0 .1-.1.1c0 0-.1 0-.1-.1v-.8s0-.1.1-.1.1 0 .1.1v.4zm1.9 0v.4s0 .1-.1.1c0 0-.1 0-.1-.1v-.8s0-.1.1-.1.1 0 .1.1v.4z" fill="#137fc3"/><g class="C"><path d="M729.7 405.5h.6c-.2.1-.4.1-.6.1v-.1zm.6-1.3s-.1 0 0 0c0-.1-.1-.2-.1-.2v-.2c-.1 0-.1-.1 0-.1v-.1c-.1 0-.1-.1 0-.1v-.1c0 .2.1.3.1.5v.3z"/><path d="M730.3 405.5c.1 0 .1-.1.1-.1 0-.1.1-.1 0-.1v-.2c0 .1 0 .3.1.4v.1c-.1-.1-.1-.1-.2-.1zm-.5-4.9c0-.1 0-.1-.1-.2v-.2c-.1 0-.1-.1 0-.1v-.1c.1.2.1.4.1.6zm.2 1.4c0-.1 0-.1-.1-.2v-.2c-.1 0-.1-.1 0-.1v-.1c.1.2.1.4.1.6zm.1.6s0-.1-.1-.1v-.2c-.1 0-.1-.1 0-.1v-.1c.1.1.1.3.1.5z"/><path d="M730.2 403.4s0-.1-.1-.1v-.2c-.1 0-.1-.1 0-.1v-.1c.1.1.1.3.1.5zm.2 1.4s0-.1-.1-.1v-.2c-.1 0-.1-.1 0-.1v-.1c0 .1.1.3.1.5zm-.5-3.6s0-.1-.1-.2v-.2c-.1 0-.1-.1 0-.1v-.1c.1.2.1.4.1.6zm-.2-1.4c-.1-.2-.1-.4-.1-.5.1.1.1.3.1.5z"/><path d="M729.7 400c0 .1 0 .1 0 0l-.1-.1v-.1c.1.1.1.2.1.2zm.4 2.8c-.1 0-.1 0-.1-.1v-.1c.1.1.1.2.1.2zm.3 2.2c-.1 0-.1 0-.1-.1v-.1c.1.1.1.2.1.2zm-.5-3.6s-.1 0 0 0v-.2.2z"/></g><path d="M730.5 400.7c0 .1 0 .1 0 0 0 .1-.1.1 0 0-.1 0-.1 0 0 0z" fill="#8fcbe7"/><path d="M758.3 635s8.2 0 9.1-.5c0 0 2.4 6.4 6.9 5.9 0 0-8 1-12-.7-3.9-1.8-4-4.7-4-4.7z" fill="#2c3245"/><path d="M767.5 634.6s-.8-59.5.6-62.4 2.4-4.8 5.9-4.7 3.3-.9 2.1-.9c-1.2-.1-8.2 1.2-10.9 2.5s-6.1 2.1-6.9 7.7-.1 57.6 0 58.2 9.2-.4 9.2-.4z" class="E"/><path d="M776.5 566.7l47.8 1.6c1.9.6 2.8 1.2 2.9 4.5s.4 46.4.1 47.8-.4 3.9-3.2 5.3c-2.8 1.5-43.3 14.5-48.9 14.5-5.5 0-7.4 0-8.2-8.8s-.4-52.8 0-55.1.7-7.3 3.3-8.3 5.5-1.5 5.5-1.5" fill="#1d2234"/><path d="M767.4 577.2s55-2.9 59.3-.4z" class="E"/><path d="M780.4 594.8s36-3.8 37.9-2.6z" class="O"/><path d="M783.2 566.9c.1-.2 2.6-4.8 3.6-5.4.9-.6 5.6-3 7.1-3.5s5.1-1.9 6.2-.9c1.2 1 3.4 6.7 3.8 7.5s2.5 2.8 1.7 2.9c-.9.1-5.5-.1-5.5-.1s3-2.6 2.4-3.2-1.8-2.5-2.5-2.8-4.6-1.1-6-.5-5.7 3.5-6.1 5l-.3 1.2-4.4-.2z" class="E"/><path d="M781.3 594.6s.6 7.5.2 8-1 .4-1.1-.4c-.2-.8-.1-8.8.9-7.6z" class="O"/><path d="M809.2 567.6c0 .1 5.3.2 5.3.2s-2.8-8-3.6-8.3c-.8-.4-2.1 2.4-2.1 2.4s2.3 1.3.4 5.7z" fill="#212738"/><path d="M811.2 559.6s-11.4-4.6-12.7-4.1c-1.3.4-4.9 3.8-2.9 3.8 1.9 0 12.8 3.1 13.5 3.4s2.1-3.1 2.1-3.1z" class="E"/><path d="M790.7 558.1s1.7-1.6 3.9-2 3.8-.7 4.4-.5-2.3 3-3.4 3.7c-1.1.8-2.3 1.3-2.7 2.2-.4 1-2.6-2.7-2.2-3.4z" fill="#212738"/><path d="M790.9 558.2c.1.1 3.7 2.7 3.9 3.7s-.1 5.2-.1 5.2l-7-.2.2-2.5c.1.1 2.3-6.6 3-6.2z" class="O"/><path d="M801.4 609.5l.8.8 1.9 1.8c.1 0 .1.1.2.2l-4.1 5.2v-.2l-.4-1.9c-.1-.3-.1-.3-.3-.2s-.3.2-.5.3l-.1.1c0-.3-.1-.5-.1-.8.2-.1.4-.2.5-.4 0 0 .1 0 .1-.1 0 0 .1-.1 0-.1 0-.2-.1-.4-.1-.6 0-.1 0-.2-.1-.3v-.1c0-.2-.1-.5-.1-.7 0-.1 0-.3-.1-.4 0-.2-.1-.4-.1-.6v-.1c0-.2-.1-.5-.1-.7 0-.1 0-.2-.1-.3v-.1c0-.2-.1-.5-.1-.7 0-.3-.1-.5-.1-.7 0-.1 0-.2-.1-.3v-.1c0-.2-.1-.5-.1-.7 0-.3-.1-.5-.1-.7 0-.1 0-.2-.1-.3v-.1c0-.2-.1-.5-.1-.7v-.2h.1l.8.8c.3.3.7.6 1 1l1.3 1.3c0 .4.1.5.2.6zm-2.5-1.3c.1.3.1.6.2.9l.8 4.2.5 2.3c0 .1 0 .3.1.4l2.9-3.7-.3-.3c-.1-.1-.1-.1-.2 0l-2 2.5-.1.1c-.1-.6-.2-1.2-.4-1.8l-.4-1.9-.4-2.2c0-.1 0-.1-.1-.2-.2 0-.4-.2-.6-.3v-.1c-.1 0-.1 0 0 .1 0-.1-.1-.1 0 0zm1.4 1.2l.8 4 1.5-1.8c-.1-.1-.2-.2-.4-.3-.1-.1-.1 0-.1 0-.2.2-.4.5-.6.7 0 0 0 .1-.1.1-.1-.6-.2-1.2-.4-1.8 0-.1 0-.1-.1-.2-.2-.3-.4-.5-.6-.7z" fill="#127ec2"/><path d="M798 607.1v.2s-.1.1 0 .1h.1v.6s.1.1.1.2v.5c.1 0 .1.1.1.2v.3c0 .1 0 .1.1.1v.6s.1.1.1.2v.6c.1 0 .1.1.1.1v.2c0 .1 0 .1.1.1v.6c.1 0 .1.1.1.1v.9s.1.1 0 .2c0 .1 0 .1.1.1v.6c.1 0 .1.1.1.1v.2c0 .1 0 .1.1.1v.2c.1 0 .1.1 0 .2v.3h-.1s-.1 0-.1.1-.1.1-.1.1h-.1c-.1.1-.1.1-.2.1-.1-.7-.2-1.5-.2-2.2l-.5-4.6c-.1-.5-.1-1.1-.2-1.6 0-.2 0-.2.1-.2l2.5-.9c.3-.1.6-.2.9-.2s.6-.1.9-.1c.4 0 .8.1 1.1.2s.5.3.7.6.2.7.1 1.1-.3.8-.6 1.1c-.4.5-.9.9-1.3 1.2-.2.1-.4.2-.6.4 0 0-.1 0-.1.1-.1-.1-.2-.2-.4-.3s-.3-.3-.5-.5l-.1-.1c.1-.1.3-.1.4-.2a3.04 3.04 0 0 0 .7-.5c.2-.2.5-.4.7-.7l.1-.1c.2-.3.1-.6-.1-.7s-.4-.2-.6-.2c-.3 0-.7 0-1 .1s-.6.1-.9.2c-.1 0-.2.1-.2.1-.1 0-.1 0-.2.1s-.2.1-.3.1-.2.1-.3.1c0 0-.1 0-.1.1-.2-.1-.3-.3-.5-.5l-.3-.3h-.1v.2c.3-.2.3.1.4.3z" class="C"/><path d="M803.6 617.7c0 .2 0 .4.1.5v.2c0 .1 0 .1-.1.1h-.1v-.1c0-.3-.1-.6-.1-.8v-.1c0-.1 0-.1.1-.1h.1s0 .1.1.1c.1.2.2.3.4.5v-.6c0-.1 0-.2.1-.2s.1 0 .1.1c0 .3.1.6.1.9 0 .1 0 .1-.1.2h-.1c-.1-.1-.2-.3-.3-.5-.3-.1-.3-.2-.3-.2zm-5 2.1c.1.1.2.2.2.3s.1.1 0 .2-.1 0-.1 0c-.1-.1-.1-.2-.2-.3 0-.1-.1-.1-.2-.1 0 0-.1 0-.1.1v.4c0 .1-.1.1-.1.1v-.1c0-.3-.1-.5-.1-.8 0-.2 0-.2.1-.3.1 0 .2-.1.3-.1.2 0 .3.1.3.3 0 .1-.1.2-.1.3zm-.3-.4c-.1 0-.1 0-.1.2s0 .2.1.1c.1 0 .1 0 .2-.1 0 0 .1-.1.1-.2s0-.1-.1-.1c-.1.1-.1.1-.2.1z" class="I"/><path d="M800 619.8c-.1 0-.2 0-.3-.1v-.3c.1 0 .1 0 .1.1.1.1.2.1.3.1s.1-.1.1-.2-.1-.1-.1-.1h-.3c-.1-.1-.2-.3 0-.5a.76.76 0 0 1 .4-.2c.1 0 .1.1.1.2v.1h-.1s0-.1-.1-.1c-.1-.1-.2-.1-.2 0-.1.1 0 .2 0 .2h.3c.1 0 .2.1.2.2s0 .3-.1.4-.2.2-.3.2z" fill="#117ec2"/><path d="M798.9 619.6v-.4c0-.1 0-.2.1-.2.1-.1.3-.1.4-.2h.1v.2c-.1 0-.1 0-.2.1h-.1c-.1 0-.1 0-.1.2 0 .1 0 .1.1.1s.2-.1.2-.1.1 0 .1.1 0 .1-.1.1-.2.1-.3.1-.1 0-.1.1c0 .3 0 .2.2.2.1 0 .2-.1.2-.1s.1 0 .1.1 0 .1-.1.1c-.2.1-.3.1-.5.2-.1 0-.1 0-.1-.1.1-.2.1-.4.1-.5zm3.7-1.4v-.4c0-.1 0-.2.1-.2.1-.1.3-.1.4-.2 0 0 .1 0 .1.1v.1c-.1 0-.1.1-.2.1h-.1c-.1 0-.1 0-.1.1v.1c0 .1 0 .1.1.1s.2-.1.2-.1h.1c0 .1 0 .1-.1.1s-.2.1-.3.1c0 0-.1 0-.1.1 0 .3 0 .2.2.2.1 0 .2-.1.2-.1s.1 0 .1.1 0 .1-.1.1c-.2.1-.3.1-.5.2-.1 0-.1 0-.1-.1.2-.1.1-.3.1-.4zm2.6-.9v-.4c0-.1 0-.2.1-.2.1-.1.3-.1.4-.2 0 0 .1 0 .1.1s0 .1-.1.1-.1.1-.2.1h-.1l-.1.1v.1c0 .1 0 .1.1.1s.1-.1.2-.1c0 0 .1 0 .1.1s0 .1-.1.1-.2.1-.3.1-.1.1-.1.1c0 .3 0 .2.2.2.1 0 .2-.1.2-.1s.1 0 .1.1 0 .1-.1.1c-.2.1-.3.1-.5.2-.1 0-.1 0-.1-.1.2-.3.2-.4.2-.5z" fill="#107dc2"/><path d="M804.4 617.5c0 .1 0 .2.1.2 0 .1.1.1.2.1s.2-.1.2-.2v-.1s0-.1.1-.1c0 0 .1 0 .1.1v.3c-.1.3-.5.4-.6.2s-.2-.4-.1-.7.4-.5.6-.3c0 0 .1.1.1.2v.1h-.1s0-.1-.1-.1c-.1-.1-.3 0-.3.2-.2 0-.2 0-.2.1z" class="I"/><path d="M800.8 618.9v-.5c0-.1 0-.1.1-.1 0 0 .1 0 .1.1v.1c0 .2 0 .4.1.6 0 .1 0 .1.1.1s.2-.1.2-.1.1 0 .1.1 0 .1-.1.1-.3.1-.4.1-.1 0-.1-.1 0-.3-.1-.4zm.7-.3v-.5c0-.1 0-.1.1-.1h.1v.2c0 .2 0 .4.1.6 0 .1 0 .1.1.1s.2-.1.2-.1.1 0 .1.1 0 .1-.1.1-.3.1-.4.1-.1 0-.1-.1 0-.3-.1-.4z" fill="#117ec3"/><path d="M800.7 619v.5s0 .1-.1.1c0 0-.1 0-.1-.1v-.1c0-.3-.1-.5-.1-.8v-.1c0-.1 0-.1.1-.1 0 0 .1 0 .1.1v.3s0 .1.1.2zm1.7-.7v.5c0 .1 0 .1-.1.1 0 0-.1 0-.1-.1v-.1c0-.3-.1-.5-.1-.8v-.1c0-.1 0-.1.1-.1s.1 0 .1.1v.2c.1.1.1.2.1.3z" fill="#137fc3"/><g class="C"><path d="M798.7 614.7c.1 0 .1 0 .2-.1h.1s.1 0 .1-.1.1-.1.1-.1h.1c-.2.1-.4.2-.5.4l-.1-.1zm.5-2c-.1.1-.1 0 0 0-.1-.1-.1-.2-.1-.2v-.2c-.1 0-.1-.1 0-.2v-.1c-.1 0-.1-.1 0-.2v-.1c.1.2.1.4.1.6-.1.2 0 .3 0 .4z"/><path d="M799.3 614.5c.1-.1.1-.1 0-.2v-.1c0-.1.1-.2 0-.2v-.2c.1.2.1.4.1.6v.1c0-.1 0 0-.1 0zm-1.1-6.4c0-.1-.1-.1-.1-.2v-.3c-.1 0-.1-.1 0-.2v-.1c.1.4.1.6.1.8zm.4 1.8s-.1 0 0 0c0-.1-.1-.1-.1-.2v-.3c-.1 0-.1-.1 0-.2v-.1c0 .3.1.6.1.8z"/><path d="M798.7 610.6s0-.1-.1-.1v-.3c-.1 0-.1-.1 0-.2v-.1c.1.3.1.5.1.7zm.2 1.1s0-.1-.1-.1v-.3c-.1 0-.1-.1 0-.2v-.1c.1.2.1.4.1.7zm.4 1.7s0-.1-.1-.1v-.3c-.1 0-.1-.1 0-.2v-.1c0 .3.1.5.1.7zm-.9-4.5s0-.2-.1-.2v-.2c-.1 0-.1-.1 0-.2v-.1c0 .2 0 .4.1.7zm-.4-1.8c-.1-.2-.1-.5-.1-.7 0 .2.1.5.1.7z"/><path d="M798.1 607.4s-.1.1 0 0c-.1-.1-.1-.1-.1-.2v-.1c.1.1.1.2.1.3zm.7 3.6c-.1 0-.1 0-.1-.1v-.1c.1 0 .1.1.1.2zm.6 2.8c-.1 0-.1 0-.1-.1v-.1c.1 0 .1.1.1.2zm-1-4.6c-.1 0-.1 0-.1-.1v-.2c.1.1.1.2.1.3z"/></g><path d="M798.9 608.1s-.1 0 0 0c-.1 0-.1 0 0 0 0-.1 0-.1 0 0z" fill="#8fcbe7"/><g class="B"><path d="M607.03 360s.104-.068.32-.185l.964-.513 3.723-1.94 13.684-7.052-.072.106-.048-34.25.2.165h-.118l-41.428-.04.075-.017-14.107 6.577-3.86 1.778-1.01.456-.352.144s.108-.065.33-.176l1-.487 3.82-1.837 14.075-6.688h.04L626 316v.165l-.05 34.32-.07.036-13.755 6.958-3.765 1.883-.986.483-.343.154"/><path d="M565.032 325.316c.004.003.008.058.012.165l.014.475.035 1.833.103 6.92.292 24.595-.176-.138 42.62-.373-.2.163-.252-33.99.175.138-42.414.218-.208-.006a2.06 2.06 0 0 1 .189-.009l.575-.013 2.265-.035 8.638-.108 31.127-.327.001.14.31 34.152-.207.002-42.792.33v-.14l-.126-31.577.005-1.806.006-.458.008-.15"/></g><path d="M635.2 377.4s-3.6-6.9-3.6-8.9 1-4.2 1.1-7 3.9-9.1 3-11c-.8-1.8-3.1-1.4-5.3 3s-1.5 7-3.3 5.8-6.2-6.6-7.6-8.9c-1.4-2.2-5.8-6.7-7-6s-1.5 1.9 6.4 12.8c0 0-8.9-13.1-11.5-10.7-1.8 1.7 6.9 11.2 8.1 12.8 0 0-8.1-9.9-10.5-7.6-2.3 2.2 8.8 10.5 8.8 10.5s-8.3-6.4-9.4-4.5 3.7 6.1 8.4 8.7c4.8 2.6 6 3.3 7.2 5s4.2 8.7 4.2 8.7 7.6 1.8 11-2.7z" class="H"/><defs ><path id="B" d="M583.9 347.4c.1 0 .2.4.2.9s-.1.9-.2.9-.2-.4-.2-.9.1-.9.2-.9z"/><path id="C" d="M623.7 350c0-.1.5-.2 1.2-.2s1.2.1 1.2.2-.5.2-1.2.2-1.2-.1-1.2-.2z"/><path id="D" d="M731.4 409.1v-.4s0-.1.1-.1c0 0 .1 0 .1.1v.6c0 .1 0 .1.1.1h.3s.1 0 .1.1 0 .1-.1.1h-.4c-.1 0-.1 0-.1-.1-.1-.1-.1-.2-.1-.4z"/></defs></svg>