<svg xmlns="http://www.w3.org/2000/svg" xmlns:xlink="http://www.w3.org/1999/xlink" width="400" height="419" fill="none" xmlns:v="https://vecta.io/nano"><style><![CDATA[.B{fill:#fff}.C{fill:#d3d3d3}.D{fill:#212637}.E{fill:#131728}.F{fill:#3d4853}.G{fill:#0f7dc2}.H{fill:#107ec2}.I{fill:#dadbd8}.J{fill:#adcfd4}.K{fill:#f46f5c}.L{fill:#f8a688}.M{fill:#f6f8da}.N{fill:#e2edbf}.O{fill:#373e53}]]></style><path d="M332.8 138.5c0 1.7-1.8 2.9-4.3 2.9s-4.3-1.2-4.3-2.9 1.8-2.9 4.3-2.9 4.3 1.2 4.3 2.9zm.4-22.6v10.6l-1.7 7.4h-5.6l-1.7-7.4v-10.6h9z" fill="#c2c3c1"/><path d="M112.8 32.3l.4.4c8.8 8.6 19.5 15.9 31.8 21.1 26 11 54.2 12.1 82.5 8.1 29.1-4.1 53.7-12.2 83.4-2.6 17.5 5.6 31.8 15 47.3 22.9 11.7 6 24.5 11.8 38.5 12.6V.1H78.1c4.1 0 16 10.4 19 13.4 6.1 5.7 9.8 12.9 15.7 18.8z" class="G"/><path d="M334.1 165.4c-16.7-4.3-27-17.8-43.1-22.7-14.9-4.5-32.1-2.5-47.1.8-14.8 3.3-27.4 10.7-42.8 12.4-6.4.7-13.9.3-19.9-1.2s-14.5-5.5-20-2.9c.2-.1 1.2-.8 1.7-1.1-.4-.1-.6-.2-.4-.5h-2.3v-.7c-5.8-.9-13.2-2.7-20-3.1-14.1-.7-23.3 5.2-35.4 8.6-5.7 1.6-11.2 2.9-16.6 5-12.3 4.7-17.5 11.7-20.7 21.3-8 23.9-48.1 29.6-63.7 50.4-3.8 5.1-4.4 10.1-2.3 15.6 4.5 11.9 14.1 23 30.3 28.3 18.4 6.1 39.5 5.9 59.4 6.2 14.1.3 28.6 1.6 40.4 7.5 8.2 4 15.2 8.9 22 14h246.1v-74.9c0-16.1-1.3-32.6.1-48.6-6.4-2.6-11.7-4.1-16.8-7.8-5.2-3.8-10.8-7.5-18.8-6.9-7.2.5-13.8 1.9-21.4 1.6-3.1-.2-6-.6-8.7-1.3z" class="C"/><path d="M77.4 195.1h-3.3v-2.8h-1.8v2.8H69v1.6h3.3v2.8h1.8v-2.8h3.3v-1.6zm96 94h-3.3v-2.8h-1.8v2.8H165v1.6h3.3v2.8h1.8v-2.8h3.3v-1.6zm79.3 19.4h-3.3v-2.8h-1.8v2.8h-3.3v1.6h3.3v2.8h1.8v-2.8h3.3v-1.6z" class="B"/><path d="M174.5 55.6v59.7H92.4l-3-59.3 85.1-.4z" class="I"/><path d="M171.5 55.9v59.3H89.4V55.9h82.1z" class="B"/><path d="M89.7 115h81.5V56.3H89.7V115zm82.1.6H89.1V55.7h82.7v59.9z" class="I"/><path d="M162.6 62v45.4H98.3V62h64.3z" class="B"/><g class="I"><path d="M162.6 62h-17.9l-46.4.1.1-.1v45.4l-.2-.2h64.3l-.1.1.1-42.2v-2.4c.1-.4.1-.7.1-.7v12.4l.1 33.2H98.1V61.9h.1l64.4.1zm-11.7 28.3h-.2c-.1-.1-.1-.2-.1-.3s-.1-.1-.2-.3-.1-.6.1-.6c.1 0 .2.1.2 0 .1 0 .1-.2.2-.3.1 0 .1 0 .2-.1.1 0 .1-.1.2-.2 0-.1.1-.2.2-.2.1-.1.1-.1.2-.1.2-.1.2-.3.3-.5.1-.1.3.1.3.2.1.1.2.1.2.2-.1.2-.3.3-.2.6 0 .1 0 .2.1.2a.35.35 0 0 0 .1.2c0 .1-.2.1-.2.2v.3c-.1.1-.2.1-.2.3-.1.2 0 .4-.1.5-.1 0-.2.1-.3.1s-.2-.2-.4-.2h-.2c-.1.1-.2 0-.2 0zm-1.3-.4l.2.3c0 .1-.1.1-.2.2-.1.2 0 .4-.1.5h-.2l-.6-.6c-.1-.1-.1-.2-.2-.2-.1-.1-.1-.3-.2-.4s-.2-.2-.2-.3-.1-.2-.1-.3-.1-.1-.2-.2l-.1-.2c-.1-.2-.4-.3-.4-.6.1-.1.1 0 .2.1h.2c.1 0 .2.2.3.3l.2.2c.1.1.1.2.2.2.1.1.2.1.3.2s.4.2.4.4v.2c0 .1.1.1.1.2.1.1.1.2.2.2.2-.1.2-.2.2-.2zm-5.6-2.8c.1 0 .4.5.3.8 0 .1-.1.2-.3.1-.1 0-.1-.6 0-.9z"/><path d="M138.9 73.3c.3.1.4-.3.2-.5 0 0-.2-.1-.3-.2s-.1-.3-.2-.3c0 .3.4.4.4.6-.1.3-.2.3-.1.4zm5-1.6c-.1 0-.2.1-.3.1 0 0-.1 0-.1.1a.76.76 0 0 0 .4-.2zm3.1 4.6c0-.2 0-.3-.1-.5-.1 0 0 .2 0 .3s-.1.2-.1.4c0 .1-.1.1-.1.2.1.1.1 0 .2-.1-.1-.1 0-.1.1-.3zm-12.8 4.6c0-.1-.1-.3-.1-.5-.2-.1-.4.1-.6.1-.1 0-.2-.2-.4-.2-.1 0-.1.1-.2.1-.2 0-.2-.2-.4-.1-.3-.2-.4-.6-.4-1-.1-.2-.3 0-.4.1h-.2c-.1.2.3.3.3.4s-.1.1-.2.2 0 .2-.1.2c-.2 0-.3-.1-.3-.3-.1-.2-.2-.3-.3-.4 0-.1-.1-.1-.1-.2v-.2c0-.1-.2-.2-.4-.3-.1-.1-.3-.1-.4-.2s-.1-.2-.2-.2l-.2-.1c-.1-.1-.1-.1-.1-.2l-.1.1c-.1.3.2.3.3.4s.1.2.2.3.2.1.3.1l.2.2c.1.1.3.1.3.2-.1.1-.2-.1-.3.1 0 .1.1.1.1.2s-.1.3-.3.3c0-.1.1-.1.1-.2 0-.2-.3-.4-.5-.5-.1 0-.2 0-.2-.1l-.4-.4c-.1-.1-.2-.4-.3-.3-.1 0-.1.1-.2.1l-.2.1c-.1.1-.1.1-.2.1s-.3-.1-.4-.1l-.1.1v.2c0 .1-.2.1-.2.1l-.3.3c-.1.1-.1.1-.1.2v.2c0 .1-.1.2-.2.3l-.3.3c-.2 0-.6 0-.6.2s.2.2.3.2h.4l.2-.1h.1c.1 0 .1-.1.2-.1.1-.1.3-.1.4-.1h.5c.1 0 .1-.1.2-.1s.3.1.4.1.1-.1.2-.1.2.1.2.1v.2c0 .1.1.1.1.2s-.2.2-.2.3l.2.2c.1 0 .2.1.3.1h.2c.1 0 .3.1.3.1.1.1.1.2.2.3h.2c.2 0 .3.2.4.2.2 0 .1-.2.1-.4.1-.3.6-.3.8-.1h.3l.2.1h.2c.2 0 .4.2.6.2.1 0 .2-.2.3-.2.2 0 .4.2.6.1s.1-.3.2-.5c-.1-.2 0-.3 0-.4zm.8-1.6c.3-.1.2-.4 0-.5-.1-.1-.3-.2-.4-.3s-.4-.2-.4-.3.2-.2.1-.4c-.2 0-.5 0-.5.2 0 .1.1.1.2.2-.1 0-.3.2-.4.1-.1 0-.2-.2-.3-.3-.1 0-.2-.1-.3-.1s-.2.2-.3.4l-.1.1v.1c0 .1-.2.2-.1.3 0 .1.1.2.1.3s-.2 0-.1.2c.2.2.2-.1.3-.1h.4c.1 0 .2-.1.3-.2.1 0 .1 0 .2-.1.4 0 .6.3 1 .3-.1.2.1.1.3.1zm2.7 1c.1-.5-.3-.5-.3-.8.1 0 .2.1.2 0 0-.2-.2-.3-.4-.2-.1 0-.1-.1-.1-.2-.1-.1-.5-.3-.5-.5 0-.1.2-.2.4-.2.1-.1 0-.3 0-.3-.3-.1-.5 0-.7.1-.1.1-.2.1-.2.2l-.1.2c0 .1.1.1.2.2v.2l.3.3c.1.1.3.2.3.3s-.1.1-.1.2v.3c0 .1.2.2.3.2.1.1.2.2.4.2.1-.1.3-.1.3-.2zm.9-1.7c.2 0 0-.4-.1-.3-.2 0 0 .3.1.3zm2.8-.6c0-.1-.2 0-.1.1 0 0 .1 0 .1-.1zm-8.1 13.3c0-.1-.1-.2-.1-.3s0-.3-.1-.3c-.1.2 0 .6.2.6zm.7-1.4c0-.1.1-.2.1-.3 0-.3-.5-.1-.5.1v.3c0 .1.2.1.3.1s.1-.1.1-.2zm.2 2.8c.1-.1.1-.4 0-.4-.1.1-.2.4 0 .4zm-6.6-4.8c-.3-.1-.7.1-.9.2a.76.76 0 0 1-.4.2c-.1 0-.2-.1-.3-.1h-.5c-.1 0-.3.1-.4.1-.2 0-.4-.2-.6-.4-.1-.1-.2-.1-.3-.2s-.2-.1-.3-.2-.1-.3-.1-.4a.78.78 0 0 0-.4-.4l-.4-.4v-.2c0-.1-.1-.2-.1-.3s.1-.2.2-.3v-.2c0-.1.1-.2.1-.4 0-.1-.1-.2-.1-.3v-.2c0-.1-.1-.1-.2-.3 0-.1.1-.2.2-.4 0-.1.1-.2.1-.2.1-.1.2-.2.2-.3s.1-.2.1-.3.1-.1.2-.2.1-.2.1-.2l.2-.1c.2-.1.4-.3.5-.5 0-.2 0-.3.1-.5.1-.1.1-.3.2-.3.1-.1.3-.1.4-.3.1-.1.1-.2.1-.3s-.1-.3-.2-.3-.3.1-.3 0V80c0-.1-.1-.1-.1-.2s.1-.3.1-.4v-.6c.2-.3.5-.1.9-.1h.2c.2 0 .4.1.5-.1 0-.1.1-.4 0-.5 0-.1-.2-.3-.3-.4s-.3 0-.4-.2c.1-.3.3 0 .5-.1.1 0 .1-.2.1-.2l.2.1.3-.2c.1-.1.1-.2.2-.2l.2-.1c.1 0 .2-.1.3-.2s.1-.3.3-.3.5 0 .5-.2-.1-.3-.1-.5c.1-.2.2-.1.4-.2.1.1.1.3.1.4.1 0 .3 0 .4-.1 0-.1-.2-.3-.2-.4s-.1-.2-.1-.3c-.2 0-.4.3-.6.3-.1 0-.3-.1-.3-.3v-.2c0-.1-.1-.2 0-.4s.3-.2.4-.3l.2-.1c.1 0 .3 0 .4-.1.1 0 0-.1.1-.2l.2-.2c.1-.1.3-.2.4-.3 0-.1-.1-.1 0-.2 0-.1.2 0 .3 0s.2-.2.4-.2c.1 0 .3 0 .4-.1.1 0 .1-.1.2-.1h.6c.2 0 .4-.1.5 0 .1 0 .1.1.2.2h.2c.1 0 .2.1.4.1h.2c.2 0 .4.1.5.2s.4.1.4.3-.3.2-.4.2c-.2 0-.4-.1-.6-.1 0 .3.3.5.6.5 0-.1-.1-.1-.1-.2.1-.1.3.1.4 0 .1 0 .1-.1.1-.2.1-.1.3-.2.5-.1v-.1c0-.1-.1-.2-.1-.4 0-.1.3-.1.3 0s-.1.1-.1.2.1.1.2.1.1-.1.3-.2l.4-.2h.2c.1 0 .1-.1.2-.1s.1.1.2.1h.4c.1 0 .2-.1.3-.1l.2.1c.1-.1-.1-.1 0-.2h.6c.3 0 .5.2.8.2 0-.2-.2-.1-.3-.2l-.1-.3.2-.3c.1-.1.4-.1.5 0s0 .3.1.3.1-.2.2-.2.1.1.2.1.2-.2.3-.2.1 0 .2.1c.1-.1 0-.1 0-.2.1-.1.4 0 .6-.1 0-.1-.1-.1 0-.2s.4-.1.6-.2c.2 0 .3-.1.4-.2.1 0 .2.1.4.1.1 0 .1 0 .2-.1l.2-.1h.4c.1 0 .2-.1.3-.1s.2.1.2.1h.7l.1.1c.2.1.3 0 .3.3.1 0 .2.2.3.2h.7l.2.1h.4c.1 0 .2-.1.3-.1h.8c.1 0 .2.1.3.2s.1.2.2.2l.3.1c.1 0 .1-.1.2-.1.2-.1.6.1.8 0 .1 0 .1-.1.1-.2h1.3c.1 0 .2.2.3.2h.3c.1 0 .1.1.2.1h.4c.3 0 .6 0 .9.1.1.1.2.2.4.2h.9c.1 0 .1-.1.2-.1s.3.2.5.2c.1-.1-.1-.1 0-.2s.2 0 .3 0h.2a.76.76 0 0 1 .4.2h.5c.1 0 .2-.1.3 0l.2.1h.1l.1.1c.2.1.5.1.7.2.1 0 .3.1.4.1h.2c.4 0 .8.2.7.5-.4.1-.8-.3-1.2-.2-.1 0-.1.1-.1.2 0 .2.5.2.6.4-.1.1-.2 0-.2 0a.76.76 0 0 0-.4.2c-.1.1-.2.3-.2.3-.1 0-.3-.1-.4-.1l-.2.1c-.1 0-.3-.1-.4.1 0 .1 0 .3.1.4h.2c.1 0 .1.2.2.2.1.1.1.1.2.1v.2c0 .1.2.1.2.2s-.1.1-.1.2.1.1.1.2v.2c0 .1.1.1.1.2s-.1.1-.1.1c-.2-.2-.4-.4-.7-.6s-.6-.5-.7-.9c0-.1.1-.1.2-.2v-.2c0-.2.1-.3.1-.4s-.2-.3-.3-.3 0 .1 0 .2-.1.2-.2.2c-.2 0-.3-.3-.6-.2-.1 0-.2.2-.2.4 0 .1.2.1.1.2 0 .1-.3.1-.4.1-.2 0-.3-.2-.5-.2-.1 0-.2.1-.2.1-.4.1-.9-.2-1.1.2v.2c0 .1-.1.1-.1.2v.2c0 .1-.2.3-.1.3h.1c.1 0 .3.2.4.2s.2-.1.2-.1c.1 0 .2.1.3.1s.2.1.3.1.1-.1.2-.1c.2.1.3.3.5.5.1.1.2.1.3.2s.2.2.2.3l-.1.1v.2c-.2-.1-.2-.3-.4-.5l-.4-.4c-.1.1.1.3.1.4a.76.76 0 0 1 .2.4v.7c0 .1-.1.2-.1.3s0 .2-.1.3c0 .1-.2.3-.3.3s-.1-.1-.2-.1-.2.2-.3.3v.3c0 .1-.2.2-.2.3s.2.2.2.2l.4.4a.76.76 0 0 1 .2.4c0 .1-.3.3-.5.3-.1 0-.1-.2-.1-.3s-.1-.1-.1-.2v-.2c-.1-.1-.2-.1-.3-.1-.1-.1-.1-.2-.1-.3a.76.76 0 0 0-.4-.2c-.1 0-.2.1-.3.2-.2-.1 0-.4-.2-.4s-.3.3-.4.3c-.1.1-.2.1-.2.1 0 .1.1.1.3.2.1.1.1.2.2.2s.1-.1.2-.1.3.1.4.1c-.1.2-.4.3-.4.5 0 .1.1.1.2.2s.2.3.3.4l.2.1c.1.1 0 .2.1.3v.2c0 .1.2.1.2.2 0 .2.1.4-.1.5-.1.4-.2.7-.4 1-.2.2-.5.3-.8.4-.1 0-.1.1-.2.1-.2.1-.4 0-.4.2 0 .1.1.2.1.3 0 .2-.1.3-.2.3s-.2 0-.2-.2.2-.2.2-.3c0-.2-.1-.3-.3-.3s-.5.4-.5.6c0 .1.3.4.3.5.3.3.7.5.6 1.3-.1.2-.3.2-.5.4-.1.1-.2.4-.4.4-.1 0 0-.2-.1-.3 0-.1-.2-.1-.3-.2s-.1-.2-.2-.3-.2-.1-.3-.2l-.2-.2c-.1 0-.1.1-.1.3s-.1.3-.1.5c0 .1.1.2.2.3.1.2.1.3.2.4l.2.1.4.4c.1.1 0 .3 0 .5s.2.3.1.5c-.1 0-.2-.1-.3-.2-.2-.1-.2-.2-.3-.4l-.1-.2c0-.1 0-.3-.1-.4 0-.1-.2-.3-.3-.4s-.2-.1-.2-.3.1-.4 0-.6v-.4c0-.1-.1-.2-.1-.2 0-.1-.1-.2-.1-.3 0-.2-.1-.5-.2-.5s-.2.3-.4.3c-.1 0-.2-.1-.2-.2v-.3c0-.2-.1-.2-.2-.4l-.1-.2c-.1-.1-.2-.1-.2-.2-.1-.1-.1-.2-.2-.2 0-.1-.1-.2-.1-.3s-.1.1-.2.1-.3.1-.3.1c-.2 0-.4-.1-.4.3 0 .1-.2.1-.3.2s-.2.3-.3.4l-.2.2-.1.2c-.1.1-.3.1-.4.3 0 .2.1.4.1.6 0 .1-.1.2-.1.3v.3l-.1.1-.1.2-.2.2c-.3 0-.3-.5-.4-.7-.1-.1-.2-.2-.2-.3-.1-.2-.1-.3-.2-.5a.76.76 0 0 1-.2-.4c0-.1-.1-.3-.1-.4s-.1-.3-.1-.5 0-.3-.1-.3-.2.2-.3.2-.5-.2-.4-.5c-.1-.1-.3-.2-.5-.4-.1-.1-.2-.3-.3-.3h-1c-.1 0-.3 0-.4-.1-.1 0-.4-.1-.4-.1-.1-.1-.1-.2-.2-.3-.1 0-.2.1-.3.1-.2.1-.4-.1-.5-.2s-.2-.1-.3-.2c-.2-.1-.2-.5-.5-.5-.1 0-.2.1-.3.2 0 .1.1.2.1.3.1.2.4.3.4.6h.2c0 .1 0 .3.1.4.5.1.6-.2.9-.4.1.1.1.2.1.3s.1.2.2.2h.2c.1 0 .3.3.3.4s-.2.3-.2.4-.1.1-.1.2v.2c0 .1-.1.1-.2.2l-.2.2c-.1.1-.1.2-.2.2-.2.1-.3 0-.4.1s-.1.2-.2.3-.3.1-.4.2l-.2.2h-.1c-.1 0-.2.1-.2.1h-.2c-.2.1-.4.3-.5.1s-.1-.5-.2-.7c-.1-.1-.2-.1-.2-.2s.1-.1.1-.1c0-.1-.2-.2-.2-.3s-.1-.1-.1-.2c-.1-.2-.4-.4-.5-.6v-.2c0-.1-.1-.2-.1-.3s-.1-.1-.2-.2l-.1-.2c-.1-.2-.3-.5-.5-.6-.1 0-.2 0-.3.1.1.2.1.3.2.5a.76.76 0 0 1 .2.4v.2c.1.2.3.3.4.5v.4c0 .2.2.3.3.4s.1.3.1.4c.1.2.3.2.4.4.1.1.2.3.3.4s.1.1.2.1v.2c.1.1.2.3.3.3s.1-.1.2-.1h.1c.1 0 .1-.1.2-.1h.4c.1 0 .2-.2.4-.1.1.2 0 .3 0 .5v.1l-.3.6c0 .1 0 .1-.1.2-.1.2-.3.4-.4.6-.1.1-.2.2-.2.3-.1.1-.2.1-.3.2-.2.2-.4.4-.5.6-.1.1-.1.2-.1.2-.1.1-.2.1-.3.2 0 .1-.1.2-.1.3-.1.2-.2.3-.2.5 0 .1.1.1.1.2v.4c.1.2.1.4.2.5v.8c0 .1.1.3 0 .4 0 .1-.2.3-.3.4s-.3.1-.4.2-.2.2-.2.3c-.1.1-.3.3-.3.4s.1.2.1.3c0 .2.1.5 0 .7s-.5.2-.6.4v.2c0 .1-.1.3-.1.4l-.3.3c-.1.1-.1.3-.3.4-.1.2-.3.3-.5.5-.2.1-.4.3-.7.3h-.4c-.1 0-.1.1-.2.1h-.1c-.1 0-.1.1-.2.1-.2 0-.3-.2-.4-.4 0-.1.1-.2.1-.2 0-.1-.1-.2-.2-.3s-.1-.3-.2-.4-.2-.2-.2-.3c-.1-.2-.1-.4-.2-.7 0-.1-.1-.2-.1-.3v-.4c0-.1-.1-.2-.1-.3-.1-.2-.1-.4-.2-.5a.76.76 0 0 1-.2-.4v-.4c0-.1.1-.2.1-.3v-.2c.1-.3.4-.4.3-.8 0-.2-.1-.2-.1-.4v-.2c0-.1-.1-.3-.1-.4-.1-.3-.2-.6-.4-.8l-.3-.3c-.1-.1-.1-.3-.1-.3 0-.1.1-.1.1-.2s0-.3.1-.4c0-.1.1-.2.1-.4 0-.1-.2-.3-.3-.4-.2 0-.3.1-.5 0-.4-.4-.4-.7-.7-.8zm2.8-13.1c0 .2-.3.2-.3.4v.3c0 .1-.1.1-.3.2-.1 0-.2.2-.2.2-.1 0-.1-.1-.2 0-.1 0-.1.1-.2.1s-.3-.1-.3 0 .1.1.2.1.1-.1.2-.1.2.1.3.1c.2 0 .4-.2.6-.2.1 0 .2.1.2.1.1 0 .2-.2.3-.2 0-.2 0-.5.2-.5.1 0 .3.2.3 0 0-.1-.1-.2-.2-.2s-.2.2-.2 0c0-.1.1-.1.2-.1l.1-.1c.3-.1.7.1.8-.2-.3-.2-.7.1-1 .1-.1 0-.3-.1-.3-.2v-.2c0-.1-.1-.2-.1-.2 0-.2.5-.3.5-.6-.1-.1-.4-.1-.5 0 0 0 0 .1-.1.2-.1.2-.4.2-.6.4 0 0-.1.2-.1.3.5.2.7.2.7.3zm4.6-2c0-.1.2-.1.2 0h-.2z"/><path d="M133.5 80.8c0-.1.2-.2.3-.1 0 .2-.3.3-.3.1zm-4.1-.7c.1-.1.4 0 .6 0 0 .1 0 .2-.1.3-.2-.1-.4-.1-.5-.3zm-.8-.7c.2-.2.3-.1.3.3 0 .1-.2.3-.3.1v-.4zm.2-.4c0 .1 0 .2-.1.2-.1-.1 0-.4.1-.2zm-2.3-2.7c0-.1 0-.2-.1-.2h-.1c-.1-.1-.2-.2-.2-.3v-.3c0-.1.2-.2.3-.3.1 0 .2 0 .3-.1h.1c0 .1-.1.1-.1.2s.2 0 .2.2c0 .1-.1.2-.1.2 0 .1.1.2.2.3l.2.2c0 .1.1.2.1.2.1.1.2.1.2.2s-.1.2-.1.3c-.2.1-.4.1-.7.1-.1 0-.3.2-.4 0 0-.1.1-.1.1-.2s-.1-.1-.1-.1c0-.1.1-.1.1-.3 0-.1.1 0 .1-.1z"/><path d="M125.6 75.9c.2-.1.4 0 .4.1s-.1.1-.1.2v.3l-.2.1c-.1.1-.4.2-.6 0 0-.1.1-.1.2-.2 0-.1-.1-.1-.1-.2s.1-.1.2-.1.1-.1.2-.2zm-8.1-2.9c0 .1-.3.3-.3.1-.1-.1.2-.2.3-.1zm-2 1.2c0 .1-.2.2-.3.1v-.1c.2-.1.3-.1.3 0zm-4.9 12.4c-.2.1 0-.1 0 0h0z"/><path d="M113.5 87.2c.1 0 .1-.3 0-.2-.1 0-.1.2 0 .2zM110 73.5c.1 0 .2 0 .2-.1-.1-.3-.4-.1-.6-.1 0 .1-.1.2-.1.3.1.1.3 0 .5-.1zm0 1c.1 0 .2 0 .2-.1l-.2-.1c-.1 0-.1.1-.2.1-.1.1-.2.1-.3.2.2 0 .4-.1.5-.1zm2.1-1.4l.1-.1c-.1-.1-.4 0-.5 0-.1-.2-.3-.2-.3.1.2.1.5-.2.7 0zm5.9.3h0c.1-.1 0-.1 0 0zm-7.4 13.3c0-.2-.2 0 0 0h0zm.6-10c.1 0 .2-.4 0-.4-.1 0-.2.4 0 .4zm1.5 1.5c-.1-.1-.3 0-.4.1-.1 0-.1.1-.1.2l-.2.2c0 .1-.3.5-.1.5.1 0 .2-.2.3-.2.1-.2.2-.4.3-.5.1-.2.2-.2.2-.3zm.2-.3c.2-.1 0-.5-.2-.5-.2-.1-.5.2-.7.2-.1 0-.2 0-.3.2.1.2.3 0 .5 0 .1 0 .1.1.2.2l.5-.1zm.5 1.1c-.2-.1-.3 0-.5.1-.1 0-.2 0-.2.1s.2.1.3 0c.2-.1.3-.1.4-.2zm.1-.6c.1-.1.1-.3 0-.3h-.2l-.2-.1c-.1 0-.2 0-.2.1s.1.1 0 .2-.1.4.1.4c.1 0 .2-.3.3-.4a.31.31 0 0 0 .2.1zm.7.3c0-.1-.2 0-.3 0s-.2 0-.2.1c.1 0 .4 0 .5-.1zm-8.3-1.3c.1-.1 0-.2-.1-.1 0 0 0 .2.1.1zm12.8.4h-.4c-.1 0-.3 0-.4-.1.1-.2.3-.4.5-.6.1-.1.2-.1.1-.2s-.2 0-.3.1-.2.2-.3.2c-.2 0-.5-.1-.6.1 0 .1.2.1.2.2h-.2l-.1-.2c-.1-.1-.3-.1-.4-.1s-.2.1-.3.2c.1.1.4-.1.4.1-.1.2-.3.3-.3.5 0 .1.1.2.2.2l.2-.1c.1 0 .1.1.1.1.1-.1.2-.2.3-.2.2.2-.1.3-.3.4s-.4.1-.6.2c-.1 0-.4.3-.4.1s.1-.1.2-.3c-.2 0-.4.1-.5.2-.2.1-.6.2-.7.5v.2s-.2 0-.3.1c-.1 0-.2.1-.3.2h-.2c-.1 0-.1.2-.2.3l-.2.1c-.1.1-.1.2-.2.3-.1 0-.1-.1-.2 0 0 .2.1.4 0 .6-.1.1-.3.2-.5.3-.1.1-.2.1-.3.1s-.2.2-.3.2c-.2.2-.5.3-.5.7v.5c0 .1.1.3 0 .4-.2-.1-.4-.1-.5-.2 0-.1.1-.2 0-.4 0-.1-.1-.3-.2-.3s-.1.1-.2.1-.2-.1-.3-.2h-.5c-.2.1-.2.3-.5.3-.1 0-.1-.1-.2-.1s-.2-.1-.3-.1c-.2 0-.4.2-.5.3-.2.1-.4.2-.4.4v.3l-.1.2c-.1.3-.2.6-.1 1 0 .1.1.4.2.5s.2.2.3.2.2-.1.3-.1.2 0 .3-.1c.3-.1.2-.5.5-.6.1-.1.2-.1.4-.1.1.1.1.2.1.3s-.1.1-.1.2 0 .2-.1.3c0 .1-.1.2-.1.2v.2c0 .1-.1.2-.1.2.3.1.6 0 .8 0 .1 0 .3.1.3.3 0 .1-.1.2-.1.3 0 .2-.1.4-.1.5 0 .2.3.6.5.6s.4-.3.6-.1c.1 0 .2.2.3.2s.2-.2.3-.3.1-.3.2-.3c.1-.1.2 0 .4-.1.1 0 .1-.1.2-.1s.1-.2.2-.1-.1.2 0 .3c.2.1.3-.2.4-.2l.2.1c.1.1.1.2.2.2h.3c.1 0 .2.1.3.1s.2-.1.3-.2c.2 0 .3 0 .4.2.1 0 .1-.1.2-.1-.1.1 0 .2.1.3v.1c.1.1.2.1.3.1.1.1.1.2.2.3s.3.3.4.3h.3c.2 0 .4.2.6.3.1.1.2.1.2.2v.2c.1.2.3.2.2.5 0 .1.1.1.2.2.1 0 .1.1.2.2h.1c.1 0 .2.1.3.1s.2 0 .2.1c.1 0 .1.2.1.2h.2c.1 0 .3.1.4.1h.2c.3 0 .5.4.7.5h.3c.1.1.2.4.2.6 0 .5-.3.6-.5 1 0 .1-.1.2-.1.3-.1.2-.2.2-.2.6 0 .1.1.2.1.3v.4c0 .1-.1.2-.1.2v.2c0 .1-.1.2-.1.3-.1.2-.1.5-.4.6-.1.1-.3 0-.4.1-.1 0-.1.1-.2.1-.2.1-.5.3-.6.5s.1.4 0 .6c0 .1-.1.1-.1.2-.1.1-.1.2-.1.2-.1.1-.2.1-.2.3v.2l-.1.1v.1c-.1.1-.2.4-.3.4-.2.1-.5-.1-.7-.1 0 .1.1.1.2.2l.1.2c.1.1.1.1.1.2 0 .2-.1.3-.2.4s-.2.1-.3.1-.3 0-.4.1 0 .3 0 .4c-.1.2-.3 0-.4.1 0 .1 0 .2.1.3.1 0 .2 0 .2.1s-.2.2-.2.3v.2c0 .2-.3.2-.3.3 0 .3.5.2.5.4s-.1.2-.2.3v.2c0 .1-.1.1-.1.2s.2.3.2.4c.1.1.2.3.3.3.2.1.4.1.5.3 0 .1-.1.1-.2.2h-.4c-.2-.1-.4-.1-.5-.2-.1 0-.2-.1-.2-.1l-.2-.1c-.1-.1-.2-.3-.3-.3l-.2-.1-.1-.2c0-.1-.1-.1-.2-.2s-.2-.3-.2-.5c0-.1.1-.2.1-.3s-.2-.1-.2-.2.1-.2 0-.3c0-.1-.1-.1-.1-.2s.1 0 .2 0c-.1-.2 0-.5-.2-.6-.1.1.1.3-.1.3-.1-.1-.1-.3-.1-.4s-.1-.2-.1-.3v-.2c0-.2-.2-.3-.2-.5 0-.1 0-.2.1-.3v-.2c0-.1.1-.2.1-.2v-.5c0-.2-.1-.3-.2-.5v-2.3c0-.2-.1-.4-.1-.6l-.4-.4c-.1-.1-.2-.1-.3-.1-.2-.1-.6-.3-.6-.5 0-.1 0-.1-.1-.2s-.2-.3-.2-.4c-.1-.3-.3-.6-.4-.8-.1-.1-.1-.3-.2-.4s-.2-.1-.2-.2-.1-.3-.1-.4.2-.2.2-.3-.1-.2-.1-.2c-.1-.2 0-.3.1-.5l.1-.2c0-.1.1-.1.2-.2l.1-.2.3-.3v-.8c0-.1-.1-.2-.1-.3-.1-.2-.1-.3-.2-.3s-.2.1-.2.2 0 .2-.1.2-.2-.2-.3-.2h-.2l-.3-.3c-.1-.1-.2 0-.3-.1v-.3c-.1-.1-.2-.4-.4-.5-.1 0-.3 0-.4-.1l-.2-.1c-.1 0-.2 0-.2-.1-.2-.1-.4-.6-.6-.5-.1 0-.2.1-.4.1a.76.76 0 0 1-.4-.2c-.1-.1-.3-.1-.4-.2s-.2-.2-.3-.2l-.2-.1c-.1 0-.2-.1-.3-.2s-.2-.2-.2-.3.1-.2.1-.3c0-.3-.2-.5-.3-.7-.1-.1-.2-.3-.3-.4v-.2c-.1-.1-.1-.2-.2-.3s-.2-.2-.2-.3c0-.2.1-.3 0-.4-.1-.2-.4-.1-.3.2 0 .1.1.2.2.3 0 .1 0 .2.1.3 0 .1.1.2.2.3.1.2 0 .4.1.5 0 .1.2.2.1.3-.1 0-.2-.1-.2-.2 0 0-.2-.1-.2-.2V83c0-.2-.4-.2-.4-.4 0-.1.1-.1.1-.3 0-.1-.2-.2-.2-.3s0-.3-.1-.4v-.4c0-.1-.1-.2-.2-.3s-.2 0-.2-.1-.1-.3-.1-.3v-1c.1-.1.2-.2.2-.3s0-.2.1-.3c.1-.2.3-.3.4-.5s.3-.4.3-.6c0-.1.1-.2.1-.3s-.2-.2-.2-.4c0-.1.1-.1.2-.2v-.2c0-.1-.1-.3 0-.4 0-.1.2-.2.1-.3s-.2.1-.3 0 0-.2 0-.3v-.2l.1-.2c-.1-.1-.1-.3-.3-.4s-.4 0-.6-.1c-.1 0-.2-.2-.4-.2-.1 0-.1.1-.3.2-.1.1-.3 0-.4.1-.1 0-.2.1-.3.1s-.1-.1-.2-.1h-.9c-.2 0-.3-.1-.5-.2-.1-.1-.4-.2-.4-.3s.2-.2.3-.2c.2-.1.2-.1.4-.1h.2c.1 0 .1-.1.2-.1.2 0 .4 0 .4-.2-.1-.1-.6.1-.7-.2 0-.1.2-.2.3-.2s.3-.1.5-.1c.1 0 .3.2.4 0 0-.1 0-.3-.1-.4.1-.2.3-.1.4-.2.2 0 .3-.1.4-.1.1-.1.3-.1.5-.1s.3-.1.5-.1h.3c.1 0 .2-.1.3-.1s.1.1.2.1h.2l.2.1h.3c.1 0 .1.1.2.1h.6c.1 0 .1.1.2.1h.2c.1 0 .2.1.3.1.2 0 .4-.1.6-.1h.4c.1 0 .3-.1.4-.1h.2l.2-.1c.1 0 .1.1.2.2.1-.1.2 0 .3 0s.2-.1.3 0c.2 0 .5.3.7.1 0 0 0-.1.1-.2s.2-.3.1-.4c-.2 0-.5.1-.7.1-.3-.2.1-.3.3-.4s.3-.2.5-.3a.9.9 0 0 1 .5.1h.3c.1 0 .2.2.3.2h.2c.1 0 .2.1.3 0 .1 0 .1.1.2.1s.1-.2.3-.2h.2c.1 0 .2-.2.3 0 0 .1-.2.1-.2.2-.1.1-.2.2-.2.3s.2.1.2.2-.1.1-.2.1-.1.1-.2.1c-.2 0-.4-.1-.6-.1 0 .1.1.1.1.2a.9.9 0 0 0 .5.1h.4l.1-.2c.1-.1.2-.2.3-.1l.1.1c0 .1-.2.1-.2.2.1.1.4-.1.4-.2s-.1-.1-.1-.2.2-.1.2-.3c-.1-.1-.2 0-.3 0s-.2-.2-.3-.3c.1-.1.2 0 .2 0 .1-.1.3-.2.5-.2h.2c0 .1-.2.2-.1.3.2 0 .2-.2.3-.3.1 0 .1-.1.2-.1s.2-.1.2-.1l.1.1c.1 0 .1 0 .2.1-.1.3-.6.1-.8.4 0 .2-.1.4 0 .5s.2 0 .3.1c0 .1-.1.1-.1.3.1.1.3-.1.4-.1.1-.1.3-.2.3-.3-.1-.1-.3 0-.3-.2 0-.1.1-.3.1-.3.1-.2.6-.4.9-.3l.2.1c.2 0 .4-.1.6 0 .1-.1.3 0 .5 0 .1.1.1.3.3.4h.2l.2.1c.1 0 .2 0 .2.1s-.1.1-.1.2c.1 0 0 .1 0 .2.1.1.2.1.3.2.1 0 .3.2.3.3s-.2.2-.2.2l-.3.1c-.1 0-.2-.3-.3-.3s-.1 0-.1.1c0 .2.2.2.2.3 0 .2-.1.2-.2.3-.1 0-.2-.1-.3-.1-.1.1.1.1.1.3-.2 0-.3-.1-.5-.1h-.2c-.1 0-.1-.2-.1-.2-.1-.1-.2-.2-.3-.2s-.4.2-.5 0c.1-.3.5-.1.7-.2.1 0 .1-.2.2-.2.2-.1.4-.1.4-.3 0-.1-.1-.1-.2-.1-.1-.1-.2-.3-.3-.3s-.1.1-.2.1c-.2 0-.3-.1-.5 0-.1 0 0 .1-.1.2 0 .1-.1.1-.2.1 0 .1 0 .2-.1.2-.1.1-.3.1-.4.2l-.2.1c-.1 0-.1-.1-.2-.1 0 .1.1.2.2.3s.2.1.2.3c-.1.2-.3 0-.4 0-.2 0-.4.4-.6.1 0-.2.2-.2.2-.3-.2 0-.3.2-.5.2h-.2c-.1 0-.2.2-.4.2h-.2c-.1.1-.3.2-.5.2a1.38 1.38 0 0 0-.4.3l-.2.3c0 .1.1.1.1.2 0 0-.1.2 0 .2 0 .1.1 0 .2 0 .2 0 .3.2.4.3s.3.1.4.2c.2 0 .3-.1.4.1 0 .1-.2.2-.2.3.1.1-.1.2-.1.3s.1.2.2.2.3-.1.3-.3c.1-.2 0-.4.1-.5.6 0 1-.3 1-.9V75c0-.1.2-.2.2-.3.2-.1.1-.3.3-.4.1 0 .3.1.5.1l.2-.1c.1 0 .2.2.3.3s.2 0 .2.1c0 .2-.1.2-.1.3s.1.2.2.2.2 0 .3-.1c.2-.1.3-.3.4-.3s.2.4.2.5v.4c0 .2.3.2.4.3l.1.2c.1.1.1.1.1.2 0 .2-.2.3-.2.5 0 .1-.2.1-.1.2 0 .2.3 0 .4.2v.3c.1.1.1.3-.1.3s-.2-.1-.3-.1z"/></g><path d="M369.8 197.5c0 .9-.6 1.5-1.4 1.5s-1.4-.6-1.4-1.5c0-.8.6-1.4 1.4-1.4.9 0 1.4.6 1.4 1.4zm.1-11.2v5.2l-.5 3.6h-1.8l-.5-3.6v-5.2h2.8zM44.7 265c0 .9-.6 1.5-1.4 1.5s-1.4-.6-1.4-1.5c0-.8.6-1.4 1.4-1.4s1.4.6 1.4 1.4zm.1-11.2v5.2l-.5 3.6h-1.8L42 259v-5.2h2.8z" class="B"/><path d="M368.3 155.6h-5V152h-2.8v3.6h-5v2h5v3.6h2.8v-3.6h5v-2zm-204.2-15.3h-5v-3.6h-2.8v3.6h-5v2h5v3.6h2.8v-3.6h5v-2zm-51.2 4.8h-4.6v-4.7h4.6v4.7zm3.6-12.6c0 3.5-3.9 4.5-3.9 5.8v.5h-3.9v-1.3c0-1.9 3-2.9 3-5 0-.9-.6-1.8-1.5-1.8-1.2 0-1.5 1.1-1.5 2.1v.7h-4.2c0-.3-.1-.6-.1-1 0-3.3 2.7-5.4 6.3-5.4 3.4.2 5.8 2.3 5.8 5.4z" fill="#c2c3c1"/><path d="M213.8 341.5c17.4-1.3 31.9-9.5 48-14 14-3.9 29-6.9 44-5.7 30.3 2.5 36.5 27.6 58.8 39.4 11.5 6.1 23.9 4.9 35-.4v-57.5H153c10.5 20.1 32.8 40.2 60.8 38.2z" class="C"/><path d="M372 339.6h-3.3v-2.8h-1.8v2.8h-3.3v1.6h3.3v2.8h1.8v-2.8h3.3v-1.6zm-134.5-20.4h-3.2v-2.8h-1.8v2.8h-3.3v1.6h3.3v2.8h1.8v-2.8h3.3v-1.6h-.1zm-103.2-153H131v-2.8h-1.8v2.8h-3.3v1.6h3.3v2.8h1.8v-2.8h3.3v-1.6z" class="B"/><path d="M385.3 209.2l.1.2s.7-.7 1.5-1.7c.7-1 1.5-2.4 1.5-4a4.56 4.56 0 0 0-.6-2.2l-1.6-2.6c-.2-.3-.3-.5-.4-.8-.1-.2-.1-.4-.1-.7 0-.5.2-1.1.8-2.2.7-1.3 1.1-2.3 1.1-3.2 0-.6-.2-1.2-.5-1.8s-.8-1.3-1.4-2.2c-.8-1.1-1-2.7-1-4.4l.1-4.5c0-1.1-.1-2.1-.4-2.9-.3-.7-.7-1.4-1.1-1.9l-.6-.6c-.2-.1-.4-.2-.7-.2-.2 0-.4.1-.5.2-.2.2-.4.5-.5 1-.1.4-.2 1-.2 1.8 0 1.7.2 2.9.4 4s.4 2 .4 3-.1 2-.6 3.5l-1.5 4.4c-.5 1.4-.8 2.7-.8 3.9 0 .6.1 1.3.4 1.8s.7 1 1.4 1.4c.6.3 1 .7 1.2 1.1s.3.9.3 1.4c0 .7-.1 1.4-.3 2.2s-.3 1.6-.3 2.5c0 .5.1 1 .2 1.5.3 1 .8 1.6 1.3 1.9.5.4 1.1.5 1.5.5.7 0 1.2-.2 1.2-.2l-.3-.2-.1-.2c-.1 0-.5.2-1 .2-.4 0-.9-.1-1.3-.4s-.8-.8-1.1-1.7c-.1-.5-.2-.9-.2-1.4 0-.8.2-1.6.3-2.4.2-.8.3-1.6.3-2.3 0-.6-.1-1.1-.4-1.6s-.7-.9-1.3-1.3c-.6-.3-1-.7-1.2-1.2s-.3-1-.3-1.6c0-1.1.3-2.4.8-3.8l1.5-4.4c.5-1.5.6-2.6.6-3.6 0-1.1-.2-2-.4-3.1s-.4-2.3-.4-3.9c0-1 .1-1.6.3-2 .1-.2.2-.3.3-.4s.2-.1.3-.1a.76.76 0 0 1 .4.2c.5.3 1.1 1.2 1.6 2.3.3.7.4 1.6.4 2.7l-.1 4.5c0 1.7.2 3.4 1.1 4.6l1.4 2.1c.3.6.5 1.1.5 1.7 0 .8-.3 1.7-1 3-.6 1.1-.8 1.8-.9 2.4 0 .3.1.6.2.8.3.8 1.1 1.6 2 3.4.4.7.5 1.3.5 2 0 1.4-.7 2.8-1.4 3.7l-1 1.2-.4.4v.2l-.1-.2.1.2z" fill="#355e51"/><path d="M380.9 205.4c-.2-.6.4-3-1-4.8s-1.5-2-.6-5.2c.8-3.2-.5-5.5-.4-9.4.1-3.8 2.5-6.7 3.4-3.5 1 3.2 1.2 3.6.6 7s.8 2.2 1.1 6.5c.4 4.4-.6 15.1-3.1 9.4z" fill="#577866"/><path d="M377.6 205.7l11.8-.1-3.6 14.7h-5.4l-2.8-14.6z" fill="#eb942f"/><path d="M213.2 71.6c0-13.7 10.4-24.9 23.2-24.9s23.2 11.1 23.2 24.9h-46.4z" fill="#ee2b2f"/><g fill="#080909"><path d="M236.1 46.7h.7V13.6h-.7v33.1z"/><path d="M335.5 86.6h.3V54.1H315V71l-78.7-58.3L99.5 114.1v178.8h273.6V114.1l-37.4-27.8-.2.3-.2.2 37.2 27.6v177.8H100.2V114.4L236.3 13.5l79.4 58.8V54.7h19.4v32l.1.1.3-.2z"/></g><path d="M201.5 271.7c-22.7 0-41.2-3.2-41.2-7.2s18.4-7.2 41.2-7.2c16.5 0 30.7 1.7 37.3 4.1v6.1c-6.6 2.5-20.8 4.2-37.3 4.2zm37.3-4.2v-6.1c2.1.9 3.9 2.1 3.9 3.1s-1.8 2.1-3.9 3zm57.9 8.2c-28.7 0-52-3.2-52-7.2s23.3-7.2 52-7.2c20.8 0 38.8 1.7 47.1 4.1l.7 5.9c-8.3 2.5-27 4.4-47.8 4.4zm47.8-4.4l-.7-5.9c2.7.9 4.9 2.1 4.9 3.1s-1.5 2-4.2 2.8z" fill="#9c9797"/><path d="M275.5 169.5h-77v-48.1h77v48.1z" fill="#17282f" fill-opacity=".9"/><g class="B"><path d="M255.1 152.5v-14.4l.1.1h-18l.1-.1v14.3l-.1-.1h17.7c0 .2.1.2.2.2h-18V138h18.2v14.2c-.2.1-.2.2-.2.3z"/><path d="M255 152.5l.1-.1c.1-.1.2-.1.4-.2l7.4-3.7v-14.1l.1.1h-17.8l-6 2.7-1.6.7c-.2.1-.3.1-.4.2-.1 0-.2.1-.2.1l.1-.1c.1 0 .2-.1.4-.2l1.6-.8 6-2.8H263v14.2l-5.9 2.9c-.7.3-1.2.6-1.6.8-.2.1-.3.2-.4.2 0 .1-.1.1-.1.1z"/><path d="M263.1 134.4l-4 1.9-4.1 1.8 4-1.9 4.1-1.8zm-25.3 17.7s-.1.1-.4.3c-.2.1-.4.2-.5.1 0 0 .1-.1.4-.3.3 0 .5-.1.5-.1zm1.8-.9s-.1.1-.4.3c-.2.1-.4.2-.5.1 0 0 .1-.1.4-.3.3-.1.5-.2.5-.1zm1.7-.8s-.1.1-.4.3c-.2.1-.4.2-.5.1 0 0 .1-.1.4-.3.3-.1.5-.2.5-.1zm1.7-.8s-.1.1-.4.3c-.2.1-.4.2-.5.1 0 0 .1-.1.4-.3.3-.1.5-.1.5-.1zm1.7-.8s-.1.1-.4.3c-.2.1-.4.2-.5.1 0 0 .1-.1.4-.3.3-.1.5-.1.5-.1zm.5-1.4s.1.2.1.4 0 .4-.1.4c0 0-.1-.2-.1-.4s0-.4.1-.4zm0-1.5s.1.2.1.4 0 .4-.1.4c0 0-.1-.2-.1-.4 0-.3 0-.4.1-.4zm0-1.6s.1.2.1.4 0 .4-.1.4c0 0-.1-.2-.1-.4s.1-.4.1-.4zm0-1.6s.1.2.1.4 0 .4-.1.4c0 0-.1-.2-.1-.4s.1-.4.1-.4zm0-1.5s.1.2.1.4 0 .4-.1.4c0 0-.1-.2-.1-.4 0-.3.1-.4.1-.4zm0-1.6c.1 0 .1.2.1.4s0 .4-.1.4c0 0-.1-.2-.1-.4.1-.2.1-.4.1-.4zm.1-1.6s.1.2.1.4 0 .4-.1.4c0 0-.1-.2-.1-.4s0-.4.1-.4zm0-1.6s.1.2.1.4 0 .4-.1.4c0 0-.1-.2-.1-.4s0-.4.1-.4zm0-1.5s.1.2.1.4 0 .4-.1.4-.1-.2-.1-.4 0-.4.1-.4z"/><use xlink:href="#B"/><use xlink:href="#C"/><use xlink:href="#C" x="-2"/><use xlink:href="#C" x="-3.9"/><use xlink:href="#C" x="-5.9"/><path d="M252.2 148.6s.2-.1.5-.1.5 0 .5.1c0 0-.2.1-.5.1-.2-.1-.5-.1-.5-.1z"/><use xlink:href="#B" x="-11.8"/><use xlink:href="#B" x="-13.8"/><use xlink:href="#B" x="-15.7"/><path d="M245.2 148.6s0-.1.1-.1.1 0 .1.1c0 0 0 .1-.1.1l-.1-.1zm20-4.8h.4c.3 0 .7-.2.9-.6s.3-.9-.1-1.4c-.1-.1-.2-.2-.4-.2s-.3 0-.5.1c-.3.2-.4.5-.6.8l-.3 1h-.2v-2.6l.1 2.6h-.2a1.93 1.93 0 0 1 .3-1c.1-.2.2-.3.2-.4.1-.1.2-.3.4-.4s.4-.1.6-.1.4.2.5.3c.3.5.3 1.1 0 1.5s-.7.5-1 .6h-.3c.3-.2.2-.2.2-.2zm-8.7-11l-.2.2c-.1 0-.2.1-.3.1s-.3 0-.4-.1-.2-.2-.3-.4-.1-.3-.2-.5c-.1-.4-.2-.8-.2-1.2h.2c.1.5.1 1.1-.1 1.6-.1.3-.3.6-.6.8-.2.1-.4.1-.6.1s-.4-.2-.5-.3c-.4-.5-.2-1.1 0-1.5.3-.4.7-.6.9-.7.1 0 .3-.1.3-.1h.1s-.2 0-.4.1c-.3.1-.6.3-.9.7-.1.2-.2.4-.2.6s0 .5.2.7c.1.1.2.2.4.2s.3 0 .5-.1c.3-.2.5-.5.6-.8.2-.5.1-1.1.1-1.6h.2a4.3 4.3 0 0 0 .2 1.2c.1.2.1.3.2.5s.1.3.3.4c.2.2.5.2.7.1 0 0 0 .1 0 0zm-37.1 7.7s0 .1 0 0v.3c0 .2 0 .4.1.8.1.7.1 1.7.2 2.9 0 1.2-.1 2.7-.6 4.2-.2.8-.6 1.6-1 2.3-.5.8-1.1 1.5-1.9 2.2-.7.7-1.5 1.3-2.2 1.9-.6.7-1.1 1.4-1.5 2.1-.7 1.5-.9 2.9-1 4.1s0 2.2 0 2.9v.8c0-.2 0-.4-.1-.8l-.1-2.9c.1-1.2.2-2.7.9-4.2.3-.7.8-1.5 1.5-2.2.6-.7 1.4-1.3 2.2-1.9.7-.7 1.4-1.4 1.8-2.1.5-.8.8-1.6 1-2.3.5-1.5.6-3 .6-4.2l-.1-2.9c0-.3 0-.6-.1-.8.3 0 .3 0 .3-.2 0 0 0 .1 0 0zm-2.9 3.9l-.3-.6-.7-1.5v-.1h.1c-.3.5-.5 1-.6 1.4s-.2.6-.2.6 0-.2.1-.6.3-.9.6-1.5l.1-.1.1.1v.1l.7 1.5c0 .5.1.7.1.7z"/><path d="M215.2 166.1s0-5.3.2-11.9l.3-11.9s0 5.3-.2 11.9l-.3 11.9z"/><path d="M220.9 153.7l-4.7.1c-2.6 0-4.7 0-4.7-.1l4.7-.1 4.7.1zm-1 .9s.3-.1.7-.3 1.1-.4 1.8-.7v.1h-.1l-1.9-.6c-.5-.1-.8-.2-.8-.3 0 0 .3.1.8.2s1.1.3 1.9.5h.1l.2.1-.2.1c-.7.3-1.3.5-1.8.6-.4.3-.7.3-.7.3zm1.1-2.5s-.1 0 0 0l-.2.2.1-.2c.1-.1.3-.5.6-.8.4-.5.7-.9.8-.9 0 0-.3.4-.6.9-.4.4-.7.7-.7.8h-.1.1z"/><path d="M222.6 151.9l-.9-.7-.8-.8.9.7a4.98 4.98 0 0 1 .8.8zm-8.7-.3s.1-.1.2 0c.1 0 .3.1.4.4 0 .2 0 .5-.1.7-.1.1-.2.3-.3.4s-.3.2-.5.1c-.2 0-.3-.2-.4-.3s-.1-.3 0-.4c.1-.3.2-.5.4-.6.1-.4.3-.4.3-.3.2 0 .3 0 .3.1 0-.1-.1-.1-.3-.1-.1 0-.2 0-.4.2-.2.1-.3.3-.3.6v.4l.3.3c.1 0 .3 0 .4-.1l.3-.3c.1-.2.2-.5.2-.7s-.2-.3-.3-.3c-.1-.1-.1-.1-.2-.1zm-1.3-7.8l-.4-.4c-.2-.3-.4-.5-.3-.5l.4.4c.2.3.4.5.3.5z"/><path d="M212.1 145l.4-1.2c.3-.7.5-1.2.6-1.2l-.4 1.2c-.3.7-.6 1.3-.6 1.2z"/></g><path d="M201.5 132v-4.2h1.8a1.69 1.69 0 0 1 1 .3c.3.2.4.5.4.9 0 .3-.1.5-.2.7-.2.2-.4.3-.6.4l.9 1.8h-.5l-.9-1.8h-1.3v1.8h-.6v.1zm1.8-3.7H202v1.6h1.3c.3 0 .5-.1.7-.2s.3-.3.3-.6c0-.2-.1-.4-.3-.6s-.4-.2-.7-.2zm2.1 3.7v-4.2h3v.4h-2.5v1.5h1.6v.4h-1.6v1.5h2.5v.4h-3zm3.2-.7l.3-.3c.2.2.4.4.7.5.2.1.5.2.8.2s.6-.1.8-.2c.2-.2.3-.4.3-.6s-.1-.4-.2-.5-.4-.2-.7-.3l-.6-.1c-.4-.1-.7-.2-.9-.4s-.3-.4-.3-.7.1-.6.4-.8.6-.3 1.1-.3c.3 0 .6 0 .9.1s.5.2.8.4l-.3.4c-.2-.2-.5-.3-.7-.4s-.5-.1-.7-.1c-.3 0-.5.1-.7.2a.55.55 0 0 0-.3.5c0 .2.1.3.2.4s.3.2.6.2l.6.1c.5.1.8.2 1 .4s.3.4.3.8c0 .2 0 .4-.1.5-.1.2-.2.3-.3.4s-.3.2-.5.3-.4.1-.6.1c-.3 0-.6-.1-1-.2-.4-.2-.6-.4-.9-.6zm4 .7v-4.2h.5v4.2h-.5zm1.4 0v-4.2h.5v3.8h2.5v.4h-3zm3.6 0v-4.2h.5v3.8h2.5v.4h-3zm3.5 0v-4.2h.5v4.2h-.5zm1.4 0v-4.2h3v.4H223v1.5h1.6v.4H223v1.5h2.5v.4h-3zm3.7-4.2h.5l2.5 3.4v-3.4h.4v4.2h-.4l-2.6-3.5v3.5h-.4v-4.2zm6.3 3.8c.3 0 .5 0 .7-.1s.4-.2.6-.4l.3.3c-.2.2-.4.4-.7.5s-.6.2-.9.2-.6-.1-.8-.2c-.3-.1-.5-.3-.7-.5s-.3-.4-.5-.7c-.1-.3-.2-.5-.2-.8s.1-.6.2-.8c.1-.3.3-.5.5-.7s.4-.3.7-.5c.3-.1.5-.2.8-.2s.6.1.9.2.5.3.7.5l-.3.3c-.2-.2-.4-.3-.6-.4s-.5-.2-.7-.2-.5 0-.7.1-.4.2-.5.4-.3.3-.4.5-.1.4-.1.7 0 .5.1.7.2.4.4.5c.2.2.3.3.5.4.2.2.4.2.7.2zm2.3.4v-4.2h3v.4h-2.5v1.5h1.6v.4h-1.6v1.5h2.5v.4h-3z" fill="#eee"/><g class="B"><path d="M226.4 160.4s-.7-.3-1.4-.7-1.2-.8-1.2-.8l1.3.7c.8.4 1.3.8 1.3.8zm-.3 2.5s0-.3.1-.7.3-1 .6-1.6l.8-1.6c.2-.4.4-.7.4-.6 0 0-.1.3-.3.7s-.5 1-.7 1.6c-.3.6-.5 1.2-.7 1.6l-.2.6zm8.1-3.8l-1.8.2-1.9.1 1.8-.2 1.9-.1zm.6 2l-2.1.2-2.1.1 2.1-.2c1.1-.2 2.1-.2 2.1-.1zm5.8.5l-1.9-1.1-1.8-1.2 1.9 1.1c1.1.6 1.9 1.1 1.8 1.2z"/><path d="M240.1 158.7s-.1.3-.4.6l-2.2 3c-.3.4-.5.6-.5.6s.1-.3.4-.7l1.1-1.5c.4-.6.9-1.1 1.2-1.5.1-.2.4-.5.4-.5zm1.3-.9l1.2-1.4.1.1c-.8.1-.9.1-1.4 0h-1.1l2.4-.1h.2l-.1.1c-.4.4-.8.9-1.2 1.4"/><path d="M241.5 157.6c.3.1.5.2.7.3s.4.3.5.5 0 .5-.2.7-.4.2-.6.3c-.4 0-.7-.1-.8-.2-.2-.1-.3-.1-.3-.2 0 0 .1 0 .3.1s.5.2.8.1c.2 0 .4-.1.5-.2.2-.1.2-.3.2-.5-.1-.4-.7-.5-1.2-.7m1.6 5.8l-7.7 1.1-7.8 1 7.7-1.1 7.8-1zm1 1.2l-7.2 1.1-7.3 1 7.2-1.1 7.3-1z"/></g><path d="M275.4 170h-76.5v-46.2h76.5V170zm-79.8-49.5v52.6h83.2v-52.6h-83.2z" class="J"/><path d="M156.1 169.4l3.6 47.8 39.7 2.3-1.1-48.8-42.2-1.3zm8.9 95h-2.1v-42.9h2.1v42.9zm37.8-2.1h2.5v-40.8h-2.5v40.8z" class="F"/><path d="M156.9 224.1h53.9v-6.8h-53.9v6.8z" class="D"/><path d="M198.1 172.1c-2.9-.8-9.5 23.5-8.5 27.4.7 2.7 25.2 1.7 25.2 1.7l.3-4.7s-15.5-1.6-15.4-2.8 4.6-8.9 4.6-8.9-3.3-11.9-6.2-12.7z" class="K"/><g class="L"><path d="M186.5 157.8l-6.6 1s1.8 5.5-1 10.3c0 0 4.7 4.9 8 3.6 3.5-1.4 2.2-4.7 2.2-4.7s-3.5-2.8-2.6-10.2z"/><path d="M178.6 148.5s10.2-1.1 10.9.5.9 6 1.5 7c.7.9 1.9 2.1 1.4 2.7-.4.6-.9.5-1.2 1.1-.3.7-.2 4.5-1.5 5.1s-8.2.2-10.7-3.4-5.3-12.6-.4-13z"/></g><g class="D"><path d="M176 149.2l7 2.9s-.2 3.7 1.8 7c0 0-.6.9-1.3.4s-1.1-.8-1.2-1.7c-.2-.9-.8-3.4-2.6-2.2s.1 2.7 1 3c0 0 1.5 4.8-1.3 4.5 0 0-2.6-1.5-4.8-7.3-2.3-5.7-.3-7.7 1.4-6.6z"/><path d="M192.4 147.1s2.4 3.3-3.2 5.5-13.7-3.6-13.7-3.6.2-2.9 4.7-4.2c3.3-.9 6.5-.8 8.2 1.1 2.9 3.2 4 1.2 4 1.2z"/></g><path d="M179.5 167.1l-9.4 2.6s1 12.4.9 15.7-1.6 17.6-1.6 17.6h28.1l-.2-17.7s-.9-10.8.3-13.2c0 0-5.9-3.5-8.7-4.5 0 0 0 3.5-1.9 4.5-2 .8-7.5-5-7.5-5z" class="K"/><path d="M197.4 185.3l-.1-3.5c-.5 1.7-1.2 3.5-2 5.2-1.8 3.6-6.4 8.5-11.3 8s-8.8-4.6-10-9c-.9-3.3-.5-7-1.7-10.2-.5-1.4-1.3-2.6-2.1-3.7.3 3.7.8 10.9.7 13.3-.1 3.3-1.6 17.5-1.6 17.5h28.3s-.4-14.5-.2-17.6z" fill="#df313a"/><path d="M197.2 200.6l-6.5-10.2s-1.6-.8-1.6.9l7.5 9.7s1.7 1.9.6-.4z" class="D"/><g class="K"><path d="M191.2 200.4l-1.4-1s.9.5 1.4 1zm3.7-2.9c-.5-.7-1.1-1.8-2.2-2.3s-5.8 1.3-6.2 1.4c-.2 0-3.2.9-3.8.7-.1 1-.4 2-.6 3.1 1.1.4 4.7-.3 5.1-.3.9-.1 1.7.2 2.5.6.7.5 1.5.9 2 .8s0-.7-.3-1c1.3 1.5 2 1.3 2.3 1 .3-.4-1.4-1.8-1.6-2s-1.7-1.3-1.7-1.3c.5.1 1.7 1.1 1.9 1.2.2.2 2 2.7 2.6 1.9s-.9-2.1-1.5-2.9-2-1.5-2-1.5c.7-.1 2 1.2 2.4 1.6s1.5 2.6 2.4 2c.8-.3-.8-2.3-1.3-3zm-.4-1.2s1.9.5 2.2 1.1-.2.9-.6.8l-1.6-1.9z"/><path d="M169.6 169.7s-3 2-4.4 4.4c-1.4 2.5-9.2 21.4-8.2 25.3.7 2.7 25.2 1.7 25.2 1.7l.3-4.7s-15.5-1.6-15.5-2.8c.1-1.2 4.6-8.9 4.6-8.9s2.5-9.5-2-15z"/></g><g fill="#040606"><path d="M209.5 257.3l11.4 2.7c2.8.7 2.4 2.8-.6 3.8s-5.5.6-6.3-.1c-.8-.8-2.4-.3-3.1 0-.6.3-6.4-.4-6.8-1.3-.4-1 .2-4.8.2-4.8l5.2-.3z"/><path d="M196 257.9s8 2.4 11.4 3.6c2.8 1 2.2 3.1-1 3.8-3.1.8-5.7.3-6.4-.6-.7-.8-2.5-.5-3.1-.3-.7.3-6.5-.8-6.8-1.8s1.2-5.8 1.2-5.8l4.7 1.1z"/></g><path d="M214.1 216.7c-.9-2.9-17.7-11.6-19.1-14.2h-13.6c-1.4 1.7-3.1 4.6-3.6 8.8-.7 5.7 4 5.5 9.9 5.2 1.6-.1 3.4-.2 5.1-.1 7.9.2 11.1 4.4 11.3 6.2s-1.2 35.1-1.2 35.1l10.7-.1c0 .1 1-39.2.5-40.9z" fill="#28363e"/><path d="M179.5 215.9c-1.3-.7-2-2.1-1.7-4.5a17.66 17.66 0 0 1 2.9-8 17.66 17.66 0 0 0-2.9 8c-.3 2.4.4 3.8 1.7 4.5z" fill="#76a8ba"/><path d="M181.5 216.3c-.6-.1-1.2-.2-1.7-.4.5.2 1.1.3 1.7.4z" fill="#161f2e"/><path d="M203.1 257.8l1.2-34.4v-.8c-.2-1.8-3.4-6-11.4-6.2h-1.2c-1.3 0-2.7.1-4 .1-1.3.1-2.5.1-3.6.1-1 0-2-.1-2.8-.2-.7-.1-1.3-.3-1.9-.6-1.3-.7-2-2.1-1.7-4.5.4-3.6 1.7-6.2 2.9-7.9.2-.3.5-.6.7-.9l9.4.4c4.1 3.5 16.1 10.9 18.6 14.1.8 1-2.8 40.8-2.8 40.8h-3.4z" fill="#19262e"/><path d="M207.4 217.4c-.6-2.5-18.1-11.5-21.7-14.9l-14.3-.8c-1.7 1.7-3.5 4.3-3.5 7.1.1 7.1 6.3 8.8 14.1 9 9.1.2 13.7 1.2 13.7 3.1s-5.6 36.8-5.6 36.8l10.6.5c.1 0 7.2-39.1 6.7-40.8z" fill="#28363e"/><path d="M233.8 200.8h-35.7v-2.1h35.7v2.1z" fill="#3f6683"/><path d="M234.2 199.9h-36.9c-1.2 0-2.1-.9-2.1-2v-23.6c0-1.1 1-2 2.1-2h36.9c1.2 0 2.1.9 2.1 2v23.6c0 1.1-.9 2-2.1 2z" class="J"/><path d="M196.5 197.9v-23.6c0-1.1.9-2 2-2h-1.8c-1.1 0-2 .9-2 2v23.6c0 1.1.9 2 2 2h1.8c-1.1 0-2-.9-2-2z" fill="#6b8ea1"/><path d="M217.6 185.7c0 1.1-.9 1.9-1.9 1.9a1.97 1.97 0 0 1-1.9-1.9c0-1.1.9-1.9 1.9-1.9s1.9.8 1.9 1.9z" class="B"/><g class="F"><path d="M312.3 265.3c-.3-4.5-4.9-8.2-10.6-8.2s-10.4 3.6-10.6 8.2h21.2z"/><path d="M302.1 264.4H300v-49.3h2.1v49.3z"/></g><path d="M307.1 151.3c-8.5 0-23.9 6.4-24.6 27.3 0 3.7.4 7.1.9 10.3 4.8 14.6 11.6 23.9 23.7 25.5l16.4-2.1s8.2-16.2 8.2-33.7c0-27.3-16.1-27.3-24.6-27.3z" fill="#76797c"/><path d="M320.4 222.1H283c-2.5 0-4.5-1.3-4.5-2.9v-4.4c0-1.6 2-2.9 4.5-2.9h37.4c2.5 0 4.5 1.3 4.5 2.9v4.4c-.1 1.6-2.1 2.9-4.5 2.9z" class="F"/><g class="L"><path d="M340 164.1s2.5-3.1 2.4-5.2c-.1-1.7 1 0 1.2-.5.8-2 5-8.1 6-7.4.5.4-2.9 5.7-2.9 5.7s3.8-6.5 5.1-6.1-3.6 6.4-3.6 6.4 3.9-5.5 4.7-4.8c.8.6.1 1.7-3.4 5.8 0 0 2.4-3.5 3.2-2.6s-3.8 5.8-4.8 6.7c-.9.9-3.7 2.9-4.7 4.4.1.1-3.1-.8-3.2-2.4z"/><path d="M342.4 158s-.4-3.7.6-4c.7-.3.8 1.6.9 4.1 0 0 .8 1.6.6 2.2.1-.1-2.1-.3-2.1-2.3zm-75.4 2.2s-1.5-2.9-1.5-3.8.4-1.8.5-3c0-1.2 1.6-3.9 1.3-4.7s-1.3-.6-2.3 1.3c-.9 1.8-.6 3-1.4 2.5s-2.6-2.8-3.2-3.8-2.5-2.8-3-2.5-.6.8 2.7 5.4c0 0-3.8-5.6-4.9-4.6-.8.7 2.9 4.8 3.5 5.4 0 0-3.4-4.2-4.4-3.2-1 .9 3.8 4.4 3.8 4.4s-3.5-2.7-4-1.9 1.6 2.6 3.6 3.7 2.5 1.4 3 2.1 1.8 3.7 1.8 3.7 3 .9 4.5-1z"/></g><path d="M306.5 142.2l-6.9 1.1s-.4 12.9-5.9 13.9c0 0-1.9 21.1 5.3 19.3s11.1-20.1 11.1-20.1-6.4-1.8-3.6-14.2z" fill="#f57e5d"/><path d="M307.8 131.9s-6.7-3.1-9.4-1.2-2.5 8.4-2.9 11.4c-.6 4.7 1.2 9.2 2.3 9.6s9.5-2.1 10.9-8.9c1.2-6.9.6-9.8-.9-10.9z" class="L"/><path d="M306.3 143.9s-2.6 1.5-4.2 1.6c-1.7.1-2.7-1.9-5-1.4l-2.6.6s-1.2 8.7 1.9 8.4c3.2-.2 8.5-3.7 10.4-6 0 0 2 0 3.2-2 1.3-2 3-8.2 1.9-12s-6-5.2-8.1-3.5c0 0-1.6-1.3-4.6-1.2-3 .2-3.6 1.8-4.9 2.8s-2.5 1-2.9.1c0 0-.9 1.6.7 4.2 1.6 2.7 3.5 2.3 6 1.7s5.6-3.2 5.6-3.2-.1 5.3 1.2 7.3c0 0 .5.2.7 0s.1-3 1.5-2.4c1.4.8.5 4-.8 5z" class="D"/><path d="M295.6 147.1s2 .3 4.1-.2c0 0-1.1 1.1-2.4 1-1.5 0-1.7-.8-1.7-.8z" class="B"/><path d="M308.6 154.6l-7.3 5.6-5.5-5s-7.7 22.8-6.9 36.8 10 17.3 16.7 4.3 6.2-37.2 3-41.7z" class="J"/><path d="M300.4 162.2s-3.6 18.5-3.3 18.9c.2-.2 2.4 5 3.6 0 1-3.9 1.1-18.5 1.3-18.6 0 0 1.9-1.9 3-2.9.7-.6 1.4-1.3 2.1-1.9.2-.3.3-.6.5-.9-.1.2-.2.4-.3.7.4-.8.9-1.5 1.4-2.2a1.38 1.38 0 0 0-.3-.4l-6.7 3.4-5.2-3s0 .2-.2 1c.5.7.9 1.7 1.3 2.4.5.9 2.8 3.5 2.8 3.5zm-5.6 14.2c0 .2-.2.4-.4.4s-.4-.2-.3-.5c0-.2.2-.4.4-.4.2.1.4.3.3.5z" class="D"/><path d="M345.6 167l-5.9-4.1s-10.9 16.7-11.6 16.2c-.6-.5-5.8-18.1-9.8-19.9 0 0-2 1.4-3.1 5.4-.8 2.9-.9 7.5-.8 12.1 0 0 10.3 14.8 14 14.3 3.6-.5 17.2-24 17.2-24zm-77.7-8.5l-6.7 2.2s9.1 27.1 14.4 24.7 12.2-10.8 12.2-10.8 1.9-2.6 2.7-6.7c.7-3.6.2-8.5-.8-10.7 0 0-4.6 2.3-8.5 8.6-3.9 6.4-5.1 8.2-5.4 7.8-.4-.5-7.9-15.1-7.9-15.1z" class="G"/><path d="M301.7 157.5l-4.7-3.2-1.1.9 1.8 5.7 4-2.7 3.6 3 3.5-6.4-1.8-1.6-5.3 4.3z" class="B"/><path d="M270.4 269.6c-.2.2-4.1 4.1-2 4.5s7.4.9 8.8-.3c1.4-1.3 1.1-2 2.3-2.4 1.1-.4.9-1.1.9-2.8l-.2-4.8c-.2 0-5.3-.3-5.7-.8-.4-.4-3 5.4-4.1 6.6z" fill="#030303"/><path d="M288.8 197.1c.7 0 14.6.3 14.6.3l-1.4 9.3-9.8-.9-3.4-8.7z" class="E"/><path d="M292.1 260.5c.8 1.2 1.1 3.1 1.2 3.9.1.7 1.2 1.4.6 1.9s-6.6 1.7-6.5 1.1-.1-.9-.8-.7-11.7 2.6-13.2 1.6-.9-3.2.5-3.6 9.2-4.9 9.8-6.5c.6-1.7 5.2-2.3 5.4-2.3.2-.1 2.3 3.4 3 4.6z" fill="#030303"/><path d="M295.9 155.2c.2.1 1.5 33.8-3.5 40.8-.7.9-5.4 3.5-5.6 2.7-1.5-4.7 9.1-43.5 9.1-43.5z" fill="#1172b0"/><path d="M295.9 155.2s-4.4 1.1-6.2 1.9c0 0-1.9 15.1-3.8 19l-2.3 26.5s5.5-4.5 7.3-7c.3-.4.7-.8.7-1.4 3-16.8 3.3-20.4 3.3-20.4l1-18.6z" class="G"/><path d="M285.8 176.8c0 .2-1.2 20.2.3 20.4s2.9 1.5 2.9 1.5l-5.6 2.5 2.4-24.4z" fill="#1172b0"/><path d="M285.8 199.5c-1.8.8-13 8.3-14.8 15.8-.1 1.2 1.2 13.2 1.6 14.6s4.6 25.7 5 26.7c.3 1.1.4 4.1 1.9 3.6s3-1.8 4.5-1.9 5.4-2.4 5.6-2.4-1-4.8-1.7-6-2.2-4.2-2.8-6.8-2.6-15.5-1.9-18.5c.6-3 14-15.3 13.7-18-.9-8.8-5-9.3-5-9.3s-.4-.3-6.1 2.2z" class="E"/><path d="M297.5 202.4c-.1.1-9.9 1.6-13.1 10.4s-5.8 30.7-5.8 30.7l18.9-41.1z" fill="#06091d"/><path d="M273.5 263.6s5.6 2.8 7.4 2.1c0 0 10.8-30.3 10.9-32.3.2-1.9 5.7-10.9 7.7-11.9s7.3-3.2 7.3-3.2 7.5-3.3 8.1-4.9c2.8-8.9-10.4-14.7-10.4-14.7s-17.6 9.4-19.3 17.1c-.5 2.2-4.1 16.8-4.2 19.4-.2 2.5-7.5 28.4-7.5 28.4z" class="D"/><path d="M318.5 159.2l-9.6-4.4-8 18.6.4 21.8s2.3 19.6 14.7 16.7l-1.4-35.1s-.1-12.8 3.9-17.6z" class="G"/><path d="M318.4 213.2h-1v-18.8h1v18.8z" class="F"/><g class="D"><path d="M247.3 201.2h27.2v-3.8h-27.2v3.8z"/><path d="M239.7 174.1l9.2 25 1.4-.5-9.2-25-1.4.5z"/></g><path d="M324.9 198.5h-12.2c-.5 0-1-.6-1-1.4v-2.2c0-.8.4-1.4 1-1.4h12.2c.5 0 1 .6 1 1.4v2.2c0 .8-.4 1.4-1 1.4z" fill="#bfbfc0"/><path d="M317.8 198.5h-5.6c-.2 0-.5-.6-.5-1.4v-2.2c0-.8.2-1.4.5-1.4h5.6c.2 0 .5.6.5 1.4v2.2c-.1.8-.3 1.4-.5 1.4z" class="C"/><g fill="#6b8ea1"><path d="M139.9 266.6h-2.1V200h2.1v66.6z"/><path d="M329.3 199.9v1.3H134v-1.3h195.3z"/><path d="M329.3 267.8h-2.1v-66.6h2.1v66.6z"/></g><path d="M341.5 274.5H130.1v-.3l88.1-203.5h36.1l87.2 203.8z" fill="#f5dec6" fill-opacity=".15"/><g fill="#434b37"><path d="M280.3 195s1.1 4.9-2.7 4.9c-3.8-.1-3.1-4.7-3.1-4.7l5.8-.2z"/><path d="M279.6 197.2c0 .6.5 1.1 1.2 1.1s1.2-.5 1.2-1.1-.5-1.1-1.2-1.1c-.6-.1-1.2.4-1.2 1.1zm-.6 0c0-.9.8-1.6 1.8-1.6s1.8.7 1.8 1.6-.8 1.6-1.8 1.6-1.8-.7-1.8-1.6z"/></g><path opacity=".53" d="M277.4 193.5c-.2-.1-.2-.3-.1-.5v-.1c.1-.1.2-.4.2-.5 0-.2 0-.3-.1-.5-.2-.3-.5-.5-1-.7-.4-.2-.9-.3-1.4-.4-.1 0-.3-.1-.4-.1s-.2 0-.4-.1c-.3-.1-.6-.1-.9-.2l-1.9-.7-1-.6c-.3-.3-.6-.6-.9-1s-.4-1.1-.4-1.7c.1-.6.3-1.1.6-1.5.6-.8 1.2-1.2 1.8-1.6l.1-.1c.1-.1.3-.2.5-.2 1.1-.4 2.4.1 2.8 1.2.4 1-.1 2.2-1.3 2.6-.2.1-.4.1-.5.2s-.3.1-.3.1c-.1 0-.1 0-.1-.1s-.1-.2-.1-.2 0 .1.1.2.2.3.4.4c.3.3.7.5 1.2.8.2.1.4.2.7.4l.4.2c.1.1.3.1.4.2.5.3 1.1.6 1.6 1 .3.2.5.4.7.7s.4.6.5 1a1.39 1.39 0 0 1-.2 1.1c-.1.2-.2.3-.3.4s-.2.2-.4.3c.1.1-.1.1-.3 0z" class="B"/><g class="F"><path d="M156.8 194.9h-20.4v.2h20.4v-.2zm0 4.8h-20.4v.2h20.4v-.2z"/><use xlink:href="#D"/></g><path d="M137.1 195.2h-.6v4.5h19.8v-4.5h-.4c-8.1 3.1-16.1.9-18.8 0z" class="M"/><path d="M155.9 195.2h-18.8c2.7.9 10.7 3.1 18.8 0z" class="N"/><g fill="#17282f"><path d="M158.9 190h-20.4v.2h20.4v-.2zm0 4.7h-20.4v.2h20.4v-.2z"/><use xlink:href="#D" x="2" y="-5"/></g><path d="M139.1 190.2h-.6v4.5h19.9v-4.5h-.4c-8.1 3.2-16.1 1-18.9 0z" class="M"/><path d="M157.9 190.2h-18.8c2.8 1 10.8 3.2 18.8 0z" class="N"/><g fill="#002b3a"><path d="M176.4 195H156v.2h20.4v-.2zm0 4.7H156v.2h20.4v-.2z"/><use xlink:href="#D" x="19.5"/></g><path d="M156.6 195.2h-.6v4.5h19.9v-4.5h-.4c-8.2 3.2-16.2 1-18.9 0z" class="M"/><path d="M175.4 195.2h-18.8c2.7 1 10.7 3.2 18.8 0z" class="N"/><path d="M302.8 414.1s-.9 3.7-1.8 4.7z" fill="#e1977c"/><path d="M308.5 174.5h-.6c-1.1 0-1.9-.9-1.9-1.9v-1.9c0-1.1.9-1.9 1.9-1.9h.6c1.1 0 1.9.9 1.9 1.9v1.9c0 1-.8 1.9-1.9 1.9z" class="B"/><path d="M308.4 170.8l.3.3c.2.3.5.5.7.8l.1.1-2 1.1v-.1c0-.2-.1-.4-.1-.6 0-.1 0-.1-.1-.1h-.3v-.2h.4v-2.4l1.2 1.2c-.3-.2-.2-.1-.2-.1zm-1-.7v.3c0 .2.1.5.1.7s.1.5.1.7c0 .3.1.5.1.8v.1l1.4-.8-.1-.1c-.1-.1 0-.1-.1 0-.3.2-.6.4-.9.5h-.1c0-.2-.1-.4-.1-.6s-.1-.4-.1-.6-.1-.5-.1-.7v-.1l-.2-.2zm.6.6c.1.4.1.9.2 1.3.2-.1.5-.3.7-.4l-.1-.1h-.1c-.1.1-.2.1-.3.2 0-.2-.1-.4-.1-.6v-.1c-.2-.2-.3-.2-.3-.3z" fill="#127ec2"/><path d="M307.1 169.7c0 .1-.1.1 0 0v2.4h-.2v-2.8h1.5c.1 0 .3 0 .4.1.2 0 .3.1.5.2.1.1.2.1.3.3.1.1.1.2 0 .4l-.3.3c-.2.1-.4.2-.6.2h-.3c-.1 0-.1-.1-.1-.1l-.2-.2h.2c.1 0 .2 0 .3-.1.1 0 .2-.1.3-.1.1-.1.1-.2 0-.2-.1-.1-.1-.1-.2-.1s-.3-.1-.4-.1h-.9l-.3-.3v.1c-.1-.2-.1-.1 0 0z" class="C"/><path d="M309 173.6v.2-.2c0-.1 0-.1 0 0-.1-.1-.1-.1 0-.1v.1c.1 0 .1 0 .2.1v-.2.3h-.1s0-.1-.1-.2h0zm-2.2.1l.1.1v.1h-.1v-.2h-.1v.1h-.1v-.3c0-.1 0-.1.1-.1h.1c0 .1.1.1 0 .3h0zm-.1-.2c-.1 0-.1 0 0 0-.1.1-.1.1 0 .1 0 .1 0 .1 0-.1.1.1.1.1 0 0 .1.1.1.1 0 0z" class="H"/><path d="M307.4 173.9h-.1v-.1c.1 0 .1 0 .1.1l.1-.1h-.2c-.1 0-.1-.1 0-.2h.2v.1h-.1v.1h.2s.1 0 .1.1c0 0 0 .1-.1.1-.1-.1-.1-.1-.2-.1z" fill="#117ec2"/><path d="M306.9 173.7v-.2h.1l-.1.2.1.1h.1-.2v-.1zm1.7 0v-.1s0-.1.1-.1h.1c-.1 0-.1 0-.2.2.1-.1.1-.1 0 0h0l.1.1h.1-.2v-.1zm1.1 0v-.1s0-.1.1-.1h0l-.1.2c.1-.1.1-.1 0 0h0l.1.1h.1-.2v-.1z" fill="#107dc2"/><path d="M309.4 173.7c0 .1 0 .1.1.1h.1v.1c-.1.1-.2.1-.3 0v-.2c.1-.1.2-.1.3 0v.1c-.1-.3-.1-.3-.2-.1 0-.1 0-.1 0 0z" class="H"/><path d="M307.8 173.7v-.1c.1 0 .1.1 0 .1l.1.1h.1-.2v-.1zm.3 0v-.1.1c.1 0 .1-.1 0 0l.1.1h.1-.2v-.1z" fill="#117ec3"/><g class="C"><path d="M307.1 172.1s0 .1 0 0h.2c-.1.1-.1.1-.2 0 0 .1 0 .1 0 0zm.2-.5c0-.1 0-.1 0 0-.1-.1-.1-.1 0-.1v-.2.3z"/><path d="M307.3 172.1h0c0-.1.1-.1 0-.1.1 0 .1 0 0 .1h0zm-.2-2.1c-.1-.1-.1-.1 0-.1v-.1.2zm.1.6c-.1-.1-.1-.1 0-.1v-.1.2zm0 .3s0-.1 0 0c-.1-.1-.1-.1 0-.1v-.1.2z"/><path d="M307.3 171.2c-.1-.1-.1-.1 0-.1v-.1.2zm.1.6c-.1 0-.1 0 0 0-.1-.1-.1-.1 0-.1v-.1c-.1.1 0 .1 0 .2zm-.2-1.5c-.1 0-.1-.1 0 0v-.2c-.1 0 0 .1 0 .2zm-.1-.6c-.1-.1 0-.2 0-.2v.2z"/><path d="M307.1 169.8c-.1 0 0 0 0 0 0-.1 0-.1 0 0 0 0 0-.1 0 0zm.2 1.2c-.1 0-.1 0 0 0-.1-.1-.1-.1 0 0-.1 0 0-.1 0 0zm.1.9c-.1 0-.1 0 0 0 0 0 0-.1 0 0zm-.2-1.5c-.1 0-.1 0 0 0 0-.1 0-.1 0 0 0 0 0-.1 0 0z"/></g><path d="M319.2 269.5s3.5 0 3.9-.2c0 0 1 2.7 2.9 2.5 0 0-3.4.4-5.1-.3s-1.7-2-1.7-2z" fill="#2c3245"/><path d="M323.1 269.4s-.4-25.2.3-26.5 1-2 2.5-2 1.4-.4.9-.4-3.5.5-4.6 1.1c-1.2.5-2.6.9-2.9 3.3s0 24.5 0 24.7c-.1.2 3.8-.2 3.8-.2z" class="E"/><path d="M327 240.5l20.3.7c.8.2 1.2.5 1.2 1.9.1 1.4.2 19.7.1 20.3s-.2 1.6-1.4 2.3c-1.2.6-18.4 6.1-20.7 6.1s-3.1 0-3.5-3.7-.2-22.4 0-23.4.3-3.1 1.4-3.5 2.4-.6 2.4-.6" fill="#1d2234"/><path d="M323.1 245s23.3-1.2 25.2-.2z" class="E"/><path d="M328.6 252.5s15.3-1.6 16.1-1.1z" class="O"/><path d="M329.8 240.6c0-.1 1.1-2.1 1.5-2.3l3-1.5c.7-.2 2.2-.8 2.6-.4.5.4 1.4 2.8 1.6 3.2s1.1 1.2.7 1.2-2.4-.1-2.4-.1 1.3-1.1 1-1.4c-.3-.2-.8-1.1-1.1-1.2s-2-.5-2.5-.2c-.6.2-2.4 1.5-2.6 2.1s-.1.5-.1.5l-1.7.1z" class="E"/><path d="M329 252.4s.3 3.2.1 3.4-.4.2-.5-.2c-.1-.3 0-3.7.4-3.2z" class="O"/><path d="M340.8 240.9l2.3.1s-1.2-3.4-1.5-3.5-.9 1-.9 1 .9.6.1 2.4z" fill="#212738"/><path d="M341.7 237.5s-4.8-1.9-5.4-1.8-2.1 1.6-1.3 1.6 5.4 1.3 5.7 1.5c.4.2 1-1.3 1-1.3z" class="E"/><path d="M332.9 236.9s.7-.7 1.7-.9 1.6-.3 1.9-.2-1 1.3-1.4 1.6-1 .5-1.2 1-1.1-1.2-1-1.5z" fill="#212738"/><path d="M333 236.9s1.6 1.1 1.7 1.6c.1.4 0 2.2 0 2.2l-3-.1.1-1.1c0 .1 1-2.7 1.2-2.6z" class="O"/><path d="M337.5 258.7l1.2 1.2-1.8 2.2v-.1c-.1-.3-.1-.5-.2-.8 0-.1 0-.1-.1-.1s-.1.1-.2.1h-.1v-.3c.1 0 .2-.1.2-.2s0-.2-.1-.2v-.1c0-.1 0-.2-.1-.3v-.2c0-.1 0-.2-.1-.3 0-.1 0-.2-.1-.3v-.1c0-.1 0-.2-.1-.3 0-.1 0-.2-.1-.3v-.1c0-.1 0-.2-.1-.3 0-.1 0-.2-.1-.3v-.1c0-.1 0-.2-.1-.3v-.1l1.2 1.2c.6 0 .7.1.7.1zm-1.1-.6c0 .1.1.3.1.4.1.3.1.6.2.9s.1.6.2.9.1.6.2 1v.2l1.2-1.6-.1-.1c-.1-.1 0-.1-.1 0-.3.3-.6.7-.8 1l-.1.1c-.1-.3-.1-.5-.2-.8s-.1-.5-.2-.8-.1-.6-.2-.9v-.1l-.2-.2zm.6.6l.3 1.7c.2-.3.4-.5.6-.8-.1-.1-.1-.1-.2-.1h-.1c-.1.1-.2.2-.2.3-.1-.2-.1-.5-.2-.8v-.1l-.2-.2z" fill="#127ec2"/><path d="M336.1 257.7s0 .1 0 0v3.5h-.2c0-.3-.1-.6-.1-.9l-.2-2c0-.2-.1-.5-.1-.7v-.1c.3-.1.7-.3 1-.4.1 0 .2-.1.4-.1h.4a.9.9 0 0 1 .5.1c.1 0 .2.1.3.2s.1.3 0 .5-.1.3-.3.5-.4.4-.6.5c-.1.1-.2.1-.2.2-.1 0-.1-.1-.2-.1l-.2-.2c.1 0 .1-.1.2-.1.1-.1.2-.1.3-.2l.3-.3v-.1c.1-.1.1-.2 0-.3s-.2-.1-.2-.1h-.4c-.1 0-.3 0-.4.1h-.2s-.1 0-.1.1h-.1l-.1.1-.3-.3v.1c.4-.2.4-.1.5 0z" class="C"/><path d="M338.4 262.2v.3-.3l-.1-.1v-.1c0 .1.1.1.2.2v-.4.5h-.1c.2.1.1 0 0-.1h0zm-2.1.9l.1.1v.1h-.1v-.2c-.1.1-.1 0-.1.1v.2s0 .1-.1 0v-.4c0-.1 0-.1.1-.1h.1c.1 0 .1 0 .1.1 0 0-.1 0-.1.1zm-.1-.2c-.1 0-.1 0 0 0v.1h.1l-.1-.1z" class="H"/><path d="M336.9 263.1h-.1v-.1h.1v.1c.1-.1.1-.1.1-.2h-.2c-.1 0-.1-.1 0-.2 0-.1.1-.1.2-.1v.1h-.1v.1h.2s.1 0 .1.1c-.1 0-.1.1-.3.2h0z" fill="#117ec2"/><path d="M336.5 263v-.3c.1 0 .1 0 .2-.1h-.1v.1c0 .1 0 .1 0 0h.1v.1h-.1l-.1.2c.1.2.1.1.2.1h.1c-.1 0-.1.1-.2.1-.1-.1-.1-.1-.1-.2zm1.5-.6v-.3c.1 0 .1 0 .2-.1h-.1v.1c0 .1 0 .1 0 0h.1v.1h-.1c0 .2 0 .2-.1.2.1.1.1.1 0 0 .1.2.1.1.2.1h.1v.1c-.1 0-.1 0-.2.1-.1-.2-.1-.2-.1-.3zm1.1-.4v-.3c.1 0 .1 0 .2-.1h-.2c0 .1 0 .1.1 0h0c0 .4 0 .4-.1.4.1.2.1.1.2.1h.1v.1c-.1 0-.1.1-.2.1-.1-.2-.1-.2-.1-.3z" fill="#107dc2"/><path d="M338.8 262.1c0 .1 0 .1 0 0 0 .1.1.2.1.1 0 0 .1 0 .1-.1v-.1.1c-.1.1-.2.2-.3.1s-.1-.2 0-.3c0-.1.2-.2.2-.1v.2c-.1-.1-.1 0-.1.1z" class="H"/><g fill="#117ec3"><path d="M337.3 262.7v-.3.3l.1.1h.1v.1c-.1 0-.1 0-.2.1h-.1c.1-.2.1-.2.1-.3z"/><path d="M337.6 262.6v-.2.2l.1.1h.1v.1c-.1 0-.1 0-.2.1h-.1c.1-.2.1-.3.1-.3z"/></g><path d="M338 262.4v.3-.3c-.1 0-.1 0 0 0z" fill="#137fc3"/><g class="C"><path d="M336.4 260.9h0s0 .1 0 0zm.2-.8c-.1 0-.1 0 0 0-.1-.1-.1-.1 0 0-.1-.1-.1-.1-.1-.2v-.3c0 .1 0 .2.1.3-.1.1 0 .1 0 .2zm0 .7h0v-.4c.1.2.1.3 0 .4h0zm-.4-2.7s-.1 0 0 0c0 0-.1 0 0 0-.1-.1-.1-.1 0-.1v-.1c-.1 0 0 .1 0 .2z"/><path d="M336.3 258.9s0-.1 0 0c-.1-.1-.1-.1 0-.1v-.1.2zm.1.3c-.1-.1-.1-.1 0-.1v-.2c-.1.1 0 .2 0 .3zm.1.4s-.1 0 0 0c-.1-.1-.1-.1 0-.1v-.1c-.1 0 0 .1 0 .2zm.1.8s0-.1 0 0c-.1-.1-.1-.1 0-.1v-.1.2zm-.4-2c-.1-.1-.1-.1 0-.1v-.2.3zm-.1-.7c-.1-.1 0-.2-.1-.3 0 .1.1.2.1.3zm.2.9c-.1 0-.1 0 0 0v-.1.1z"/></g><defs ><path id="B" d="M262.1 148.6s.2-.1.5-.1.5 0 .5.1c0 0-.2.1-.5.1-.3-.1-.5-.1-.5-.1z"/><path id="C" d="M260.1 148.6s.2-.1.5-.1.5 0 .5.1c0 0-.2.1-.5.1s-.5-.1-.5-.1z"/><path id="D" d="M136.5 195v4.9h-.7s-.9-1.4-.9-2.5c0-1.2.9-2.3.9-2.3l.7-.1z"/></defs></svg>