<svg xmlns="http://www.w3.org/2000/svg" xmlns:xlink="http://www.w3.org/1999/xlink" height="512" viewBox="0 0 128 128" width="512" xmlns:v="https://vecta.io/nano"><path d="M110.19 117.622h-6V15.193h6z" fill="#537980"/><path d="M113.19 117.622h-12V109.5h12z" fill="#385b60"/><path d="M48.623 60.625v-47.35h-24v47.35a28.75 28.75 0 1 0 24 0z" fill="#eaeaf0"/><path d="M59.37 86.75a22.75 22.75 0 0 1-45.5 0 22.512 22.512 0 0 1 .7-5.58h44.1a22.512 22.512 0 0 1 .7 5.58z" fill="#9adb07"/><rect fill="#d8d8d8" height="6" rx="3" width="33" x="20.123" y="13.276"/><path d="M6.5 115.5h115v6H6.5z" fill="#537980"/><path d="M75.126 6.5v70.615a9 9 0 1 0 18 0V6.5z" fill="#eaeaf0"/><rect fill="#d8d8d8" height="27" rx="3" transform="matrix(0 1 -1 0 93.626 -74.626)" width="6" x="81.126" y="-4"/><path d="M119.126 24.192v6h-48.5v-6z" fill="#385b60"/><g fill="#94c600"><circle cx="32.137" cy="94.542" r="3"/><circle cx="48.624" cy="88.667" r="3"/><circle cx="35.137" cy="67.388" r="3"/></g><g fill="#051720"><path d="M110.2 62.254A1.751 1.751 0 0 0 108.44 64v4.5a1.75 1.75 0 0 0 3.5 0V64a1.751 1.751 0 0 0-1.75-1.746zM30.624 27.75a1.75 1.75 0 0 0-1.75 1.75v6.583a1.75 1.75 0 0 0 3.5 0V29.5a1.751 1.751 0 0 0-1.75-1.75zm-17.75 52.987a24.274 24.274 0 0 0-.755 6.013 24.5 24.5 0 1 0 48.245-6.013 1.749 1.749 0 0 0-1.7-1.317H14.57a1.748 1.748 0 0 0-1.695 1.317zm3.1 2.183h41.3a21 21 0 1 1-41.291 0zM121.5 113.75h-6.562v-4.25a1.75 1.75 0 0 0-1.75-1.75h-1.248V75.333a1.75 1.75 0 0 0-3.5 0v32.417h-2.5V31.942h2.5v25.25a1.75 1.75 0 1 0 3.5 0v-25.25h7.186a1.75 1.75 0 0 0 1.75-1.75v-6a1.751 1.751 0 0 0-1.75-1.75h-7.186V15.2a1.751 1.751 0 0 0-1.75-1.75h-6a1.751 1.751 0 0 0-1.75 1.75v7.252h-7.56v-8.218a4.74 4.74 0 0 0-.254-9.474h-21a4.74 4.74 0 0 0-.246 9.475v8.217h-2.754a1.751 1.751 0 0 0-1.75 1.75v6a1.75 1.75 0 0 0 1.75 1.75h2.754V77.12a10.744 10.744 0 0 0 18.344 7.6 10.641 10.641 0 0 0 3.156-7.6V31.942h7.56v75.808h-1.252a1.751 1.751 0 0 0-1.75 1.75v4.25H84.833a1.75 1.75 0 0 0 0 3.5h34.917v2.5H8.25v-2.5h66.88a1.75 1.75 0 0 0 0-3.5H50.783a30.493 30.493 0 0 0 11.465-43.542 1.75 1.75 0 1 0-2.936 1.9 27 27 0 1 1-33.961-9.888 1.75 1.75 0 0 0 1.019-1.59V21.025h20.5V25h-4.246a1.75 1.75 0 0 0 0 3.5h4.246v3.25h-4.246a1.75 1.75 0 1 0 0 3.5h4.246v3.25h-4.246a1.75 1.75 0 0 0 0 3.5h4.246v3.25h-4.246a1.75 1.75 0 0 0 0 3.5h4.246V52h-4.246a1.75 1.75 0 0 0 0 3.5h4.246v5.13a1.751 1.751 0 0 0 1.02 1.59 26.836 26.836 0 0 1 6.59 4.291 1.75 1.75 0 1 0 2.32-2.621 30.291 30.291 0 0 0-6.43-4.359V21a4.74 4.74 0 0 0-.246-9.475h-27A4.741 4.741 0 0 0 22.87 21v38.53a30.485 30.485 0 0 0-.412 54.219H6.5a1.751 1.751 0 0 0-1.75 1.75v6a1.751 1.751 0 0 0 1.75 1.75h115a1.751 1.751 0 0 0 1.75-1.75v-6a1.751 1.751 0 0 0-1.75-1.75zm-15.56-96.8h2.5v5.5h-2.5zM72.376 9.5a1.252 1.252 0 0 1 1.25-1.25h21a1.25 1.25 0 0 1 0 2.5h-21a1.252 1.252 0 0 1-1.25-1.25zm4.5 4.75h14.5v8.192H76.88zm-4.5 11.692h45v2.5h-45zm19 9.25h-4.25a1.75 1.75 0 0 0 0 3.5h4.254v3.25h-4.254a1.75 1.75 0 0 0 0 3.5h4.254v3.25h-4.254a1.75 1.75 0 0 0 0 3.5h4.254v3.25h-4.254a1.75 1.75 0 0 0 0 3.5h4.254v3.25h-4.254a1.75 1.75 0 0 0 0 3.5h4.254V77.12a7.264 7.264 0 0 1-7.25 7.25 7.258 7.258 0 0 1-7.25-7.25V31.942h14.5zm11.558 78.558v-2.5h8.5v2.5zm-81.06-97.475a1.251 1.251 0 0 1 1.25-1.25h27a1.25 1.25 0 1 1 0 2.5h-27a1.25 1.25 0 0 1-1.25-1.25z"/><use xlink:href="#B"/><use xlink:href="#B" x="16.487" y="-5.875"/><path d="M30.387 67.388a4.75 4.75 0 1 0 4.75-4.75 4.756 4.756 0 0 0-4.75 4.75zm4.75-1.25a1.25 1.25 0 1 1-1.25 1.25 1.251 1.251 0 0 1 1.25-1.25z"/></g><defs ><path id="B" d="M32.137 99.292a4.75 4.75 0 1 0-4.75-4.75 4.756 4.756 0 0 0 4.75 4.75zm0-6a1.25 1.25 0 1 1-1.25 1.25 1.251 1.251 0 0 1 1.25-1.25z"/></defs></svg>