<svg xmlns="http://www.w3.org/2000/svg" width="528" height="537" fill="none" xmlns:v="https://vecta.io/nano"><path d="M516.046 537H11.954C5.352 537 0 532.297 0 526.496V97.504C0 91.703 5.352 87 11.954 87h504.092C522.648 87 528 91.703 528 97.504v428.992c0 5.8-5.352 10.504-11.954 10.504" fill="#fff"/><path d="M332.22 68.608c0 37.89-30.72 68.608-68.6 68.608S195 106.5 195 68.608 225.72 0 263.6 0s68.6 30.716 68.6 68.608z" fill="#477cc7"/><path d="M235.828 101.505c-1.197 0-2.16-1-2.07-2.206 1.128-15.504 14.064-27.732 29.856-27.732S292.34 83.795 293.47 99.3c.087 1.195-.876 2.206-2.072 2.206h-55.57zm42.972-50.61a15.19 15.19 0 0 1-15.187 15.185 15.19 15.19 0 0 1-15.187-15.185 15.19 15.19 0 0 1 15.187-15.189 15.19 15.19 0 0 1 15.187 15.19z" fill="#fff"/></svg>