<svg xmlns="http://www.w3.org/2000/svg" viewBox="0 0 512.019 512.019" xmlns:v="https://vecta.io/nano"><path d="M490.6 322.86L366.165 447.197c-84.215 84.215-224.132 86.246-306.76.53-80.295-83.462-79.04-215.83 2.825-297.754L190.01 22.28l75.123 75.123L139.56 222.976c-39.756 38.834-43.684 101.45-9.092 144.95a106.5 106.5 0 0 0 76.953 38.459c29.918 1.428 59.054-9.81 80.266-30.956l127.78-127.69L490.6 322.86z" fill="#e64c3c"/><path d="M281.42 81.117l-25.07 25.07-75.123-75.123 24.982-25.07c6.938-6.886 18.132-6.886 25.07 0l50.14 50.052a17.8 17.8 0 0 1 0 25.071zM506.8 306.573l-24.982 25.07-75.123-75.123 24.982-25.07c3.313-3.347 7.826-5.23 12.535-5.23s9.223 1.883 12.535 5.23l50.052 50.052c3.347 3.312 5.23 7.826 5.23 12.535s-1.883 9.224-5.23 12.536z" fill="#d1d4d1"/><path d="M511.997 134.965L447.07 73.1l63.108-61.82-188.6 41.57 64.918 61.864-63.1 61.828z" fill="#f0c419"/></svg>