<svg xmlns="http://www.w3.org/2000/svg" xmlns:xlink="http://www.w3.org/1999/xlink" width="229" height="64" fill="none" xmlns:v="https://vecta.io/nano"><style><![CDATA[.B{fill:#0f7dc2}.C{fill-opacity:.55}.D{fill:#fff}.E{fill:#100f0d}.F{fill:#000}]]></style><g filter="url(#P)"><path d="M145.383 8.713l.05.036.127-.073-.077-.036-.05.036c-.074.05-.001.004-.103 0l.052.018" class="B C"/><path d="M145.714 8.695h-.05c.037.025.008.02.05 0z" class="B C"/><path d="M170.307 39.617l-.05-.054c-.008.065-.02.014.05.054z" class="B C"/><path d="M142.095 39.908l-.077-.036c.048.056.02.02.077.036z" class="B C"/><path d="M142.68 40.053l.05-.037c-.137-.017-.056-.012-.127.018l-.128-.11-.178.1v.037c.185.054.243 0 .33.073l.05-.073" class="B C"/><path d="M142.936 39.962l-.025-.018c.017.09.02.033.1.1l-.025-.054c.046-.024-.042-.018-.05-.018" class="B C"/><path d="M143.75 40.09v.036l.102-.018-.102-.018z" class="B C"/><path d="M142.222 40.27l.026-.127-.05.127h.025" class="B C"/><path d="M142.502 40.198l-.05-.018v.11l.255.054.025-.018.035.034-.024-.013-.226.09.113-.035c.065-.043.037.02.045.07.088-.103.015-.038.135-.07l.024-.092c-.115-.03-.3-.012-.332-.11" class="B C"/><path d="M154.908 8.437c.017-.025.034-.03.05-.037-.102.004-.028.05-.102 0l-.05-.036-.076.036.127.073.05-.036" class="B C"/><path d="M154.628 8.42h-.05c.042.02.013.025.05 0z" class="B C"/><path d="M154.755 8.437l-.204.036-.05.018.153.09.102-.145" class="B C"/><path d="M157.253 8.637z" class="B C"/><path d="M170.606 9.743z" class="B C"/><path d="M170.836 9.852z" class="B C"/><path d="M184.776 39.613c.043.02.014.025.05 0h-.05z" class="B C"/><path d="M185.21 40.084c.09-.034.182-.02.128-.072-.122.032-.066.003-.128.072z" class="B C"/><path d="M185.77 40.302l-.025-.11v.054l-.204.036.178.073.204-.018-.05-.073-.102.036z" class="B C"/><path d="M184.674 40.34l.18-.073-.204.018.025.054" class="B C"/><path d="M187.172 40.357l.382.217.026-.018.025-.055-.28-.163-.153.018" class="B C"/><path d="M186.866 40.538l.025-.054-.025-.018v.073" class="B C"/><path d="M160.186 40.24l-.03-.024-.015.024h.045" class="B C"/><path d="M143.464 40.7c-.01-.005-.027-.003-.045 0h.045" class="B C"/><path d="M139.88 40.114l.068.07c.005-.053.04-.1-.068-.07z" class="B C"/><path d="M140.106 40.08l-.023.035c.012-.001.04.002.023-.035z" class="B C"/><path d="M140.15 40.114l.068.053-.068-.107v.053z" class="B C"/><path d="M142.067 40.4l.022-.107c-.096.02-.115.013-.203-.053l-.135.124.045-.09-.383.053-.045-.035-.158.053.068.07c.13-.007.022.013.112-.053.128.124.21 0 .226.09l.135-.053.1-.018-.067.124.112-.035c.056-.013.016-.01.045.035l.113-.035.045-.07-.158.053c.062-.08.08-.055.136-.053" class="B C"/><path d="M142.134 40.434l-.023-.053v.07l.046.018c0-.04.003-.008-.023-.036" class="B C"/><path d="M142.134 40.292v.053l.023.035.1.106.045-.106c-.15.004.027-.042-.158-.09" class="B C"/><path d="M142.18 40.06l.023.018.067-.036-.1.018z" class="B C"/><path d="M142.315 40.47v.09l.067-.248-.113.16h.046" class="B C"/><path d="M142.427 40.38l-.022.07.112.018-.045-.053-.045-.036" class="B C"/><path d="M142.675 40.522l.068.018-.046-.054-.022.036z" class="B C"/><path d="M142.968 40.47v.07l.087-.068c-.03-.003-.058-.003-.087-.003" class="B C"/><path d="M143.126 40.54l-.068.09.023.107c.118-.026.032-.06.135 0l.022-.16-.067.018-.045-.053" class="B C"/><path d="M143.464 40.63l.045.018.022-.07-.27.036.203.018" class="B C"/><path d="M143.464 40.487h.045l.045.036c-.06-.063-.012-.064-.1-.036z" class="B C"/><path d="M145.862 40.068l.075.004-.04-.046-.036.042" class="B C"/><path d="M146.46 39.635c.03.033.023-.036.023-.036l-.023.036z" class="B C"/><path d="M146.596 39.635c.068-.03.032.017.068-.053l-.023.035-.045.018z" class="B C"/><path d="M146.8 39.67l.068-.017-.068-.036v.053z" class="B C"/><path d="M147.025 39.635c.05.04.02-.003.022.053l.1.018-.1-.142-.022.07z" class="B C"/><path d="M147.25 39.582l-.023.035c.04-.023.03.004.023-.035z" class="B C"/><path d="M147.227 39.582l.023-.018.067.018-.045-.07-.045.07" class="B C"/><path d="M147.25 39.69l.067.018-.045-.053-.022.035" class="B C"/><path d="M147.746 39.724c.006-.07.008-.036-.045-.09v.053l.045.035z" class="B C"/><path d="M148.242 39.813l.045.018.022-.053-.067.035z" class="B C"/><path d="M151.442 41.676c.04-.023.03.004.022-.036l-.022.036z" class="B C"/><path d="M155.52 41.694l.045-.018-.113.018h.068z" class="B C"/><path d="M155.79 41.8c.217-.025.115-.03.248-.018.05-.13-.153-.086-.248.018z" class="B C"/><path d="M155.86 41.268l-.022.07c.096.036.063.023.132.018-.025-.017-.04-.04-.042-.07l-.068-.018z" class="B C"/><path d="M156.715 41.552l-.202-.018-.023-.09c.1.05.1.08.225.036l-.18-.07v-.053c-.09.022-.44.085-.564.002l-.067.193c.14-.04.153-.037.225.035l.203-.09c.007.003.143.253.203.178l-.068-.053c.07-.075.08-.066.248-.07" class="B C"/><path d="M156.084 41.375l-.023-.036h-.067c.07.015.025-.024.1.036" class="B C"/><path d="M156.174 41.765l.09-.018v-.07l-.18.035.1.053" class="B C"/><path d="M156.084 41.215l.045.053.023-.088-.068.035" class="B C"/><path d="M156.242 41.16c-.08-.006-.017-.015-.068.035l.09.018-.023-.053z" class="B C"/><path d="M156.355 41.71h.1l-.045-.035-.045.035z" class="B C"/><path d="M156.67 41.197l.023-.017.022-.036h-.135l.1.053z" class="B C"/><path d="M156.625 41.676l.045.035-.045-.124v.09z" class="B C"/><path d="M156.738 41.197l.045.018-.023-.09-.112.107c.1-.014.023.024.1-.036" class="B C"/><path d="M156.94 41.605h-.1v-.036l.067-.017.023.053zm-.068-.16c-.063.098-.1.122-.18.195l.1.07h.045l.068-.09c.074.085.078.056.112.053l.023-.124c-.034-.037-.13-.008-.158-.107" class="B C"/><path d="M156.715 41.942l.158-.018c-.052-.018-.105-.018-.158-.018v.036z" class="B C"/><path d="M157.143 41.32c-.045-.006-.1.006-.135.018l.135.018v-.036z" class="B C"/><path d="M157.188 40.416l.046-.07-.023-.018-.18-.018.022.053-.022.018.157.036" class="B C"/><path d="M157.076 41.623c.028.032.022-.036.022-.036l-.022.036z" class="B C"/><path d="M157.12 41.694l.1-.018-.068-.018-.022.036z" class="B C"/><path d="M157.234 41.375l.045-.07-.113.036.068.036" class="B C"/><path d="M157.392 41.605l-.09.053.023.09c.087-.115.128-.083.225-.124l-.157-.018" class="B C"/><path d="M157.392 41.87l.067.07c.105-.04.13-.035.18-.124.095.106.062.05.27.09l-.045-.09s-.368-.096-.473.053z" class="B C"/><path d="M157.572 40.363c-.05-.034-.032-.03-.068.018l.068-.018z" class="B C"/><path d="M157.684 41.587l-.112.053.067-.018.045.053v-.09" class="B C"/><path d="M157.865 41.605l-.158.035h.1l.023.036.045-.07" class="B C"/><path d="M157.865 41.587l.022-.018h.068l-.068-.035-.022.053z" class="B C"/><path d="M157.887 41.818l.045.07.023.018c.105-.103.04-.1.18-.07l.045-.09-.293.07" class="B C"/><path d="M157.932 41.64l.1.018c-.047-.04-.032-.075-.1-.018z" class="B C"/><path d="M158.225 41.552h-.022l-.068.106.113-.053-.023-.053z" class="B C"/><path d="M158.157 41.818h.046l-.023-.053-.023.053" class="B C"/><path d="M158.383 41.765h-.18l.045.053.203-.018c-.047-.052-.001-.072-.068-.036" class="B C"/><path d="M158.248 41.587c.012-.013.024.004.022-.035l-.022.035z" class="B C"/><path d="M158.698 41.605h-.202l-.068.07h.248l.022-.07z" class="B C"/><path d="M158.473 41.8l.068-.036-.1.018.022.018z" class="B C"/><path d="M158.63 41.747l.045.07h.067l.023-.018c-.054-.085-.03-.038-.135-.053z" class="B C"/><path d="M159.17 41.676c-.077-.105-.36-.087-.45-.036.12.025.275-.042.406.053h.022l.022-.018" class="B C"/><path d="M158.856 41.818l.248-.018.023-.09-.316.07.045.036z" class="B C"/><path d="M159.307 41.694h-.023l-.135.09.113.018h.067l-.045-.07.023-.035z" class="B C"/><path d="M159.64 41.668l-.063.132c.09-.06.105-.06.247-.036l-.085-.1-.1.004" class="B C"/><path d="M159.24 41.658c.1.058.07.017.136.124.13-.012.055-.024.18.018l.045-.107.032-.025-.167.008-.226-.018" class="B C"/><path d="M159.735 41.658c.048.004.092.002.135 0h-.135z" class="B C"/><path d="M159.555 41.055l.068-.018-.045-.036-.023.054" class="B C"/><path d="M159.938 41.64l-.1.107c.102-.005.13-.032.203.053l.022-.107c-.13.02-.107.015-.135-.053z" class="B C"/><path d="M159.96 41.02h-.113l.022.036.09-.036z" class="B C"/><path d="M159.983 40.842l.045.107 1.285.036.045.017-.023-.07-1.352-.09z" class="B C"/><path d="M160.118 41.765l.068.018-.022-.09-.046.07" class="B C"/><path d="M160.208 41.73c.112.013.062.03.158-.035l-.158.035z" class="B C"/><path d="M160.41 41.782l.023-.07-.068.036.045.035z" class="B C"/><path d="M160.456 41.747l.136.018c-.08-.06-.04-.048-.136-.018z" class="B C"/><path d="M160.862 40.256l.045.018-.045-.053v.035z" class="B C"/><path d="M161.696 41.02c-.08-.076-.21-.1-.338-.07l.022.036.27.017.045.018" class="B C"/><path d="M161.38 40.185l.045.018.023-.053-.068.035z" class="B C"/><path d="M161.47 40.185l.067.036-.023-.106-.044.07" class="B C"/><path d="M161.583 41.978l.023-.07-.068.036.045.035z" class="B C"/><path d="M161.538 41.765l.158.018.045-.07-.203.053z" class="B C"/><path d="M161.56 40.256l.067.018-.1-.053v.053l.023-.018z" class="B C"/><path d="M161.628 40.203h.09l.022-.036c-.03-.024-.06-.03-.1-.035l-.023.07" class="B C"/><path d="M161.786 41.02v-.053l-.067.053h.067z" class="B C"/><path d="M161.74 41.765l.18.018.023-.07-.045.018-.158.036" class="B C"/><path d="M161.786 40.22l.022-.018.045.018-.045-.053-.022.053z" class="B C"/><path d="M161.853 41.02l.204-.035c-.113-.028-.152-.018-.204.035z" class="B C"/><path d="M162.01 41.73l.068.053c-.005-.02.008-.1-.068-.053z" class="B C"/><path d="M162.26 41.02c.007.006.015.012.023.018-.01-.01-.012-.022-.023-.018z" class="B C"/><path d="M162.237 41.037c.01-.01.018-.015.024-.017-.01.005-.017.01-.024.017z" class="B C"/><path d="M162.372 41.002l.045.07.068-.035.022.035c-.017-.096-.07-.102-.135-.07z" class="B C"/><path d="M162.417 40.15v-.07l-.045.07h.045z" class="B C"/><path d="M162.845 40.097v-.09l-.067.035.067.053z" class="B C"/><path d="M163.048 40.008h-.068v.053l.1.036.046-.09h-.068" class="B C"/><path d="M162.868 40.08l.112-.07h-.135l.023.07z" class="B C"/><path d="M162.9 41.1h.045l.023-.07-.068.07z" class="B C"/><path d="M162.98 41.1l.023-.053-.045.035.022.018z" class="B C"/><path d="M163.116 40.114c.107-.01.033-.028.135.018l-.023-.09-.112.07z" class="B C"/><path d="M163.318 40.043l.023.07.067-.035-.045-.09c-.027.06.02.013-.045.053z" class="B C"/><path d="M163.454 39.92l-.068.054.1.053h.023l.045-.018c-.066-.063-.072.024-.1-.09z" class="B C"/><path d="M163.59 40.008l.045-.053h-.113l.068.053z" class="B C"/><path d="M163.59 39.778l-.022.07.135.018-.068-.035-.045-.053z" class="B C"/><path d="M163.68 39.813l.1.018c-.048-.022-.063-.08-.1-.018z" class="B C"/><path d="M163.882 40.15v-.053l-.045.07.045-.018z" class="B C"/><path d="M163.882 39.724l.1.018-.068-.053-.022.035z" class="B C"/><path d="M164.062 39.67v.053l.1-.017.023-.053h-.023l-.1.017z" class="B C"/><path d="M164.355 39.724c.005-.014.017-.035.03-.053-.015.018-.023.036-.03.053z" class="B C"/><path d="M164.385 39.67h.038c.006-.046-.017-.03-.038 0z" class="B C"/><path d="M164.67 41.747l.067-.018v-.035c-.1.006-.18.03-.27.053h.203z" class="B C"/><path d="M165.076 41.765l.113-.018.045.035c-.054-.103-.065-.05-.158-.018" class="B C"/><path d="M165.28 41.445l.045-.018-.112.035c.07-.001.015.02.067-.018" class="B C"/><path d="M165.347 41.428l.045.053s.007-.102-.045-.053z" class="B C"/><path d="M165.572 39.813c.03-.026.024-.006 0-.035v.035z" class="B C"/><path d="M166.113 39.724l-.068.036c.076-.023.016.014.068-.036z" class="B C"/><path d="M166.113 41.215l-.045.09c.137-.028.1-.002.135-.07l.045-.036-.135.09v-.07" class="B C"/><path d="M166.136 39.76v.035l.1.036-.1-.07z" class="B C"/><path d="M166.902 40.665l.067.017-.1.054.023-.07zm.045.16l.112-.09-.045-.25-.045.018-.1.07V40.4l-.18.16.022-.124c-.205.005-.427-.102-.518.018.08-.004.05.027.068-.035.247.153.493.188.676.408" class="B C"/><path d="M166.27 41.286c.102-.01.017-.028.113.018v-.107h-.046l-.067.09" class="B C"/><path d="M166.316 40.22v.09c.09-.02.053-.02.1-.018l.045-.036c.045.016.105-.05.18-.106l-.022-.07-.045-.018.022.09-.067-.09c-.073.106-.083.136-.203.16" class="B C"/><path d="M166.406 41.34v.053l.037.015-.037-.068z" class="B C"/><path d="M166.45 41.4z" class="B C"/><path d="M166.473 41.463l-.022-.04v.04h.022z" class="B C"/><path d="M166.43 41.605h.067l-.023-.053-.044.053z" class="B C"/><path d="M166.586 40.274h.068v-.07l-.113.053.045.018z" class="B C"/><path d="M166.63 40.185l.068-.035-.022-.018-.046.053z" class="B C"/><path d="M166.7 40l-.022.036c.04-.023.03.004.022-.036z" class="B C"/><path d="M166.857 41.623h.022l.023-.07-.135.053.1.018z" class="B C"/><path d="M166.88 41.25h.068c.008-.006.015-.012.022-.018l-.044-.09-.046.106z" class="B C"/><path d="M166.992 41.623l.315-.018c-.063-.054-.136-.052-.248-.07l-.067.09" class="B C"/><path d="M167.014 40.47l.068.017v.054h.023l.022-.107c-.12.016-.036-.022-.113.036" class="B C"/><path d="M167.578 40.594h.022l.068.088c-.046.053.01.047-.068.036l-.045.036.023-.16zm-.338-.07l-.1-.09-.045.124c.173.015.275-.012.315.07.07-.07-.035.105-.045.124l.406.107.067-.124h-.045l-.1.053.037-.1c-.007-.02.001-.032.008-.044 0 0 .001.012 0 .023l.023-.06c-.25-.055-.274-.02-.496-.195l.022.106-.067-.09v.09" class="B C"/><path d="M167.645 41.357l-.045-.018.045-.053v.07zm-.135-.337l-.022.018-.068-.053.023-.036.067.036.023.035h-.023zm.248.07v.053l-.135-.195.022.09-.1-.018.023-.177-.158.107-.022.213-.158-.053-.023.07.248.142h-.1l.068.054.112-.07c.054.048.042.096.18.142l.067-.035-.067-.09.135-.106c-.05-.062.03-.09-.113-.124" class="B C"/><path d="M167.33 41.605l.068-.018h-.09l.023.018z" class="B C"/><path d="M167.307 39.937l.023.018.1-.018-.067-.107-.046.107z" class="B C"/><path d="M167.375 39.653l-.045-.036v.07c.045.037.06.052.068.16.065-.116.03-.153-.023-.195z" class="B C"/><path d="M167.398 40.434l.067.053v-.195l-.067.142" class="B C"/><path d="M167.465 40.4c.07.03.03.02.068-.036l.067.107c-.002-.09.006-.073.023-.09l-.018-.086c-.01-.003-.02-.007-.03-.01-.053.02-.093.01-.11.114" class="B C"/><path d="M167.465 39.69v.106l.023-.106h-.023z" class="B C"/><path d="M167.623 40.913l-.023-.053v.07l.023-.018" class="B C"/><path d="M167.69 39.83l.045.018c-.06-.022-.034-.043-.067-.002.008-.005.015-.01.022-.016" class="B C"/><path d="M167.87 40.47h-.045l-.023.124h.113l-.023-.107-.022-.017z" class="B C"/><path d="M167.94 40.22l-.046.106.023.124c.046-.06.083-.136.023-.23" class="B C"/><path d="M167.983 40.61h-.022l-.045.07c.074-.043.026.006.067-.07" class="B C"/><path d="M167.94 39.902l.067.036-.045-.07-.022.036" class="B C"/><path d="M167.96 41.02v.07c.083-.02.04.001.113-.053l-.068.018-.045-.036" class="B C"/><path d="M168.028 40.327l-.022-.035-.023.07.113.018-.068-.053" class="B C"/><path d="M168.074 40.7h.045l-.023-.07-.022.07z" class="B C"/><path d="M168.164 40.38l-.023.036h-.045l.068.07-.1.018.18.107.068-.142-.113.053-.045-.142" class="B C"/><path d="M168.254 40.327c.045-.053-.045-.053-.045-.053l.045.053z" class="B C"/><path d="M168.367 40.416c.006-.012.03.002.022-.053l-.022.053z" class="B C"/><path d="M182.6 39.935l-.023.01c.003.016.012.008.023-.01z" class="B C"/><path d="M201.802 8.756c.003-.01-.02-.03-.032-.046-.537.405-.686.592-.926 1.207l.84-.8.118-.36" class="B C"/><path d="M208.064 16.038l.037.12.582-.037c.183-.03.36-.096.54-.147l-.014-.083-1.145.146z" class="B C"/><path d="M206.89 13.266l-.5-.4c-.013-.01-.063.04-.146.098l.195.34.45-.027" class="B C"/><mask id="A" class="D"><path d="M217.216 20.74l.29.254.218-.307-.166-.213-.343.267"/></mask><path d="M217.216 20.74l.29.254.218-.307-.166-.213-.343.267" class="E"/><path d="M217.507 20.994l42.555 30.11-33.415 47.23-43.505-38.14 34.365-39.2zm.218-.307L258.74-11.49l23.96 30.542-22.395 31.708-42.58-30.074zm-.166-.213l-32.035-41.126L226.7-52.718l32.026 41.198-41.157 31.994zm34.01-38.945l.1.097.194.17-68.73 78.4c-.26-.23.13.115-.277-.242l68.703-78.423zM174.95-9.115l.186-.263.008-.01 85.16 60.148-.198.28-.036.05-85.12-60.206zm1.76 61.977l-.31-.395 82.315-63.988.025.032.017.022-.018-.023-82.03 64.352zm72.883 8.737l-.372.3-64.01-82.298.312-.243 64.07 82.25z" mask="url(#A)" class="F"/><path d="M207.47 30.845c.162.197.26.43.61.413-.183-.265-.27-.518-.61-.413z" class="B C"/><path d="M208.683 25.836c-.12-.288-.262-.313-.45-.218v.306l.45-.088" class="B C"/><path d="M194.3 42.896c.028.31.2.305.462.278-.133-.274-.247-.38-.462-.278z" class="B C"/><path d="M191.62 7.23c-.105.187-.292.332-.31.66.277-.2.31-.42.31-.66z" class="B C"/><path d="M191.62 7.187v.044l.016-.028-.015-.016z" class="B C"/><path d="M211.026 30.362l-.273-.677c-.02.225-.06.46.273.677z" class="B C"/><path d="M206.497 32.72l.638.2c-.164-.3-.335-.277-.638-.2z" class="B C"/><path d="M210.235 20.556l-.075-.61c-.2.305-.12.437.075.61z" class="B C"/><path d="M205.92 33.897l-.064.06v.44l.127-.2-.063-.3" class="B C"/><mask id="B" class="D"><path d="M220.176 33.655l-.002.11.27.033-.003-.164-.266.02z"/></mask><path d="M220.176 33.655l-.002.11.27.033-.003-.164-.266.02z" class="E"/><path d="M220.176 33.655l-52.122-.94.856-47.497 47.372-3.548 3.894 51.984zm-.002.11l-6.3 51.748-46.66-5.682.84-46.997 52.122.93zm.27.033l52.12-.948 1.1 59.942-59.512-7.247 6.3-51.748zm-.003-.164l-4.087-51.97 55.202-4.342 1.007 55.364-52.122.948zm51.855.96l.003-.155v.057l-.003.2-104.244-1.86-.002.144v.03-.03-.06l.003-.205 104.243 1.878zm-45.822-52.576l.27.033-12.602 103.496-.23-.028-.04-.005 12.602-103.495zm-58.15 52.73l-.003-.157v-.08.072l104.243-1.895.002.157.002.08c-.001-.01-.001-.035-.002-.072l-104.242 1.895zm56.206 50.857l-.46.035-7.788-103.97.076-.006 8.172 103.94z" mask="url(#B)" class="F"/><path d="M204.86 21.9l.146-.034-.072-.28-.1.022.025.293" class="B C"/><mask id="C" class="D"><path d="M216.2 40.527l.038.112.24-.114-.034-.093-.245.096z"/></mask><path d="M216.2 40.527l.038.112.24-.114-.034-.093-.245.096z" class="E"/><path d="M216.2 40.527l-49.32 16.884-16.208-47.345 46.643-18.13 18.885 48.59zm.038.112l22.45 47.048-52.962 25.272-18.854-55.57 49.366-16.75zm.24-.114l49.022-17.73 16.15 44.654-42.958 20.236-22.215-47.16zm-.034-.093L197.417-8.105l49.664-19.46 18.315 50.098-48.96 17.9zM265.5 23.643l.084.247-98.732 33.498-.01-.025.017.05 98.64-33.77zM193.777-6.41l.476-.226 44.406 94.33c-.002.001.005-.003.02-.01l-44.9-94.096zm-26.33 64.665l-.043-.12-.01-.026c0 .002.01.028.022.063l.058.158 97.92-35.8.074.204.04.112.008.02a1.83 1.83 0 0 1-.027-.075l-98.044 35.463zm68.007 30.712l-.38.148-37.77-97.178c-.003.001.003-.001.022-.01l.1-.035 38.037 97.074z" mask="url(#C)" class="F"/><path d="M213.314 13.018l.13-.29c-.148.04-.373.042-.13.29z" class="B C"/><path d="M210.336 17.75l.083.282.102-.042-.107-.272-.078.032" class="B C"/><path d="M214.124 7.976l.022.097.18-.01-.02-.165-.183.078" class="B C"/><path d="M210.664 35.503l.056.055.296-.273c-.18.064-.236.072-.28.103-.033.023-.05.075-.073.115" class="B C"/><path d="M212.808 24.276l.18-.1-.05-.084-.13.183z" class="B C"/><path d="M211.678 16.78l.197-.018c-.06-.024-.096-.05-.13-.05-.024.001-.044.044-.067.068z" class="B C"/><path d="M213.39 15.394l.05.035.112-.147-.077-.057-.085.168" class="B C"/><path d="M209.306 32.315l.112.127.048-.05-.11-.13-.05.055" class="B C"/><path d="M174.84 41.18l.118.11.04-.056-.12-.107-.038.052z" class="B C"/><path d="M200.223 9.156l-.068-.058-.085.146.038.028.115-.116" class="B C"/><path d="M166.933 5.362l-.014-.22-.038.004.016.218.036-.003" class="B C"/><mask id="D" class="D"><path d="M223.182 35.116l.248.05-.2-.078c-.014-.003-.03.02-.047.03z"/></mask><path d="M223.182 35.116l.248.05-.2-.078c-.014-.003-.03.02-.047.03z" class="E"/><path d="M223.182 35.116l-10.43 51.076L89.292 60.98 194.48-8.4l28.702 43.517zm.248.05l19.36-48.4L213.4 86.32l10.03-51.156zm-.2-.078l-9.546 51.25-.104-.02-.104-.02 9.754-51.21zm10.384-51.046l-.17-.034-.086-.017.104.02L213.4 86.32l-.648-.13 20.862-102.15zM204.07 83.567l-.694-.283 2.838 1.076a51.91 51.91 0 0 0 7.47 1.976l19.092-102.497a52.28 52.28 0 0 1 7.524 1.991l2.9 1.104c.787.326-.155-.064-.418-.17L204.07 83.567zm9.406 2.73c15.01 2.86 26.74-1.578 32.048-4.1 5.38-2.547 9.048-5.45 10.06-6.254.94-.744 2.397-1.997 1.384-1.136-.146.124-2.22 1.927-5.083 3.816L194.48-8.4c-2.857 1.884-4.922 3.68-5.06 3.798-1.005.855.462-.406 1.408-1.156 1.02-.81 4.697-3.718 10.085-6.27 5.315-2.516 17.052-6.955 32.07-4.094l-19.508 102.42z" mask="url(#D)" class="F"/><mask id="E" class="D"><path d="M217.418 35.126l.025.003.02-.15-.044-.003v.15z"/></mask><path d="M217.418 35.126l.025.003.02-.15-.044-.003v.15z" class="E"/><path d="M217.418 35.126l-4.33 51.95-47.8-3.983V35.126h52.13zm.025.003l51.68 6.845-6.762 51.05-51.128-6.135 6.21-51.76zm.02-.15l4.616-51.925 54.256 4.823-7.2 53.992-51.673-6.9zm-.044-.003h-52.13v-54.553l54.497 2.477-2.367 52.076zm4.33-51.8l1.907.194-12.422 103.517.546.063 1.31.126 8.658-103.9zm-55.983 45.108l-.006.05.012-.097.02-.146 103.345 13.78.01-.072a1.07 1.07 0 0 0-.007.053l-.016.124-103.358-13.7zm47.083 58.62c-.058-.005.21.02.524.044l1.68.104L219.785-17.1l1.724.107.424.035.135.012-9.22 103.85zm56.7-51.93v.14l-104.26.01v-.14l104.26-.01z" mask="url(#E)" class="F"/><path d="M201.3 4.97h-.092c.03.02.06.022.09.025l.001-.025" class="B C"/><mask id="F" class="D"><path d="M224.882.03L225 .05c-.035-.022-.056-.04-.08-.05-.01-.002-.025.02-.038.03z"/></mask><path d="M224.882.03L225 .05c-.035-.022-.056-.04-.08-.05-.01-.002-.025.02-.038.03z" class="E"/><path d="M224.882.03l-8.002 51.512-112.86-17.532 87.19-73.776L224.882.03zM225 .05l27.853-44.065-35.418 95.644L225 .05zm-.08-.05l13.082-50.462 1.3.337 1.282.404L224.92 0zm7.964-51.48l-.316-.048-.15-.022.146.02L217.45 51.63l-.57-.086L232.884-51.48zm-35.737 95.595l-1.706-1.126c-.56-.384.196.137.6.407.92.614 5.926 4.03 13.212 6.325l31.33-99.44c7.31 2.303 12.338 5.732 13.284 6.363l.642.435a50.3 50.3 0 0 0-1.658-1.094l-55.706 88.13zm14.7 6.348c12.053 3.125 22.385 1.28 28.868-.78a52.11 52.11 0 0 0 13.23-6.376c4.577-3.067 7.61-6.2 8.058-6.665l.778-.805c-.137.145-1.833 1.974-4.216 4l-67.346-79.59c-2.376 2.01-4.066 3.833-4.196 3.97-.94.995.3-.323.798-.826.456-.462 3.495-3.6 8.077-6.68 2.406-1.613 6.944-4.38 13.24-6.38 6.486-2.06 16.82-3.906 28.875-.78L211.837 50.462z" mask="url(#F)" class="F"/><path d="M202.01 39.28h.03v-.14h-.035l.006.14z" class="B C"/><path d="M190.77 10.45l-.085.124.065.038.02-.162" class="B C"/><path d="M205.826 41.336c-.005.006-.01.01-.013.017l.12.135.054.042-.038-.06-.122-.134z" class="B C"/><path d="M207.71 28.187l-.042.062c.008-.006.032-.027.056-.047l.04-.06-.055.045" class="B C"/><path d="M166.305 3.225l-.02.028.03.006-.01-.034z" class="B C"/><path d="M212.454 18.634l-.054.044-.042.062.056-.048.04-.058" class="B C"/><path d="M212.64 24.44l-.36.263-.042.062.056-.048.358-.264.125-.136.03-.044-.048.027-.12.14" class="B C"/><path d="M207.822 21.574l-.033.01.026.023.007-.032z" class="B C"/><path d="M194.916 8.48c-.005.006-.025.025-.045.044l-.02.034.036-.015.03-.063z" class="B C"/><path d="M194.85 8.56z" class="B C"/><path d="M194.85 8.56z" class="B C"/><path d="M190.832 10.363c-.003.002-.03.02-.055.037l-.006.05.02-.032.04-.056" class="B C"/><path d="M22.643 45.445c-.003.01.02.033.033.05.536-.44.685-.644.925-1.312l-.84.87-.12.392z" class="B C"/><path d="M15.76 37.44c-.182.032-.36.105-.54.16l.014.09 1.145-.16-.038-.13c-.194.012-.39.007-.582.04z" class="B C"/><path d="M17.554 40.543l.5.446c.013.01.063-.044.147-.106l-.195-.37-.45.03" class="B C"/><path d="M6.72 32.476l.166.232.342-.3-.3-.276-.218.334" class="B C"/><path d="M16.365 20.985c.183.288.27.564.612.45-.162-.213-.26-.466-.612-.45z" class="B C"/><path d="M16.212 27.116v-.332l-.45.095c.12.313.263.34.45.238z" class="B C"/><path d="M30.144 8.334c-.028-.338-.2-.33-.462-.302.133.298.247.414.462.302z" class="B C"/><path d="M32.826 47.104c.105-.203.293-.36.312-.718-.278.207-.31.457-.312.718z" class="B C"/><path d="M32.825 47.15v-.047l-.016.03.016.017z" class="B C"/><path d="M13.42 21.96l.274.736c.02-.245.06-.5-.274-.736z" class="B C"/><path d="M17.948 19.394l-.638-.216c.164.325.334.3.638.216z" class="B C"/><path d="M14.285 33.282c.2-.33.118-.475-.076-.664l.076.664z" class="B C"/><path d="M18.526 18.117l.064-.064v-.478l-.127.217.063.324" class="B C"/><mask id="G" class="D"><path d="M4.003 18.402l.266-.022v-.12L4 18.223l.003.18"/></mask><path d="M4.003 18.402l.266-.022v-.12L4 18.223l.003.18" class="E"/><path d="M4.27 18.38l52.124.82-.742 47.24-47.085 3.894L4.27 18.38zm.002-.12l6.872-51.675L56.97-27.32l-.573 46.227L4.27 18.26zM4 18.223l-52.124.79-.917-60.425 59.905 7.958L4 18.223zM-.28-33.552l.253-.02L8.566 70.333l-.28.023L-.28-33.552zm-47.573 51.113v-.012l-.001.064 104.252 1.292-.004.293-104.247-1.637zM-2.6 69.934l-.263-.035 13.73-103.352.278.037L-2.6 69.934zm58.725-52.502l.002.106-.001-.07-104.243 1.864-.005-.314 104.248-1.587z" mask="url(#G)" class="F"/><path d="M7.976 10.912l.034.1.245-.105-.038-.12-.24.124z" class="B C"/><path d="M11 41.13c.148-.043.373-.046.13-.317l-.13.317z" class="B C"/><path d="M13.924 35.408l.107.296.078-.035-.083-.306-.102.046z" class="B C"/><path d="M11.793 28.38l-.125.148-.03.048.048-.03.12-.15.36-.287.042-.068-.056.052-.358.287" class="B C"/><path d="M10.118 46.2l.02.18.183-.085-.022-.106-.18.012" class="B C"/><path d="M20.528 17.208l-.085.265.245-.006-.16-.26" class="B C"/><path d="M13.43 16.608c.18-.07.236-.078.278-.112.033-.026.05-.082.073-.125l-.056-.06-.296.296z" class="B C"/><path d="M11.507 28.774l.13-.2-.18.11.05.09z" class="B C"/><path d="M12.7 36.798c.023-.002.044-.047.066-.073l-.197.02c.06.026.096.055.13.053z" class="B C"/><path d="M17.944 34.79l-.117-.12-.037.052.112.128.042-.06z" class="B C"/><path d="M11.003 38.192l-.112.16.077.062.085-.184-.05-.038z" class="B C"/><path d="M14.98 19.754l.11.142.05-.06-.112-.138-.048.056" class="B C"/><path d="M24.222 45.01l.07.063.084-.16-.037-.03-.116.127z" class="B C"/><mask id="H" class="D"><path d="M57.512 49.135l.014.237.038-.004-.016-.237-.036.003z"/></mask><path d="M57.512 49.135l.014.237.038-.004-.016-.237-.036.003z" class="E"/><path d="M57.512 49.135L5.46 51.98 2.77 2.767l48.984-5.443 5.757 51.81zm.014.237l5.457 51.843-54.065 5.69L5.5 52.652l52.027-3.28zm.038-.004l52.027-3.28 3.227 51.21-51.15 4.038-4.103-51.968zm-.016-.237L51.945-2.696l53.96-5.833 3.656 54.15-52.012 3.51zm52.016-2.84l-.01-.198L5.5 52.652l-.04-.673 104.105-5.686zM52.07-2.47l.102-.01.265-.027 1.026-.09 8.206 103.936.988-.087.246-.025.062-.006.02-.003L52.07-2.47zM5.537 52.648l.003.042-.003-.046L109.56 45.62l.03.47L5.537 52.648zM63.15 100.96l-.577.06-.415.04-.307.026-.017.001c0 0 .012-.001.027-.002l.342-.03.446-.043.618-.065L51.755-2.676l.627-.066.455-.043.32-.028-.238.02-.406.038-.568.058L63.15 100.96z" mask="url(#H)" class="F"/><path d="M58.606 45.147c.01-.007.025-.012.025-.02.001-.022-.003-.044-.01-.097l-.016.116" class="B C"/><path d="M7.027 16.78l-.025-.002-.02.162.045.004v-.164z" class="B C"/><mask id="I" class="D"><path d="M23.155 49.56h.092c-.03-.02-.06-.024-.09-.026l-.001.026z"/></mask><path d="M23.155 49.56h.092c-.03-.02-.06-.024-.09-.026l-.001.026z" class="E"/><path d="M23.155 49.56v52.13H-30.94l2.002-54.06 52.094 1.93zm.092 0l52.058 2.74-2.6 49.4H23.247V49.56zm.001-.02l3.955-51.98L77.85 1.415l-2.537 50.73-52.065-2.603zm-.092-.007l-52.09-2.003 2.082-54.127 54.008 4.154-3.998 51.976zM23.155-2.57h.08l-.07 104.26-.012-104.26zm-51.966 49.4l-.027.58-.016.425-.008.26-.002.067v.025l.002-.077.007-.24.038-.922 104.13 5.206.038-.912.01-.29-.002.08-.008.265-.043 1.013-104.116-5.48zm48.104 54.7l-.236-.018-.102-.01c.005.001.017.002.033.003l.17.013L27.155-2.442l.125.01.114.01-.2-.015-7.9 103.96zm55.955-49.983l.002-.048-104.19-3.86.004-.1 104.183 4.007z" mask="url(#I)" class="F"/><path d="M18.62 10.03l.013-.018-.12-.146-.054-.046.038.066.122.145" class="B C"/><path d="M16.68 24.372l.055-.05.042-.068-.056.052-.04.065z" class="B C"/><path d="M20.782 17.51l-.07-.04h-.025l.012.02.082.02" class="B C"/><mask id="J" class="D"><path d="M58.14 51.458l.022-.03-.032-.007.01.037z"/></mask><path d="M58.14 51.458l.022-.03-.032-.007.01.037z" class="E"/><path d="M58.14 51.458l42.575 30.082-64.177 90.83L7.782 64.937 58.14 51.458zm.022-.03L68.9.416l77.595 16.333-45.757 64.76-42.575-30.08zm-.032-.007L7.772 64.9l-21.94-81.968L68.867.41 58.13 51.42zM15.565 21.377l.022-.03 85.13 60.194-85.15-60.163zm31.86 81.063l-.032-.007L68.9.416 47.424 102.44zm61.063-64.497l.01.037L7.772 64.9l100.715-26.957z" mask="url(#J)" class="F"/><path d="M11.99 34.708l.054-.048.043-.068-.056.053-.04.064" class="B C"/><path d="M16.623 31.512l.033-.01-.027-.025-.006.035z" class="B C"/><path d="M29.53 45.745l.045-.048.02-.037-.037.016-.03.07z" class="B C"/><path d="M119.307 8.713a.19.19 0 0 1 .092-.036c-.184.004-.05.05-.184 0l-.092-.036-.138.036.23.073.092-.036" class="B C"/><path d="M118.8 8.695h-.092c.077.02.025.025.092 0z" class="B C"/><path d="M119.03 8.713l-.368.036-.092.018.276.1.184-.145" class="B C"/><path d="M123.536 8.913z" class="B C"/><path d="M182.323 39.708h.23l-.092-.037-.138.037" class="B C"/><path d="M173.177 39.9c.077.02.024.025.092 0h-.092z" class="B C"/><path d="M174.188 40.29c-.22.032-.12.003-.23.073.162-.035.327-.02.23-.073z" class="B C"/><path d="M172.993 40.615l.32-.073-.367.018.046.054" class="B C"/><path d="M177.497 40.633l.7.218.046-.018.046-.055-.506-.163-.276.018" class="B C"/><path d="M176.946 40.815l.045-.055-.045-.018v.073z" class="B C"/><path d="M102.127 8.437l.092.036.23-.073-.138-.036-.09.036c-.133.05-.001.004-.184 0l.092.018" class="B C"/><path d="M102.724 8.42h-.092c.067.025.015.02.092 0z" class="B C"/><path d="M102.586 8.582l.276-.09-.092-.018-.368-.036.184.145z" class="B C"/><path d="M97.898 8.637z" class="B C"/><path d="M78.915 9.453l-.138.054c.2-.017.108-.018.138-.054z" class="B C"/><path d="M76.25 9.525l-.046.054.046.018v-.073" class="B C"/><path d="M78.27 9.562c-.247-.005.007-.008-.23-.036-.307.057-.63.035-.78.163l.873-.036.138-.09" class="B C"/><path d="M75.56 9.688c.036.016.046.055.046.055l.092.036.046-.163-.092.09c-.057-.11-.315-.05-.7-.073l-.23.11c-.015.03-.03.042-.046.055.528.008.692 0 .873-.11" class="B C"/><path d="M77.076 9.634v.037l.138-.018-.138-.018" class="B C"/><path d="M73.307 9.87l.092-.03v-.042h.046l-.032.038.17-.056c.042.127.204.015.046.127h.597l.092-.018c-.038-.034-.065-.053-.092-.073l.036-.005-.036-.05-.402-.013c.105.047.066-.003.035.068l-.043-.068-.14-.005.046.073c-.182-.1-.094-.078-.46-.09l.046.145" class="B C"/><path d="M73.813 9.743z" class="B C"/><path d="M74.456 9.978l.367-.054-.23-.163-.332.05.046.063.15.105" class="B C"/><path d="M72.7 10.088c.28-.068.3-.16.506-.272l-.598-.018c-.001.04-.006.008.046.036.044.032.035.03.092 0l.138.09h-.46v-.09l-.092.127-.046-.09-.138.09-.275-.037c-.43.072-1.044.075-2.023.218.615.1 2.355-.256 2.85-.054" class="B C"/><path d="M73.4 9.852l.014-.017c-.014.008-.014.013-.014.017z" class="B C"/><path d="M74.962 9.924c.142-.033.05-.013.092-.054l-.092.054z" class="B C"/><path d="M77.214 9.942l-.322.145c-.358-.003-.9-.066-1.103.09.067-.03.038.007.046.036l.092-.018.184.036v-.073c.252-.032.84-.065 1.195-.09l-.138-.073c.03-.018.06-.018.092-.018l.092.11h.046v-.037l.083-.05-.026-.012-.242-.048" class="B C"/><path d="M73.087 10.05c.153-.034.204-.01.13-.088l-.13.088z" class="B C"/><path d="M73.03 10.088l.055-.04a.41.41 0 0 0-.055.039" class="B C"/><path d="M70.595 10.015l-.046-.037h-.092l-.046.055.046.018.138-.036" class="B C"/><path d="M75.79 10.124h-.138c.095.04.012.022.138 0z" class="B C"/><path d="M74.135 10.178l.367-.036h-.276l-.092.036z" class="B C"/><path d="M72.204 10.305l1.93-.09-.552-.054-1.38.145z" class="B C"/><path d="M71.974 10.34l.184-.018-.138-.018-.046.036" class="B C"/><path d="M203.373 33.075zM186.89 40.21v-.1l.026.11-.026-.018zm-1.707-.653h.05l.05.037c-.114-.002-.02.005-.102-.037h0zm-4.102.095c.067-.013.15-.015.232-.017l-.232.017zm-4.09.834v-.09l.046.11-.046-.018zm-3.08-.653h.092l.092.037c-.206-.002-.034.005-.184-.037zm-6.154-.362c-.008.036-.017.054-.025.072l-.132-.047c.006 0 .018.003.044.013l-.04-.083.085-.007.067.05zm1.478.78l.026-.054h.025l-.05.054zm-.586-.707v-.072h.026l-.026.072zm-.433.5l-.058-.093c.007-.006.015-.012.023-.018.04.036.05.06.035.112h0zm-.504-.3l-.004-.064.024.018-.02.046zm-.045-.017c-.09.013-.053.016-.158-.053l.058.006.1.01.023.07-.023-.035zm0 .46h-.068c.023-.012.045-.006.068 0zm-.113-.4c.033-.025.008-.02.045 0h-.045zm-.1.355c-.043.07.03.047.1.053l-.022.053-.247-.16-.024.16-.1-.106c.052-.04.1-.03.113-.05.012-.013.02-.033.022-.073l.09.07h.022l.023-.09c-.106.024-.03.038-.158-.053l-.068.106v-.373l.045.23c.14-.153-.045-.25.045-.443v.142l.09-.017.022-.09c0-.022-.006-.035-.018-.05.027.028.045.057.063.085l.036-.093.057-.005-.025.08.067.088c.024-.003.046.013.068.03v.024l-.18-.142c.005.025.006.007-.023.017-.01.137.087.16.023.284l.112.07c-.073.035-.113.132-.135.248h0zm.045.018l.068-.07c-.034.072.02.017-.068.07zm-.428.053h.045l-.022-.09-.158.053.225-.124c-.07.116.004.135.045.213l-.135-.053zm-.1-.284l.045.07-.068.018c-.027.028-.01.02-.044 0l.067-.09zm-.135-.07l.1-.035-.022.142-.068-.107zm.112-.053l-.1-.017c.023-.024.046-.03.068-.036l.022.053zm-.248-.124l-.044-.035V39.5l.353-.027-.016.163-.022-.124c-.093.045-.127-.012-.135.142l-.068.017v-.088l-.068.088zm-.95.02h-.025v-.073l.025.054v.018zm-1.217-.056zm-2.72.096c-.124-.015-.23-.035-.294-.06 0 0-.087-.02-.2-.037l.46.017.034.08zm-.113.277l.09-.07.023.018-.112.053zm-.615-.4l.023.002.006.026-.03-.028zm-.084.223c.033-.024.007-.02.045 0h-.045zm-.085-.235zm-.186.022v-.04l.07.007.02.05-.1-.018zm.023.4l-.068.07c-.05-.104-.024-.04-.135-.07l.113-.07.045.106.067-.07-.022.035zm-.068.177c.033-.11.01-.066.1-.09l-.1.09zm-.247-.64zm-.046.533l-.067-.106h-.09c.143-.08.15.04.158.07v.036zm-.045.07h-.113l.09-.107.045.07h-.09l.068.036zm-.135-.09l-.045-.035-.045.035.022-.053-.022-.035.1.07v.018zm-.158-.07l-.022-.035c.022-.018.045-.018.067-.018l-.045.053zm-.067-.355c.03-.066.045-.1.032-.134.02.006.02.005.024.002l.05.006-.107.126zm-.068.532l-.064-.02-.05-.015c-.002-.036.028-.004.04.013.044-.02.08-.043.117-.066l-.045.09zm-.193-.7h0zm-.055.54l.045-.07c-.016.042.036.024-.045.07zm-.135.053v-.124l.113.053-.113.07zm.068.124l-.023-.053c.046-.052.035.02.045.053h-.022zm-.136-.106l-.022-.036.022-.035.023-.018-.023.09zm-.273-.666l.046.004.024.023-.07-.028zm.025.613v-.07c.055.057.032.004 0 .07zm-.18-.62c.028-.003.055-.001.082.001l-.014.07-.068-.07zm0 .55l-.045-.09v-.035c.066.06.077.027.045.124zm-.383-.497l-.045-.018c.015-.023.03-.03.045-.036v.054zm-.18.443l.022-.018-.02-.05c.008.003.014.01.02.014l.112.09-.135-.036zm-.1-.4l-.02-.015c.01-.01.02-.017.03-.025l-.012.04zm-.113.195l-.023.017.045-.053.023.053-.045-.017zm-.22.236c.015-.013.032-.023.05-.033-.014.017-.03.025-.05.033h0zm-.028.013zm-.023-.532v.053l-.123-.032.12-.023.004.002zm-.27.053c.007-.003.014-.004.02-.006l.047.024-.068-.018zm-.065-.17c.04-.008.07-.006.1-.004-.032.004-.066.004-.1.004h0zm-.183.135a.35.35 0 0 1 .055-.003l.013.02-.068-.018zm-.316.124l.023-.018h.045l-.068.018zm-.18-.284c-.007.006-.015.012-.022.018l.024-.04h.032l.01.037-.045-.018zm-.112.994l-.09.035.068-.09.045.053h-.022zm-.383.053v-.07l.292-.018-.1.124a.27.27 0 0 0-.202-.036h0zm-.023-.78l-.023-.018c.044.002.03-.02.023.018zm-.113 1.437c.023-.012.045-.006.068 0h-.068zm-.135.053l-.023-.053c.03-.018.06-.018.09-.018l.022.07h-.1zm-.045-1.774l.1.053-.022.018-.068-.054zm-.316 1.8l.046-.07c-.002.06.014.022-.046.07zm-.135-.053l.068-.07.045.053.022.036-.135-.018zm0 .16v-.054l.045.07-.045-.017zm-.067-.142v-.07l.045.09-.045-.018zm-.09-1.207l-.1-.053.113-.07-.023.124zm.023 1.225l-.068-.07h.068v.07zm-.203-1.668l-.045-.036c.023-.018.045-.018.068-.018l-.023.053zm-.067 1.774l-.045-.142.135-.053-.1.195zm-.09.035l.023-.017h.045l-.068.017zm-.157.16l-.046-.053.068-.124.023.106.1-.09-.068.107.113-.09.045.106c-.118.005-.157-.007-.225.036h0zm-.248-.036l-.023-.053c.132-.1.124.027.136-.106l.022.035h.022l.023.107c-.1-.063-.073-.048-.18.018h0zm.113.284l-.023-.018.1-.053c-.036.073.027.023-.067.07zm-.136-.497l.014-.042c0 .012-.004.025-.007.038l.06-.032.045.036c-.068.04.008.043-.113.036l-.022.09.03-.128-.007.004zm-.067-.568l-.045-.036c.022-.024.045-.03.067-.035l-.022.07zm.022.78h-.27c.1-.1.145-.11.226-.09l.045-.036v.124zm-.405.054c.002-.112-.002-.107.134-.178l-.134.178zm-.158-.763l-.023-.036c.023-.018.045-.018.068-.018l-.045.053zm-.136 1.047c.066-.047.02-.02.09-.035l-.09.035zm-.112-.035l-.023.018.023-.16.045.177-.045-.035zm-.406-.426l.068-.053.022.053h-.1zm-.023-.106l-.045-.035.068-.054-.023.09zm-.024.066c-.006.01-.013.016-.02.023.01-.01.015-.017.02-.023l-.02-.05c.044.047.047.025.02.05zm-.223.076c-.074-.044-.014-.017-.1-.018-.04-.025-.004-.005-.045.018l-.023-.036c-.123-.02-.028.014-.1-.09l-.023.09v-.053l-.112.07-.1-.09-.023.018c-.001-.04-.003-.008.023-.036.077-.042.05-.017.067.07l.203-.124.045.017-.023.053.068.018-.045-.07.18.07-.022.09zm-.722-.036l.023-.07c-.1.02-.015-.01-.1.036l-.068-.053.248-.036h.068l-.18.124zm-.225-.07v-.053l.1.07-.1-.018zm-.022-1.81l.022-.036c.001.04.003.008-.022.036zm-.54 2.147l.022-.035.045-.018-.067.053zm.022-.195l.023.018-.1.018.067-.036zm-.27-.177l.022-.018c.022-.06-.02-.04.046-.053l.022.018-.1.053zm-.1-.746c-.001-.008.005-.012.01-.017l-.01.017zm-.553-.798l.023-.035c0 .04.003.008-.023.035zm-.067-.23h-.158l.07-.04.062.016-.032-.023.058.03zm-.384.354c-.007.006-.015.012-.022.018l.045-.09.023.09-.046-.018zm-.225-.035v-.053l.1.035-.1.018zm-.045-.16l.068.018h-.068zm-.315.018c.032-.024.007-.02.045 0h-.045zm-.413-.138c-.016-.016-.016-.028-.016-.04l.026.02-.01.02zm-.218.97l-.02.016.087-.104c-.03.1-.015.066-.067.09h0zm-.068-.745l.068.053-.068-.036zm-.1.71c.007-.006.015-.012.023-.018v-.053l.067.053-.1.018zm-.068 1.01l.068-.036h.045l-.113.036zm-.067-1.65c.007-.024.015-.03.022-.036.032.03-.022.036-.022.036zm0 1.65l-.158.018v-.035l.18-.036-.022.053zm-.18-1.597l-.112-.053c.1-.023.052.013.157.017l-.067.16c-.053-.056-.012-.053.022-.124h0zm-.135.053l.1-.053-.022.035-.068.018zm-.022.497l.015-.062c.012.047.012.07.052.027-.03.037.01.02-.067.035h0zm-.068-.497h.045l.023-.036-.023.07-.045-.035zm0 1.597h-.203l.113-.036h-.045c-.06-.056.002-.013-.1-.018l.1-.07.158.07-.023.053zm-.158-1.153l-.045.035-.012-.03c.013-.005.03-.01.05-.013l.007.006zm.115-.02h0zm-.295-.282c-.038-.005-.06-.001-.082.008-.526-.02-1.04-.174-1.206-.256v.127c-.12.14-.12-.034-.153.127l-.076-.127c-.042.028-.056-.014-.077.09l-.025-.037h-.076l.076-.054c-.126.056-.35.017-.498-.06h.034l-.077-.036c-.016.006-.018.005-.02.004-.02.014-.038.023-.056.032h.05l-.018.077-.05-.036-.1-.024c.03-.048-.1-.097-.162-.215l.09-.002.082.052-.02.008c.022-.001.03.001.036.002l.132.084.308-.055.064-.012v.07l.09-.035-.015-.047c.075-.012.15-.018.24-.02.013.003.024.003.03 0l.133.006.04.042v-.124l-.047.037c-.008-.01-.017-.023-.027-.033.015-.013.02-.017.015-.02.017-.003.02-.004.023-.006l.068-.02.058.026c-.105-.03-.005.118.045.16-.003-.104-.034-.03.068-.09l-.1-.018.055-.073c.015.007.032.01.05.014l.075.166c.04-.102.045-.078.025-.167a.81.81 0 0 1 .132.043l.023.142.1-.036-.067-.213.067.018c-.036.082.088.042-.022.106l.022.07c.104-.07.098-.084.18-.035l.045-.036c-.07.088-.106.1-.226.107.07.056 0 .016.1.035.118-.01.026-.045.18-.035l-.023-.09.045.018c.07.027.04.006.045.09.13-.035.053-.06.023-.107l.067.018c.004.004.054.062.09.09l-.046.09-.045-.07.023.107.045.017.023-.088.05.024.04-.113c.02.083.022.075-.034.116l.124.06c.038-.026-.005.014.045.018l.022.053.023-.142c-.013.023-.014.007-.023-.017h-.045c.085-.054.07-.044.158-.142l.045.195-.022-.07h-.023l.045.09c.06.063.078.044.113 0l.062.114-.126.013-.094-.074v.08l-.07.001c-.014-.008-.02-.001-.064-.01h0zm-.518.178c-.08-.07 0-.032-.18-.018l.015-.046.223-.004-.057.068zm0 .07l.022-.036c.001.04.003.008-.022.036zm-.1.09v-.035l.1.018-.1.018zm-.158-.035c.018-.1.04-.106-.113-.142l.022-.053c-.107.077-.093.044-.1.124l-.067.018.022-.09-.067-.053-.023.018-.1.107.023-.107-.075-.008c.09-.006.167-.027.216-.073.046.044.122.062.216.068-.008.087.17.105.026.19zm-.61-.107l-.1-.09.045.09-.124-.098a2.05 2.05 0 0 0 .229.019l-.06.08zm-.077.13a.37.37 0 0 1-.058-.113l.1.09-.032.025zm-.103-.06l-.045-.018.045-.053v.07zm-.067-.106c-.052-.05-.033.01-.046-.053-.08.06-.04-.001-.022.09l-.068-.09c-.126.03-.077-.01-.068.09-.086-.04-.245-.058-.247-.09h-.113l.068.07-.12-.007c-.01.02-.024.03-.04.042l-.045-.035-.406-.036v.052c-.008-.008-.02-.015-.033-.022.003-.01.007-.02.01-.03-.013.01-.018.016-.025.024-.05-.023-.118-.045-.16-.073l.046-.018.413.054.092.018-.2-.2c.006-.008.013-.016.02-.024.203.177.136.016.357.09l.05-.145v.073l.127.127v-.054l.025-.073.077.127c.017-.042.176-.01.36.016-.066.036-.034.012-.057.065h0zm-.406.124h-.023l-.045-.09c.03-.006.06.006.1.018l-.022.07zm-.068.107l-.045-.036h.045v.036zm-.496-.213c.023-.012.045-.006.068 0h-.068zm-.022.603c.033-.024.007-.02.045 0h-.045zm.02.22h0zm-.02.152l-.03-.037.035.01-.004.028zm-.113-.905zm-.068.87c-.006-.015-.014-.03-.02-.045l.043.01-.022.034zm-.083.037l-.018-.01-.01-.027v-.035l.045.035-.016.037zm-.094-.06l-.05-.038c-.06 0-.103.026-.134-.03l-.02.017c-.014-.012-.03-.022-.045-.03l.01-.046.127.035c.005.014.012.03.018.043l-.01-.04.136.036-.034.054zm-3.617-1.1l-.05.018.026-.054c.007-.018.024-.018.04-.018-.004.018-.01.036-.015.054zm-72.7-29.62l.092.018-.067.026h-.025v-.044zm26.843-1.505v.054l-.046-.054h.046zm3.63-.164h.046l-.092.055.046-.055zm.184.11l-.138.036.092-.036h.046zm.414.163h.046c-.052.035.01.023-.092.018l.046-.018zm.873.326l.092.018-.137.018.045-.036zm.414-.236l.092.037-.138.054.046-.09zm.138.037h.046l-.046.054v-.054zm1.563-.055H103l-.092.055.046-.055zm.46-.254h.046l-.046.054V8.71zm.184.272l.092.073-.092.018-.046-.018.046-.073zm1.01-.253v.054l-.045.018.045-.072zm1.384.302c.01 0 .02-.002.03-.002l.03-.001-.064.008zm3.075-.193c.067.03.08.033.073.04l-.03-.008-.04.07c.005.007.001.014-.003.024h-.046l.046-.127zm.92-.036l.112.088-.094-.02c-.01-.01-.014-.02-.018-.032V8.8zm2.344.073c-.11-.06-.087-.04-.09-.11l.09.11zm1.012-.055l.046.036.08.05h-.037l-.1-.012c-.022.012-.03.012-.036.012l.036-.084zm1.057.018l.092.054h-.138l.046-.054zm.69.054c-.102.001-.02.003-.092-.018l.092.018zm6.84.113l.092.036-.138-.036h.046zm.138-.11l.046.054-.092-.054h.046zm31.47-.16zm.66-.026v.023c-.02-.007-.022-.015-.026-.023h.026zm2.242-.09l.026.055-.05-.055h.025zm4.267 30.954l.032.003-.054.043c0-.01.01-.028.022-.046zM154.1 41.57l.045-.106c.03.077.03.04-.045.106zm-5.18-2.29h0zm-.365.232l.023-.018.022.035-.045-.017zm-1.082-.208l.05-.001-.05.013zm-.045.001zm-.2.002h.022l-.032.012zm52.114-3.73l.053.007c-.012.012-.026.022-.04.033-.003-.015-.01-.026-.013-.04zm1.63-.96zm-55.857 5.527l-.03.023.017-.026zm.125-.223l-.092.055.046-.055h.046zm1.805-.535zm.23.07zm.005-.05l.013-.07.045.106c-.017 0-.026-.001-.032-.001l.01-.04-.037.004zm.51.036l-.135-.106.085-.034c-.042.053-.014.078.05.14h0zm.36-.018l.068-.09.023.018-.09.07zm.023.177l-.045.054-.045-.036.1-.018zm-.113-.106l-.022.106-.113-.124.023-.035c.08.082.012.04.112.053zm-.045-.106c.023-.024.045-.03.068-.036-.046.053.01.046-.068.036zm.293.124l.068-.107c0 .075.012.055-.068.107zm.3.67h0zm-.087-.564l.023-.053.067.018v.088l-.1-.053zm.135-.248h-.022l-.045-.07c.015-.012.026-.012.037-.013l.03.084zm.225.178l.046.213h-.023l-.023-.053-.067-.053.067-.107zm-.1.107h-.067l.045-.054.022.054zm-.022.603l.022-.053c.042.046-.017.05-.022.053zm-.045-.798c.02-.01.02-.018.022 0h.113c-.086.08-.012.044-.135 0zm.36.035h-.068c.022-.012.045-.006.068 0zm-.09-.177l-.023-.037.047-.001-.024.038zm.158.018v.09l-.045-.035.022-.018.023-.035zm3.403-.124l-.1.053.033-.054.056-.001zm.405 1.846v.053l-.044-.018c.015-.024.03-.03.044-.035zm.65-.548c-.017-.007-.017-.01-.017-.015.008.004.012.01.017.015h0zm.028.033l-.022-.017c.013.006.017.012.022.017zm.974.578zm.082.03l-.02.03c-.004-.018.008-.024.02-.03zm.363-.076v.036l-.09.036.022-.07h.067zm.113-.035l.113-.053-.023.053h-.1zm0 .035l.1.036-.022.07c-.065-.025.002-.028-.068-.018l.023-.053-.023-.036zm.677-.372h-.068c.022-.012.045-.006.068 0zm1.667-1.348zm1.127.176l-.068-.053v-.035l.068.09zm.992.4c.007-.024.015-.03.022-.035.032.03-.022.035-.022.035h0zm0-.372v-.07c.046.053.06.02 0 .07zm.293.48v.035l-.068.018.068-.053zm.112-.48h-.067l.022-.052.045.052zm7.234.107h-.045c.033-.025.007-.02.045 0zm-.112-.107l.1-.09c-.058.07-.074.08-.1.09zm0 .4c.01.055-.008.04-.023.053l.023-.053zm-.09-.32l.046-.142.045.178c-.04-.025-.036-.057-.045-.018l-.046-.018zm-.067.07v-.035l.067.053-.067-.018zm.067.07h.023l.068.09-.045.09-.046-.09v-.09zm.326-.265zm-5.26.514h.1l-.045.035-.045-.018v-.018zm.428-.195c.033.05.05.02-.022.09l.022-.09zm.113.106c-.04.07-.012.05-.1.09l.067-.053.023-.036zm-5.724 1.03h.045l-.068.018.023-.018zm.586-.213l.067.035h-.067v-.035zm-1.105.355l.023.106-.068.036-.022-.036.067-.106zm-11.56-.208c0-.014-.001-.018-.002-.02l-.028.014-.1-.016c.023-.007.046-.022.06-.036l.04.012c.008.01.014.017.016.025v.02zm-.212-.036c-.007-.006-.02-.016-.036-.04l.078.046-.042-.006zm.077-.412l.022.09-.1-.053.068-.036zm-.61.124zm-.202 0l.022-.07.1.036.068.018-.18.018zm-.045.16h-.068c.057-.03.003-.017.068 0v-.053l.045.053h-.045zM77.628 10.033l.046-.055h.046l-.092.055zm128.623 16.83c-.608-.268-1.13-.838-1.833-.772l-.918-.04.97-.85 2.337-.43 1.61-1.496-2.002-.507-1.315-.057c-.714-.644-1.535-.242-2.303-.357 1.21-.7 1.21-.704.6-1.225-.098-1.325.88-.47 1.24-.872l.46.017c.026.1.116.156.3.15l-.085-.142 1.022.023c.065.12.165.223.322.307l-.084-.323.323-.023c.315-.038 1.133-.35.11-.84l-.384-1.16c-.473-1.08-1.32-.633-2.032-.734v-.04c.102-1.873-1.83-.9-2.234-2.158.534-.34 1.12-.052 1.5-.564l-.03-.112 2.52-.065c-.413-.624-.966-.24-1.41-.423-.815-.347-1.66-.2-2.492-.238-.472-.558-1.075-.41-1.642-.456l-.045-.68-.366-.517c-.45-1.076-1.137.014-1.672-.284h-.001c-.79.538-1.61.064-2.416.062a1.31 1.31 0 0 1-.466-.21c.098-.197.186-.486.293-.928-.284.205-.498.405-.636.656-.546-.48-1.06-1.076-1.867-.626l-1.088-.388-2.985.088c-1.433-.583-2.766-.023-4.104.475l.01-.02c-.47-.6-1.113-1.006-1.73-1.04-.682-.038-1.712-.817-2.004.76l-7.12-.637c-.137-1.218-.877-.666-1.415-.708h0c-.748-.228-1.433.014-2.106.33l-.17.01c.018.018.03.034.044.05l-.108.052-.224-.01h.06c-.09-.112.002 0 .025-.127l.094.056-.017-.038h.025v.042l.05.03.025-.145c-.202.013-.153.001-.254.09l.025-.073-.078.005-.024.068c-.017-.07-.04-.02.02-.068l-.223.013-.02.05c.004.024-.01.043-.026.063-.004.017-.008.017-.012.016l.012-.016.026-.063-.184-.05-.092.117-.5-.025.076-.144c.093.09.19.096.463.09l-.025-.037c-.042-.054-.085-.1-.127-.127-.115.012-.207.002-.274.007.096-.174.195-.35.17-.382-.307-.377-.694-.036-1.047-.114l-.01-.015c-.316-.552-.786-.393-1.218-.386l-4.66.096c-.016-.005-.036-.002-.054.001l-.082.002c.002-.005.003-.01.013-.024l-.025-.018v.043l-.098.002-.03-.063c-.11.07.017.03-.127.054-.142.015-.29.018-.436.02-1.592-.047-3.18-.332-4.774-.216h-.065c-.79-.02-1.442-.05-1.657-.13l-.382.09.05-.073-.102.073-.076.018.076.037c-.09.03-.2.043-.325.048l-.05-.02-.098.023c-.696-.01-1.725-.227-2.254.023-.058-.12-1.176-.12-1.478-.073l-1.3.047c-1.32-.297-2.636-.4-3.94.042l-.173-.03.05.073-.18.062c-.327-.083-.652-.236-.977-.24-6.02-.063-12.035.093-18.046.347l-2.848-.04.044.124h-.045v-.124c-1.427-.02-2.6-.05-2.988-.13l-.7.09.092-.073-.184.073-.138.018.138.036c-.1.02-.22.03-.346.038l-1.114-.133-9.055-.18c-.545-.048-2.562-.047-2.666.073-1.207-.316-3.87.12-4.918-.073l.138-.037-.138-.018-.184-.073.092.073-.7-.09c-.386.08-1.56.11-2.987.13v.124h-.046l.045-.124c-2.495.036-5.764.048-6.98.275l-2.568-.04.033-.04c-.26-.025-.032.017-.23-.054l-.076.1h-.154V8.8l-.046.018c.1.073-.047.014-.23.018l.08.032-.238-.002.02-.012h-.092c-3.08-.015-6.187.05-8.135.582-.065.017-.125.035-.184.053v-.054l-.046.018.033.04c-.335.1-.633.216-.883.35-.07.015-.126.03-.16.046-.13-.044-.075.052-.092.073l-.184-.09c-.267.056-.038.03-.322.036l-.092.036.104.048c.01.002.023.004.034.007a.93.93 0 0 0 .138.073l.24-.012c-.062.046-.124.092-.177.142-.056-.01-.135.008-.216.03-.595.023-1.156.086-1.5.202-.184.062-1.132.057-1.9.066l-1.188-.035c1.033-.073 2.415-.22 2.776-.213h.046l.046-.055-.23-.036-3.446.278-2.988-.102c-.006-.105.084-.125.32-.14l-.552-.036.046.11-.046.018-.046.018c-.348-.114-.416-.06-.7-.001l-.265-.01v-.044l-.244.036c-12.4-.414-24.824-.73-37.228.08-2.544.166-5.037.62-7.422 1.684-.167.074-.346.14-.522.215-.565.24-1.082.565-1.094 1.52.32.425.045.6-.223.776-.583.453-.913.98-.733 1.656l-.306-.386-.367.28c.24.15.375.44.68.13.053.187.143.385.28.595.793 1.226.436 2.086-.642 2.552-.623.27-.677.234-.493 1.215.163.87.977 2.1.494 2.624a1.86 1.86 0 0 0-.342.506l-.17-.11c-.246-.08-.4-.078-.47.026l.3.19.22.284c-.126.585-.01 1.184-.158 1.745.15.418.454.87.05 1.266-.948.927-.468 1.472.1 1.998a2.65 2.65 0 0 0-.068.415c-.035.507-.536.805-.416 1.38.826 1.48-.258 1.688-.88 2.203a.77.77 0 0 0-.396-.574l.12.507.196.138c-.075.07-.142.148-.193.236.317.71.114 1.9-.068 2.01-1.07.64-.34 1.614-.447 2.403-.373 1.256-.28 1.388.98 1.4 1.605.772 2.807 2.35 4.466 3.07 5.303 2.296 10.81 3.05 16.348 3.007 7.154-.056 14.3-.64 21.454-.83l22.48-.3 4.36.168c4.973.197 9.937.022 14.9-.304l.356.063c1.634.764 3.243.815 4.816-.187l.524-.012c.88.57 1.573-.312 2.368-.408l.75.43c.455.462.69.322 1.034-.278.676-1.187 1.534-1.902 2.48-2.297l.217.014.407-.142.122.125.407-.07-.163-.036.163-.035c-.014-.012-.028-.024-.04-.036l.6.107c.114-.05.772-.073 1.548-.09l.97-.02.022.003c-.337.088-.702.18-.947.272l.046.055-.046-.018c-.067.044.054.03.092.037l.643-.145v.072c.16-.044.43-.126.718-.217a18.36 18.36 0 0 0 3.667-.03c2.464-.266 4.957.084 7.4-.463.687-.153 1.383-.022 1.92-.687.89-.092 1.838.314 2.646-.437l1.663-.084 1.038.392 3.52-.08c.093.137.25.26.4.266.055.01.012.01.05-.018.106.104.077.135.23.145l.102.037.077-.163-.153.018h-.05v.09h-.026c-.043-.058.015-.048-.076-.037-.052-.072.043-.027-.05-.072h.127l-.203-.145c.037-.02.042.006.05-.067a.18.18 0 0 0-.05.012c-.055-.01-.012-.01-.05.018-.024-.047-.026-.072-.03-.093h.104c-.007.016-.016.028-.024.04.014.007.03.014.043.02s.025.01.033.016l.05-.073c.008-.007.027-.007.047-.008.001.01.005.016.004.026.026-.008.044-.018.065-.028l.755-.018.393.207.43-.04.138-.11 1.237.23c-.226.065-.36.02-.708.017l.022.106h-.045v-.09h-.023l-.1.035.045.07-.067-.09-.158.018.068.124a.86.86 0 0 0-.213-.017 5.19 5.19 0 0 0-.937.106l.18.053c.005.007.013.007.02.018s.007.024.004.053l.158-.053.045-.053.113.124.022-.16.046.09.112-.07.068.142.044-.107v.16l.068-.142.068.018.068.07c-.042.027-.343.08-.398.15l.06-.01v.142l.09.018c-.008-.023-.015-.047-.023-.07.192.05.344-.05.518.035l.045-.16c.13.126.055.165.023.177l.1.053s.244.022.293-.07c.006.01.013.02.02.03l-.02-.003.028.016.04.064.013-.032.28.162-.338.047h-.068c.027.043.3.066.633.084l.532.293v-.072l.357.145c.02-.007.088.007.05-.037-.008.006-.017.012-.025.018.008-.018.017-.036.025-.055-.138-.093-.345-.187-.534-.276l.554.02c.435.018.8.042.864.09l.337-.107c-.007.012-.015.024-.022.036l.1.035-.1.036.225.07.068-.125.225.142.316-.035-.045-.07.112.018c-.014.047-.03.095-.045.142.293-.06.618.077.857-.09.066.078-.018.074.1.106.035.034 1.255.168 1.375 0l.135.106-.135.036.202.053c.34-.172.903-.157 1.195-.09l.022.142.023.018c.453.026 1.136-.314 1.532.053.176-.008.077.01.136-.09.107.054.687.05.9-.036l-.022-.09c.007-.006.015-.012.022-.017l.068.035.112-.07c.008.018.015.036.023.053l.045.07.113-.09c.026.136.158.044.27.142l.068-.09v.07l.113-.07c.02.06-.008.074-.09.106.076.012.15.006.226 0l-.1-.035v-.09c.103.047.107.036.18-.07l.1.053-.023.07.158-.018-.113-.036c.097-.064.04.006.046-.106l.158.195h.022l.068-.07c-.073-.1-.044-.122 0-.213-.105.022-.053.032-.136-.035l.046.035c-.056-.06.006-.02-.09-.053l-.022.09a.92.92 0 0 0-.361-.089l-.045-.107h.023c.058.085.054-.03.135.053l.112-.178-.022.124c.22-.03.36-.044.495-.036v-.053l-.247.053c.073-.046.002-.045.158-.035-.018-.082-.017-.084.022-.142l-.022.106.125-.033c-.033-.037.007-.02-.058-.02l.045-.07.01.08.012.08c.08-.032.06-.03.1-.036.07-.025.133.114.135.124l.203-.053.045-.017c-.007-.018-.015-.036-.023-.054-.047.042-.045 0-.022.054l-.068.017c.01-.093-.015-.078.046-.09l-.136-.053h-.045c.227-.092.28.002.428-.107l.023.09c.135-.053.194-.025.293-.018h.045l.045-.035c.02.062.037.006.068-.036.134.12.576.14.743 0l.023.09.1-.053v.035l.52-.07c.112.004.02-.016.09.053.063-.04.05.01.045-.053l.316.036c-.007-.012-.015-.024-.022-.036h-.068c.126.01.098.003.113.036l.247.035.046-.124.044.07c.02-.01.037-.022.055-.032.006-.01.02-.015.036-.02l-.036.02c.15.065.315.008.396-.074l.068.106.068-.036-.045-.124c-.284.028-.57-.124-.88 0v-.09l-.113.07v-.09c-.176.096-.154-.034-.293.053a1.78 1.78 0 0 0 .022-.071c-.356.077-1.16-.008-1.825-.106v-.035c-.1-.023-.166-.007-.203-.054l-.068-.035c.008-.018.015-.035.023-.053.088.02.196.005.27-.07l.045.07c-.006-.07.062-.075-.023-.16.1-.057.06.04.113-.053l.067.07h.068c-.044-.067-.026-.045.068-.053l-.046.018c.134.026.456.033.564-.07.418.178 1.78-.066 1.803.09.127-.02.096.018.135-.07l.1.09-.068-.16h.023l.045.124h.226c.007.012.015.024.022.035.004-.094-.007-.045-.045-.09l.045-.053.128.1.03-.047c.023.044.088.08.248.09v-.07c.022.03.045.06.068.09l.157-.124-.045.124.203-.07v-.07l.113-.036-.068.09h.113v.053l.022-.284.045.16h.023l.158-.035c-.038-.024-.055-.04-.066-.052-.022-.026-.015-.042-.047-.1l.045-.036c.045-.001.03.033.045 0 .074.114.05.04-.044.124l.11.07c.118-.07.087-.06.204.018V40l.067.09c.02-.033.005-.015.045 0l.1-.106.046.142c.007.006.014.012.022.018l.022-.107.023.07.18-.07-.022.053.076-.06c.01.01.02.023.03.034v-.04c.057.02.02.022.007.065l.1.035c.007.006.015.012.022.018.08-.055.034-.005.1-.107.018.107.033-.001.023.107l.158-.124c.007.006.015.012.022.018l-.045.053.113.018v.053c.012-.073.053-.054-.045-.07.062-.03.057-.05.135.053l.1-.018-.068-.035.474-.213.067.07c.027-.083.21-.08.27-.053l.022-.07c-.096.016-.2-.05-.293-.124-.115.062-.586.086-1.007.068-.033-.014.005.002.001-.067l-.255.036c-.01-.035-.02-.055-.038-.072l.32.012a26.53 26.53 0 0 0 .996.008c.018.017.035.034.052.05a.41.41 0 0 0-.013-.051l.366-.005v.077l.128.018.05.018.025-.072c-.108.03-.105.01-.183-.04l.15-.004c.01.024.016.014.018 0l.157-.006v.03h.068l-.06-.03.478-.017.2.067h.022c0-.06.01-.06-.01-.077l.33-.017.982.186c-.03-.1-.06-.057-.102-.073l.02-.08c.125-.004.327.046.405.203l.113-.106c.037.067-.001.063.045.142l-.113-.036-.023.23.045-.16.068.054c.015-.012.03-.024.045-.036l-.067.09.112.035v-.142c.178-.05.15.133.383.018l-.045.23-.067-.09c-.008.012-.015.024-.023.035l.1.195c.008-.018.015-.035.023-.053.052.058.113.038.1.09.1-.01.044 0 .112-.07l.113.124.158-.195-.045.09.1.07c.05-.062.01-.05-.022-.07l.045-.07.178.064a.19.19 0 0 0 .024-.01c.002.007.003.014.005.02.013.005.027.01.04.015.006-.04.005-.02.023-.035l.045-.036-.068.124.158.09v-.124c-.006 0-.005-.01-.067.018l.135-.107-.158-.018v-.178c.067.06.027.008.045.09.096-.077.036-.128 0-.267l-.045.036v.07l-.043-.126c-.008-.024-.017-.047-.025-.07l.113.035-.022-.07.05-.024.29.216c.013.016.013.023.013.028l-.085.008.024-.033h-.022c-.006.01-.01.022-.017.034l-.06.005-.035-.163-.022.035-.045-.035-.045.106.067-.053-.022.107c.015.017.03.035.044.052-.003.01-.007.018-.01.028l.04.04c-.017.02-.035.04-.053.058h.045l.024-.043.083.08h-.04c.057.033.064.02.022.053l.068.053c.004-.016.007-.032.01-.048l.027.026h.037l.106.2-.057-.2h.115c-.004.007-.01.014-.014.022l.068.07-.04-.093h.065c.026-.036.05-.073.076-.11l.918.308c.12-.104-.022-.132-.077-.2.01-.006.017-.012.026-.018l.23.054.05.018-.127-.218c.263-.107.094-.123.05-.308h.05l.128.145c.215-.058.28-.123.484-.09-.045-.203-.25-.226-.382-.38l-.05-.036c.102-.032.048.02.1-.07l.05-.02.283.16c-.088-.112-.16-.164-.33-.2l.012-.03.337-.014c.47.102 1.43.264 1.693.3v-.09c.08.097.684.226.873.163l.092.073-.23.09.414-.055-.184.073.184.055v-.09c.155.092.485.084.46.09l.23.1.276-.054-.23.054.368.11c.097-.083.043-.05.184-.072l.046.018c-.044.052-.075.01 0 .055v.036l.23-.054a2.33 2.33 0 0 0-.046.073c-.1-.012-.04-.017-.092.018l.735.09c-.168.03-.337.042-.505.054l.046.09.098-.02.01.17-.293.03.32.073.368-.018-.092-.073-.153.03-.042-.178c.558-.087 1.402.086 1.942.33l-.047-.163.047-.018.137.127c.018-.112.085-.21.185-.163.268-.017.36-.006.69.054.15-.178.408-.2.597-.344 1.055.024 1.758.222 2.39.036h-.138c-.016-.012-.03-.024-.046-.036l.046-.127c.262.115.184.02.55.073l.138.073c.08-.087.03-.04.184-.09l-.092.073c.31-.035.13-.027.46.018-.087-.13-.263-.147-.598-.164l.092-.072.598-.11-.598-.18c.105-.055.124-.007.097-.078l1.14-.028c-.054.162-.1.29-.124.332.168-.078.32-.18.48-.206.413-.068.832-.087 1.246-.148.066-.01.13-.022.195-.033l.075-.002.093.05v-.053l.06-.002c.1.048.205.05.194.055l.127.09.153-.055-.127.055.203.11c.054-.083.024-.05.103-.072a.54.54 0 0 0 .025.018c-.024.052-.04.01 0 .054v.037l.128-.055-.026.072c-.055-.01-.022-.016-.05.018l.408.09c-.094.03-.187.042-.28.054l.026.09.102-.036-.05.073c.304-.138.825.046 1.147.308l-.026-.163c.008-.006.017-.012.026-.018l.076.127c.01-.112.047-.21.102-.163.15-.017.2-.006.382.055.083-.178.226-.2.332-.345.584.024.974.222 1.325.036h-.077c-.008-.012-.017-.024-.025-.036l.025-.127c.146.115.102.02.306.073.026.024.05.048.076.073.045-.087.017-.04.103-.09l-.052.073c.173-.035.072-.027.255.018-.048-.13-.145-.147-.33-.164l.05-.072.33-.11-.02-.012c1.865-.268 3.735-.51 5.58-.92l.025-.006c1.253-.28 2.494-.636 3.713-1.13l.343.004 1.194-.31c.078.063.183.06.34-.023-.013-.02-.026-.04-.04-.06 1.16-.323 2.303-.713 3.393-1.312l.135.157.367-.26c-.047-.026-.09-.058-.13-.09.857-.515-.314-.997-.292-1.5l-.008-.007c.41-.015.993.154 1.065-.468.06-.526-.465-.236-.73-.314-.35-.62-.822-.42-1.283-.3l-.42-.558c.516.22.837-.412 1.3-.417 1.102-.288.36-.732.058-1.138l1.278-.51c.396-.006.863-.138.777-.658-.072-.433-.54-.123-.83-.105-.213.013-.425.057-.638.087.015.014.03.028.044.042-.016-.012-.03-.026-.044-.042l.023-.116c-.544-.6-1.18-.29-1.787-.28l-.59.024-.02-.417.535-.165c.295.02.627.077.902.078l-.168-.21c.24-.042.3-.232.78-.078l.368.22c.247.075.402.072.47-.024l-.29-.175-.297-.352 4.18-1.286c-1.15-.596-1.95-.006-2.752-.13" class="B C"/><path d="M206 34.6c.737.467 1.17.4 1.574-.278-.596-.398-.957.072-1.574.278z" class="B C"/><path d="M207.366 29.564c.67.51 1.028.24 1.438-.274-.513-.134-.932-.235-1.438.274z" class="B C"/><path d="M204.168 13.213l-1.153-.23c-.028-.003-.127.255-.1.294.266.366.58.267 1.252-.063" class="B C"/><path d="M203.748 26.57l.203.894c.13-.396.1-.535-.203-.894z" class="B C"/><path d="M172.953 23.686l-.035-.47-.306.07.263.43.078-.03" class="B C"/><mask id="K" class="D"><use xlink:href="#Q"/></mask><use xlink:href="#Q" class="E"/><path d="M223.672 31.563l52.097-1.86.013.387.01.387-52.12 1.086zm.084.042L180.09 3.128l.524-.803.552-.783 42.59 30.062zm.064-.136l20.894-47.76 47.688 20.863-20.792 47.72-47.8-20.823zm-.116-.05L173.19 18.54l15.227-59.734 56.375 24.935-21.087 47.675zm52.087-.94c-.407-19.506-11.337-31.533-13.43-33.85a52.12 52.12 0 0 0-8.763-7.744 51.93 51.93 0 0 0-8.06-4.632c-1.684-.777-4.27-1.862-7.55-2.793-1.3-.367-5.093-1.42-10.11-1.82a52.12 52.12 0 0 0-14.518.882c-5.673 1.154-22.123 5.513-33.27 22.606l87.33 56.954c-11.148 17.094-27.6 21.453-33.274 22.608-6.757 1.374-12.206 1.067-14.524.883-5.02-.4-8.832-1.454-10.13-1.823-3.296-.937-5.902-2.03-7.607-2.815a52.32 52.32 0 0 1-8.115-4.663c-1.587-1.112-5.096-3.68-8.78-7.76-2.096-2.32-13.03-14.352-13.436-33.862l104.238-2.172zM181.167 1.542c-3.088 4.376-4.76 8.226-5.283 9.443l-.438 1.053c.003-.008.072-.18.16-.392l.424-1 95.58 41.646.41-.965.104-.255.04-.102c.063-.155-.18.457-.467 1.124-.542 1.263-2.236 5.158-5.353 9.574L181.167 1.542zm21.758 77.686l-.262-.115-.118-.053c-.036-.016.016.007.072.032l42.174-95.35.203.1-.066-.03-.214-.094-41.79 95.52zm71.294-34.934c-.32 1.26-.628 2.255-.65 2.33-.126.415.142-.45.373-1.287.427-1.55 2.113-7.64 1.828-15.633l-104.194 3.72c-.287-8.04 1.41-14.177 1.85-15.775l.395-1.36c-.015.05-.315 1.02-.63 2.254l101.03 25.753z" mask="url(#K)" class="F"/><path d="M197.64 35.53l-.09-.03.023.23.068-.2" class="B C"/><path d="M200.74 40.284l-.042-.003v.15l.03.001.013-.148" class="B C"/><mask id="L" class="D"><path d="M224.882 52.746l.118.017c-.035-.022-.056-.04-.08-.05-.01-.002-.025.02-.038.032z"/></mask><path d="M224.882 52.746l.118.017c-.035-.022-.056-.04-.08-.05-.01-.002-.025.02-.038.032z" class="E"/><path d="M224.882 52.746l-7.512 51.586-112.24-16.345 85.496-74.534 34.256 39.294zm.118.017l27.853-44.065-35.08 95.692L225 52.763zm-.08-.05l13.082-50.462 1.3.337 1.282.404-15.665 49.72zm7.475-51.554l.037.005c.02.003.006.001-.013-.002l-.19-.027L217.772 104.4l-.402-.058L232.395 1.16zM197.147 96.83l-1.706-1.126c-.56-.384.196.137.6.407.92.614 5.926 4.03 13.212 6.325l31.33-99.44c7.31 2.303 12.338 5.732 13.284 6.363l.642.435a50.4 50.4 0 0 0-1.658-1.094l-55.706 88.13zm14.7 6.347c12.056 3.126 22.394 1.28 28.89-.787 6.305-2.007 10.847-4.783 13.26-6.404 4.6-3.09 7.64-6.256 8.118-6.743l.894-.933c-.096.102-1.67 1.822-3.86 3.732l-68.513-78.588c-2.185 1.905-3.753 3.618-3.84 3.712-.8.856.31-.338.914-.955.485-.494 3.53-3.665 8.136-6.76 2.416-1.624 6.962-4.4 13.27-6.41 6.5-2.07 16.84-3.914 28.898-.788l-26.165 100.923z" mask="url(#L)" class="F"/><path d="M210.918 26.367h.03v-.15h-.03v.15z" class="B C"/><path d="M196.79 46.413l-.09.153.046.03.043-.18" class="B C"/><path d="M198.655 32.645l-.108-.012c.033.02.053.036.075.04.008.002.022-.02.033-.03z" class="B C"/><mask id="M" class="D"><path d="M207.105 48.063c-.055-.01-.09-.015 0 0z"/></mask><path d="M207.105 48.063c-.055-.01-.09-.015 0 0z" class="E"/><path d="M198.435 99.467l.104.017.072.012.07.01.19.03.4.062 1.007.142.898.1 2.798.24 6.02.008c6.564-.792 43.917-29.212 45.96-70.098-9.83-16.456-28.167-29.777-31.488-31.084a94.24 94.24 0 0 0-4.13-1.274c-1.176-.3-2.107-.51-2.307-.552l-.807-.167-.66-.127-.448-.08-.27-.047-.154-.026-.057-.01-.05-.008L198.627 99.5l-.2-.035-.16-.027-.272-.047-.45-.08-.66-.127-.807-.167c-.2-.043-1.13-.242-2.307-.552-.726-.197-2.795-.82-4.13-1.274-3.32-1.307-21.658-14.628-31.488-31.083C160.187 25.22 197.54-3.2 204.104-3.993a94.97 94.97 0 0 1 6.02.007c1.468.087 2.62.22 2.798.24l.898.1 1.007.142.403.062.546.09-17.34 102.808z" mask="url(#M)" class="F"/><path d="M197 42.944l-.03-.002-.008.155.027.002.01-.155" class="B C"/><path d="M199.515 44.166h-.024v.115h.024v-.115z" class="B C"/><mask id="N" class="D"><path d="M166.305 55.94l-.02.028.03.006-.01-.034z"/></mask><path d="M166.305 55.94l-.02.028.03.006-.01-.034z" class="E"/><path d="M166.305 55.94l-41.227-31.903 63.35-81.864L216.484 41.8l-50.18 14.13zm-.02.028l-10.34 51.095-82.24-16.64 51.35-66.358 41.228 31.903zm.03.006l50.18-14.13 23.13 82.15-83.648-16.925 10.338-51.094zm41.218 31.87l-.022.028-82.433-63.835 82.455 63.807zm-30.91-82.97l.03.006-20.676 102.19-.032-.006 20.677-102.19zm-60.486 65.23l-.01-.034 100.367-28.225-100.358 28.26z" mask="url(#N)" class="F"/><mask id="O" class="D"><path d="M219.337 41.106l.027.007-.006-.038-.02.032z"/></mask><path d="M219.337 41.106l.027.007-.006-.038-.02.032z" class="E"/><path d="M219.337 41.106L206.99 91.753l-72.128-17.58L175.9 12.298l43.447 28.808zm.027.007l51.43-8.517 12.893 77.852L207.02 91.76l12.345-50.647zm-.006-.038L175.91 12.266 249.138-98.17l21.65 130.728-51.43 8.517zM231.682-9.54l.027.007L206.99 91.753 231.682-9.54zm-63.748 59.17l-.006-.038 102.865-16.996-102.86 17.034zm94.87 20.253l-.02.032-86.872-57.648 86.893 57.616z" mask="url(#O)" class="F"/><path d="M196.84 46.336l-.042.045-.008.033.015-.025.035-.052z" class="B C"/></g><defs><filter id="P" x="0" y="0" width="229" height="63.974" filterUnits="userSpaceOnUse" color-interpolation-filters="sRGB"><feFlood flood-opacity="0" result="A"/><feColorMatrix in="SourceAlpha" values="0 0 0 0 0 0 0 0 0 0 0 0 0 0 0 0 0 0 127 0"/><feOffset dy="4"/><feGaussianBlur stdDeviation="2"/><feColorMatrix values="0 0 0 0 0 0 0 0 0 0 0 0 0 0 0 0 0 0 0.25 0"/><feBlend in2="A"/><feBlend in="SourceGraphic"/></filter><path id="Q" d="M223.672 31.563c0 .016.08.05.084.042.028-.04.043-.09.064-.136l-.116-.05c-.013.05-.034.1-.032.146z"/></defs></svg>