<svg xmlns="http://www.w3.org/2000/svg" width="331" height="70" fill="#7c651a" xmlns:v="https://vecta.io/nano"><path d="M287.3 47.023s-2.667 5.667-9.334 2.667c-4.142-1.865-.814-10.036 7.978-14.675 3.874 4.8 3.298 9.87 1.356 12.008zM52.712 49.7c-6.667 3-9.333-2.667-9.333-2.667-1.943-2.137-2.52-7.22 1.357-12.008 8.8 4.64 12.12 12.8 7.976 14.675zM325.3 39.023c-8.334-10.333-31.667-13.333-38.667-9-.14.085-.284.185-.428.283-2.36-3.045-5.416-5.5-8.905-6.616-13.667-4.333-26.623 1.932-51.3 18.932s-27.44 20.904-35.5 19.272c-6.12-1.24-12.417-8.625-19.325-16.352l.546-.52c5.667-5.333 15.334-18.667 25.667-12.667s5.667 18.667 0 21.667-6-4-6-4c.667-7-8.667-7.333-8.667.667 0 5.045 1.334 9 13.667 8.668s21.333-24-2-32c-11.133-3.817-20.584 3.187-29.045 11.88-8.462-8.693-17.9-15.697-29.044-11.88-23.334 8-14.334 31.668-2 32s13.666-3.623 13.666-8.668c0-8-9.333-7.667-8.666-.667 0 0-.334 7-6 4s-10.334-15.667 0-21.667 20 7.333 25.666 12.667l.547.52c-6.908 7.727-13.204 15.112-19.325 16.352-8.068 1.632-10.844-2.27-35.5-19.272S67.046 19.356 53.38 23.7c-3.5 1.107-6.545 3.57-8.905 6.616l-.428-.283c-7-4.333-30.333-1.333-38.667 9s-6 25.335 6.333 29.335 29.667-1.333 27-10-11-4.335-9.667-2.667-9.333 9-18.667 6.333-11-24 12.667-29.335c7.6-1.716 14.076-.873 19.135 1.15-4.62 8.6-4.048 19.137 6.2 18.85 13.555-.384 5.733-13.708-1.168-20.164 3-2.476 7.44-4.703 13.835-6.17 20.333-4.667 49.8 31.537 67.798 37.87 13.598 4.784 27.874-5.57 36.5-13.224 8.617 7.653 22.893 18.008 36.5 13.224 18-6.333 47.466-42.537 67.8-37.87 6.396 1.467 10.844 3.693 13.835 6.17-6.902 6.456-14.723 19.78-1.168 20.164 10.248.288 10.818-10.26 6.198-18.85 5.06-2.024 11.523-2.867 19.135-1.15 23.667 5.333 22 26.668 12.667 29.335s-20-4.667-18.667-6.333-7-6-9.667 2.667 14.667 14 27 10 14.667-19 6.334-29.335M172.387 15.436c0 8.568-7.054 16.548-7.054 16.548s-7.052-7.98-7.052-16.548 1.772-14.48 7.052-14.48 7.054 5.912 7.054 14.48z"/></svg>