<svg xmlns="http://www.w3.org/2000/svg" width="493" height="494" fill="none" xmlns:v="https://vecta.io/nano"><style><![CDATA[.B{fill:#212637}.C{fill:#f89a78}.D{fill:#f57e5d}.E{fill:#0f7dc2}]]></style><path d="M251.59 494c-10.814.002-19.315-2.05-24.426-6.6-8.51-7.595-9.584-19.098-8.125-31.172 0 0 162.047-113.18 99.98-133.407-42.516-13.856-51.57-23.52-37.972-63.272 9.626-28.133 47.17-36.88 25.96-99.236 1.448-.387-30.707 152.85-29.29 152.076 0 0 92.877-110.367 89.687-121-.03-.125-105.794 156.505-120.577 145.948-8.048-6.188 1.286-219.753 7.762-239.13-67.268 201.508-31.782-64.716 7.36-21.82-47.656 2.117 316.088 292.1 105.724 171-9.444 21.393-19.936-98.92 0-73C400.6 217.188 311.97 451.457 246.83 471c-25.86 52.964-28.583-47.62-27.8-14.782-83.214 0-86.136-36.62-90.36-36.62-90.875 0-145.907-63.712-92.664-119.893 26.65-28.122 112.913-84.975 57.78-91.003-90.717-9.92-149.37-53.727-8.4-135.637 0 0 117.633-72.687 201.008-72.687 17.707 0 33.853 3.273 47.017 11.22 68.83 41.545-29.413 147.952 1.28 147.952 2.816 0 6.712-.892 11.928-2.815 15.803-5.824 32.403-8.585 48.5-8.585 49.57 0 94.458 26.152 97.373 69.53 5.176 77.03-128.425 135.83-109.76 135.83.532 0 1.188-.048 1.976-.145 9.24-1.134 17.868-1.696 25.74-1.696 44.027 0 64.37 17.616 35.167 51.584C408.077 446.93 303.385 493.996 251.59 494z" fill="#d3d3d3"/><path d="M183.57 202.995s-19.615-1.468-25.67-11.562-.092-16.976 4.955-20.186 12.387-8.167 12.662-12.755.046-15.855 11.745-19.592c3.963-1.265 8.505-1.09 12.296.663 1.968.9 3.5 2.228 4.874 3.882 1.333 1.607 1.75 2.97 2.188 5.046.355 1.682.33 3.234.278 4.977-.08 2.673-.676 5.403-.923 8.075-.213 2.306-.362 4.578-.362 6.928 0 1.58.294 3.04.804 4.54s1.333 2.857 1.892 4.332c.545 1.443 1.765 4.35 2.147 5.844.647 2.537.17 3.884-.08 6.5-.62 6.498-5.387 10.56-11.446 12.22-4.93 1.35-10.3 1.48-15.358 1.086z" class="B"/><path d="M197.643 165.91c-3.572-.386-6.23-2.1-7.984-4.435.44 2.553.674 8.077-3.545 14.32 0 0-.058 13.044 8.348 11.77s7.42-11.016 7.42-11.016-4.98-3.332-4.24-10.64z" class="D"/><path d="M188.79 145.188s8.014-3.365 11.01-1.713 4.343 6.36 5.322 10.95-1.392 13.52-5.81 14.987c-5.214 1.732-9.787-2.568-11.5-8.014 0 0-4.588-1.1-4.22-7.217s1.896-9.604 5.2-8.992z" class="C"/><path d="M200.346 175.103s-3.45 6.17-5.227 7.343-9.077-8.402-9.077-8.402-8.42 5.117-15.33 6.93c0 0-2.414 25.458-3.978 31.32L164 248.81h43.21c-1.182-21.852 7.4-40.813 7.4-40.813s-2.516-19.66-1.148-24.546c0 0-9.735-5.537-13.116-8.347z" class="E"/><path d="M214.478 207.76s-.617-4.816-1.073-10.273c-3.002 5.882-4.706 12.054-7.07 18.257-2.792 7.323-10.958 21.235-20.996 18.087-7.916-2.483-10.4-11.644-11.662-18.968-.7-4-1.32-8.064-1.742-12.1-.347-3.324-.46-8.792-2.302-11.62-1.068.933-1.492 4.235-1.622 5.643-.197 2.12-.245 4.253-.332 6.38l-.184 3.25c-.076.95-.268 1.828-.408 2.745-.098.648-.13 1.34-.267 1.975l-.053.242c-.055.247-.1.476-.164.678l-2.736 36.514h43.21c-1.182-21.852 7.402-40.813 7.402-40.813z" fill="#215084"/><path d="M186.348 173.296l-4.704 2.8 7.186 11.733 6.156-5.08 5.88 4.755 2.883-10.38-4.185-3.04-4.43 7.42-8.784-8.207z" fill="#fff"/><g class="B"><path d="M200.76 146.044s-1.558 5.437-6.223 6.767c-1.995.568-3.268 2.522-3.05 4.586.1.947-2.164 1.095-2.2.452s.504-3.898-2.294-4.54-3.007 3.533-.505 6.056c0 0 4.695 4.952 2.493 10.436s-6.76 10.805-15.568 11.815-12.52 13.338-12.52 13.338-8.858-10.402.96-17.926 16.792-11.85 16.7-16.8 3.173-18.36 11.608-19.26 10.6 5.077 10.6 5.077z"/><path d="M206.35 153.743s-3.67.528-7.6-4.947-3.915-9.848-3.915-9.848 14.14 2.244 11.505 14.795z"/></g><path d="M167.12 366.556h-3.52v-92.748h3.52v92.748zm65.185 0h-3.52v-92.748h3.52v92.748zm42.875 0h-3.52v-92.748h3.52v92.748zm65.183 0h-3.522v-92.748h3.522v92.748z" fill="#adcfd4"/><path d="M241.75 277.4h-87.596v-9.068h87.596v9.068zm-30.5 52.2s-7.953 8.784-7.774 9.9 18.377 25.05 21.024 24.816 2.73-4.768 2.1-6.4-8.404-25.606-8.404-25.606l-6.947-2.7zm-22.524.267s-8.695 8.05-8.615 9.177 16.103 26.57 18.76 26.57 3.14-4.5 2.657-6.2-6.12-26.246-6.12-26.246l-6.682-3.3z" class="B"/><path d="M224.033 274.84c-3.087 14.66-13.504 55.564-13.504 55.564l9.24 5.53s15.78-40.078 20.807-61.094h-16.544z" class="D"/><path d="M205.497 274.84L187.9 330.775l8.246 5.557s21.85-40.576 29.893-61.49h-20.532z" class="C"/><path d="M238.008 259.882c-6.666-3.774-13.84-7.373-21.236-9.29l-.062-.016c-2.994-.772-8.436-7.767-9.105-13.7-4.323 1.687-9.667 1.628-14.94 1.804-7.32.244-15.844 1.353-23.014-.346-1.64-.39-3.087-1.007-4.473-1.715 0 0-7.965 7.342-7.965 20.442 0 6.647 1.922 9.6 9.182 11.963 3.902 1.27 24.494-.628 30.217 1.74 5.082 2.103 4.212 7.512 3.3 11.24 24.215 3.468 36.78 1.13 41.25.1 1.4-4.767 4.584-17.824-3.164-22.212z" fill="#433a4b"/><path d="M304.663 236.756s-20.615-.115-27.852-4.94-8.503-24.013 2-31.855 12.692-10.254 13.154-15.424.352-16.902 13.966-16.953c13.355-.05 12.203 10.888 13.22 17.852.708 4.847 7.376 12 13.213 16.464 7.498 5.73 15.883 39.68-27.7 34.856z" class="B"/><path d="M310.77 188.025c-1.1.354-2.306.558-3.636.558-2.423 0-4.456-.646-6.107-1.724-.565 3.873 1.2 8.42-2.603 9.478 0 0 .23 16.662 6.936 16.662s7.592-16.77 7.592-16.77-3.07-.6-2.182-8.204z" class="D"/><path d="M315.03 183.876c-.69-1.493-2.44-.76-2.44-.76.344-4.05.33-10.412.33-10.412l-7.005-.738-7.005.738s-.015 6.362.33 10.412c0 0-1.753-.732-2.442.76-1.168 2.53 1.666 4.193 1.666 4.193-.1-.05 1.948 8.543 7.45 9.034 5.504-.49 7.56-9.084 7.45-9.034 0 0 2.834-1.664 1.666-4.193z" class="C"/><g class="B"><path d="M313.9 172.592s-3.676 9.48-13.787 8.79c0 0 .33 1.6-.273 3.16 0 0-1.395-3.973-2.96-3.085s-2.167 2.396-2.167 2.396-1.465-11.245 5.816-13.744 13.37 2.484 13.37 2.484z"/><path d="M310.677 171.735c-.09.526-.16 1.052-.153 1.57l.03 3.35c1.496 1.633 2.002 4.713 1.818 5.143-.057.576-.09 1.666.33 2.742 0 0 1.394-3.973 2.958-3.085s2.168 2.396 2.168 2.396-.513-12.343-7.152-12.117z"/></g><path d="M324.217 223.105c-2.026-5.885-.977-21.692-.977-21.692-2.5-.783-12.288-5.37-12.288-5.37l-6.344 15.336-6.69-15.228s-7.894 3.793-10.393 4.576c0 0-.497 16.492-2.524 22.377 0 0 6.196 10.12 0 32.798h39.217c-6.196-22.68 0-32.798 0-32.798z" fill="#f14957"/><path d="M325.492 222.86c-.5-1.452-.664-6.628-.852-9.12-.932 2.5-2.03 7.964-2.984 10.435-3.22 8.346-6.695 11.805-16.048 11.958-7.465.123-14.453-11.965-15.237-14.2-.91-2.58-2.026-5.046-2.963-7.556-.152 3.42-.483 6.584-1.133 8.473 0 0 6.196 10.12 0 32.797h39.217c-6.196-22.678 0-32.797 0-32.797z" fill="#df313a"/><path d="M324.053 239.556s-3.32 1.697-4.42 1.385c-1.344-.382-1.636-1.028-3.932-.313s-2.9 1.036-4.3 1.876c-1.16.696-3.403 1.8-2.687 3.14s3.103-.44 3.347-.55l1-.47s-2.736 1.296-2.246 2.077 1.856.76 2.736.267 1.636-1.048 1.636-1.048-1.832 1.272-1.5 1.696 1.575.648 2.62.09 1.46-1.094 1.46-1.094-1.637 1.14-.17 1.653 2.808-1.028 3.615-1.608 1.953-1.876 2.345-2.113 3.94-1.488 3.94-1.488l-3.452-3.5z" class="C"/><path d="M308.812 246.04l-9.647-15.807s-2.882-1.514-2.736 1.906l11.414 14.73s3.313 3.712.97-.83z" class="B"/><path d="M287.24 239.593s3.415 1.896 3.926 1.735 7.652-4.316 9.206-3.57c1.538.736 2.452 2.436 3.198 3.443s3.15 3.96 2.008 4.92c-1.158.968-2.82-2.326-3.436-3.006s-2.48-2.637-3.53-2.424c0 0 2.05 1.003 2.95 2.246s3.074 3.152 2.276 4.474c-.807 1.335-3.52-2.56-3.77-2.804s-2.1-1.75-2.863-1.833l2.507 1.905c.26.295 2.884 2.36 2.437 3.055-.353.55-1.324 1.016-3.342-1.28-.794-.9-2.402-1.702-2.402-1.702s1.834 1.088 2.263 1.555 1.417 1.535.65 1.77-1.847-.35-2.988-1.072c-1.15-.728-2.46-1.077-3.778-.764-1.33.316-7.596-1.874-7.596-1.874l2.284-4.774zm16.72-1.51s2.667.88 3.18 2.03-.362 1.804-.997 1.558l-2.183-3.587z" class="C"/><path d="M288.8 200.483c-2.236.6-7.714 2.66-12.82 16.48-4.623 12.52-6.513 22.724-6.07 25.96.717 5.243 21.04 5.056 21.04 5.056l1.364-8.08s-9.12-2.965-8.904-4.084c.3-1.5 2.863-7.074 3.93-10.466.188-.595 3.03-25.3 1.456-24.868zm32.72.563c1.612.26 7.55 2.98 12.815 15.868 5.047 12.353 6.513 22.724 6.07 25.96-.72 5.243-21.043 5.056-21.043 5.056L318 239.85s9.12-2.965 8.905-4.084c-.3-1.5-2.862-7.074-3.932-10.466-.186-.595-3.064-24.516-1.452-24.255z" fill="#f14957"/><path d="M260.493 235.817l-2.6 4.614s3.717 2.214 4.512 3.045c.8.837 2.132 4.027 6.1 4.784 4.063.776 4.69 1.59 5.728.538s-1.66-2.48-3.304-2.852c-1.628-.366-2.935-.654-2.716-1.033s1.71-.364 4.573.074c2.9.444 6.663 1.77 7.536 1.188s-2.212-3.083-5.657-3.45l-3.756-.568 4.072.372c.82.207 5.65 1.588 6.78.684s-3.19-2.538-6.195-2.862c-2.956-.32-3.97-.084-3.97-.084l4.454-.128c1.074.126 4.234 1.052 4.556.225s-2.273-1.927-4.614-1.995c-2.314-.066-4.338.27-4.338.27s3.08-.653 4.228-.57c1.156.087 2.903.315 3.008-.22s-.66-1.53-4.584-1.487c-2.078.023-4.066.513-5.34.748-2.176.4-7.876-1.288-8.463-1.295z" class="C"/><g fill="#6b8ea1"><path d="M130.32 367.252h-2.713v-119.83h2.713v119.83zm235.624 0h-2.712v-119.83h2.712v119.83z"/><path d="M370.552 247.42v3.178H123v-3.178h247.552z"/></g><path d="M331.3 275.32l.026-1.066c0-11.47-5.986-19.015-5.986-19.015h-39.27s-5.374 7.546-5.374 19.015a30.77 30.77 0 0 0 .026 1.066H331.3z" fill="#202930"/><path d="M294.597 331.613s-9.928 11.815-11.1 14.328 1.676 5.674 5.545 4.384 15.28-14.312 14.764-15.924-3.105-3.377-3.105-3.377l-6.115.6zm54.287-54.213h-86.5v-9.068h86.5v9.068z" class="B"/><path d="M304.753 273.108c-.378-4.6.454-12.955-7.116-12.955-11.453 0-9.11 16.472-8.928 18.305l5.888 53.155 6.115-.757 4.04-57.748z" class="C"/><path d="M317.424 331.613s9.928 11.815 11.088 14.328-1.676 5.674-5.544 4.384-15.28-14.312-14.764-15.924 3.104-3.377 3.104-3.377l6.116.59z" class="B"/><path d="M307.268 273.108c.377-4.6-.453-12.955 7.116-12.955 11.452 0 9.108 16.472 8.928 18.305l-5.888 53.155-6.116-.757-4.04-57.748z" class="C"/><path d="M262.81 234.07l-2.548 9.478s-33.474-5.987-36.6-10.628-11.063-24.572-11.063-24.572-4.546-15.167.73-25.132c0 0 4.99 1.884 7.822 9.602 1.822 4.963 10.718 26.292 12.477 28.532s29.183 12.72 29.183 12.72z" class="E"/><path d="M172.275 241.243l3.566.477c.627.02 8.915-4.33 9.776-3.677s8.98 6.66 8.697 7.784-2.582.376-6.873-3.462c0 0 5.74 4.308 4.58 5.28s-6.13-3.813-6.13-3.813 5.16 4.078 3.88 4.92-5.8-3.974-5.8-3.974 3.54 3.617 3.02 4.19-2.792-.5-5.235-2.913c0 0-.453-.264-1.812.41s-9.52-.942-9.52-.942l1.84-4.28z" class="C"/><path d="M175.005 241.433l-2.638 5.995s-25.24-10.934-26.152-21.104 14.656-44.58 25.44-44.345c0 0-1.972 23.068-4.848 29.212 0 0-6.097 9.66-6.002 12.006s14.2 18.236 14.2 18.236z" class="E"/><path d="M268.8 161.676h-25.883l-13.877 11.33 6.24-11.33h-6.36c-1.1 0-1.994-.892-1.994-1.993v-25.688c0-1.102.893-1.995 1.994-1.995h39.88c1.1 0 1.995.893 1.995 1.995v25.688c0 1.1-.894 1.993-1.995 1.993z" fill="#c4d8df"/><path d="M250.907 155.5h-4.988v-4.663h4.988v4.663zm3.93-12.498c0 3.426-4.31 4.434-4.31 5.77v.53h-4.31v-1.26c0-1.84 3.276-2.897 3.276-4.94 0-.932-.605-1.764-1.663-1.764-1.36 0-1.638 1.06-1.638 2.118l.025.68h-4.636l-.075-.958c0-3.276 2.922-5.317 6.88-5.317 3.854 0 6.45 2.016 6.45 5.14z" class="B"/></svg>