<svg xmlns="http://www.w3.org/2000/svg" xmlns:xlink="http://www.w3.org/1999/xlink" width="505" height="333" fill="none" xmlns:v="https://vecta.io/nano"><style><![CDATA[.B{fill:#fff}.C{fill:#3d3c3b}.D{fill:#212637}.E{fill:#d6d2cb}.F{fill:#0f7dc2}.G{fill:#4d4d84}.H{fill:#71cbcd}.I{fill:#efecf7}.J{fill:#56548c}.K{fill:#5c5c8e}.L{fill:#e3dcd5}.M{fill:#eea886}.N{fill:#3d3d6b}.O{fill:#f8bd8c}.P{fill:#f89a78}.Q{fill:#433a4b}]]></style><path d="M469.667 324s83.154-111.86-5.67-171.714-62.36-41.212-84.095-88.31S297.694-10.6 223.047 25.707 89.814 55.144 77.53 56.125s-66.144 3.925-75.593 54.95S20.835 168.966 18 189.572-.047 224.896 1.9 248.447 6.66 314.188 34.064 324h435.603z" fill="#d3d3d3"/><path d="M490.853 332.88H13.827c28.047-33.364 84.5-26.203 122.71-24.224 15.234.792 30.494 1.236 45.76 1.39l4.8.04 7.033.025 4.664-.002c36.72-.104 73.472-1.756 110.077-4.154 52.03-3.416 107.987-9.768 156.496 12.12l3.845 1.804c7.4 3.604 14.638 7.9 21.64 13z" fill="#7979b2"/><path d="M339.288 67.302H163.646c-3.826 0-6.927 3.216-6.927 7.182v125.258c0 3.967 3.1 7.183 6.927 7.183h65.527v19.736h44.587v-19.736h65.528c3.827 0 6.93-3.216 6.93-7.183V74.484c0-3.967-3.102-7.182-6.93-7.182z" class="F"/><path d="M346.217 74.482v125.26c0 3.966-2.763 7.182-6.172 7.182h-4.994c3.414 0 6.174-3.216 6.174-7.182V74.482c0-3.967-2.76-7.18-6.174-7.18h4.994c3.41 0 6.172 3.213 6.172 7.18z" class="H"/><path d="M332.067 84.688v105.27c0 3.73-2.915 6.75-6.513 6.75H177.382c-3.598 0-6.513-3.022-6.513-6.75V84.688c0-3.73 2.915-6.75 6.513-6.75h148.172c3.598 0 6.513 3.02 6.513 6.75z" class="I"/><path d="M325.287 86.286v102.932c0 1.432-1.616 2.602-3.6 2.602h-141.94c-1.974 0-3.6-1.17-3.6-2.602V86.286c0-1.43 1.616-2.605 3.6-2.605h141.94c1.974 0 3.6 1.173 3.6 2.605" fill="#a8a1e2"/><path d="M276.077 226.6h-3.494v-19.736h3.494V226.6z" class="H"/><path d="M251.142 171.9z" fill="#242c37"/><path d="M283.997 235.383h-62.234c-1.356 0-2.458-1.14-2.458-2.548v-4.554c0-1.407 1.102-2.548 2.458-2.548h62.234c1.357 0 2.457 1.14 2.457 2.548v4.554c0 1.407-1.1 2.548-2.457 2.548z" class="H"/><path d="M281.365 235.383H220.58c-1.358 0-2.458-1.14-2.458-2.548v-4.554c0-1.407 1.1-2.548 2.458-2.548h60.784c1.358 0 2.458 1.14 2.458 2.548v4.554c0 1.407-1.1 2.548-2.458 2.548z" class="D"/><path d="M259.9 245.01c0 .62-.485 1.123-1.083 1.123s-1.083-.504-1.083-1.123.484-1.123 1.083-1.123 1.083.502 1.083 1.123z" class="B"/><path d="M308.906 302.012H198.52c-7.29-7.346-8.08-16.75 0-22.283h110.387v2.667h-3.498v16.632h3.498v2.984" class="G"/><path d="M305.41 299.028H200.585c-5.05-3.684-5.196-13.255 0-16.632H305.41v16.632z" class="B"/><path d="M200.66 299.028h-.076c-2.542-1.856-3.844-5.21-3.84-8.51.002-3.25 1.264-6.45 3.84-8.123H305.41v3.1H203.247c-4.073 2.646-4.863 9.09-2.586 13.532" class="E"/><path d="M301.076 321.118h3.498v2.982H194.187c-5.055-5.093-6.984-11.17-5.002-16.263.876-2.256 2.52-4.32 5.002-6.02h110.387v2.666h-3.498v16.634" fill="#383860"/><path d="M317.772 324.1H207.384c-7.29-7.346-8.08-16.75 0-22.283h110.388v2.667l-3.498.002v16.632h3.498v2.982z" class="J"/><path d="M314.274 321.118H209.452c-5.05-3.686-5.196-13.258 0-16.632h104.822v16.632z" class="B"/><path d="M209.526 321.118h-.074c-2.543-1.858-3.845-5.21-3.843-8.51.002-3.25 1.264-6.45 3.843-8.123h104.822v3.098h-102.16c-4.072 2.646-4.862 9.093-2.587 13.534z" class="E"/><path d="M304.573 257.615H194.186c-7.29-7.345-8.08-16.75 0-22.28h110.387V238h-3.498v16.632h3.498v2.982" class="G"/><path d="M317.772 257.616H207.384c-7.29-7.345-8.08-16.75 0-22.282h110.388V238h-3.498v16.632h3.498v2.983z" class="K"/><path d="M314.274 254.633H209.452c-5.05-3.684-5.196-13.257 0-16.632h104.822v16.632" class="B"/><path d="M209.526 254.633h-.074c-2.543-1.856-3.845-5.21-3.843-8.51.002-3.25 1.264-6.45 3.843-8.123h104.822v3.1h-102.16c-4.072 2.644-4.862 9.09-2.587 13.532" class="E"/><path d="M314.33 279.86H200.214c-2.95 0-5.342-2.48-5.342-5.538v-11.488c0-3.06 2.39-5.538 5.342-5.538H314.21c.908 0 1.643.764 1.643 1.705v19.28c0 .873-.683 1.58-1.523 1.58z" fill="#383860"/><path d="M223.968 279.86h-10.38v-22.564h10.38v22.564z" class="J"/><path d="M299.584 318.15h-72.66c-.348 0-.632-.294-.632-.653v-.347c0-.36.284-.654.632-.654h72.66c.346 0 .63.294.63.654v.347c0 .36-.283.653-.63.653zm-10.354-4.458h-72.66c-.346 0-.63-.294-.63-.654v-.472c0-.36.285-.655.63-.655h72.66c.346 0 .63.294.63.655v.472c0 .36-.284.654-.63.654m7.042-63.956h-72.66c-.347 0-.63-.294-.63-.653v-.474c0-.36.282-.653.63-.653h72.66c.346 0 .63.294.63.653v.474c0 .36-.283.653-.63.653m1.618 41.084h-72.66c-.346 0-.63-.294-.63-.653v-.474c0-.36.284-.653.63-.653h72.658c.348 0 .632.294.632.653v.474c0 .36-.284.653-.632.653z" class="L"/><path d="M152.296 0l50.192 4.05c3.402 0 6.162 2.86 6.162 6.388l-3.908 25.495c0 3.527-2.76 6.386-6.162 6.386l-2.37.152s-1.406 5.498 1.353 8.356c0 0-8.216-2.058-9.543-7.833l-31.817 2.027c-3.403 0-6.16-2.86-6.16-6.385l-3.91-32.248c0-3.527 2.76-6.388 6.162-6.388" class="F"/><path d="M158.356 16.984c0 .723.567 1.3 1.264 1.3h35.545c.698 0 1.262-.587 1.262-1.3s-.564-1.3-1.262-1.3H159.62c-.697 0-1.264.587-1.264 1.3zm0 5.526c0 .724.566 1.312 1.264 1.312h35.545c.697 0 1.262-.588 1.262-1.312s-.565-1.3-1.262-1.3H159.62c-.698 0-1.264.588-1.264 1.3zm0 5.526c0 .725.567 1.312 1.264 1.312h35.544c.697 0 1.263-.587 1.263-1.312s-.566-1.3-1.263-1.3H159.62c-.697 0-1.264.587-1.264 1.3z" class="I"/><path d="M126.76 245.562l10.037 19.683-13.564-1.125 3.527-18.558" fill="#6f5dc6"/><path d="M106.096 211.925c-.107.008-.217.002-.324.006a7.85 7.85 0 0 0-.878.094 9.94 9.94 0 0 0-1.277.298 9.5 9.5 0 0 0-1.52.619 9.11 9.11 0 0 0-1.61 1.055 9.55 9.55 0 0 0-1.544 1.605 11.16 11.16 0 0 0-1.323 2.275c-.43.976-.735 2.007-.948 3.055-.264 1.3-.388 2.63-.418 3.957l.016 1.45c.003.278.016.547-.064.813-.127.423-.335.82-.6 1.17-.375.494-.867.882-1.416 1.146-1.83.882-7.78 2.6-8.29 10.7s-.85 10.05-3.742 11.637-2.04 5.818.85 7.756 47.792-1.056 47.792-1.056 4.593-8.023-1.7-14.194-2.722-7.756-3.827-12.693-5.273-5.29-5.358-7.67-.34-12.958-13.82-12.033" class="C"/><path d="M118.073 233.466c-1.4 5.08-5.353 4.304-10.082 2.8s-7.43-6.838-6.032-11.92 6.364-7.984 11.093-6.48 6.418 10.518 5.02 15.6z" class="M"/><path d="M109.12 215.64s3.536 6.24-2.706 9.56-4.498 8.68-4.498 8.68-3.43-1.497-2.707-7.482-1.083-7.673 3.25-9.356 6.662-1.403 6.662-1.403" class="C"/><path d="M113.26 235.38s-1.18 4.068.403 5.2-7.115.9-7.115.9-.702-4.85.752-7.06c1.458-2.218 5.96.98 5.96.98m-9.36-4.034c0 .768-.6 1.4-1.34 1.4s-1.34-.62-1.34-1.4.6-1.4 1.34-1.4 1.34.623 1.34 1.4z" class="M"/><path d="M109.044 227.907c0 .433-.338.784-.756.784s-.756-.35-.756-.784.34-.784.756-.784.756.35.756.784zm7.07-3.947c0 .413-.324.75-.724.75s-.724-.337-.724-.75.324-.75.724-.75.724.335.724.75zm-7.378 1.836c.002.03-.98.323-1.076.36-.563.2-1.153.44-1.57.917-.18.206-.293.458-.395.717-.096.24-.174.574-.346.762-.024-.08-.013-.174-.007-.258.034-.46.062-.945.2-1.382.194-.6.8-1.135 1.306-1.432.5-.296 1.82-.688 1.886.317zm4.402-2.163c.025.017.756-.724.833-.792.455-.404.94-.82 1.544-.96.26-.06.53-.038.796-.002.25.03.568.127.8.064-.055-.06-.14-.098-.213-.133-.402-.198-.82-.412-1.258-.504-.606-.125-1.34.153-1.846.47-.5.313-1.477 1.3-.666 1.858m-15.747-3.44l-1.1 4.03-.395 2.05-.084.518-.04.258-.067.283c-.123.376-.38.676-.654.905s-.585.408-.896.562l-.947.4-.958.355-.478.172-.46.192c-.602.286-1.16.674-1.684 1.105s-1.017.912-1.464 1.427h-.002c-.027.03-.072.033-.102.006s-.032-.075-.007-.104c.442-.54.922-1.04 1.445-1.495s1.1-.86 1.7-1.172l.477-.2.476-.18.945-.37.916-.417c.296-.153.582-.325.826-.537s.447-.466.536-.76l.05-.228.04-.26.083-.52.393-2.07.503-2.046.612-2c.03-.1.122-.137.2-.107s.132.125.105.215" class="C"/><path d="M106.1 238.906c1.878.467 5.62 1.35 7.806 1.513.598.045 1.058.563 1.058 1.184v.778s10.698 1.027 11.796 3.18 2.452 37.46 2.452 37.46H92.538l2.568-37.46s4.275-1.7 9.64-2.234l.152-3.485c.028-.635.605-1.085 1.2-.937" fill="#755ccd"/><path d="M108.88 275.374l-3.546 6.142c-.297.518-8.454-1.695-12.504-2.787l-2.122-.56-7.31-1.672c-1.87-.43-4.083-.646-5.656-1.87-.93-.727-1.6-1.88-1.536-3.09.062-1.026.64-1.93 1.2-2.782 5.44-8.34 12.005-15.033 17.697-23.193l-1.242 18.144c-.962 1.168-3.662 4.584-3.868 4.582l3.464 1.31 15.423 5.775" fill="#6f5dc6"/><path d="M113.47 281.14h-7.855l-.005-.104 2.894-5.015.058.01c2.097.47 4.1 1.374 4.434 2.922l.474 2.187" class="M"/><g fill-rule="evenodd"><path d="M147.57 283.02h-34.195c-.977 0-1.567-.827-1.313-1.84l5.76-22.96c.254-1.013 1.26-1.84 2.238-1.84h34.195c.976 0 1.568.827 1.313 1.84l-5.76 22.96c-.254 1.013-1.26 1.84-2.238 1.84z" fill="url(#A)"/><path d="M116.336 283.02h-15.598c-.805 0-1.462-.68-1.462-1.515s.657-1.514 1.462-1.514h15.598c.805 0 1.463.68 1.463 1.514s-.658 1.515-1.463 1.515z" fill="url(#B)"/><path d="M148.484 283.02H115.3c-.977 0-1.568-.827-1.314-1.84l5.76-22.96c.254-1.013 1.26-1.84 2.238-1.84h33.185c.977 0 1.568.827 1.314 1.84l-5.76 22.96c-.253 1.013-1.26 1.84-2.238 1.84z" class="N"/></g><path d="M113.117 229.8c-.035 0-.07-.016-.094-.045-.045-.055-.038-.138.014-.183.067-.056.138-.105.206-.154a1.58 1.58 0 0 0 .226-.177c.165-.166.16-.317-.013-.503l-.25-.257c-.28-.282-.42-.425-1.1-1.417a.13.13 0 0 1 .03-.178.12.12 0 0 1 .173.031c.657.972.792 1.1 1.062 1.38l.253.262c.267.284.27.6.01.866-.082.083-.174.145-.262.208l-.184.135c-.023.022-.05.032-.08.032m.198 3.856c-.8 0-1.432-.25-1.443-.254a.15.15 0 0 1-.079-.19.14.14 0 0 1 .183-.081c.02.008 2.148.864 3.566-.737.053-.06.142-.064.2-.01s.06.147.008.205c-.75.847-1.675 1.066-2.434 1.066m12.028 1.58c.058.766.215 1.525.478 2.244a8.1 8.1 0 0 0 1.08 2.012c.907 1.23 2.134 2.197 3.472 2.922.095.05.132.17.082.27a.19.19 0 0 1-.257.088c-1.4-.717-2.688-1.693-3.672-2.977-.5-.64-.897-1.354-1.2-2.118a9.06 9.06 0 0 1-.557-2.39.29.29 0 0 1 .254-.322c.156-.015.295.102.3.263m-17.047-17.45s9.618 2.307 10.5 10.306c0 0 .952-13.208-10.5-10.306z" class="C"/><path d="M162.44 310.322H54.286c-7.144-9.79-7.916-22.32 0-29.696H162.44v3.555h-3.426v22.167h3.426v3.974z" class="G"/><path d="M175.373 310.322H67.22c-7.144-9.79-7.916-22.32 0-29.696h108.154v3.555h-3.428v22.167h3.428v3.974z" class="K"/><path d="M171.945 306.348h-102.7c-4.947-4.91-5.092-17.67 0-22.167h102.7v22.167z" class="B"/><path d="M69.318 306.348h-.073c-2.493-2.476-3.767-6.942-3.765-11.34.002-4.33 1.24-8.594 3.765-10.826h102.7v4.13H71.85c-3.99 3.526-4.763 12.117-2.533 18.036" class="E"/><path d="M158.547 296.25H87.143c-.494 0-.898-.42-.898-.93v-.392c0-.5.404-.93.898-.93h71.404c.494 0 .898.42.898.93v.392c0 .512-.404.93-.898.93zm-10.752 7.144H76.4c-.494 0-.898-.417-.898-.93v-.392c0-.513.404-.93.898-.93h71.404c.494 0 .898.417.898.93v.392c0 .512-.404.93-.898.93z" class="L"/><path d="M133.282 172.914l-22.935 1.85c-1.554 0-2.815 1.308-2.815 2.92l1.786 11.65c0 1.613 1.26 2.918 2.815 2.918l1.083.07s.642 2.513-.618 3.818c0 0 3.754-.94 4.36-3.58l14.54.926c1.554 0 2.815-1.307 2.815-2.918l1.786-14.735c0-1.612-1.26-2.92-2.816-2.92" class="F"/><path d="M117.858 183.825c0 .874-.684 1.582-1.527 1.582s-1.527-.708-1.527-1.582.683-1.583 1.527-1.583 1.527.7 1.527 1.583zm4.828-.22c0 .874-.684 1.583-1.527 1.583s-1.527-.7-1.527-1.583.683-1.584 1.527-1.584 1.527.7 1.527 1.584zm4.827-.22c0 .874-.683 1.584-1.527 1.584s-1.527-.7-1.527-1.584.684-1.583 1.527-1.583 1.527.7 1.527 1.583z" class="B"/><g class="C"><path d="M415.117 226.24c-3.926-6.357-7.86-20.15-7.86-20.15l-6.377-.655v-.33l-.584.165-.583-.165v.33l-10.275 2.767s-.343 12-4.27 18.355c-3.88 6.283-1.093 14.13 15.13 12.973 16.225 1.156 18.698-7 14.82-13.29"/><path d="M407.726 209.154c0 5.468-4.104 9.9-9.166 9.9s-9.167-4.433-9.167-9.9 4.104-9.185 9.167-9.185 9.166 3.72 9.166 9.185z"/></g><path d="M398.255 203.183c-7.923-.14-7.24 7.12-7.24 7.12s-.306 3.84.793 7.096c.556 1.64 1.266 2.523 3.5 4.118l-.473 6.482c-.09 1.452.032 2.566.032 2.566s2.76.127 7.3-.12l-.1-1.156-.697-1.505-.018-2.414-.163-3.718.354-.327c1.615-1.24 2.738-2.573 3.307-3.9.716-1.662.868-4.247.868-7.122 0 0 .473-6.98-7.445-7.12" class="O"/><g class="C"><path d="M391.926 203.224s2.756 5.787 14.664 6.076c0 0 1.287-5.478-4.816-7.655s-9.848 1.58-9.848 1.58z"/><path d="M390.235 210.263s3.675-1.118 4.15-7.413c0 0-3.722.588-4.15 7.413zm5.823.997c-.008.025-.9-.1-1-.106-.53-.04-1.092-.072-1.6.15-.216.096-.395.253-.567.415-.16.153-.335.385-.54.47.008-.073.05-.14.083-.204.182-.347.37-.712.632-1.003.364-.404 1.03-.598 1.55-.645s1.72.117 1.433.923m4.64.04c.01.026.9-.158 1-.17.53-.073 1.084-.143 1.598.045.222.08.408.225.6.376.167.143.357.363.567.433-.014-.07-.056-.137-.096-.198-.204-.333-.4-.686-.7-.958-.385-.38-1.063-.53-1.585-.543s-1.7.23-1.375 1.015"/></g><path d="M392.307 214.438c0 .696-.544 1.258-1.213 1.258s-1.213-.562-1.213-1.258.543-1.258 1.213-1.258 1.213.564 1.213 1.258zm14.553 0c0 .696-.544 1.258-1.213 1.258s-1.215-.562-1.215-1.258.544-1.258 1.215-1.258 1.213.564 1.213 1.258z" class="O"/><path d="M394.416 213.618c-.798 0-1.37-.464-1.374-.472-.102-.082-.117-.235-.037-.337a.23.23 0 0 1 .328-.037c.04.035 1.015.817 2.15-.01.104-.077.247-.05.322.06s.05.258-.054.335c-.476.347-.933.462-1.335.462zm7.644.002c-.8 0-1.367-.465-1.378-.473-.098-.082-.113-.235-.034-.337s.227-.12.325-.037c.042.033 1.018.82 2.153-.01.105-.076.248-.05.322.06s.05.26-.055.335c-.476.347-.934.463-1.333.463z" class="C"/><path d="M449.672 299.344H332.576c-7.738-7.794-8.572-17.77 0-23.638h117.096v2.83h-3.712v17.644h3.712v3.165z" class="G"/><path d="M463.67 299.344H346.575c-7.735-7.794-8.573-17.77 0-23.638H463.67v2.83h-3.71v17.643h3.71v3.165" class="K"/><path d="M459.964 296.178H348.77c-5.353-3.91-5.515-14.063 0-17.643h111.194v17.643z" class="B"/><path d="M348.848 296.178h-.078c-2.698-1.97-4.08-5.526-4.076-9.026 0-3.447 1.342-6.84 4.076-8.617h111.194v3.29h-108.37c-4.32 2.804-5.16 9.643-2.745 14.354z" class="E"/><path d="M460.017 322.938h-121.05c-3.13 0-5.666-2.63-5.666-5.873v-12.187c0-3.243 2.536-5.874 5.666-5.874H459.89c.963 0 1.743.8 1.743 1.807v20.452c0 .925-.723 1.675-1.617 1.675" fill="#f14957"/><path d="M364.17 322.938h-11.01v-23.934h11.01v23.934" fill="#df313a"/><path d="M448.458 291.793h-89.97c-.345 0-.63-.294-.63-.653v-.737c0-.358.284-.652.63-.652h89.97c.345 0 .628.294.628.652v.737c0 .36-.283.653-.628.653z" class="L"/><path d="M385.618 228.918c-4.088.606-13.878 24.432-10.956 29.884s19 11.8 19 11.8l-.878-9.4s-11.005-4.847-10.13-7.874 7.2-14.337 7.2-14.337l-4.237-10.095m38.357 29.884c-2.924 5.45-18.995 11.8-18.995 11.8l.878-9.4s11.005-4.846 10.13-7.874c-.27-.937-1.062-2.665-2.03-4.605-2.157-4.335-5.177-9.732-5.177-9.732l4.227-10.093c.234.034.488.146.758.326 4.417 2.955 12.96 24.416 10.208 29.556" fill="#df313a"/><path d="M421.92 276.464h-42.585c-1.255 0-2.27-1.052-2.27-2.35v-23.017c0-1.298 1.015-2.352 2.27-2.352h40.316c1.254 0 2.27 1.054 2.27 2.352v25.368zm-25.427 14.8s-.796.782-3.13 1.8c-2.402 1.046-7.15 2.994-6.44 5.14.957 2.9 4.308 2.68 6.528 1.985 4.815-1.5 9.826-5.018 9.826-5.018l-6.784-3.908" class="N"/><path d="M402.248 283.717c8.145-6.16 12.4-10.714 21.54-16.47 2.176-1.37 3.664-1.78 7.44-.245 3.21 1.307 2.868 7.035 1.114 9.422-5.26 7.167-25.526 17.06-29.62 18.562-1.766.645-8.012-4.807-5.476-7.415 1.25-1.286 2.803-2.187 5.005-3.853" fill="#9794d3"/><path d="M398.495 295.585s1.983 2.72 4.294 4.572c2.76 2.212 4.664 2.943 6.904 1.863 3.25-1.564.262-4.87-2.262-7.488-3.737-3.874-6.412-5.48-6.412-5.48l-2.524 6.534z" class="N"/><path d="M398.91 287.493l3.473 2.975s1.205 1.015 1.816 2.195c1.134 2.193-2.78 6.643-5.32 4.027l-4.81-5.438 4.84-3.76" class="O"/><path d="M388.55 292.193c-9.464-4.94-15.268-6.714-21.352-15.6-1.546-2.263-2.168-6.008-1.567-7.854.74-2.277 3.95-3.64 7.72-2.706 3.168.784 24.427 18.048 27.746 21.3 1.43 1.402-2.928 8.417-6.498 7.208-1.76-.594-3.488-1.013-6.05-2.35" fill="#9794d3"/><g fill="#f14957"><path d="M414.77 248.744h-29.994l.84-19.824h27.39c.233.033.488.145.757.325l1.007 19.5"/><path d="M401.094 224.513c.528 0 .785-.028.977.48.217.563.472 1.62 2.02 1.915 2.673.51 7.48.7 9.463 2.338.2.166.274.446.195.7l-1.172 3.767c-.08.262-.312.443-.582.45l-24.685.67c-.306.007-.572-.212-.634-.522l-.896-4.532c-.07-.353.146-.696.487-.77 1.41-.305 4.936-1.487 7.422-2.09.26-.062.403-.23.433-.505l.257-1.32a.64.64 0 0 1 .626-.578h6.09"/></g><path d="M388.72 217.27c.127.098.1.168.1.237l-.05.203-.117.404-.273.782-.624 1.513-1.315 2.985-.743 1.454-.42.707-.442.678c-.567.898-1.1 1.85-1.265 2.906h0c-.01.053-.058.1-.1.08s-.085-.053-.08-.104c.044-.56.212-1.1.427-1.607s.472-.992.748-1.462l.427-.7.388-.698.7-1.454 1.275-2.982.605-1.5.258-.757.107-.382.05-.192c.007-.065.02-.127.176-.163h.005a.22.22 0 0 1 .182.04m9.81 1.757c-.7 0-1.24-.233-1.25-.237-.082-.035-.12-.133-.084-.217s.13-.126.2-.1 1.77.755 2.923-.6a.16.16 0 0 1 .23-.016c.07.06.07.165.013.236-.628.74-1.4.934-2.04.934m-.348-4.335c-.068-.01-.102-.06-.096-.116a7.48 7.48 0 0 0 .1-1.58c-.003-.055.04-.098.094-.1s.094.04.094.096c.018.72-.02 1.125-.1 1.617-.008.047-.047.082-.092.082z" class="C"/><path d="M406.297 173.438c0-4.415-3.6-7.958-7.923-7.65-3.606.258-6.545 3.254-6.845 6.987-.168 2.063.452 3.972 1.586 5.442 1.126 1.46 1.786 3.247 1.786 5.12v1.687c0 1.027.803 1.858 1.79 1.858h4.412c1 0 1.79-.83 1.79-1.858v-1.69c0-1.868.658-3.653 1.784-5.113 1.014-1.31 1.618-2.973 1.618-4.784" class="F"/><path d="M401.846 190.982h-5.893c-.362 0-.655-.304-.655-.678v-1.807c0-.374.293-.676.655-.676h5.893c.36 0 .654.302.654.676v1.807c0 .374-.293.678-.654.678z" class="J"/><path d="M399.213 170.09h-.003.003zm.055 13.73a.37.37 0 0 1-.289-.139c-.732-.894-1.478-2.828-.97-4.13.165-.427.456-.767.716-1.064.23-.267.45-.52.565-.804.373-.933-.194-2.058-.696-3.05l-.344-.71c-.234-.526-.538-1.32-.454-2.154.07-.745.522-1.613 1.365-1.868.095-.03.197-.017.287.033s.152.134.18.234.018.206-.032.298-.128.158-.226.188c-.422.127-.77.63-.824 1.193-.063.645.192 1.303.39 1.744l.328.678c.578 1.145 1.23 2.444.72 3.714-.163.4-.447.737-.696 1.027-.228.264-.465.535-.58.835-.37.948.254 2.604.845 3.33.066.08.1.18.09.285s-.055.2-.13.268c-.068.06-.155.092-.244.092" class="I"/><g class="P"><path d="M300.443 136.31s3.088-4.992 4.2-7.686 5.6-12.03 7.02-11.052-2.58 8.812-2.58 8.812 3.536-9.805 5.446-9.262-3.267 9.676-3.267 9.676 4.26-8.607 5.376-7.777.237 2.748-3.427 9.118c0 0 3.126-5.468 4.307-4.187s-2.63 6.3-4.013 7.485-7.922 6.193-9.486 8.306c0 0-3.505-1.178-3.577-3.433"/><path d="M306.738 129.878s4.69-2.57 5.996-1.576-.013 2.034-4.873 3.547c0 0-1.717 2.102-2.81 2.267 0 0-1.352-2.883 1.688-4.238z"/></g><path d="M306.968 138.94l-7.118-4.965s-13.176 20.055-13.933 19.447-7.043-21.707-11.813-23.86c0 0-2.4 1.663-3.786 6.53-.973 3.444-1.114 8.994-.905 14.466 0 0 12.415 17.735 16.807 17.152s20.748-28.77 20.748-28.77" class="Q"/><path d="M209.437 132.004s-1.817-3.48-1.817-4.497.53-2.11.568-3.498 1.97-4.6 1.553-5.513-1.59-.694-2.727 1.497-.757 3.542-1.666 2.92-3.142-3.322-3.86-4.453-2.992-3.36-3.597-2.994-.776.95 3.248 6.422c0 0-4.558-6.588-5.898-5.4-.938.83 3.513 5.653 4.157 6.42 0 0-4.122-4.986-5.35-3.8-1.154 1.106 4.515 5.258 4.515 5.258s-4.23-3.232-4.8-2.282 1.893 3.048 4.316 4.362 3.046 1.66 3.662 2.538 2.13 4.38 2.13 4.38 3.862.912 5.565-1.35z" class="P"/><path d="M260.42 109.452l-8.616 1.267s-.493 15.516-7.308 16.758c0 0-2.423 25.41 6.59 23.293s13.856-24.17 13.856-24.17-7.944-2.12-4.52-17.148z" fill="#f57e5d"/><path d="M261.095 97.89s-9.297-3.69-12.99-1.45-3.39 9.97-3.94 13.514c-.86 5.537 1.615 10.942 3.118 11.47s13.127-2.505 14.972-10.614 1.025-11.536-1.162-12.92z" class="P"/><path d="M259.42 111.98s-3.332 1.78-5.485 1.928-3.48-2.315-6.512-1.682l-3.418.74s-1.606 10.484 2.495 10.187 11.075-4.45 13.536-7.267c0 0 2.564 0 4.205-2.422s3.844-9.938 2.408-14.487-7.792-6.328-10.46-4.202c0 0-2.034-1.63-5.896-1.434s-4.663 2.175-6.304 3.362-3.246 1.186-3.793.164c0 0-1.163 1.88.923 5.11s4.49 2.736 7.74 2 7.28-3.823 7.28-3.823-.17 6.46 1.505 8.834c0 0 .614.264.853 0s.07-3.626 1.95-2.868.65 4.58-1.026 5.85" class="D"/><g class="B"><path d="M246.704 115.094s2.462.824 5.128.23c0 0-1.513 1.92-3.18 1.65-1.87-.306-1.948-1.88-1.948-1.88"/><use xlink:href="#C"/></g><use xlink:href="#C" fill="#6b8ea1"/><path d="M252.883 133.173s-4.28 22.353-3.92 22.78c.235-.286 2.842 6.062 4.348 0 1.17-4.716 1.314-22.267 1.5-22.48 0 0 2.236-2.32 3.542-3.464.857-.75 1.687-1.518 2.487-2.313a13.06 13.06 0 0 0 .588-1.128l-.35.8c.49-.923 1.06-1.8 1.685-2.605a3.15 3.15 0 0 0-.411-.499l-7.972 4.16-6.198-3.588s-.184.538-.447 1.478a31.87 31.87 0 0 1 1.749 2.609c.652 1.087 3.397 4.25 3.397 4.25" class="D"/><path d="M248.184 124.835s-8.6 1.607-11.94 2.672c0 0 1.06 19.175-2.27 23.993l-1.515 41.767s18.854-.22 19.46-22.855l.568-23.658-4.302-21.92z" class="Q"/><path d="M250.85 149.366c-.007.386-.337.692-.738.686a.71.71 0 0 1-.709-.711c.006-.387.337-.693.737-.686a.71.71 0 0 1 .71.711zm-.463 6.857c-.008.385-.338.693-.737.685a.71.71 0 0 1-.711-.711c.008-.386.338-.692.737-.685s.72.326.7.7zm-.462 6.857c-.007.385-.337.7-.737.685s-.718-.326-.7-.7.338-.693.738-.685a.71.71 0 0 1 .71.711zm-.462 6.856c-.007.386-.338.692-.738.686s-.717-.326-.7-.7a.72.72 0 0 1 .738-.686c.4.007.718.326.7.7z" class="D"/><path d="M274.104 129.564l-11.75-5.3-9.868 22.5-2.1 26.272s.244 23.093 20.7 20.24l-1.663-42.372s-.155-15.52 4.7-21.33m-64.303 0l-8.06 3.098s11.03 38.435 17.4 35.062 14.8-15.348 14.8-15.348 2.35-3.756 3.27-9.565c.815-5.134.3-12.172-.968-15.304 0 0-5.604 3.3-10.298 12.326s-6.13 11.626-6.55 11.062-9.597-21.33-9.597-21.33" class="Q"/><path d="M254.382 127.842l-5.544-4.076-1.34 1.2 2.147 7.32 4.736-3.42 4.266 3.846 4.117-8.262-2.068-2.082-6.315 5.475" class="B"/><path d="M254.566 160.427l10.126 30.282 1.582-.56-10.126-30.283-1.582.56z" class="D"/><defs><linearGradient id="A" x1="155.629" y1="269.701" x2="112.004" y2="269.701" gradientUnits="userSpaceOnUse"><stop stop-color="#1b1464"/><stop offset="1" stop-color="#1b1464"/></linearGradient><linearGradient id="B" x1="117.799" y1="281.506" x2="99.276" y2="281.506" gradientUnits="userSpaceOnUse"><stop stop-color="#1b1464"/><stop offset="1" stop-color="#1b1464"/></linearGradient><path id="C" d="M262.354 124.265l-7.972 4.158-6.198-3.588s-3.157 9.14-2.248 19.51 2.65 17.816 9.92 8.178 9.97-24.9 6.5-28.257z"/></defs></svg>