<svg xmlns="http://www.w3.org/2000/svg" width="492" height="494" fill="none" xmlns:v="https://vecta.io/nano"><path d="M250.64 493.62c-10.813.002-19.314-2.05-24.425-6.6-8.5-7.595-9.584-19.098-8.125-31.172 0 0 162.046-113.18 99.98-133.407-42.516-13.856-51.57-23.52-37.972-63.272 9.625-28.133 47.17-36.88 25.96-99.236 1.448-.387-30.708 152.85-29.29 152.076 0 0 92.876-110.367 89.687-121-.03-.125-105.795 156.505-120.577 145.948-8.048-6.188 1.285-219.753 7.762-239.13C186.373 299.327 221.858 33.103 261 76c-47.656 2.117 316.088 292.1 105.724 171-9.444 21.393-19.936-98.92 0-73 32.926 42.81-55.704 277.078-120.845 296.62-25.86 52.964-28.584-47.62-27.8-14.782-83.214 0-86.136-36.62-90.362-36.62-90.875 0-145.906-63.712-92.663-119.893 26.65-28.122 112.913-84.975 57.78-91.003-90.717-9.92-149.37-53.727-8.4-135.637 0 0 117.634-72.687 201.008-72.687 17.707 0 33.854 3.273 47.018 11.22 68.83 41.545-29.414 147.952 1.278 147.952 2.816 0 6.712-.892 11.928-2.815 15.803-5.824 32.403-8.585 48.5-8.585 49.57 0 94.46 26.152 97.374 69.53 5.176 77.03-128.426 135.83-109.76 135.83.532 0 1.188-.048 1.976-.145 9.24-1.134 17.868-1.696 25.74-1.696 44.026 0 64.37 17.616 35.166 51.584-37.546 43.677-142.238 90.742-194.033 90.746z" fill="#d3d3d3"/><path d="M202.076 152.15l-.033-.001c-1.455-.156-2.92-.237-4.355-.237-.183 0-.33-.15-.33-.33a.33.33 0 0 1 .331-.329c1.46.001 2.948.08 4.423.24a.33.33 0 0 1 .294.364.33.33 0 0 1-.329.293zm-13.117.68c-.152 0-.3-.105-.322-.26a.33.33 0 0 1 .254-.392c1.34-.29 2.8-.52 4.374-.687.194-.03.342.114.363.292s-.11.344-.293.363l-4.307.676-.07.008zm21.725 1.064l-.09-.013-4.244-1.05c-.178-.036-.294-.21-.256-.39s.22-.286.4-.256l4.3 1.062c.178.05.278.232.228.407a.33.33 0 0 1-.317.24zm-29.84 2.16l-.275-.145a.33.33 0 0 1 .092-.459c1.178-.786 2.514-1.468 3.967-2.028.175-.064.364.02.425.19.067.17-.018.36-.188.425-1.41.542-2.7 1.202-3.838 1.962l-.183.054zm38.185.623l-.112-.02-4.14-1.463c-.173-.058-.265-.245-.205-.418s.244-.266.416-.207l4.152 1.468c.172.06.26.25.197.423-.046.134-.173.217-.308.217zm56.216 2.087c-.172 0-.317-.132-.328-.308a.33.33 0 0 1 .307-.351l4.416-.168c.18 0 .33.147.332.328a.33.33 0 0 1-.329.332l-4.376.167h-.022zm13.154.58l-.066-.006c-1.35-.27-2.805-.47-4.32-.6a.33.33 0 0 1-.302-.356c.013-.18.157-.34.354-.302 1.543.123 3.02.326 4.398.602.178.034.293.21.26.388a.33.33 0 0 1-.324.264zm-61.062.212l-.098-.015-4.183-1.395a.33.33 0 1 1 .219-.624l4.16 1.4a.33.33 0 0 1-.099.644zm39.158.122a.33.33 0 0 1-.327-.286c-.023-.18.104-.346.284-.37l4.38-.527c.18-.028.344.112.363.292a.33.33 0 0 1-.295.363l-4.363.527-.042.002zm-8.716 1.207c-.164 0-.306-.12-.327-.284a.33.33 0 0 1 .281-.372l3.104-.432 1.255-.176c.176-.02.345.1.37.28s-.1.348-.282.372l-1.252.176-3.105.433-.045.003zm-21.906.75l-.053-.006-4.33-.893a.33.33 0 0 1-.241-.399c.044-.177.213-.282.4-.24l4.28.883a.33.33 0 0 1 .273.38c-.028.16-.168.276-.327.276zm13.163.254a.33.33 0 0 1-.329-.302.33.33 0 0 1 .301-.355l4.367-.444c.182-.027.346.108.368.29s-.1.344-.29.366l-4.416.446zm-6.17.275a51.24 51.24 0 0 1-2.633-.067c-.183-.01-.323-.165-.312-.346a.32.32 0 0 1 .345-.314l2.602.067h.062l1.708-.024c.176.013.332.14.34.32a.33.33 0 0 1-.321.339l-1.8.024zm53.726.244l-.17-.047a23.32 23.32 0 0 0-3.908-1.858c-.172-.062-.26-.252-.196-.423s.26-.257.423-.196c1.43.525 2.78 1.17 4.02 1.912.157.093.207.296.113.452l-.282.16zm-121.495.16l-.153-.037a.33.33 0 0 1-.139-.444c.728-1.398 1.547-2.606 2.496-3.695a.33.33 0 0 1 .465-.032c.138.12.15.328.034.465-.918 1.05-1.707 2.216-2.41 3.567l-.292.176zm127.957 5.713l-.264-.132c-.88-1.177-1.857-2.257-2.9-3.21a.33.33 0 1 1 .447-.488 23.96 23.96 0 0 1 2.984 3.301c.11.147.078.354-.067.463l-.2.065zm-130.78 2.588l-.07-.008c-.18-.038-.29-.214-.252-.392l1.15-4.277c.056-.172.243-.263.417-.21.172.058.267.243.21.418-.417 1.27-.787 2.648-1.132 4.212a.33.33 0 0 1-.323.258zm134.915 5.134c-.132 0-.26-.082-.31-.214a35.15 35.15 0 0 0-1.778-3.97.33.33 0 0 1 .138-.446.33.33 0 0 1 .446.139c.666 1.26 1.276 2.623 1.812 4.045.066.17-.02.362-.193.424l-.116.022zm-136.375 3.54l-.048-.003c-.18-.027-.305-.192-.278-.373l.038-.272.606-4.087c.03-.18.18-.31.38-.272a.33.33 0 0 1 .273.379l-.607 4.07-.038.275a.33.33 0 0 1-.326.283zm138.463 4.973a.33.33 0 0 1-.328-.295c-.18-1.706-.41-3.068-.73-4.28-.045-.177.06-.357.236-.404s.358.06.404.236c.33 1.248.566 2.64.748 4.38.02.183-.114.344-.294.364h-.035zm-140.403 3.592l-.11-.02a.33.33 0 0 1-.203-.42c.452-1.286.836-2.658 1.17-4.196.04-.176.22-.3.393-.25.18.038.29.214.252.393a35.62 35.62 0 0 1-1.193 4.272.33.33 0 0 1-.311.22zm141.295 5.16a.33.33 0 0 1-.324-.272c-.276-1.53-.424-3.083-.53-4.4-.016-.18.12-.34.3-.354l.028-.002a.33.33 0 0 1 .33.303l.52 4.336a.33.33 0 0 1-.267.383l-.057.005zm-145.556 2.477l-.21-.076a.33.33 0 0 1-.042-.465c.932-1.116 1.73-2.284 2.444-3.573a.33.33 0 0 1 .446-.13.33.33 0 0 1 .13.45 23.31 23.31 0 0 1-2.514 3.676l-.253.118zm149.072 5.464l-.256-.12-.68-.873a14.48 14.48 0 0 1-1.667-2.932.33.33 0 0 1 .174-.434c.164-.07.36.008.432.175.436 1.02.956 1.937 1.593 2.8l.66.845a.33.33 0 0 1-.045.464l-.21.076zm-155.67.312l-.264-.132a.33.33 0 0 1 .066-.461l.307-.23 2.22-1.674.946-.76c.14-.116.35-.097.464.04s.1.347-.04.464l-.97.78-2.225 1.678-.307.23-.198.065zm162.285 5.44l-.187-.058-3.538-2.667a.33.33 0 0 1-.039-.465c.116-.136.325-.154.464-.038.995.842 2.104 1.676 3.487 2.627a.33.33 0 0 1 .086.459l-.273.142zm-169.015.202l-.228-.09a.33.33 0 0 1-.01-.467c.928-.974 1.97-1.924 3.276-2.99a.33.33 0 1 1 .417.512c-1.285 1.045-2.308 1.98-3.216 2.933l-.24.102zm176.314 4.71l-.195-.064-3.617-2.472a.33.33 0 0 1-.098-.457.33.33 0 0 1 .458-.095l3.648 2.49c.145.108.177.314.07.462l-.266.135zm-181.18 2.564l-.14-.03a.33.33 0 0 1-.16-.437c.656-1.428 1.36-2.7 2.15-3.888.104-.152.306-.196.458-.092a.33.33 0 0 1 .093.457c-.772 1.16-1.46 2.403-2.104 3.8-.053.12-.173.19-.297.19zm187.458 3.533l-.268-.138c-.808-1.138-1.738-2.202-2.85-3.255-.13-.127-.137-.336-.01-.468s.334-.137.467-.01c1.14 1.083 2.1 2.18 2.93 3.35a.33.33 0 0 1-.077.461l-.19.06zm-190.105 4.835l-.065-.005a.33.33 0 0 1-.259-.387c.292-1.483.657-2.93 1.084-4.3.056-.172.245-.276.415-.216s.27.24.217.413c-.42 1.347-.783 2.77-1.068 4.23a.33.33 0 0 1-.324.265zm193.736 3.12a.33.33 0 0 1-.323-.254 21.34 21.34 0 0 0-1.413-4.087.33.33 0 0 1 .161-.437.33.33 0 0 1 .436.161c.638 1.375 1.127 2.793 1.46 4.212a.33.33 0 0 1-.246.397l-.075.008zm-194.67 5.62h-.008c-.182-.005-.326-.157-.322-.34l.29-4.414c.02-.18.192-.3.364-.295a.33.33 0 0 1 .293.363l-.285 4.366c-.007.178-.152.32-.33.32zm194.92 3.115l-.05-.003a.33.33 0 0 1-.276-.377c.2-1.3.302-2.583.302-3.81l-.006-.51a.33.33 0 0 1 .322-.339h.008c.18 0 .324.142.33.322l.007.528c0 1.26-.106 2.576-.312 3.9a.33.33 0 0 1-.327.279zm-194.644 5.676a.33.33 0 0 1-.328-.303l-.264-4.408a.33.33 0 0 1 .32-.341c.163-.02.335.137.34.32l.26 4.373a.33.33 0 0 1-.301.358l-.028.001zm192.313 2.79l-.113-.02c-.17-.063-.257-.252-.195-.424l1.366-4.152c.052-.176.234-.28.408-.227a.33.33 0 0 1 .228.408l-1.384 4.2c-.048.133-.174.216-.3.216zM144.22 249.06c-.16 0-.3-.114-.327-.275l-.636-4.365a.33.33 0 0 1 .285-.369c.176-.017.344.105.368.287l.636 4.34c.028.18-.094.35-.273.38l-.053.003zm187.974 2.25l-.12-.023a.33.33 0 0 1-.186-.427l1.234-3.084.406-1.003c.066-.17.262-.252.428-.18a.33.33 0 0 1 .182.429l-.404 1.003-1.233 3.076c-.05.13-.176.2-.307.2zm-186.3 6.39c-.152 0-.3-.105-.322-.26l-.892-4.316c-.034-.178.082-.352.263-.388.16-.024.35.083.387.262l.886 4.302a.33.33 0 0 1-.25.392l-.072.008zm184.106 2.07h-.03a.33.33 0 0 1-.299-.36l.062-.718c.104-1.198.206-2.436.608-3.625.06-.17.253-.292.425-.243.172.056.28.205.228.377l-.045.118c-.36 1.073-.455 2.217-.556 3.428l-.064.725a.33.33 0 0 1-.33.298z" fill="#adcfd4"/><path d="M277.03 174.367h-39.465c-1.09 0-1.973-.883-1.973-1.974v-25.42c0-1.09.884-1.973 1.973-1.973h39.465c1.1 0 1.974.884 1.974 1.973v25.42c0 1.09-.884 1.974-1.974 1.974z" fill="#71cbcd"/><path d="M277.03 172.028h-39.465V147.34h39.465v24.688z" fill="#d0dfe4"/><path d="M251.41 154.56v12.093l11.772-6.046-11.772-6.047z" fill="#f14957"/><path d="M210.77 189s4.82 14.153 7.638 20.37c15.785 34.81-13.416 30.36-24.522 28.724s-23.752-5.833-23.058-14.81c.472-6.118 4.173-6.8 5.684-8.826s-1.435-5.383-.15-10.402 9.67-6.036 11.33-7.418 5.005-5.218 3.362-12.482-2.34-11.152 2.36-15.882c4.723-4.755 12.09-2.674 12.09-2.674L210.77 189z" fill="#212637"/><path d="M265.2 243.068c-1.003-.777-4.9 1.424-7.708 2.345-1.6.526-4.84.667-7.334.692a26.15 26.15 0 0 1-.556 4.072c1.767.08 3.143.407 4.438.31 1.414-.107 3.97-.453 4.958-.636.927-.172 2.466-.21 3.146.357 3.13 2.606 4.88 2.79 5.3 1.852.065-.148-2.456-2.38-3.288-3.282 1.375 1.237 4.745 3.694 5.455 2.926.534-.58-2.615-3.45-3.944-4.614 1.406 1.2 5.02 4.226 5.894 3.98 2.387-.672-5.358-7.225-6.362-8.002z" fill="#f89a78"/><path d="M278.83 255.687h-39.286v-5.038h39.286v5.038z" fill="#212637"/><path d="M253.253 245.416l-1.377 5.72s-18.1-1.96-24.252-4.82-12.33-17.503-12.33-17.503l4.706-18.45s9.098 24.034 12.276 27.054 20.976 8 20.976 8z" fill="#f14957"/><g fill="#212637"><path d="M326.473 235.43H249.88c-2.038 0-3.69-1.653-3.69-3.692v-46.194a3.69 3.69 0 0 1 3.691-3.691h76.594a3.69 3.69 0 0 1 3.692 3.691v46.194c0 2.04-1.653 3.692-3.692 3.692z"/><path d="M250.557 231.737v-46.194a3.69 3.69 0 0 1 3.692-3.69h-4.37a3.69 3.69 0 0 0-3.691 3.691v46.194a3.69 3.69 0 0 0 3.69 3.692h4.37c-2.038 0-3.692-1.653-3.692-3.692zm37.763 16.923s1.694-16.275-5.72-21.784c0 0-1.696-1.377 1.085-2.967s10.488-3.416 13.1 1.35 4.37 13.1 3.26 23.4H288.32z"/></g><path d="M185.335 379.005h-3.475v-91.532h3.475v91.532zm64.328 0h-3.475v-91.532h3.475v91.532z" fill="#adcfd4"/><g fill="#212637"><path d="M258.985 291.02h-86.448v-8.95h86.448v8.95zm-39.522 47.024s-8.818 7.683-8.772 8.797 15.093 26.687 17.714 26.765 3.23-4.353 2.806-6.036-5.255-26.07-5.255-26.07l-6.493-3.455z"/><path d="M206.656 342.796s-8.58 7.947-8.5 9.06 15.9 26.22 18.512 26.22 3.098-4.45 2.622-6.12-6.038-25.9-6.038-25.9l-6.595-3.26z"/></g><path d="M212.205 255.022a405.62 405.62 0 0 0 23.975 10.309c8.14 3.174 19.51 7.333 19.14 16.065-.27 6.368-25.903 67.735-25.903 67.735l-11.653-5.827s21.328-51.652 20.957-55.16-2.85-.404-23.936-2.316-27.484-5.923-27.34-15.935 5.658-23.993 14.192-27.55 10.568 12.68 10.568 12.68z" fill="#433a4b"/><path d="M212.205 255.02s4.254 5.415 17.076 10.415c8.14 3.173 18.246 8.984 18.24 14.572-.01 6.373-23.872 66.237-23.872 66.237l-5.885-2.94s21.328-51.652 20.957-55.16-2.85-.404-23.936-2.316-27.484-5.923-27.34-15.935 5.658-23.993 14.192-27.55 10.568 12.678 10.568 12.678z" fill="#313041"/><path d="M206.428 247.38s3.39 14.138 11.44 17.527 26.547 7.18 26.538 16.103c-.007 6.374-27.598 69.497-27.598 69.497l-14.142-6.62s18.682-51.076 18.206-54.572 1.382-1.78-19.753-3.05-23.985-5.305-24.144-15.317 12.82-23.566 12.82-23.566c8.422-3.813 16.633 0 16.633 0z" fill="#433a4b"/><path d="M211.936 186.567s-3.336 13.665 2.86 20.657c0 0 8.263 11.124-4.768 13.03s-11.336-15.203-11.336-15.203 2.226-18.857-1.165-27.015c0 0 8.476 4.662 14.408 8.53z" fill="#f57e5d"/><path d="M203.177 167.233s17.867.907 17.98 5.327-1.504 7.317-.906 11.18c1.284 8.3-3.55 17.45-5.666 17.828-3.273.585-14.353-4.305-16.1-11.03s-2.192-25.987 4.682-23.306zm17.023 79.003l4.528.477c.795 0 11.124-5.8 12.236-5.005s11.6 8.104 11.283 9.535-3.252.57-8.82-4.132c0 0 7.416 5.244 5.985 6.514s-7.892-4.604-7.892-4.604 6.674 4.975 5.084 6.088-7.468-4.82-7.468-4.82 4.608 4.45 3.972 5.2-3.548-.53-6.726-3.496c0 0-.583-.32-2.278.583s-12.077-.85-12.077-.85l2.172-5.482z" fill="#f89a78"/><g fill="#212637"><path d="M222.684 180.956s-12.444 2.833-16.51-6.713c-3.212-7.54-2.11-8.456-2.11-8.456s6.865-5.344 14.95 1.9c5.415 4.86 3.67 13.26 3.67 13.26z"/><path d="M205.104 165.59s6.616 5.8 2.95 11.33c-3.306 4.978-1.12 7.65-1.813 10.988 0 0-1.59-.732-1.93-2.28s-.856-5.48-2.934-4.913-4.016 3.138-.013 6.424c0 0 2.18 4.476-.64 8.008 0 0-10.664-9.158-7.576-19.47s11.955-10.085 11.955-10.085z"/></g><path d="M213.452 205.36s.815 6.472-1.516 7.636-10.593-11.017-10.593-11.017-11.247 4.727-13.79 6.795 1.155 21.898 1.155 21.898-7.83 23.775-6.847 28.86 35.24-.998 35.24-.998 3.31-24.26 4.582-27.863 2.922-5.748 1.272-11l-2.954-9.31s-4.076-3.854-6.55-5.002z" fill="#f14957"/><path d="M193.027 226.905c-2.57-3.446-1.03-9.208-3.73-12.754-.82-1.076-1.67-2.118-2.528-3.152-.665 5.714 1.94 19.674 1.94 19.674s-7.83 23.775-6.847 28.86 35.24-.998 35.24-.998 2.914-21.355 4.324-26.968c-.873 1.3-7.805 9.75-15.422 8.573-4.28-.66-7.786-6.274-12.976-13.236z" fill="#df313a"/><path d="M199.05 183.185s-.206 2.638 2.04 3.25c.924.252.833 3.142 1.577 6.054 1.418 5.538.516 9.307-3.606 10.912-2.958 1.154-7.143 2.068-11.902 5.404s-1.7-10.58 4.306-14.106 7.584-11.514 7.584-11.514zm107.922 72.507h-25.017c-1.506 0-2.484-1.584-1.8-2.93l1.47-2.942a2.02 2.02 0 0 1 1.8-1.12H305.5a2.02 2.02 0 0 1 1.81 1.12l1.47 2.942a2.03 2.03 0 0 1-1.811 2.931z" fill="#212637"/><g fill="#6b8ea1"><path d="M345.18 261.56H126v-5.87h219.18v5.87z"/><path d="M134.104 379.005h2.543v-120.8h-2.543v120.8zm200.43 0h2.542v-120.8h-2.542v120.8z"/></g><path d="M223.377 245.945l-.634 7.383s-43.542.458-50.1-.39-9.534-9.534-5.297-17.162 16.844-27.438 22.353-27.862 8.687 7.098 4.132 15.255-12.818 15.997-11.018 17.375 40.574 5.402 40.574 5.402z" fill="#f14957"/></svg>