<svg xmlns="http://www.w3.org/2000/svg" xmlns:xlink="http://www.w3.org/1999/xlink" width="250" height="290" fill="none" xmlns:v="https://vecta.io/nano"><style><![CDATA[.B{fill:#212637}.C{fill:#f14957}.D{fill:#71cbcd}]]></style><path d="M208.583 128.622H41.417c-3.86 0-6.988-3.31-6.988-7.388V16.95c0-4.08 3.13-7.387 6.988-7.387h167.166c3.86 0 6.988 3.308 6.988 7.387v104.284c0 4.08-3.128 7.388-6.988 7.388z" class="B"/><path d="M204.884 111.248H44.763V17.674h160.12v93.574z" fill="#d3d3d3"/><path d="M193.7 101.52h-51.776V32.193H193.7v69.326z" fill="#a8e2e2"/><path d="M188.824 45.633h-42.022v-6.908h42.022v6.908z" class="C"/><path d="M188.824 58.435h-42.022v-6.908h42.022v6.908z" class="D"/><path d="M188.824 71.237h-42.022V64.33h42.022v6.908zm0 12.803h-42.022v-6.9h42.022v6.908zm0 12.802h-42.022v-6.9h42.022v6.9z" fill="#fff"/><path d="M83.68 40.696s8.53.053 9.72 5.933.132 12.483 1.587 16.62 5.984 15.68-3.736 16.333-11.307-2.288-13.687-2.396-5.95 5.96-12.993 2.49-3.967-11.27-.926-12.216 1.856-6.496 1.124-8.347c-1.52-3.846-2.645-15.677 7.736-19.162 8.39-2.815 11.175.746 11.175.746z" class="B"/><path d="M75.494 62.053c-.632 7.915-1.136 17.293-4.218 23.972.346 3.208 2.023 9.306 9.836 9.09 6.622-.182 8.58-4.56 9.12-7.813-3.095-5.56-4.975-13.032-5.403-20.39-3.027-.01-7.228-3.258-9.333-4.86z" fill="#f57e5d"/><path d="M77.7 43.657s10.7.543 12.925 2.884 2.112 7.096 2.73 14.064-3.433 14.662-7.003 15.678-13.4-5.48-14.762-16.313 1.988-16.68 6.1-16.313zm80.47 31.86s5.24-6.15 7.275-9.536c2.004-3.334 9.5-14.336 11.048-12.6 1.543 1.712-4.9 10.824-4.9 10.824s6.244-11.806 8.43-10.5c2.156 1.28-5.795 11.66-5.795 11.66s6.775-9.985 7.938-8.6c1.155 1.386-.22 3.6-5.8 10.878 0 0 4.78-6.28 5.94-4.302 1.152 1.964-4.3 7.513-6.212 8.737-1.936 1.24-11.3 6.505-13.836 9.094 0 0-4.496-2.45-4.1-5.645z" fill="#f89a78"/><path d="M175.588 65.507c-.548-1.502-2.768-1.376-4.1-1.25-1.632.157-3.125.748-4.19 2.12l-1.62 2.136c-1.19 1.314-.393 2.426-.02 3.852.108.415 2.712.832 5.218-.23 1.815-.77 3.673-2.857 4.044-3.67.48-1.045.857-2.44.667-2.96z" fill="#f7916c"/><path d="M166.792 67.257s5.96-4.273 7.8-2.97.206 2.97-6.098 5.723c0 0-2.054 3.258-3.493 3.62 0 0-2.117-4.056 1.78-6.374z" fill="#f89a78"/><g class="B"><path d="M82.462 41.08s2.942 13.544-6.2 15.244c0 0-2.403 3.443-1.098 7.65s4.223 13.19-1.047 15.27-9.253-1.31-7.124-10.067 2.13-13.55 3.433-19.936 3.8-11.096 12.026-8.16z"/><path d="M77.23 40.602s.67 12.233 10.678 12.74 10.104-6.986 8.86-8.808-5.794-8.975-19.537-3.93z"/></g><path d="M87.35 80.57s-3.595 4.793-5.376 5.518-8.875-5.323-8.875-5.323-9.76 5.756-17.845 6.77c0 0-7.214 2.752-9.9 23.756h64.72s-.457-4.395 0-4.395 3.563 4.395 8.586 4.395h22.015S158.74 92.772 167.1 79.81l-7.776-8.172s-26.42 29.95-28.614 29.95-19-14.92-19.685-15.354-18.057-.736-23.673-5.663z" fill="#0f7dc2"/><g class="C"><path d="M100.376 129.11s-2.055-3.187-8.3-2.102-9.866 12.184-9.866 12.184h17.676s1.576-8.56.48-10.082z"/><use xlink:href="#B"/></g><g fill="#df313a"><path d="M100.376 129.11s-2.055-3.187-8.3-2.102-9.866 12.184-9.866 12.184h17.676s1.576-8.56.48-10.082z"/><use xlink:href="#B"/></g><path d="M100.672 97.242s-6.166.145-10.688 3.766-22.198 33.372-23.02 35.778 3.7 4.406 9.518 4.406 8.57.55 10.76-2 15.18-14.038 18.606-22.294-1.972-20.085-5.177-19.655zm49.778 0s6.165.145 10.688 3.766 22.198 33.372 23.02 35.778-3.7 4.406-9.517 4.406-8.57.55-10.762-2-15.18-14.038-18.606-22.294 1.972-20.085 5.178-19.655z" class="C"/><path d="M130.747 79.66h-10.37l-1.83 10.128h14.028l-1.828-10.128z" fill="#f57e5d"/><path d="M125.665 49.524l-.104.01-.104-.01c-5.636 0-13.464 3.397-13.464 13.168s2.296 22.526 13.498 22.526l.07-.005.07.005c11.202 0 13.498-12.755 13.498-22.526s-7.827-13.168-13.464-13.168zm-15.763 198.748l-8.496 5.505s3.015 5.504 1.828 7.146-7.856 9.657-8.13 13.617 1.827 6.373 2.923 5.986 21.1-15.45 20.645-18.057-8.77-14.197-8.77-14.197zm30.402 0l8.495 5.505s-3.014 5.504-1.827 7.146 7.857 9.657 8.13 13.617-1.826 6.373-2.923 5.986-21.1-15.45-20.644-18.057 8.77-14.197 8.77-14.197z" class="B"/><g fill="#6b8ea1"><path d="M10.168 290H6.94V139.194h3.23V290zm232.894 0h-3.23V139.194h3.23V290z"/><path d="M250 139.19v3.998H0v-3.998h250z"/></g><path d="M144.52 163.1c-5.4-3.282-33.434-3.282-38.835 0s-33.17 24.818-33.17 30.034 30.145 65 30.145 65l11.052-5.964s-18.4-50.045-16.165-52.218 27.555-3.815 27.555-3.815 25.32 1.642 27.555 3.815-16.165 52.218-16.165 52.218l11.054 5.964s30.144-59.775 30.144-65-27.77-26.75-33.17-30.034z" fill="#215084"/><path d="M132.01 85.824c-.47-.496-4.463-.174-6.45-.174s-5.98-.322-6.45.174-3.654 8-3.654 8l10.104 2.262 10.103-2.262-3.653-8z" class="D"/><g fill="#c4d8df"><path d="M155.847 280.566c-2.65-4.015-22.836-19.547-22.836-19.547h-15.815s-20.19 15.532-22.838 19.547-2.095 8.17 1.008 8.17h9.9c.59 0 1.105-.42 1.225-1.032.135-.685.27-1.678.26-2.875-.005-.654-.452-1.23-1.066-1.323-.623-.09-1.312-.25-1.354-.493-.1-.563.242-1.587 2.268-3.356 3.654-3.186 12.367-10.235 12.367-10.235l6.137.193 6.137-.193 12.367 10.235c2.027 1.77 2.367 2.793 2.268 3.356-.042.244-.73.402-1.354.493-.614.092-1.06.67-1.067 1.323a14.45 14.45 0 0 0 .26 2.875c.12.61.636 1.032 1.225 1.032h9.9c3.104 0 3.657-4.152 1.008-8.17z"/><path d="M125.103 196.126h-7.268l3.634 69.335h7.268l3.634-69.335h-7.268z"/></g><path d="M125.103 193.133h-19.417s1.976 23.61 19.417 23.61 19.418-23.61 19.418-23.61h-19.418z" class="B"/><path d="M159.045 98.594c-4.933-6.954-33.942-8.306-33.942-8.306s-29.008 1.352-33.94 8.306 8.586 64.506 13.154 73.776 20.787 9.08 20.787 9.08 16.22.192 20.788-9.08 18.086-66.825 13.154-73.776z" fill="#d3d3d3"/><g class="B"><path d="M134.995 159.913c-1.66-1.17-18.123-1.17-19.783 0-1.92 1.352 2.74 34.09 3.47 37.37s12.1 3.284 12.84 0 5.4-36.02 3.472-37.37z"/><path d="M163.098 199.94h-76v-10.72h76v10.72z"/></g><path d="M61.394 139.19h-46.93v-7.937h46.93v7.937z" class="D"/><path d="M56.255 131.254H9.325v-7.94h46.93v7.94z" class="C"/><g class="B"><path d="M221.56 120.4h-2.676v1.56h1.96c2.213 0 4.006 1.895 4.006 4.235v.084c0 2.34-1.793 4.234-4.006 4.234h-1.96v1.56h2.676c3.018 0 5.467-2.587 5.467-5.778v-.117c0-3.19-2.45-5.778-5.467-5.778z"/><path d="M218.066 139.194h-12.12c-1.776 0-3.215-1.52-3.215-3.398V116.9h18.55v18.886c0 1.877-1.44 3.398-3.215 3.398z"/></g><path d="M211.38 136.635v-18.14h-7.01v16.197c0 1.6 1.234 2.915 2.757 2.915h4.42c-.082-.31-.165-.627-.165-.972z" fill="#0d1321"/><path d="M215.594 118.495v17.08c0 .783-.27 1.5-.704 2.033h2.064c1.523 0 2.757-1.305 2.757-2.915v-16.197h-4.117z" fill="#474b5c"/><path d="M93.338 29.378H55.992c-1.03 0-1.867-.884-1.867-1.973V1.973c0-1.1.836-1.973 1.867-1.973h37.346c1.03 0 1.868.884 1.868 1.973v25.43c0 1.1-.836 1.973-1.868 1.973z" class="D"/><path d="M93.338 27.038H55.992V2.34h37.346v24.7z" fill="#a8e2e2"/><path d="M69.095 9.564v12.098l11.14-6.05-11.14-6.05z" class="C"/><defs ><path id="B" d="M149.66 129.11s2.054-3.187 8.288-2.102 9.866 12.184 9.866 12.184h-17.675s-1.577-8.56-.48-10.082z"/></defs></svg>