<svg xmlns="http://www.w3.org/2000/svg" xmlns:xlink="http://www.w3.org/1999/xlink" width="511" height="426" fill="none" xmlns:v="https://vecta.io/nano"><style><![CDATA[.B{fill:#253460}.C{fill:#f0f5fa}.D{fill:#fff}.E{fill:#f795b4}.F{fill:#b092d0}.G{fill:#ccdaf2}.H{fill:#b8799b}]]></style><path d="M264.8 425.64c-42.872 0-85.712-5.074-127.048-16.3-15.877-4.307-31.75-9.66-46.47-16.967l7.874-.98 67.398-7.576c31.993 8.55 65.12 12.423 98.272 12.423 14.892 0 29.786-.78 44.59-2.27 6.476-.65 13.005-1.476 19.52-2.513l47.832 7.058c1.217.18 2.426.265 3.62.265 11.955 0 22.424-8.734 24.226-20.888l2.107-14.21c9.093-6.1 17.384-13.297 24.56-21.813 15.563-18.47 24.478-42.156 25.88-66.257a114.25 114.25 0 0 0-.526-19.546c-2.506-22.08-11.428-43.247-24.925-60.94l9.266-62.502c4.82 4.335 9.98 8.393 14.83 12.656 29.427 25.87 49.422 62.53 53.836 101.412.94 8.275 1.156 16.632.674 24.95-1.79 30.767-13.174 61.002-33.04 84.58-37.24 44.198-97.982 60.713-155.565 66.507-18.898 1.902-37.907 2.9-56.915 2.9h0zM75.075 383.167c-6.763-4.4-13.138-9.382-18.986-15.024C26.393 339.5 13.856 295.1 21.512 254.6c7.412-39.2 31.78-73.28 64.714-93.78l32.336 32.26a113.09 113.09 0 0 0-31.341 34.585L76.124 228.9l.86.71-3.383.38 9.678 5.05c-4.158 8.553-7.235 17.69-9.035 27.213a99.13 99.13 0 0 0-1.401 10.468l-8.463 8.352-.026.003.003.02-.042.042a1.11 1.11 0 0 0-.635 1.125l11.395 100.897zm72.138-204.937l-21.84-21.788c-1.422-1.42-1.422-3.723 0-5.143l9.042-9.02c6.31-1.103 12.745-1.747 19.274-1.902 17.514-.415 31.275-15.122 30.1-32.612l-.104-1.298C176.586 38.758 238.604 0 299.6 0c14.862 0 29.666 2.302 43.392 7.046 23.496 8.12 44.33 23.937 58.627 44.217 2.156 3.06 3.967 6.196 5.528 9.383L307.954 46.01a24.84 24.84 0 0 0-3.619-.267c-10.857 0-20.5 7.205-23.517 17.63-43.825 4.36-84.654 33.978-79.53 82.844.024.237.05.58.08 1.017.92 13.7-9.86 25.223-23.58 25.547-10.58.25-20.86 2.15-30.576 5.45" fill="#ecf2fa"/><path d="M264.818 396.252c-33.152 0-66.28-3.872-98.272-12.423l78.842-8.862a24.44 24.44 0 0 0 12.885 6.076l70.658 10.426c-6.516 1.037-13.046 1.862-19.522 2.513-14.804 1.5-29.698 2.27-44.59 2.27h0zm141.898-32.557l24.99-168.555c13.497 17.692 22.42 38.86 24.925 60.94a114.25 114.25 0 0 1 .526 19.546c-1.403 24.102-10.318 47.787-25.88 66.257-7.177 8.517-15.468 15.723-24.56 21.813h0zm-161.198-63.818l-4.244-37.57a1.1 1.1 0 0 0-.958-.971.88.88 0 0 0-.197-.161l-14.695-9.106c3.282-1.914 6.373-4.274 9.187-7.083l10.807-10.78a10.41 10.41 0 0 0 0-14.742l-36.883-36.797a10.43 10.43 0 0 0-7.389-3.052c-2.672 0-5.347 1.017-7.388 3.052l-18.44 18.4a3.69 3.69 0 0 1-2.612 1.08c-.946 0-1.9-.36-2.612-1.08l-22.89-22.835c9.717-3.298 19.995-5.2 30.576-5.45 13.72-.323 24.5-11.845 23.58-25.546l-.08-1.017c-5.125-48.866 35.704-78.484 79.53-82.844a24.65 24.65 0 0 0-.71 3.26l-34.58 233.244zM72.833 272.73a99.13 99.13 0 0 1 1.401-10.468c1.8-9.524 4.878-18.66 9.035-27.213l.782.4 2.98 2.458 2.113 18.72-16.313 16.094zm14.38-45.066c7.926-13.594 18.673-25.425 31.34-34.585l17.408 17.368-13.425 13.246-35.323 3.97" fill="#d0ddf3"/><path d="M480.64 78.582c-8.73 0-15.807-7.06-15.807-15.77s7.078-15.77 15.807-15.77 15.808 7.06 15.808 15.77-7.078 15.77-15.808 15.77zm-347.177-15.77c-10.124 0-18.33-8.188-18.33-18.3s8.207-18.285 18.33-18.285 18.33 8.187 18.33 18.286-8.206 18.3-18.33 18.3zM23.674 419.42C10.6 419.42 0 408.847 0 395.804s10.6-23.62 23.674-23.62 23.674 10.574 23.674 23.62-10.6 23.617-23.674 23.617z" fill="#f2f6fc"/><path d="M294.372 125.74c0 46.23-37.564 83.708-83.906 83.708S126.56 171.97 126.56 125.74s37.568-83.71 83.907-83.71 83.906 37.478 83.906 83.71" class="F"/><path d="M268.746 186.024a.79.79 0 0 1-.566-.235.8.8 0 0 1 0-1.131c15.696-15.66 24.34-36.48 24.34-58.626s-8.645-42.966-24.34-58.626-36.566-24.284-58.766-24.284-43.066 8.625-58.764 24.284a.8.8 0 1 1-1.133-1.131c16-15.96 37.27-24.753 59.897-24.753s43.9 8.792 59.9 24.753 24.812 37.183 24.812 59.757-8.813 43.796-24.812 59.757a.8.8 0 0 1-.567.235" class="B"/><path d="M274.318 125.736c0 35.18-28.586 63.7-63.85 63.7s-63.85-28.52-63.85-63.7 28.587-63.7 63.85-63.7 63.85 28.52 63.85 63.7" class="D"/><g class="B"><path d="M210.477 190.236c-35.65 0-64.652-28.936-64.652-64.5s29.003-64.5 64.652-64.5a.8.8 0 1 1 0 1.6c-34.764 0-63.05 28.217-63.05 62.9s28.285 62.9 63.05 62.9a.8.8 0 1 1 0 1.6m16.538-52.336h-17.37c-3.562 0-6.46-2.892-6.46-6.446V107.44c0-3.094 2.512-5.6 5.612-5.6s5.6 2.505 5.6 5.6v19.274h12.608c3.1 0 5.612 2.506 5.612 5.6s-2.513 5.598-5.612 5.598"/><path d="M80.203 154.813l90.388 90.173c17.68 17.64 46.347 17.64 64.028 0l10.807-10.78a10.41 10.41 0 0 0 0-14.742l-36.884-36.797a10.47 10.47 0 0 0-14.777 0l-18.44 18.4a3.7 3.7 0 0 1-5.224 0l-44.73-44.623c-1.422-1.42-1.422-3.722 0-5.143l18.186-18.143c4.08-4.07 4.08-10.67 0-14.74l-37.882-37.793a10.47 10.47 0 0 0-14.646-.128l-10.262 9.887c-18.2 17.543-18.463 46.573-.564 64.43z"/></g><path d="M83.034 92.2l50.8 50.67 9.735-9.713c4.08-4.07 4.08-10.67 0-14.74l-37.88-37.793a10.47 10.47 0 0 0-14.647-.128L80.77 90.382l2.266 1.817" class="C"/><path d="M81.974 90.33l1.623 1.307 50.222 50.102 9.167-9.145a9.55 9.55 0 0 0 0-13.611l-37.88-37.793c-3.697-3.69-9.763-3.74-13.523-.117l-9.608 9.257zm51.845 53.673L82.493 92.797 79.55 90.44l10.918-10.52c4.385-4.222 11.46-4.162 15.77.138l37.882 37.793c4.385 4.376 4.385 11.496 0 15.873l-10.302 10.278" class="B"/><path d="M186.357 193.54l50.788 50.67 9.736-9.712a10.41 10.41 0 0 0 0-14.74L209 181.963c-4.03-4.022-10.546-4.078-14.646-.128l-10.263 9.887 2.267 1.817z" class="C"/><path d="M185.296 191.663l1.62 1.307 50.22 50.104 9.17-9.147a9.55 9.55 0 0 0 0-13.609l-37.882-37.793c-3.697-3.686-9.763-3.74-13.523-.117l-9.607 9.255zm51.842 53.673l-51.325-51.204-2.94-2.357 10.917-10.52c4.386-4.223 11.46-4.162 15.77.138l37.882 37.793a11.14 11.14 0 0 1 3.293 7.936c0 2.997-1.17 5.816-3.293 7.935l-10.304 10.278" class="B"/><path d="M86.918 86.223l30.946 30.875z" class="C"/><path d="M117.873 117.895c-.205 0-.41-.08-.568-.235L86.36 86.787a.8.8 0 0 1 0-1.131c.313-.312.82-.312 1.134 0l30.947 30.873a.8.8 0 0 1 0 1.131c-.157.156-.362.235-.567.235z" class="B"/><path d="M210.025 209.033l30.946 30.875z" class="C"/><path d="M240.96 240.706a.8.8 0 0 1-.566-.236l-30.947-30.873a.8.8 0 0 1 0-1.131c.312-.3.82-.3 1.133 0l30.948 30.874a.8.8 0 0 1-.568 1.366m135.8 157.82l-118.5-17.484c-13.398-1.977-22.653-14.416-20.67-27.78l42.497-286.627c1.982-13.367 14.45-22.6 27.847-20.622l118.5 17.484c13.397 1.977 22.652 14.416 20.67 27.782l-42.496 286.625c-1.98 13.368-14.448 22.6-27.846 20.623" class="B"/><path d="M396.333 365.152l-147.11-21.7 40.13-270.672 147.1 21.707-40.13 270.674" class="C"/><path d="M433.456 114.79l-147.11-21.707 3.012-20.31 147.1 21.71-3.01 20.31" class="F"/><path d="M320.265 363.12c-1.703 0-3.354.542-4.748 1.572a7.92 7.92 0 0 0-3.142 5.241c-.314 2.108.215 4.213 1.488 5.923a7.95 7.95 0 0 0 5.253 3.139c4.367.646 8.437-2.376 9.08-6.727a7.92 7.92 0 0 0-1.49-5.92c-1.272-1.7-3.138-2.827-5.25-3.14a8.26 8.26 0 0 0-1.2-.088zm.026 17.56a9.51 9.51 0 0 1-1.411-.106c-2.537-.372-4.775-1.7-6.305-3.764a9.51 9.51 0 0 1-1.788-7.113c.376-2.53 1.718-4.764 3.776-6.288a9.53 9.53 0 0 1 7.128-1.784c2.536.374 4.775 1.712 6.304 3.766a9.5 9.5 0 0 1 1.788 7.11c-.705 4.752-4.815 8.18-9.492 8.18zm21.255-315.053a1.46 1.46 0 0 0-1.464 1.264 1.47 1.47 0 0 0 .276 1.099 1.48 1.48 0 0 0 .975.582 1.47 1.47 0 0 0 1.685-1.247 1.47 1.47 0 0 0-.278-1.099c-.235-.318-.582-.525-.973-.582l-.22-.016zm.006 4.56c-.15 0-.3-.01-.453-.034a3.07 3.07 0 0 1-2.029-1.211c-.5-.66-.696-1.473-.574-2.287a3.06 3.06 0 0 1 1.214-2.022 3.04 3.04 0 0 1 2.291-.573c.815.12 1.536.55 2.027 1.2a3.06 3.06 0 0 1 .576 2.286 3.09 3.09 0 0 1-3.052 2.63zm10.263-3.05c-.723 0-1.358.53-1.467 1.265a1.47 1.47 0 0 0 .275 1.1 1.49 1.49 0 0 0 .975.582l37.532 5.536a1.48 1.48 0 0 0 1.685-1.248c.058-.4-.04-.78-.276-1.097a1.48 1.48 0 0 0-.975-.584l-37.53-5.536-.218-.018zm37.54 10.1a3.16 3.16 0 0 1-.458-.034l-37.532-5.538c-.816-.12-1.536-.55-2.027-1.2a3.05 3.05 0 0 1-.575-2.287 3.06 3.06 0 0 1 1.212-2.022c.664-.5 1.482-.7 2.293-.574l37.53 5.538a3.08 3.08 0 0 1 2.03 1.21c.494.66.695 1.473.574 2.288s-.552 1.53-1.213 2.022a3.07 3.07 0 0 1-1.834.608z" class="C"/><path d="M396.96 282.334L294.338 267.2a3.06 3.06 0 0 0-3.473 2.574l-3.938 26.56a3.05 3.05 0 0 0 2.579 3.464l87.737 12.948 9.038 12.437 1.6-10.866 4.237.625a3.06 3.06 0 0 0 3.473-2.571l3.938-26.56c.246-1.667-.908-3.22-2.58-3.465" class="G"/><path d="M377.23 313.534l-.117-.01-87.737-12.947a3.82 3.82 0 0 1-3.253-4.372l3.938-26.56c.31-2.1 2.272-3.577 4.383-3.246l23.715 3.502c.438.064.74.47.675.907a.8.8 0 0 1-.909.673l-23.716-3.5c-1.233-.17-2.38.672-2.563 1.9l-3.938 26.56a2.23 2.23 0 0 0 .42 1.671 2.24 2.24 0 0 0 1.482.885l87.737 12.95c.438.064.74.47.675.907a.8.8 0 0 1-.792.683z" class="B"/><path d="M413.26 172.28l-102.622-15.142c-1.67-.247-3.226.904-3.473 2.57l-3.938 26.562c-.247 1.667.906 3.22 2.577 3.465l87.737 12.946 9.04 12.438 1.61-10.866 4.236.624c1.67.248 3.226-.904 3.472-2.57l3.938-26.56c.248-1.667-.906-3.217-2.577-3.465" class="G"/><path d="M403.093 217.175l-9.994-13.753-87.404-12.897a3.86 3.86 0 0 1-3.253-4.373.81.81 0 0 1 .91-.675c.438.065.74.472.677.908-.1.596.06 1.19.42 1.672s.885.797 1.482.885L394 201.937l8.083 11.122 1.44-9.716 5.028.742a2.25 2.25 0 0 0 1.676-.419c.482-.358.798-.883.887-1.478l2.62-17.67c.064-.437.47-.735.91-.675s.74.472.676.908l-2.62 17.67c-.15 1.017-.69 1.915-1.517 2.53s-1.848.867-2.865.716l-3.442-.508-1.783 12.016" class="B"/><path d="M283.38 206.5l102.622 15.143c1.67.247 2.824 1.798 2.578 3.465l-3.938 26.56a3.06 3.06 0 0 1-3.473 2.572l-87.737-12.946-12.26 9.292 1.61-10.864-4.235-.624c-1.67-.248-2.825-1.798-2.578-3.465l3.938-26.562c.247-1.667 1.802-2.82 3.473-2.572" class="F"/><path d="M381.615 255.073c-.19 0-.38-.014-.574-.043l-54.767-8.08a.8.8 0 0 1-.675-.907c.064-.437.47-.742.91-.674l54.767 8.08c.597.085 1.2-.06 1.676-.42a2.24 2.24 0 0 0 .886-1.478l3.938-26.562c.18-1.227-.672-2.374-1.903-2.556a.8.8 0 0 1-.675-.909c.066-.435.47-.734.91-.673 2.105.312 3.564 2.27 3.253 4.373l-3.938 26.56a3.82 3.82 0 0 1-1.518 2.53 3.84 3.84 0 0 1-2.292.759" class="B"/><path d="M396.333 365.152l-147.11-21.7 3.693-24.904 147.11 21.71-3.693 24.905z" class="D"/><path d="M274.625 334.245c-.723 4.877-5.272 8.248-10.16 7.524s-8.265-5.26-7.54-10.136 5.272-8.247 10.16-7.525 8.265 5.26 7.542 10.137z" class="G"/><path d="M383.136 358.437a7.77 7.77 0 0 1-1.172-.087l-95.338-14.068a7.93 7.93 0 0 1-5.239-3.131c-1.27-1.707-1.8-3.805-1.486-5.91.585-3.942 3.996-6.797 7.874-6.797a7.8 7.8 0 0 1 1.185.09l95.34 14.07a7.97 7.97 0 0 1 6.725 9.036c-.586 3.95-4 6.797-7.89 6.797zm-95.34-28.39c-3.1 0-5.84 2.27-6.31 5.43a6.3 6.3 0 0 0 1.188 4.722c1.015 1.363 2.5 2.253 4.186 2.5l95.338 14.07c.3.045.62.067.925.067 3.113 0 5.847-2.27 6.315-5.43.248-1.68-.173-3.357-1.188-4.72a6.32 6.32 0 0 0-4.187-2.5l-95.338-14.07c-.312-.045-.624-.067-.93-.067" fill="#e9ddf1"/><path d="M298.516 82.704a1.52 1.52 0 0 0-.911.302c-.33.243-.545.602-.604 1.008a1.51 1.51 0 0 0 .287 1.136 1.52 1.52 0 0 0 1.009.603 1.54 1.54 0 0 0 1.742-1.293c.06-.405-.04-.808-.285-1.137s-.603-.54-1-.6l-.23-.018zm.007 4.665a3.01 3.01 0 0 1-.462-.034c-1.713-.253-2.9-1.848-2.646-3.556a3.1 3.1 0 0 1 1.235-2.057 3.11 3.11 0 0 1 2.33-.582c1.712.25 2.9 1.846 2.647 3.556-.23 1.553-1.576 2.673-3.104 2.673zm8.66-3.384c-.75 0-1.406.547-1.518 1.308-.06.405.04.808.285 1.137s.603.542 1 .602a1.52 1.52 0 0 0 1.744-1.291c.06-.405-.042-.8-.287-1.137a1.52 1.52 0 0 0-1.008-.603l-.225-.016zm.008 4.665c-.155 0-.3-.01-.466-.035a3.14 3.14 0 0 1-2.648-3.556 3.15 3.15 0 0 1 3.566-2.639 3.12 3.12 0 0 1 2.062 1.232 3.11 3.11 0 0 1 .584 2.326 3.1 3.1 0 0 1-1.235 2.056c-.546.405-1.194.618-1.863.618zm8.516-3.4c-.326 0-.643.104-.9.302a1.52 1.52 0 0 0-.604 1.006c-.06.405.04.808.285 1.137a1.53 1.53 0 0 0 1.01.603c.835.117 1.62-.456 1.744-1.292s-.457-1.616-1.295-1.74l-.228-.016zm.005 4.665c-.15 0-.307-.01-.46-.034a3.14 3.14 0 0 1-2.645-3.558c.253-1.708 1.853-2.887 3.564-2.64a3.14 3.14 0 0 1 2.646 3.558c-.23 1.553-1.575 2.673-3.104 2.673z" class="D"/><path d="M435.445 115.882l-.117-.008L299.153 95.78c-.438-.064-.74-.47-.675-.907a.8.8 0 0 1 .909-.675l136.175 20.094a.8.8 0 0 1 .677.909.8.8 0 0 1-.794.681" class="B"/><path d="M378.694 288.456l-.12-.01-72.657-10.72a.8.8 0 0 1-.675-.907.79.79 0 0 1 .91-.673l72.657 10.72a.8.8 0 0 1 .675.908.8.8 0 0 1-.792.682m-43.028 2.484l-.12-.01-30.923-4.562a.8.8 0 0 1-.677-.909c.064-.435.465-.742.9-.673l30.925 4.564a.8.8 0 0 1 .675.907c-.06.396-.4.683-.792.683zm-10.408 6.737l-.117-.01-21.704-3.202a.8.8 0 0 1-.676-.907c.066-.437.478-.742.9-.674l21.703 3.203a.8.8 0 0 1 .677.907c-.06.397-.403.683-.794.683zm52.152-.577h-.118l-31.96-4.716a.8.8 0 0 1-.675-.907c.065-.435.467-.743.9-.673l31.96 4.714a.8.8 0 0 1 .675.909c-.06.396-.4.683-.793.683zm-7.585-68.8h-.117l-72.66-10.72a.8.8 0 0 1-.675-.908c.064-.437.466-.746.9-.674l72.658 10.723a.8.8 0 0 1 .676.907c-.06.396-.402.683-.793.683m-43.016 2.485l-.117-.008-30.925-4.564a.8.8 0 0 1-.677-.907c.066-.437.473-.736.9-.673l30.925 4.562a.8.8 0 0 1 .675.908.8.8 0 0 1-.792.682m32.137 13.018l-.123-.01-62.707-9.705a.8.8 0 0 1-.668-.912c.067-.437.48-.734.915-.67l62.705 9.705a.8.8 0 0 1 .67.912c-.062.395-.404.68-.792.68zm9.608-6.856l-.118-.01-31.96-4.716a.8.8 0 0 1-.677-.907c.064-.437.468-.742.9-.673l31.96 4.715a.8.8 0 0 1 .677.907.8.8 0 0 1-.793.683z" class="D"/><path d="M296.543 106.65l102.622 15.144c1.67.246 2.825 1.798 2.578 3.465l-3.938 26.56c-.247 1.67-1.802 2.82-3.473 2.572l-87.737-12.947-12.26 9.295 1.6-10.866-4.235-.625c-1.67-.245-2.825-1.797-2.578-3.464l3.938-26.562a3.06 3.06 0 0 1 3.473-2.572z" class="F"/><path d="M397.818 152.62l-.117-.008c-.438-.066-.74-.472-.677-.91l3.938-26.56a2.23 2.23 0 0 0-.42-1.67c-.36-.485-.885-.798-1.482-.886l-63.716-9.403a.8.8 0 0 1-.675-.907c.065-.437.478-.73.91-.675l63.715 9.403c1.02.15 1.92.688 2.535 1.513s.87 1.84.72 2.86l-3.94 26.56a.8.8 0 0 1-.792.683" class="B"/><path d="M383 128.453l-.12-.008-72.66-10.722a.8.8 0 0 1 .236-1.583l72.657 10.723a.8.8 0 0 1 .677.908.8.8 0 0 1-.792.682m-43.008 2.487l-.117-.008-30.926-4.564a.8.8 0 0 1-.675-.909.8.8 0 0 1 .911-.673l30.924 4.562c.437.066.74.472.676.9-.06.396-.4.683-.793.683m32.138 13.014l-.125-.01-62.706-9.705a.8.8 0 0 1-.669-.913.81.81 0 0 1 .916-.667l62.706 9.705a.8.8 0 0 1-.122 1.59zm9.585-6.855h-.118l-31.96-4.716a.8.8 0 0 1-.675-.908c.065-.437.465-.738.9-.674l31.96 4.716a.8.8 0 0 1-.117 1.591zm13.364 42.318l-.12-.01-72.657-10.72a.8.8 0 0 1-.676-.908c.064-.437.465-.74.9-.675l72.66 10.722a.8.8 0 0 1 .675.908c-.06.397-.4.684-.792.684m-43 2.48l-.118-.008-30.925-4.564a.8.8 0 0 1-.675-.908.8.8 0 0 1 .91-.674l30.924 4.564a.8.8 0 0 1 .676.909.8.8 0 0 1-.792.681zm-10.428 6.74l-.12-.01-21.704-3.2c-.437-.066-.74-.472-.676-.9a.8.8 0 0 1 .91-.675l21.704 3.202c.438.066.74.472.677.9-.06.397-.403.683-.792.683zm52.15-.58l-.12-.008-31.96-4.717a.8.8 0 0 1-.675-.909c.064-.435.465-.74.9-.673l31.96 4.716a.8.8 0 0 1-.117 1.591z" class="D"/><path d="M247.32 373.945l-164.6 18.5c-3.162.356-6.013-1.913-6.37-5.07L64.47 282.18c-.02-.166.1-.317.268-.336l175.407-19.716c.166-.02.317.103.336.268l11.885 105.237c.353 3.132-1.905 5.958-5.046 6.312" class="E"/><path d="M65.333 282.584l11.825 104.703a4.95 4.95 0 0 0 5.482 4.364l164.6-18.5.09.795-.09-.795a4.9 4.9 0 0 0 3.296-1.818c.82-1.025 1.2-2.308 1.043-3.6L239.75 262.98 65.333 282.584zm16.75 110.697c-3.293 0-6.14-2.475-6.518-5.815L63.683 282.27c-.067-.604.37-1.152.975-1.22l175.406-19.716a1.1 1.1 0 0 1 1.222.973l11.886 105.238c.194 1.726-.296 3.424-1.382 4.784a6.5 6.5 0 0 1-4.371 2.411l-164.6 18.5a6.34 6.34 0 0 1-.737.04" class="B"/><path d="M90.748 392.45c-.062 0-.1-.03-.114-.087l.49-.054.154.077-.507.062c-.008.002-.016.002-.024.002" fill="#c0c4d1"/><path d="M91.28 392.384l-.154-.077 8.028-.902-7.874.98" fill="#b0b9d4"/><path d="M239.423 373.274l-11.246-9.906-3.11-3.027c7.337 6.215 13.013 11.188 14.355 12.933h0zm-56.535-54.012l-.106-.104 2.976-2.73-2.87 2.834zm-88.8-18.83l-28.757-17.72-.014-.13 26.42-2.97 2.35 20.82zm117.1-9.13l-2.802-24.8 31.315-3.52c.007 0 .015-.002.023-.002l.014.133-28.55 28.19" class="H"/><path d="M90.632 392.36c-.018-.065-.003-.17.04-.312l34.278-3.852-25.8 3.208-8.52.956zM65.338 282.713l-.18-.1.167-.02.014.13zm-.867-.534h.002-.002zm175.284-19.068l-.015-.134c.07-.01.136-.026.2-.05l-.186.184z" class="B"/><path d="M64.744 281.847l72.537-71.566c4.324-4.28 11.025-5.042 16.205-1.846l86.218 53.42c.146.09.096.317-.077.336L64.744 281.847" class="E"/><path d="M146.552 207.252a12.35 12.35 0 0 0-8.705 3.592l-70.893 69.944 170.814-19.2-84.7-52.48a12.39 12.39 0 0 0-6.515-1.856h0zm-82.018 75.42l-.133-1.177-.218-.22.175-.173-.003-.02.026-.003 72.34-71.372c4.605-4.556 11.676-5.362 17.19-1.958l86.22 53.422c.354.218.53.64.44 1.046s-.432.714-.845.762L64.534 282.67" class="B"/><path d="M66.95 280.793l22.432-22.13 2.187 19.364-24.62 2.767zm141.277-15.878l-2.625-23.247 32.16 19.926-29.536 3.32zm-83.1-41.5l12.726-12.556c2.39-2.368 5.532-3.59 8.705-3.59a12.39 12.39 0 0 1 6.515 1.855l15.23 9.438-43.177 4.854" class="H"/><path d="M64.442 281.882l.302-.035 24.524-24.196.116 1.013-22.432 22.13 24.62-2.768.1.795-27.218 3.06zM208.318 265.7l-.09-.793 29.536-3.32-32.16-19.927-.114-1.012 34.214 21.198c.146.09.096.317-.077.336l-31.31 3.52zm-84.487-42.16l13.45-13.27c2.536-2.51 5.894-3.8 9.28-3.8 2.386 0 4.785.643 6.925 1.964l16.095 9.974-1.286.144-15.23-9.438c-2.02-1.246-4.277-1.855-6.515-1.855-3.173 0-6.314 1.223-8.705 3.59l-12.726 12.555-1.288.144" class="B"/><use xlink:href="#B" class="E"/><use xlink:href="#C" class="B"/><path d="M73.6 229.998l114.645-12.886c7.515-.846 14.203 3.745 14.94 10.254l7.367 65.245-31.88 29.233-42.13 4.737-41.613-25.966-7.14-63.213-14.2-7.404" class="D"/><path d="M95.688 300.145l41.047 25.61 41.6-4.674 31.388-28.782-7.322-64.843c-.33-2.913-1.957-5.51-4.583-7.314-2.663-1.827-6.024-2.62-9.468-2.233L76.298 230.504l12.247 6.39 7.143 63.252zm40.67 27.266l-42.178-26.32-7.134-63.174-10.918-9.006 112.03-12.592c3.828-.43 7.576.46 10.557 2.505 3.015 2.07 4.886 5.072 5.27 8.454l7.413 65.648-32.373 29.686-42.668 4.798" class="B"/><path d="M102.215 373.986l31.84-48 1.895 1.182-33.736 46.828m122.853-13.656l-7.405-6.23-37.034-32.617 2.26-2.232 42.18 41.08" class="H"/><path d="M228.19 363.368l-10.514-9.257 7.405 6.23 3.11 3.026zm-47.548-41.873l-.2-.178 2.354-2.158.106.104-2.26 2.232" fill="#89658b"/><path d="M136.738 325.757l-1.787-1.115 10.36-15.62c3.24-4.495 8.288-6.842 13.386-6.842 3.856 0 7.74 1.343 10.887 4.115l12.06 11.746-2.413 2.212-9.117-8.028c-3.17-2.8-7.253-4.313-11.44-4.313-.64 0-1.283.037-1.924.11-4.84.542-9.25 3.12-12.092 7.065l-7.667 10.643-.254.027" fill="#c0c4d1"/><path d="M135.942 327.16l-1.895-1.182.885-1.336 1.788 1.115.253-.027-1.03 1.43zm44.48-5.84l-1.21-1.065 2.413-2.212 1.15 1.12-2.353 2.158" class="B"/><use xlink:href="#B" class="E"/><use xlink:href="#C" class="B"/><path d="M110.546 387.884l40.042-55.58c2.38-3.302 6.088-5.025 9.832-5.025 2.832 0 5.682.985 7.993 3.02l51.437 45.3-109.304 12.285" fill="#f5b8cd"/><path d="M64.8 281.987l71.733 44.594z" class="E"/><path d="M136.126 327.26l-71.73-44.594.848-1.36 71.73 44.593-.848 1.36z" class="B"/><path d="M240.47 262.245l-59.99 59.4z" class="E"/><path d="M181.037 322.2l-1.13-1.135 59.99-59.4 1.13 1.134-59.99 59.4z" class="B"/><path d="M90.965 266.534l-20.01 2.25-3.215-28.48c-.595-5.26 3.2-10.007 8.472-10.6l.91-.102c5.274-.594 10.03 3.19 10.626 8.452l3.216 28.48z" class="C"/><g class="B"><path d="M78.207 230.343c-.334 0-.67.02-1.004.056l-.9.102a8.75 8.75 0 0 0-5.901 3.252 8.71 8.71 0 0 0-1.865 6.463l3.125 27.685 18.415-2.07-3.127-27.685a8.72 8.72 0 0 0-3.261-5.887c-1.575-1.252-3.487-1.916-5.472-1.916h0zm-7.97 39.325l-3.305-29.275c-.3-2.756.47-5.47 2.206-7.638a10.33 10.33 0 0 1 6.973-3.844l.9-.102c2.766-.303 5.482.47 7.656 2.2s3.543 4.2 3.855 6.958l3.305 29.272-21.6 2.428m34.305-17.96a.8.8 0 0 1-.796-.712c-.05-.438.267-.834.707-.885l83.066-9.335c.445-.055.837.265.886.705a.8.8 0 0 1-.707.885l-83.156 9.342m3.193 28.172c-.403 0-.75-.302-.797-.7a.8.8 0 0 1 .707-.885l83.065-9.335a.8.8 0 1 1 .18 1.59l-83.155 9.34m-1.612-14.257c-.402 0-.75-.302-.797-.712a.8.8 0 0 1 .707-.883l35.896-4.036c.437-.045.837.267.886.707a.8.8 0 0 1-.707.883l-35.985 4.04"/><path d="M151.4 260.538a.8.8 0 0 1-.797-.71.8.8 0 0 1 .707-.884l37.772-4.244c.442-.043.837.265.888.705a.8.8 0 0 1-.707.885l-37.863 4.248m-41.88 35.315a.8.8 0 0 1-.09-1.595l35.896-4.034c.436-.045.837.267.886.705a.8.8 0 0 1-.707.885l-35.985 4.04z"/></g><defs ><path id="B" d="M145.295 315.553l-54.525 75.68 148.836-16.728-70.038-61.682c-7.307-6.435-18.585-5.167-24.273 2.73"/><path id="C" d="M158.676 309.51c-.58 0-1.164.032-1.746.097a15.7 15.7 0 0 0-10.969 6.412L92.5 390.238l145.246-16.326-68.684-60.488a15.72 15.72 0 0 0-10.376-3.913h0zM89.08 392.23l55.58-77.145.65.467-.65-.467a17.3 17.3 0 0 1 12.092-7.066 17.33 17.33 0 0 1 13.362 4.204l71.393 62.875L89.08 392.23"/></defs></svg>