<svg xmlns="http://www.w3.org/2000/svg" width="205" height="19" fill="none" xmlns:v="https://vecta.io/nano"><path d="M200.164 3.717c.01-.107.36-.342.536-.22-.015.145-.35.233-.536.22zm-9.24-1.257c-.42-.303-.92.224-1.354.075-.216-.177.254-.086.15-.234-.21.09-.58.096-.572-.058.406-.086.453-.126.806-.372.132.177.29.084.45-.025.194.175.236.187.346.41.345-.148.127-.315.046-.476.52.1.448.48.126.68zm-1.218 3.98c-.005.117-.294.236-.458.105.232-.115.185-.28.458-.105zm-.834.013c-.156-.002-.256-.142-.232-.246.176.053.32-.225.413-.305.267.087.04.16.105.242.067-.02.128-.008.187.046-.32.034-.594-.008-.473.263zm.57-3.92c-.178.073-.357.15-.512-.017.18-.09.35-.085.512.017zm-.052-.798c.157.133.223.135.256.008.278.14-.304.288-.398.147.095-.05.12-.103.142-.155zm-2.19.765c.32-.006.663-.23.97-.088-.332.117-.663.224-.97.088zm-.82-.146c-.138-.12-.3.113-.444-.054.13-.17.555-.096.444.054zm-1.5 7.513l-.24-.166c.388-.077.866-.592 1.577-.427-.565.198-1.05.267-1.337.593zm6.055-.36c.18.11-.04.21-.03.317-.143-.064-.302.032-.437-.133.16-.1.303-.04.467-.184zm-6.566.344c-.43.03-.87.157-1.292.117.397-.146.788-.213 1.187-.36.102.083.156.164.105.242zm-2 .134c-.3.097-.76.074-1.24.238-.062-.055-.182-.112-.114-.163.33-.2 1.006-.35 1.52-.468.195.138.038.267-.166.392zm-3.82-8.323c.416.018.553-.25.172-.473.114-.068.224-.107.33-.108.312.196-.242.364.203.564-.238.027-.5.205-.706.017zm-5.213.867c.277-.204.53-.174.79-.214-.062.155-.552.306-.79.214zm-11.194.434l-.18-.125c.164-.158.304-.054.452-.026l-.272.15zm-1.15-.037c.334-.15.654-.148.954.07-.318-.024-.647.065-.954-.07zm-.782.134c.215-.206.742-.22.706-.016-.222-.133-.48.114-.706.016zM159.9 16.1c.068-.05-.022-.107-.112-.162.137-.09.263-.085.382.01-.076.096-.142.163-.27.15zm-.2.192c-.162-.086-.355.154-.51-.016.196-.198.233-.17.42-.385.17.138.046.266.1.4zm-1.095.085c-.203-.177-.14-.19-.43-.213.06-.1.185-.39.473-.263-.613.266.62.094-.044.476zm-.638-.02c-.08-.043-.16-.125-.248-.088-.1.08.013.367-.285.3-.042-.094.124-.182-.038-.28.345-.027.332-.362.675-.376.062.148.182.297-.104.434zm-9.25-12.912c.25-.147.48-.12.708-.018-.248.136-.467-.05-.708.018zm-6.624.227c-.306-.086-.246.18-.517.063-.054-.092.62-.326.517-.063zm-1.223.08c-.214-.086.012-.158-.108-.243.203-.107.39-.044.58-.02-.006.137-.28.09-.47.264zm-6.406-.044c-.263-.202-.66.124-.557-.217.146.098.633.006.557.217zm-2.383.123l-.18-.125c.368-.08.31-.045.472-.265.166.066.34.026.497.175-.27.174-.53.19-.788.215zm-2.814-.09c-.1-.14-.534-.115-.42-.292.163.184.634.05.42.292zm-15.22-.4c.167.04.35-.1.506.096-.146.118-.598.066-.506-.096zm-.064 13.248c-.18-.11-.383.01-.57-.057.38-.247-.172-.16.027-.317.284.16.602-.05.893.028-.242.112-.422.225-.35.346zm-1.718-.093c.16-.1.312-.147.45-.026-.158.1-.3.147-.45.026zm-.323.03c-.14-.116-.08-.4.217-.27-.103.09-.04.184-.217.27zm-.832.014c.14-.1-.006-.2-.18-.126a.19.19 0 0 1-.021.239c-.12-.082-.26.05-.375-.092.328-.11.02-.24.35-.347.143.063.297.023.436.132-.1.045.042.283-.21.193zm-3.1.22l-.24-.166c.21-.178.548.054.24.166zm-1.33-.16c-.135-.165-.293-.07-.437-.133.223-.112.444-.196.645-.06-.072.065-.043.132-.208.192zm-.903-13.396c.13.07.078-.086.196-.034-.16.107.197.02.242.167-.124.124-.543-.018-.438-.132zm-2.086 13.184c.27.1.912-.227.954.07-.298-.032-.883.235-.954-.07zm-4.264.503c-.168-.04-.347.07-.51-.016-.02-.25.76-.172.51.016zm-1.25.4c-.23-.152-.127-.296-.154-.443-.216.187-.588.247-.578.023.35-.068 1.038-.193 1.14.114-.45-.132-.21.196-.41.306zM97 16.976c-.16-.102-.393.043-.396.147-.1-.07-.173-.137-.174-.204.16-.077.645-.144.57.057zm-17.724.132c.18-.06.7-.17.638.02-.207-.07-.44.166-.638-.02zm-3.662.247c-.08-.06-.164-.074-.25-.087.003-.105.233-.235.4-.227.22.113.05.214-.152.314zm-21.166-.636c.162.064.32-.03.3.13-.18.16-.493-.012-.3-.13zm-6.07.02c.27-.095.78-.155.826.064-.28.043-.56.09-.826-.064zm-2.92-.244c.18-.138.35-.134.51.014-.18.138-.34.002-.51-.014zm-1.983.062c-.37.1-.724.032-1.08-.07.187-.16.22-.052.404-.306.102.055.2.167.31.13.088-.05-.045-.108.01-.16.23.077.477-.127.693.14-.207.174-.64.012-.338.27zm-1.93.262c-.44-.32-.523-.295-.993-.426.28-.135.66-.294 1.102-.246.048.094-.34.176-.083.276.352-.1.193-.234.342-.348.1.087.2.05.31.128-.21.295-.47.356-.68.617zm-2.52-.47c.004-.153.284-.207.448-.027-.153.055-.308.148-.448.027zm-2.793-.24c.178-.14.348-.103.514-.064-.176.092-.353.186-.514.064zm-2.9 1.27c.152-.053.316-.285.453-.106.088.125-.35.275-.453.106zm-6.656-.544c.245-.204.475-.137.702-.02-.042.178-.48.163-.702.02zM101.5 3.867c.333-.008.645-.112.66-.22.06.07.02.134.175.204-.3.14-.573.2-.835.015zm-1.743-.612c.293-.168.58-.287.85-.172-.147.273-.547.225-.85.172zm-.41.306c.355-.166.68.02 1.028-.048-.357.184-.696.152-1.028.048zm-.135.076c-.102-.05-.213-.01-.316-.05.087-.05-.045-.107.013-.158.062.024.127.017.195-.034.157.084.213.166.11.242zm-.8-.383c.184-.1.686-.092.633.1-.206-.1-.432.054-.633-.1zm-.754-.182c.032.04.118.083.054.12a.23.23 0 0 1-.114-.163c.194-.025.394-.115.58-.022-.186.184-.345.034-.52.064zm-1.493.232c.22-.093.425.02.64.02-.23.19-.642.216-.64-.02zm-.688-.22c-.082-.043-.16-.125-.25-.087.06.054-.04.104-.14.155l-.182-.125c.356-.164.294-.114.4-.306.13.07.058.135.176.205.068-.038.03-.08.074-.117.27.102.106.19-.087.276zm-1.7.266c.213-.1.07-.2.283-.3.25.075.51.015.76.103-.08.064.055.134.046.2-.376.16-.736.114-1.09.006zm-.147.234c-.08-.06-.165-.073-.25-.087.153-.142-.233-.3.1-.435.3.182.26.353.15.522zm.382-.744c-.038.038-.027.08.054.12.1-.04.177-.077.256.008-.346.033-.69.088-1.024-.032.368-.032.446-.104.714-.097zm-1.487.153c.1.087.208.05.31.13-.183.066-.463.1-.47.264-.13-.2-.193-.378-.21-.563.273.087.9-.05.95.15-.187-.063-.387.027-.58.02zm-2.328.247c.037-.026.07-.052.006-.08.197-.06.39-.084.57.057-.202.13-.392.094-.578.023zm-1.09.006c-.34-.046-.685-.008-1.017-.1.254-.08.348-.187.463-.185-.047.077.276.096.31.13.082-.064.015-.132.08-.197.34-.024.436.197.164.363zm-2.862-.286c.135.156.306-.08.438.132-.187.082-.64.023-.438-.132zm-.44-.89c.157.084.212.166.108.242-.082-.043-.16-.125-.25-.087-.066.02-.135.074-.195.034l.336-.188zm-.564.62c-.31-.132-.447-.096-.586.1-.183-.23.172-.24.4-.306.08.068.247.14.176.204zm-.483.423c-.356-.147-1.757.55-1.408-.044-.258-.01-.864.152-.89-.106.16-.15.9-.174 1.023.03.2-.304.306.001.51.016-.15-.214.176-.353.295-.47.3.182-.406.333-.106.514.072-.063.04-.132.208-.193.094 0 .487.15.365.25zm-3.105 3.485c.268.11.254-.16.59-.18.355.246-.648.514-.59.18zm.66-3.4a.74.74 0 0 1-.64-.02c.23-.174.433-.074.64.02zm1.587-.588c-.332.132-.65.102-.97.09.328-.107.66-.23.97-.09zm-5.738 4.36c.203-.133.394-.133.578-.022-.198.07-.398.16-.578.022zm-1.174-.553c-.102-.062-.22.063-.317-.05.25-.258.37-.094.545-.382.304.155-.03.29-.228.43zm-1.157.044c.082-.064.014-.132.08-.197.42-.015.273.295.58-.022.338.247-.454.394-.66.218zm-.7-.06c-.27-.087-.043-.16-.11-.242l-.336.19c-.3-.238.025-.347-.48-.412.304-.03.87-.07.95.15.24-.126.664.104.718-.178l.243.166c-.177.145-.32.04-.335.19-.36-.11-.55-.12-.65.14zm-.67.377c.144.065.308-.113.444.054-.127.17-.553.096-.444-.054zm-2.453-.59c.02-.146.402-.3.586-.1-.205.155-.398.16-.586.1zm-1.997.138c.186-.074.034-.158.273-.23.336.347.72.08 1.073.23-.23.24-.928.017-1.346-.001zm.157.442c.01-.126.338-.154.518-.064-.182.14-.35.103-.518.064zm-.354-3.67c.158-.1.31-.147.45-.026-.16.11-.31.147-.45.026zm-.977 6.772c.388-.156.37-.17.413-.385.12.13.246.135.385.01.234.25-.45.52-.798.374zm.624-6.345c-.16.11-.31.147-.45.026.2-.064.007-.34.34-.268-.114.076.165.164.11.242zm-.865-.424c.5-.178.165-.856.757-.653-.033.063-.29.188-.22.352.156-.077.298.024.44.132-.33.098-.667.33-.976.17zm1.83 2.84c.36.225.434-.288.84-.094-.357.126-.185.093-.34.27-.19.006-.706.042-.5-.174zm-2.53-2.9c.217-.036.44-.16.646-.06-.23.206-.434.076-.646.06zm-.695 2.366c.39.215 1.15-.002 1.326.24-.386-.1-1.38.175-1.326-.24zm.712.737c.007-.12.34-.2.517-.064-.177.074-.35.12-.517.064zm.008-3.42c.163.104.352-.117.505.095-.142.118-.595.067-.505-.095zm-2.385 2.633c.33.18.697-.168 1.025.03-.3-.015-1.16.34-1.025-.03zm-.786 4.39c.2-.155.343-.284-.037-.36.22-.077.43-.034.633.1-.207.14-.242.44-.596.26zm-.767-3.365c.25.106.858-.093.883.186-.257-.02-.854.037-.883-.186zm.305-.627c.327.183.68.042 1.012.2-.38.173-1.072.052-1.213-.076.112.055.188-.054.2-.114zm.792-.294c-.122.062-.195.127-.208.19l-.12-.083c.133-.2-.043-.263-.36-.33.378-.173.434.026.688.22zm-2.705.157c-.055-.338-.266-.1-.622-.257.247-.15.437-.146.353-.428.394.45 1.172.106 1.773.292-.403.106-1.04.088-1.547.113.088.096.238.193.042.28zM61.3 9.723l-.182-.125c.245-.123.492-.305.718-.177-.01.175-.334.113-.536.302zm-.5-.015c-.312-.12.155-.392.34-.268-.062.177-.385.018-.34.268zm-.383-4.267c-.44-.057-.463-.175-.645.06-.244-.004-.292-.14-.238-.246-.462.175-1.243.07-1.457-.24.53.195 1.166.104 1.542-.035-.1.104-.015.212.104.322.035-.17.058-.184.335-.19.14.07.03.133.048.2.147-.2.145-.065.39-.068-.173-.17.225-.194.4-.068-.005.137-.28.1-.47.265zm-.744 3.915c.16.1.32.058.177.205-.283-.005-.152-.173-.427-.29-.292.192-.546-.12-.84.095.168.04.34 0 .5.173-.137.11-.258.006-.396.148-.228-.066.074-.31-.238-.246-.193.087.185.19-.084.277-.13.023-.255-.02-.378-.09.023-.12.293-.23.22-.35-.15.02-.293-.08-.438-.132.9-.027 1.795-.044 2.678.16-.28.284-.5-.155-.774.056zM58.3 5.338c.102.075.205.12.31.128l-.134.076c.033.027.063.055-.006.08-.342-.19-.1.17-.274.23-.145-.063-.3.033-.44-.132.312-.124.323-.256.54-.382zm-1.427-.64c.338-.115.51.065.714-.098.08.068.248.14.177.204-.293-.082-.61.14-.89-.106zm.092.48c.12-.076-.156-.163.02-.237.17.02.34-.007.51.015-.218.13-.232.283-.53.222zM56.8 2.23c-.192-.056-.723.01-.7-.22.28-.108.575-.315.975-.17-.16.146-.3.04-.463.185.16.1.32.058.178.204zm-1.02 2.476c.001-.088.287-.19.463-.185-.125.123.287.04.37.17-.286.133-.558.05-.835.015zm-.285.4a.35.35 0 0 1 .317.049c-.475.194-.687-.313-.933-.385l-.334.19c-.475-.252-.967-.223-1.463-.162-.068.193-.263.34-.413.385-.013-.31-.246.1-.506-.095.42-.2.753-.315 1.004-.567.4.364 1.15-.005 1.67-.03-.064.078-.417.147-.273.23.242-.107.475-.056.72-.178-.083-.043-.258-.027-.184-.125.23.14.816-.104.823.143-.307-.116-.807.174-.54.382.052-.287.88-.103.895.026-.236-.015-.92-.152-.78.137zM53.24 6.143l-.184-.125c.157-.1.3-.147.45-.026l-.268.15zM51.633 5.3c.163.097.245-.116.27-.152l.244.166c-.144.14-.603.178-.513-.015zm-.55-.375c.343-.19.276.14.63.178-.22.06-.62-.023-.63-.178zm-.11-.24c-.222-.113-.052-.214.15-.314.283.23.596.052.885.185-.18.156.037.295-.347.348-.297-.115-.056-.214-.105-.32-.195.042-.383-.015-.585.102zm-1.02-1.86c.18-.14.35-.103.52-.065-.008.118-.34.2-.52.065zm-.198 1.863c.01-.092-.054-.187.213-.272.318.12.014.396-.213.272zm-.523.144c.182.175.724-.03.696.14-.224.013-.9.175-.696-.14zm.414-.386c-.063.104.09.215.104.32-.157.113-.3.01-.445-.052.176-.067.174-.334.34-.268zm.344-.348l-.267.15-.185-.125c.16-.157.304-.053.45-.026zm-1.055-1.383c.325-.044.643-.008.958.068-.308.07-.877.158-.958-.068zm-.646.06c.218-.057.447-.273.65-.14-.223.123-.448.285-.65.14zm3.17 1.405c-.125-.05-.262.084-.378-.1.11-.204.5-.01.378.1zm.634.1c.188.07.386-.015.573.056-.162.107-.646.15-.573-.056zm1.173-1.12c-.16.112-.3.148-.45.027.158-.11.3-.147.45-.027zm.553 1.2c.19.05.39-.063.573.057-.158.027-.647.16-.573-.057zm1.333-2.427c.326.174.594-.2.787-.216.26.21-.136.173-.285.39-.116-.164-.258.01-.39.068-.16-.084-.212-.165-.11-.242zm2.26.703c-.002.106-.294.3-.463.185.153-.042.32-.273.463-.185zm.292-.47c-.095.05-.118.103-.14.155-.148-.083-.63-.053-.56-.215.225.122.48-.118.7.06zm.323-.03c.313.115.64.033.953.147-.39.083-.77-.03-1.154-.033l.2-.114zm1.47.084c-.11.062.133.136.05.2-.165-.087-.347.054-.506-.094.158-.1.313-.19.456-.105zm.466 1.485c-.26.05-.515.018-.775.057.028-.1.77-.254.775-.057zm.55 1.21c-.198.078-.394.116-.585.102.122-.058-.518-.042-.238-.246.27.08.55.1.823.144zm.192-2.54c-.226.153-.438.13-.646.06.216-.036.44-.16.646-.06zm-.6-.574c.338.057.693-.1 1.02.1-.338.028-.247.29-.536.302-.342-.094.033-.365-.233-.326-.1.1.053.187-.212.272-.175-.124-.075-.24-.038-.36zm1.495.6c-.027.08-.1.157-.274.23-.157-.196-.34-.025-.5-.174l.134-.075c.182.16.324-.03.64.018zm.033 2.944c-.182.04-.647.104-.44-.132.1.192.554-.092.44.132zm-15.54 5.746l-.123-.083c-.044.02-.088.04-.128-.004.12-.182.445-.293.716-.178-.188.17-.46.09-.465.265zm-1.612-1.676c.263-.09.52-.083.768.02a1.04 1.04 0 0 1-.768-.021zm-4.683.144c-.196-.037-.25-.246-.562-.215.184-.186.343-.005.523-.145.237.126.328.248.04.36zm-2.38 1.125c.187-.1.032-.146.267-.152.287.13-.084.34-.267.152zm-1.82-1.484c.456-.122.9-.072 1.34.078a9.21 9.21 0 0 1-1.339-.078zm-2.542 5.653c.133-.258.707-.07 1.02.03-.347.1-.676-.088-1.02-.03zm-.517-4.906c.1-.05.223-.154.327-.11-.037.025-.07.05-.005.08.112-.068.217-.065.322-.03-.22.12-.437.15-.644.06zm.107.322c-.122-.082-.258.05-.378-.09l.2-.114c.162.1.32.058.18.205zm-.563-1.21c.184-.13.7-.184.64.02-.205-.144-.435.13-.64-.02zm-.705 1.013c.198-.074.39-.077.583-.102-.112.16-.328.197-.583.102zm-.95-.147c.3-.022.593.06.89.105-.278.16-1.043.19-.89-.105zm-.096 4.57c.188.045.4-.102.57.056-.165.266-.83-.105-.57-.056zM29.02 9.9c-.27-.097-.25.16-.578.025.164-.16.65-.242.578-.025zm-.832.017c-.246-.16-.508-.08-.767-.02.094.135.112.27-.152.394-.187-.063-.378-.082-.563-.214.2-.127.385-.017.587-.183-.1-.163-.6-.1-.624-.256a.36.36 0 0 0 .322-.031l.307.206c.442-.18.54-.007 1.032-.13-.13.076.084.16-.142.234zm-1.8 4.404c.018-.162.387-.196.58-.103-.018.2-.382.138-.58.103zm.46-4.48c-.22.115-.43.073-.634-.098.22-.087.424.05.634.098zm-1.34-.077c-.16-.172-.33-.177-.51-.014l-.184-.123c.328-.132.643-.04.962-.013l-.266.15zm-1.097 4.542c.243-.16.468.016.698.06-.24.12-.47.042-.698-.06zm-.65-4.233c-.168-.018-.232-.06-.247-.165-.46.18-.89-.115-1.348.082-.2-.102.037-.35-.313-.128-.216-.122-.21-.442.145-.314-.073.05-.138.102-.01.16.07-.45.8-.29 1.24-.403l.308.207c.256-.013.525-.24.772-.058-.13.247-.72.278-1.037.2.06.058-.035.067-.132.076.212.02.417.192.63.176.333-.218.662-.382.97-.17-.516-.018-.39.163-.592.26.001-.205-.25-.08-.388.07zm-2.576 3.706c.25.112.514-.04.757.18-.222.094-.763.01-.757-.18zm-.227-3.942c-.232-.33-.232.03-.37-.248-.326.052-.992.2-1.09.01.055.028.405.001.26-.073-.217.042-.428.012-.636-.097.18-.137.343-.033.508.093.205-.114.57-.045.6-.262.407.18.924-.187 1.14.19.046-.238.487-.22.7-.1-.617.037-.522.32-1.115.486zm-2.293-.222c-.102-.19.368-.18.146-.314.13-.065.26-.1.387-.07-.292.122-.12.507-.533.383zm.18-.948l.247.165c-.133.098-.264.133-.388.07.3-.07-.15-.163.14-.234zm5.748.316c-.194-.03-.722.015-.696-.14.195.001.724-.06.696.14zM19.46 13.85c.22-.155.43-.056.636.017-.026.155-.43.144-.636-.017zM18.454 11.2c.18-.11.687-.183.638.018-.212-.014-.433.114-.638-.018zm-7.592 1.152c.283-.2.475-.003.5.014-.17.008-.347.134-.5-.014zm-8.634-1.093c-.183-.258-.386.127-.57-.132.222-.21.764-.12.765.018-.133-.054-.072.06-.196.115zm15.66-2.578c-.11-.108.303-.247.392-.15.002.058-.233.334-.392.15zm38.26.612c.29.116-.085.35-.272.23.185-.073.033-.158.272-.23zM43.542 8.206c-.158-.084-.213-.165-.11-.24.273.064.567-.16.83.064-.245.15-.475.078-.718.178zm-.563-2.96c.433-.234.86.144.68.377-.187-.163-.142-.24-.68-.377zm-.234-.325c-.062-.055-.187-.11-.118-.162.142.122.318-.25.45-.027l-.333.19zM41.212 4.8c.082-.373.857-.182 1.287-.043-.438.144-.864.11-1.287.043zm.03.518c-.112-.07-.176-.137-.18-.204-.23.223-.77.1-.762-.1.245.174.523-.143.762.1a.51.51 0 0 1 .642.018c-.262.186-.33-.047-.462.186zm-1.63 2.3c.332-.172.65-.126.967-.09-.332.16-.65.13-.967.09zm-.304-3.11c.2-.117.397-.155.585-.103-.193.008-.402.256-.585.103zm1.47.083c-.18.156-.345.038-.517.064.01-.183.34-.21.517-.064zm.535-.303c-.083-.044-.258-.027-.185-.125.394-.08.563.08.82.222-.072.064-.04.13-.206.193-.253-.1-.085-.188-.173-.283-.344.16-.485.166-.54.382-.232-.003-.15-.138-.24-.246.18-.14.347-.088.523-.143zm1.977.175c-.326.175-.227-.044-.502-.173.2-.178.51.052.502.173zm-4.672-.173a.66.66 0 0 1 .372.17c-.185.18-.566-.053-.372-.17zm-1.27.72c-.104-.156-.186-.22-.446-.053-.11-.07-.176-.138-.178-.204.18-.14.348-.088.522-.144.16.174.334.133.503.174-.28.072-.157.08-.4.227zm-2.162-.3c-.07.057-.04.143-.194.034.025-.08.097-.156.27-.23.33.167.688-.043 1.026.03-.23.282-.622.154-1.103.166zm-.164.552c.157-.112.304-.066.445.053-.157.112-.304.067-.445-.053zm.36-1.58c.277.08.16.343-.083.276.194-.088-.186-.19.083-.276zm.688.298c-.166-.087-.348.055-.51-.094.142-.125.592-.022.51.094zM33.413 7.32c.115-.108-.176-.02-.118-.162.29-.158.9-.084.95.147-.262-.232-.555.018-.833.015zm-.477-3.552c.244-.11.473-.04.708-.02-.243.117-.482.183-.708.02zm-1.16 3.108c.157-.113.304-.067.445.052-.157.112-.304.067-.445-.052zm-1.027-3.012c-.122-.116-.256-.02-.374-.17.3-.128.235-.09.466-.265.2.206.42.123.626.257-.244.14-.464-.094-.717.18zm-1.773-.447c.31.21.648-.08.956.146-.03.177-1.167.103-.956-.146zm-1.18 3.507c.158-.146.302-.04.46-.187.337.196-.267.3-.46.187zm-3.87-2.93c-.51.22-.397.68-.93.532.378-.132.84-.598.236-.75.002-.144.222-.093.395-.148.1.24.473.083.76.18-.306.228.277.008.37.248-.284.08-.55-.104-.832-.063zm-.037.635c-.082-.05-.17-.01-.252-.087-.052-.178.488-.335.783-.218l-.53.304zm-.374.904c.206-.148.722.007.7.138-.232-.06-.47.012-.7-.138zm-.576 1.097c.224-.177.424.048.65-.14.113.07.177.137.18.203-.28.036-.564.13-.83-.062zm-1.31-1.785c.245-.185.474-.064.707-.02-.236.018-.476.085-.707.02zm-.34-1.957c-.27.23-.512-.053-.776.058-.182-.198-.31-.247-.63-.256-.108.063.135.136.053.2-.56-.232-.226-.39.04-.713.142.07.033.133.054.2.1-.062.21.093.32.048-.113-.07-.18-.137-.18-.204.24-.12.405.022.332-.2.15.007.303-.034.444.13-.09.083-.263.036-.2.114.215.002.427.044.638.097-.266.138.027.047.12.162-.16.158-.296-.084-.452.028.202.225.42.143.63.256.05.072.276.345-.08.276.14-.147-.243-.056-.31-.207zM21.05 4.79c-.14-.156-.3.024-.442-.13l.265-.152c.073.095.223.19.176.283zm-1.37 1.552c.284-.113.56-.057.83.063-.286.157-.564.14-.83-.063zm-.572-2.44c.087-.05-.05-.107.01-.16.334.162.688-.046 1.023.108-.34-.045-.7.238-1.032.05zm.164 1.674c-.154.1-.31.19-.454.106.074-.05.14-.102.01-.16-.24.073-.085.156-.27.23-.288-.153.146-.288.217-.43.233.042.062.253.247.166.117-.1-.038-.187.08-.277l.25.166c-.1.064-.24.126-.077.197zm-1.258-1.664c0-.105.23-.236.398-.228.282.087-.167.154.116.24a.49.49 0 0 1-.513-.014zm.25 1.318c-.09-.29-.425-.024-.7-.138.182-.353.896-.163.7.138zm-.04-1.67c-.155.113-.303.067-.447-.052l.265-.152c.132.07.062.134.18.204zm-1.13-.508c.11.07.108.136.054.2-.385-.01-.493-.08-.31-.207-.3.04-1.222.155-1.468-.238.3.118.234-.03.515.014-.037-.094.124-.182.207-.273a1.3 1.3 0 0 1 .515.014c.064.12-.042.238-.083.356.314-.276.6-.18.912-.214.26.286.515.25.945.383-.204.202-.887.024-1.285-.035zm.144.918c-.19-.092-.386-.01-.572-.134.163-.14.64-.04.572.134zm-.378 1.063c-.19-.037-.377-.147-.567-.214.28-.016.564-.13.844-.176-.126.063-.093.13.054.2l-.33.19zm-1.5.397l-.188-.124.2-.114c.12-.077-.16-.164.013-.238.12.18.263-.092.38.09-.2.127-.152.26-.406.387zm-1.03-.026c.194-.01.4-.258.585-.104-.198.117-.4.274-.585.104zm2.426-2.083c.147.062.3.022.444.13-.19.137-.644.04-.444-.13zm-.796.455c.067-.052-.026-.107-.12-.162.326-.087.634.17.96.066-.276.164-.455.12-.842.097zm-.32-.05c-.254-.123-.862.123-.894-.18l.125.082c.132-.115.085-.236.083-.355.125.08.26-.05.382.09-.53.268.46.148.304.365zm-1.167.13c-.064-.055-.188-.1-.122-.162.13.06.15-.186.387.01l-.265.153zm4.23-.88c.32.005-.008.168.306.287l-.332.19c-.07-.096-.452-.06-.3-.207.152-.04.297.063.447.052.09-.104-.41-.224-.11-.32zm.48 1.802c-.11.198-.23.305-.59.182.43.018.16-.226.59-.182zm.738-2.882c-.12.076.16.163-.013.238-.308.04-.288-.31.013-.238zm1.95.808c.128 0 .38.18.176.283-.163-.097-.313-.194-.176-.283zM12.54 5.2l-.186-.123c.158-.158.303-.056.452-.03l-.266.152zm-2.377-.1c.224-.19.435-.132.643.016-.215.016-.436.157-.643-.016zm-1.043.29c.428.037.862-.076 1.286.033-.4.196-1.1.12-1.286-.033zm-.348-.883c.173.043.575-.06.38.168-.1-.122-.504.044-.38-.168zm.835.06c.105.23.2.054.445.13-.108.064.137.136.056.2-.314-.03-.223-.175-.514-.013l-.19-.125c.07-.064.037-.132.203-.193zm3.202-.912c-.001-.205-.254-.08-.39.07-.22-.23.438-.498.727-.34-.004.152-.19.254-.336.27zm-2.16-.69c-.202-.116.032-.28-.3-.286.457-.273.5.217.892.26-.203.175-.38-.193-.582.025zm-1.66-.44c-.094-.278-.263.015-.513-.092-.03-.26.943-.125.513.092zm-1.674-.122c.07-.064.037-.132.202-.194.104.087.213.05.318.128-.18.117-.355.213-.52.066zm39.758.295l.4-.227c.177.233.4-.058.57.136-.33.124-.65.098-.97.09zm-2.804-.32c.08-.064.013-.133.08-.196.14.156.3-.024.44.13-.178.074-.352.12-.52.065zm-1.8-.13c-.388-.286-1.16.058-1.333-.237.375.03 1.4-.19 1.333.237zm-.53.223c-.104-.044-.213-.025-.313-.128.287-.05.18-.187.456-.106-.13.076.083.16-.143.234zm-1.517-.362c-.086-.252-.314-.055-.563-.215.288-.14.552.058.84-.096.103.076.206.12.313.128-.318.088-.374-.076-.59.182zm.13.92c-.082-.05-.17-.008-.25-.087l.334-.2c.182.1.02.187-.083.276zm-1.038-.786c-.293-.15-.147-.422.094-.434.134.15.118.294-.094.434zm-2.15-.538c.094-.17.44-.086.6-.34.35.103-.267.178-.083.276.165.086.353-.155.513.015-.355.175-.693.086-1.032.05zm.655.774c.005-.046.173-.276.334-.19-.03.104-.065.305-.334.19zm-1.91-.293c.18-.13.34.058.51.094-.185.202-.344.015-.51-.094zm-.497-.252c-.127-.016-.253-.062-.374-.17.177-.09.35-.086.514.015-.095.05-.118.103-.14.155zm.895-.89c-.326.062-.64-.042-.96-.067.326-.077.65-.11.96.067zm-1.916.78c-.27-.043-.272-.278-.637-.097-.036.136.376.108.175.283-.253-.004-.403-.08-.498-.253.36-.215 1.047-.296 1.16-.046-.132-.054-.073.058-.2.113zm-2.853-.598c.17-.207.63.07.57.135-.194.01-.384-.034-.57-.135zm-.42.545c.1-.078.506-.072.4-.228-.123-.166-.594.04-.503-.174.236.003.475-.047.698.14-.127.062-.095.13.052.2-.22.096-.436.115-.646.06zM31.323.86c.267.113.138.215.365.328-.177.092-.347.057-.52.065.13-.13-.017-.265.154-.392zm-.672.458c-.094-.203-.253-.118-.5-.253.442-.028.81-.454 1.037-.13-.372.053-.353.22-.538.382zm-1.183.364c.245-.13.494-.336.72-.18-.245.132-.49.24-.72.18zm-3.9-.622c-.13-.066-.587-.096-.5-.253.14-.063.587.115.5.253zM23.796.692c.238.02.816-.055.83.142-.28-.001-.56.003-.83-.142zm-3.662-.22c-.288-.05-.232.063-.643-.018.095-.123.216-.22.4-.228-.127.17.26.083.196-.034.166.097.09.188.048.28zm184.333 1.912c-.54-.2-1.414-.143-1.543-.648-.268.218-.734.122-.807.372.082.043.175-.033.265-.07.116.155-.035.103-.212.192-.155-.156-.322-.2-.495-.175-.18-.1-.104-.19.1-.276-.163-.03-.32.004-.33.108-.383-.29-1.302-.047-1.934.096-.69-.372-1.466.13-2.22.405l-.12-.084c.322-.42 1.038-.43 1.417-.7-.118-.116-.255-.022-.37-.17-1.12.43-1.788.263-2.873.543-.036-.04.007-.08-.053-.12.39-.045.986-.234 1.197-.44-.16-.124-.343.016-.503-.095.066.17-.108.206-.332.108a.31.31 0 0 1-.03.318c-.37-.098-1.213.04-1.063.363-.164.124-.053-.25-.307-.13-.035-.082.26-.078.15-.234-.258-.03-.503.272-.423.384-.175.054-.13-.21-.293-.288-.348.108-.137.234-.353.347-.173.088-.212-.13-.113-.163-.264-.08-.216.173-.278.23-.078-.017-.334-.124-.36-.25.164-.145.308-.094.468-.184-.372-.147-.56.138-.543.3-.455.033-.866.042-1.2.36-.323-.116.053-.2-.097-.32.263-.06.522-.084.782-.134-.234-.167-.218-.325.046-.476-.158-.086-.318.005-.33.108-.02-.192-.304-.018-.36-.25-.367.21-.692.197-1.175.2-.084-.117.355-.2.452-.025.068-.024.04-.05.01-.08l.134-.075c-.242-.15-.512-.01-.775.054-.115-.163.037-.317-.08-.48-.146.165-.15.09-.407.225-.232-.1-.15-.19-.293-.288-.167.062-.137.13-.2.192-.174-.085-.008-.16-.233-.246-.393.085-.775.053-1.158.042-.157-.18.158-.097.346-.267-.182-.11-.398.126-.572-.058-.003.066-.15.127-.082.196-.925-.168-1.9.196-2.828.067-.07.05.052.108.112.163-.16.1-.317.188-.467.185-.207-.634-1.263.146-1.796.02.198-.564.877-.395 1.406-.63-.267-.13-.612.146-.692-.14l-.406.225c-.154-.07-.112-.137-.173-.205.17.01.358-.166.52-.062-.083-.18.166-.097.217-.272-.268-.317-.635.387-.902.05l-.895.647c-.25-.114-.107-.216.03-.317-.194-.207-.42-.063-.632-.1.037.107-.03.212-.286.31.124.05.265-.083.376.092-.222.1-.436.084-.64-.02l-.61.34c-.087-.236.133-.186-.3-.21-.296-.115.16-.207-.097-.32-.116.385-.463.26-.888.568-.378-.072-.763-.082-1.136-.196-.32.372-.697.437-1.15.64-.282-.115.23-.205.16-.313-.587.022-1.206.55-1.49.828.595.103.807-.422 1.202-.52.108.07.106.136.045.2.162.077.43-.166.28-.23.52.323 1.616-.6 2.323-.164-.47.457-1.453.467-2.1.4-.437.544-1.34.486-2.165.527.245-.24.386-.415.45-.702-.188.164-.35.083-.535.22-.546-.44-.804.22-1.33-.162-.6.18-.41.13-.983.246.17.073-.044.132.045.2-.177.055-.344.004-.527.142-.282-.155.083-.24.277-.23-.05-.182-.797.035-.788.214-.255-.02-.525.133-.76-.105-.36-.03-.76.375-1.112.243-.222-.233.178-.446.383-.665-.465.02-.682.346-1.31.277-.218-.158-.092-.19-.368-.17-.22.143.394.062.174.205.19.018.38.048.577-.02.082.206.027.185.37.172.06.055-.074.103-.143.154-.178.067-.32-.22-.496-.175-.004.067-.15.128-.082.196-.22.06-.426-.027-.64-.02-.09-.108-.024-.147.142-.154.126-.038.05.067.18.125.04-.118.143-.234-.03-.36-.912.615-1.764.583-2.645.87-.092-.056-.182-.112-.114-.163-.078.125-.752.34-1.186.36-.045-.206.654-.3.615-.418.168.178.335.086.07-.038-.73.18-1.4.265-1.948.256-.195-.273.682-.166.683-.456-.25.006-.326-.08-.458.105-.83-.22-2.374.376-3.247.454-.182-.112.514-.196.158-.314-.13.224-.453.283-.737.335.187.045.374.113.572.06.035.04-.008.08.052.12-.397.136-.754-.16-1.165.12-.116-.07-.044-.134-.173-.205-.317.18-.602.046-.9.13-.106-.07-.106-.136-.046-.2-.143-.064-.308.113-.443-.054-.137.05-.08.104-.014.16-1.182-.054-1.98.01-3.15.098-.1-.084-.02-.16.15-.234-.2-.024-.39.066-.58.02-.316.096.12.216-.156.313-.285-.168-.588-.106-.902.05-.173-.086-.01-.16-.235-.247-.12.09.032.187-.09.276-.342-.233-.295.017-.774.055-.173-.085-.008-.16-.234-.246-.056.064-.06.13.046.2-.4.1-1.27-.17-1.242-.44-.61.14.47.244.085.48-.22-.01-.148-.115-.43-.212-.308.15-.655-.008-.796.293-.28-.002-.6.02-.686-.22l-.337.19c.222.217.093-.167.315.05-.2.293-1.12.067-1.7.264.1-.158.05-.293.35-.347-.43-.227-.535.296-.99.327-.275-.26-.593-.04-.9.052-.342-.23-.715-.132-1.083-.075-.08-.174.34-.056.464-.185-.12-.123.192-.233.098-.355-.364.232-.873.263-1.2.52-.1-.077-.258-.012-.504-.095-.127-.235.768-.03.284-.31.206-.156.38.055.587-.1-.18-.192-.734.125-.693-.14-.216.138-.442.073-.79.213.033-.324-.37-.01-.686-.22-.405.228-.782.15-1.178.28-.016.162.3.288.497.175-.05.275-.605.107-.842.093-.053-.125.126-.248.217-.272-.04-.13-.223-.138-.227-.326-.04.357-.38.1-.735.335.13.212.3-.024.436.133-.214.015-.44.155-.64-.02-.06-.078.11-.032.203-.113-.09-.08-.27-.044-.18-.125-.23-.126-.1.257-.323.03.058.135.177.27-.036.397-.308-.006-.01-.134-.234-.246-.18.087-.118.182-.09.276-.108.01-.21-.057-.323.03-.325-.183.215-.338-.018-.518-.076.104-.194.206-.156.313-.23.172-.41-.185-.647.06-.232-.1-.15-.19-.293-.287-.293.155-.56.048-.836.013-.17.272-.642.186-.977.168-.17-.086.342-.148.022-.238-.298.24-.612.11-1.037.126-.27.085.107.19-.088.276-.376.036-.055-.237-.356-.33-.17.008-.24.047-.27.15-.6-.455-1.3.207-1.92-.06-.234.263-.372.217-.8.373-.116.005-.187-.16-.438-.133-.06-.202.387-.1.533-.222-.388-.133-.69.025-.976.168-.316-.076-.164-.166-.356-.33-.258.05-.4-.067-.526.143l-.24-.166c.1.217-.585.3-.835.014-.215.286-.4.16-.714.097-.268.137.026.047.115.163-.16.1-.3-.002-.45.025-.237-.195-.066-.192.028-.317-.277-.007-.55-.06-.806-.305.067-.05.133-.057.195-.033-.033-.152-.63-.087-.888-.108.665.13.533.386 1.176.474-.62.327-.675-.252-1.138-.195.008.173.478.36.403.53-.164-.156-.604-.136-.738-.34-.187.166-.2.338-.366.506.088-.283-.234-.272-.477-.414-.12-.1.284-.203.028-.318-.12.126-.18.126-.156.313-.17.005-.4-.148-.263.072-.2-.007-.373-.123-.557-.217-.002-.123.585-.001.472-.264-.35.134-1.907.448-1.602-.01-.2-.018-.4.167-.578.022-.29.372-.957.06-1.45.43-.1-.266-.502-.104-.354-.33-.215-.067-.176.203-.47.264-.5-.032-.97-.154-1.482.073-.042-.223-.467-.167-.51-.016-.174-.215-.378-.083-.558-.216.05.13.15.135.228.325-.25.02-.526-.146-.62-.258-.335-.045-.186.23-.638-.02-.03.065.07.134-.082.196.283-.046.553.02.82.145l-1.406-.043c-.036-.04.007-.08-.054-.12.22-.07.613.103.653-.14-.33-.13-.638.18-1.082-.074-.09.057-.182.113-.264.07-.057.065-.06.13.047.2-.3.13-.554-.023-.84.093-.227-.087-.062-.16-.236-.246-.253.095.126.202-.21.192-.236-.1.16-.192-.174-.204-.183.06.02.133-.08.196-.968-.497-2.193-.046-2.988-.292-.102-.082.19-.153.148-.234-.356-.087-.75.265-1.084-.073-.056.064-.06.13.046.2-.14.14-.26.04-.396.146-.16-.07-.02-.133.082-.196-.183-.1-.386.01-.574-.057-.07.05.054.108.115.162-.14.133-.256-.007-.39.067-.017-.067.093-.13-.046-.2l-.27.15c-.173-.085-.008-.16-.236-.246l-1.863.06.18.125c-.17-.01-.356.166-.517.064-.16-.072-.02-.134.08-.197-.37-.104-1.053.087-1.232.16-.09-.168-.24-.2-.504-.096.32.162.026.16-.15.234.6-.064.827.17 1.468.086.07-.073-.06-.033-.12-.083.144-.173.247.107.39-.067.2.2.197.15.484.333-.737-.186-1.77.128-2.295-.15-.043.038-.007.08-.075.117-.25.075.067-.15-.174-.204-.41.315-.778.1-1.16.043-.12.217-.387.194-.652.14.102-.156.338-.308.168-.472.192-.045.512.025.527-.142-.248.02-.254-.016-.37-.17-.115.177-.282.133-.344.267-.218.056-.42-.1-.647.06-.24-.296-.818-.15-1.278-.04 0-.242-.228-.227-.573-.058-.045-.068-.038-.134.08-.196-.417-.123-.867.136-1.287.04-.12.075.154.164-.02.237-.137.107-.238-.2-.383-.01-.108-.07-.108-.136-.047-.2-.203-.04 0 .22-.33.1-.157-.084-.212-.166-.108-.242-.33.108-.9-.12-1.037.127-.174-.085-.008-.16-.236-.245-.017.246-.337.03-.323.03-.453.023-.615.335-1.097.086-.1.23-.624.107-.91.13-.018-.067.092-.13-.048-.2-.213.255-.5-.003-.855.252-.1.164.317.22.438.133.113.037-.305.175-.397.148-.13.186.286.053.377.1.062.068-.117.13-.21.192-.104.02-.35-.258-.64-.02-.16-.098-.308-.195-.17-.284-.224-.148-.475.057-.694-.14-.065.104-.004.242-.275.23.16-.29.654-.488 1.143-.64-.21-.032-.416-.126-.626-.178-.1.076-.135.237-.33.11-.068.064 0 .132-.08.196-.292.1-.158-.098-.43-.212.032.335-1.102.352-1.22.003-.01.197-.27-.008-.464.184.2.148.43-.05.632.1-.015.15-.55-.008-.766-.024-.027.08-.1.156-.276.23-.16.088-.142-.128.013-.16-.22-.067-.25.2-.087.276.154-.054.295.05.456-.105.057.08.056.16.1.242-.308.108-.587-.144-.895-.028-.058-.155.47-.434.038-.476.065.217-.096.107-.336.19-.024-.237.223-.1-.237-.246-.034.153-.06.205-.342.268-.1-.304-.485.093-.754-.182.775-.023 1.392-.257 2.248-.05-.303-.277.594-.107.483-.423-.1-.08-.2-.042-.31-.13-.135.257-.663.054-.762-.103.172.233-.31.2-.1.434-.17-.017-.35.108-.513-.015-.122-.13.514.028.08-.197.142-.173.248.106.4-.067-.118-.07-.045-.134-.176-.204-.388.254-.484.046-.567-.137-.027.332-.83.093-1.23.16-.143.147.015.105.176.205-.442.257-1.135-.01-1.366.236-.255-.1.048-.184-.042-.28.342 0 .688-.047 1.023.03.124-.102.132-.208.026-.317-.092.08-.174.04-.255-.008-.033.052-.067.105-.014.16-.344-.25-1.317-.032-1.555.19.18-.398-.454-.206-.6-.497-.113.066-.22.067-.323.03-.133.212.287.048.372.17.1.168-.276.268-.618.498-.282-.226.285-.22.288-.39-.312-.16-.253.013-.586.102.104.096.027.187.042.28-.155.056-.29-.132-.452.026.265.168.568-.157.822.144.332-.156.665-.287.983-.248.108.1-.295.058-.4.067-.108.117.19.144.25.064-.055.683-1.856.03-2.843.255.092.056.183.112.115.163.14.12.3-.114.445.054.028.113-.486.246-.647.06.122.19-.435.43-.658.22-.075-.045.39-.162.518-.064-.075-.237.15-.228.227-.43-.274-.1-.186-.154-.493-.253.463-.077.723.1 1.3-.2-.26-.195.033-.188-.36-.33.002.133.235.272-.16.394-.428-.008-.848-.103-1.28-.04.157.084.212.165.11.242.19.044.38.05.573.057-.02.112-.27.177-.403.227-.127-.057-.062-.11.013-.16-.36-.116-.107.225-.525.143-.017-.12.147-.234.094-.356-.468.287-1.32-.03-1.82.264-.087-.096.082-.184-.17-.284-.242.086-.468-.028-.72.178.164.084.223.165.24.246-.307.085-.6.004-.9.13-.138-.162.24-.453.53-.222-.138-.124.1-.235-.036-.36-.278.273-.566.155-1.116.324.137.167.306-.067.446.054-.024.195-.38.02-.592.18-.118-.07-.045-.134-.177-.204-.167.427-.748-.032-1.103.165-.165-.3.503-.198.543-.38-.06-.04-.13.014-.195.034-.28-.088.17-.154-.11-.242-.235.115-.573-.025-.464.185-.228.17-.42-.092-.64-.02-.045-.106.08-.254.268-.15-.034-.276-.837.2-.884-.185l-.403.226c.156.07.115.136.177.205-.253.09-.25-.062-.372-.17-.41.307-.78-.005-1.463-.163-.39.214-1.207-.133-1.798.026-.02.188.27.052.44.132-.104.208-.736.144-1.036.128-.097-.2.403.01.335-.19-.195-.096-.348-.158-.365-.25-.16.076-.453.3-.677.457-.295.05-.212-.214-.426-.292-.153-.03-.65.197-.573-.057-.508.203-.994.13-1.48.074-.288-.128.25-.23-.037-.36-.376.108.093.24-.22.352-.294.1-.3-.21-.488-.333-.177.076-.338-.044-.513-.015.056-.105.004-.212-.23-.325-.012.06-.1.168-.202.113-.158.107.197.02.244.166-.182.138-.342.002-.512-.015-.142.1.233.15.312.128.016.094-.058.184-.086.276-.246.003-.244-.143-.4.068-.268-.188.076-.14.084-.276-.258-.116-.242.087-.335.19-.304.057-.596-.05-.897-.026-.012-.12.203-.233.22-.352-.282-.067-.53-.39-.88-.264-.24-.25-.3-.38-.867-.424.164.085.383.098.367.25-.202.108-.39.045-.58.022-.132.076.08.16-.145.234.248-.01.706.22.768.023.032.094.093.19-.085.276-.222.015-.14-.227-.45.026-.28-.087.17-.154-.11-.24.036.24-.314.223-.586.102-.168.146.072.2.244.166-.113.073-.216.03-.33.1-.068-.095-.44-.2-.3-.288-.112-.025-.562.206-.445-.053-.206-.08-.345.344-.658.22-.062-.068.117-.13.206-.193-.32-.034-.892-.27-1.025-.03-.096.03-.545-.052-.244-.165-.564.016-1.31.25-1.53.7-.15.01-.296-.038-.45.026-.246-.14.242-.257-.098-.4.313-.15.307-.042.51.014.308-.123.378-.254.158-.393-.063.038.024.08.057.12-.2.068-.398.16-.58.022-.14-.116.2-.008.268-.15-.16-.17-.35.1-.506-.094-.138.383-.83.092-1.276-.118-.218.137-.405.406.03.438-.093-.208.168-.13.39-.068.062.072-.112.07-.195.034.095.183.764.07 1.08.15-1.048.25-2.61-.005-3.86.125-.06-.055.07-.104.14-.155-.166-.063-.335-.1-.518.064-.09-.257-.257-.042-.502-.174-.183-.097.433-.173.084-.275-.248.254-.37.098-.836.015-.204.196-.454.322-.774.057-.227.176-.43.04-.657.218-.648-.567-1.895-.186-3.05-.485.02.176-.283.315-.39.07-.265.085-.2.18-.212.273-.086.015-.174.03-.255-.008.037-.12-.033-.24.217-.352-.362-.165-.113.33-.52.065-.117.28-.224.177-.59.182-.125-.097.036-.185.21-.272-.625.198-1.554-.012-2.023.46-.31.08-.302-.05-.508-.093-.17-.125.178-.234-.04-.36-.24.1-.195.207-.15.314-.312-.052-.237.08-.525.144-.177-.216.25-.475.547-.462-.13-.064-.063-.12.005-.08-.425-.24-1.026-.503-1.73-.09-.227-.113.31-.203.022-.317-.24.218-.86-.053-1.283-.037-.128.062-.065.13-.206.193-.018-.067.1-.13-.05-.2-.236.007-.08.052-.268.152-.05-.054.09-.104.01-.16-.267-.172-.556-.04-.524.145C35.7.81 35.635.8 35.57.82c-.06-.054.07-.105.14-.155-.6-.025-1.52-.342-1.925-.055-.57-.233-.434.06-.765-.1-.345.304-.546.246-.992.41.144.11.296.07.443.132-.202.135-.38-.08-.58.023-.062-.054.07-.104.137-.155-.406-.03-.8-.202-1.207-.233-.06-.055.07-.104.14-.156-.192-.022-.38-.084-.582.024-.228.43-1.484-.207-2.13.06l2.24.26c-.263.095-.515.002-.772-.02-.11.185.332.053.442.13l-.4.228c-.12-.07-.048-.133-.18-.204-.544.09-.537.458-1.178.286-.05-.14.434-.156.596-.262-.015-.094-.166-.2-.046-.28-.132.055-.478.535-.988.33-.092-.082-.026-.16.144-.235-.26-.148-.52.328-.915.214-.262-.113.192-.207-.11-.32-.07.024-.04.05-.005.08.008.108-.345.01-.273.23-.11-.037-.54-.1-.456.107-.147-.036-.305.058-.448-.052-.007-.146.448-.28.348-.428l-.59.183c-.176-.085-.013-.16-.243-.245-.39.045-.772-.023-1.16-.032-.128-.098.248-.042.334-.2-.5-.134-.622.41-1.1.1-.13.033-.272.245-.396.148-.156.108.198.02.248.166l-.2.113c-.377-.16-.772-.014-1.148-.2-.006-.204.524-.214.7-.02.177-.093.353-.158.524-.145-.2.008-.7-.298-1.03-.03-.256-.127.084-.236-.172-.362C21.76.443 21 .4 20.397.4c-.142-.15.2-.04.266-.152C20.388.245 20.52.112 20.3 0c-.35.11-.687-.008-1.04.13-.463-.258-.468.04-1.176.286.28-.016.564-.103.838-.017.137-.05.078-.104.01-.16a.77.77 0 0 1 .515.014c.147.073-.206.1-.262.072.082.13.7.51 1.017.267.198.24.917.243 1.345.156.146.12.066.214.32.048a3.57 3.57 0 0 0 1.983.253c.01.274.7.078.495.332.108-.08.323-.064.588-.104-.104-.078-.213-.04-.315-.128.13-.034.26-.033.4-.07.047.068.043.134-.075.197.163.132.34.042.504.173.126-.05.057-.104.14-.155.143.12.287.22.448.052.103.062.204.176.315.128.174.084-.34.15-.015.238.267-.302 1.372-.135 1.606.084.228.1.083-.12.267-.152.064-.023.127.004.195-.035.237.1.067.188.304.287.433-.24 1.252-.001 1.86.1.16-.146.305-.096.462-.185-.314-.184-.26.137-.58.023.163-.12.116-.087-.045-.28.426-.247.786-.098.893.105-.18.14-.33-.192-.514-.015.286.012.41.245.17.362.407.01.806.136 1.2.154-.128.216-.067.128.242.245-.216.047-.428-.02-.63-.177-.12.076.157.163-.015.238.24-.05.467.074.703.06.164-.1-.074-.214-.235-.325.366-.046.72.087 1.097-.088.056-.104-.07-.214.02-.317.386-.05-.005.207.3.287.063.077-.11.03-.2.113.36.283 1.218.13 1.642.444.53-.24 1.03-.054 1.543-.035.165.208-.36.166-.41.386.382.17.497-.252.57.135a.27.27 0 0 0 .026-.397c.455-.085.9-.03 1.343.078.155-.303.59-.175.91-.134.06.055-.07.104-.14.156-.1.04-.2-.073-.313-.128-.088.037-.106.077-.073.117l-.133.076c.228.107.48-.12.697.14-.157.102-.3-.001-.45.027-.09.212.37.112.503.174-.437.323.492.074.82.222-.018-.125.076-.35.343-.348-.186.198.155.206.164.44.068-.05.133-.057.195-.034-.107-.223.323-.184.412-.386.172.035.703.278 1.087.07.224.113.005.213-.022.32.354.1.69.133.88.263l.267-.15-.245-.166c-.25.218-.468-.05-.702-.06.3-.163.593.096.902-.053-.037.484.686.226 1.186.47-.187-.058-.387.05-.573-.056-.03.2.5.14.697.14.064-.105.048-.21.15-.314.35-.05.163.212.3.287.092-.08.174-.04.257.007.024-.248.327-.24.64.018-.178-.268.1-.085.407-.307.353.23-.468.18-.027.397.127-.3.365-.204.54-.382.303.196-.377.177-.28.31.312.01.378.01.59-.18.28.178-.218.087-.145.235.544.296.735-.03 1.292-.12.144.097.065.187.3.287.29-.176.555.007.84-.094.076.108-.063.2-.023.317-.09.073-.172.026-.26.072-.21-.086.02-.16.017-.238-.388.03-.515.168-.97.09.273.072.54.22.825.143.21.12-.35.004-.14.155-.292-.085-.595-.055-.9-.106-.058.052.076.11-.01.16-.25.077-.067-.153-.307-.208a.36.36 0 0 1-.323.03c-.054.494-.617-.13-.973.17-.225-.11.07-.24-.24-.245-.194.154.04.32-.16.473.163.123.343-.017.507.093.067-.05-.056-.108-.118-.162.223-.133.43-.02.64.02.03.146-.207.062-.273.23-.258.02-.51-.052-.773.057-.226-.11.068-.24-.24-.246-.445.57-1.82.115-2.64.124-.037-.107.265-.205.15-.314.764.082 1.523.242 2.294.225.126-.14-.28-.15-.383-.01-.19-.142-.453-.11-.174-.283l-.646.06c-.048-.107.193-.206-.106-.32-.215.223-.277.146-.585.102-.238-.1.066-.184-.172-.283-.447-.082-1.023.056-1.298.202.008-.066-.13-.137-.05-.2.188-.105.008.203.256.007-.373-.165-.768-.038-1.142-.192l-.468.266c-.122-.1-.124-.217-.363-.33-.276.262.152.265.23.404-.245.135-.45-.286-.702-.06-.292-.168.275-.31-.095-.48-.064.038.022.08.056.12-.5.126-.984-.015-1.47-.082-.27.164.134.35.364.33-.24.068-.502.44-.724.257-.106-.153.268-.04.206-.193-.116-.18-.262.09-.38-.1-.154.15.013.208-.34.268-.146-.084-.14-.163.016-.238-.344-.17-.333.3-.652.14-.1-.12.364-.228.09-.355-.25.086-.18.18-.34.268-.087.015-.173.03-.256-.007-.006-.13.35-.12.277-.3-.326.01-.245-.115-.56-.294-.592-.162-1.237.025-1.67.032.38-.278-1.02-.19-1.457-.32.04-.2.594.047.847-.175-.51-.2-.99.19-1.344-.078-.067.05.057.108.118.162-.184.186-.343.005-.523.145-.46-.405-1.113-.053-1.4-.358-.596.167-.938-.06-1.427.2.233.02.072.056.246.166-.72.24-.902-.212-.93-.542-.17.155-.044.317-.158.473-.276-.054-.555-.04-.827-.143-.085-.1.277-.088.427-.167-.173.008-.957-.18-1.117-.13-.15-.04-.137-.256.01-.16.001-.19-.257-.01-.386-.01-.07.05.057.108.118.162-.526.001-1.317-.498-2.04-.294l-.31-.208c-.133.075-.255-.064-.4.07-.533-.436-1.115-.03-1.65-.443-.6.19-1.16.02-1.725-.246.36-.117.382-.204.66-.3-.64-.005-1.304.254-1.6-.004.002.338-.464.484-.306.866-.32-.052-.634-.166-.953-.224.015.354 1.17.16 1.126.587-.133.09-.25-.13-.377-.17-.06.248-.524.002-.784.217.047-.13.086-.262-.235-.404.018.193-.186.23-.47.345-.193-.158-.552-.367-.572-.135-.23-.112-.1-.245-.373-.25-.124-.154.028-.103.204-.194-.277-.04-.554-.087-.84.017-.215-.14.246-.258.02-.397-.117.058-.22.376-.46.187-.042.092-.208.18.05.28-.37.08-.3.047-.466.266-.136.133-.248-.223-.384-.09-.302.145.155.162.246.245-.173.03-.34-.09-.516-.013-.126-.11.278-.205.017-.317-.086.17-.46.063-.32-.048-.4.3-1.055.137-1.608-.16-.024.092-.184.18-.207.273.27.088.148.1.375.248.17-.06.037-.132-.054-.2.54-.047 1.066.204 1.6.318-.46.13-.896-.2-1.353-.074.234.053.468.107.7.216-.262.087-.5-.128-.782.14-.127-.11.114-.208-.114-.32-.11.073-.217.03-.33.1-.165-.07-.024-.133.074-.196-.124-.082-.26.05-.38-.09-.074.226-.5.078-.532.304-.344-.14.02-.264-.24-.403-.267.117-.856-.047-.897-.182-.405.136-.394-.114-.775-.02-.145-.148.202-.04.265-.152-.36-.18-.732-.013-1.092-.147a.45.45 0 0 0-.209.352c-.215-.044-.63.02-.656.222-.285-.087.166-.154-.12-.24-.192-.053-.392.1-.58-.055-.248.097-.086.196-.33.19-.207-.137.3-.257.275-.4.156-.114.3.267.45.05-.055-.186-.566-.175-.838-.06-.232-.086-.07-.16-.25-.244-.33.13-1 .274-1.102.1-.112-.044-.122.064-.07.118-.238.023-.477.07-.705-.137-.158.146-.304.04-.46.187.284-.125.55.287.838.06.184.203-.09.275.37.407-.38.26-.482-.033-.58-.055-.26.188.253.15.246.324a.24.24 0 0 1 .386.011c.174-.146.323-.04.33-.19-.21-.094-.393.007-.315-.206.153-.068.294.174.45.05.108.156-.182.202.183.283-.125-.275.286.015.515.014.03.038-.01.19-.1.208.204.055.54.243.806.167.23.347.637.133.82.457.333-.064.297-.235.654-.22.065.068-.114.13-.2.193.268.26.554.113.83.22.103-.102.042-.145-.122-.162.187-.193.457.012.46-.187.02.037.077.254.25.166.124.154-.028.103-.202.193.337.15.69-.033 1.02.264.134-.416.47.204.78-.14-.074.246.27.105.31.286-.237.024-.475.07-.702-.137-.223.327-.82.044-1.22-.15-.028.12-.056.237-.337.35.635-.364 1.825.607 2.454-.097.406.05.817.002 1.217.15.103-.102.043-.146-.12-.162l.398-.23c.13-.023.257.018.382.09-.2.123-.386-.02-.59.184.187.1.382.103.57.213l.266-.152a.99.99 0 0 1 .319.048c.127.095-.033.184-.207.273.477.083.272-.38.785-.22.055-.065.057-.13-.054-.2.133-.065.264-.1.39-.07-.27.342.724.46 1.06.624-.38.087-1.315-.177-1.292.125-.387-.004-.766-.152-1.154-.11-.05.225.465.08.635.175-.31.1-.307.01-.528.225-.144-.35-.375-.05-.494-.4-.328.137-.186.286-.086.434-.25.066-.247-.185-.375-.247-.154.1-.302.04-.46.187-.232-.085-.068-.16-.246-.245-.294.188-.167.004-.45-.05-.306.116-.6.008-.908.136-.26-.098.043-.184-.05-.28.317-.06.89.144.846-.177-.17-.03-.35.117-.523.147-.014-.054-.032-.107-.12-.163-.287.168-.347.18-.58.025-.373.137.03.292-.342.43-.066.023-.13-.004-.196.035-.227-.112-.01-.213.015-.318-.163-.195-.343-.024-.508-.172-.135.05-.075.104-.006.16-.4.087-.76-.296-1.162.05-.695-.154-1.232.008-1.792-.284-.223.195-.432.04-.648.064-.082.19.008.235-.207.352.297.182.3.13.502.33.148-.19.03-.143.27-.31.282-.047.554.1.842-.1.16.15-.286.284-.34.43.15.107.638-.02.57.213.426.073.868-.204 1.283.112-.262.117-.517.036-.778.14.17.04.344-.001.508.173.076-.166.135-.164.256.006.506-.272.98.17 1.477.077.255.087-.037.16-.138.236.163.148.342.006.5.093-.106-.146-.105-.29-.43-.45-.01-.067.025-.132.072-.197.152-.01.3.034.448.052.07.08-.153.155.118.24.165-.06.132-.13.203-.193.086-.03.168.056.257.006.15.174-.14.1-.14.236-.196.1-.378-.15-.58.025l5.95.6c.145-.324.78-.137.892.104.14-.17-.056-.346.092-.514.372-.072.325.247.7.138.06.055-.07.104-.137.155.32.055.65-.122.963-.013-.403.42.753.258 1.25.6.262-.072-.02-.16-.115-.24.517.03.286.067.76.18.082-.064-.162-.137-.052-.2.13-.024.255.018.38.1.025-.08.096-.156.27-.23.3-.118.187.214.513.014.093.082.026.16-.142.235.763.14.635.254 1.595.163.046.067.043.134-.075.197.61-.216 1.195.025 1.8-.1.025.054.053.108-.01.16.235.015.477-.108.722-.26.2.084.195.164-.014.238.774-.074 1.516.4 2.31-.017.238.1-.064.184.174.283-.133.074-.253-.065-.39.068.604-.048 1.37-.265 2.12-.06.107-.172-.496-.137-.106-.32.327.174.59.317.88.264.206-.247-.266-.027-.44-.132.246-.17.474-.06.712-.1-.001.133-.07.264-.155.393.65-.04 1.136-.322 1.868-.145.05.054-.09.104-.01.16.1.08.21.04.31.128.244-.145.122-.155.4-.228.016.08.078.162.24.245.325-.074.642-.017.962-.012.143.106-.207.134-.262.072.23.25.787-.02.98-.25.326.115.024.213-.15.314.448.012.917-.304 1.356-.16.126.056-.126.19-.226.12.092.135.308.196.588.21-.1.01-.387.043-.138.155-.13.04-.25-.098-.388.068.202.152.426.008.633.098-.076-.108.108-.304.333-.2.072-.074-.104-.038-.184-.125.262-.067.518-.077.79-.296.298.115-.154.208.105.322.196-.123.522-.115.534-.303.54.064 1.16.19 1.53.124.01-.092-.055-.187.2-.272.193.234-.18.342.357.408-.18.156-.344.04-.517.065.01.205.596-.016.83.064.028-.066-.072-.135.078-.197.2.09.344.034.495.254.25-.087.09-.184.34-.27.19-.02.35.36.7.06.175.084.01.16.24.245-.157.102-.303.055-.45.027.932.42 2.472.08 3.637.223.005.107-.114.21-.278.3.23.057.474-.065.7.06.177-.087.115-.182.082-.275.563.01 1.584.417 2.185-.094.177.185-.23.135-.21.272.41.02.503.01.828.064.066-.064-.003-.132.078-.197.424-.066 1.103.41 1.34.08.145.097.065.188.3.287.195-.042.4-.224.58-.022.32-.408 1.1.126 1.612-.15-.056.078.226.166.1.242.326-.078.656-.215.957.068a.72.72 0 0 1 .395-.147.23.23 0 0 0 .116.162c.067-.125.415-.114.257.008.207-.11.54-.073.894.026-.07-.173.1-.182.335-.188.06.054-.07.104-.14.154.315.07.64-.003.955.068-.263.185-.33-.048-.462.185.19.045.376.112.573.057.06.07-.117.13-.207.193-.234-.01-.45-.275-.7-.06.285-.044.144.273.432.21.07.18-.177.192-.4.227-.106-.097.057-.184.084-.276-.24-.115-.34.084-.462.185-.214-.008-.432.055-.634-.098.47.05.37-.243.718-.177.13-.142-.403-.08.017-.238.254-.12-.07.245.182.125.345-.16.048-.092-.1-.242.087-.015.173-.03.257.008-.267-.154-1.113.054-1.596-.087.118.233-.246.04-.273.23.3-.002.6-.018.907-.132.118.533-.92.338-1.252.48-.46-.212.002-.397-.277-.605-.037.26-.42-.083-.65.14.2-.035.758.072.554.294-.34-.27-.342.13-.828-.064-.252-.127.087-.237-.165-.363l-.335.19c.093.056.185.11.117.162-.612.18-1.202.087-1.807.185.178.194.38.056.567.136-.368.124-1.015.212-1.144-.113.168.034.34.003.522-.143.082-.148-.304-.058-.177-.205-.404.03-.765.338-1.023-.03-.16.158-.303.055-.45.027-.001.066-.146.128-.078.197-.46-.15-1.287.11-1.522-.204-.278.01-.56.072-.84.094-.008-.066.03-.13.078-.196-.236-.1-.178.146-.333.19-.25-.14-.1-.268.028-.397-.287-.078-.654-.001-.75-.26-.095.156.14.323-.16.473.392.13.17-.343.648-.14.073.16-.03.252-.278.3-.495.06-.958-.34-1.456-.24-.17-.225.22-.125.4-.228-.205-.12-.427.005-.645.06.014.054.03.107.117.162-.172.04-.23-.098-.26.072-.35-.172-.742.236-1.08-.15-.052.18-.59.192-.64-.018-.23.336-.834.303-1.227.164-.126.05-.057.104-.14.155-.324-.143-.704-.034-.684-.298l-.467.265c-.427-.145.147-.26-.1-.4-.288.156-.562.115-.834.016-.048.13-.322.256-.41.386-.167-.164.328-.31.032-.477-.026.387-.845.344-1.228.164-.332.068-.306.31-.654.22.023-.14.275-.297-.113-.242-.06-.12.124-.235.343-.348-.04-.042-.083-.025-.128-.004l-.122-.083c-.2.1-.066.2-.277.3-.335.11-.27-.2-.618-.336-.244.15-.464-.08-.706.02.24.232.5.183.762.102-.005.093.14.2.3.288-.274-.048-.25.13-.572-.057-.292.07.147.163-.144.234-.266-.203-.867-.17-1.33-.237-.084.1.37.138.507.094.068.312-.558.254-.844.175-.18-.196.45-.001.267-.15-.312-.214-.26.134-.578.023.397-.37-.983.028-1.386-.358-.157.16-.64.24-.987.41.054-.35-1-.07-1.155.047-.093-.056-.186-.11-.118-.163-.1.12-.37-.026-.65.14-.19-.296-.445-.016-.9.055-.09-.095.078-.182-.175-.283-.808.19-1.226-.008-2.056.102-.088-.105.08-.195-.18-.204-.03.32-.45.12-.634-.096.12.246-.306.408-.66.3-.1-.2.403.01.332-.2-.102-.08-.212-.04-.313-.128-.1.1.054.2-.203.193-.074-.068.175-.128.075-.197-.4-.114-.54.001-.52.145-.322.06.014-.25-.308-.208.033.196-.25.254-.53.303-.1-.24-.198-.01-.436-.2-.01.17-.333.146-.517.065-.018-.095.136-.044.075-.196-.113.246-1.098-.055-.98.33-.228-.118-.483.23-.71.1-.175-.18.217-.116.4-.306-.232-.07-.47.01-.702-.06-.13.5-1 .238-1.235.324.027-.15.34-.202.463-.265.128.056.064.108-.01.158.277.098.204-.112.52-.145-.424-.06-.53-.01-.88-.342-.266.085.023.186-.08.276-.368-.3-1.873-.03-2.428-.146-.085.024-.536.142-.334.268-.34.168-.624-.184-.648.142-.186-.11.03-.21.017-.318.1-.038.21.073.314.13.208-.152-.14-.257.272-.31-.328-.013-.377.1-.78.217-.016-.052-.032-.106-.12-.162-.218.13.13.1.05.28-.196.07-.38-.08-.582.104.972.218 1.95.262 2.93.317.28.087-.168.155.115.24.242.006.173-.1.33-.19.25.166-.172.313-.41.466-.543-.026-1.14-.4-1.848-.17-.192.003-.376-.165-.57-.135.173.182.12.156-.26.073-.225.074-.01.16-.14.235-.468-.316-.59-.086-1.02-.106-.176-.085-.015-.16-.244-.245.02.174-.186.286-.457.187-.175-.084.334-.15.012-.238-.1.08-.173.04-.256-.006-.01.066-.082.13-.202.193-.548-.105-.82-.143-1.264-.35-.123.336-.42-.093-.708.1-.127-.153.246-.042.328-.2-.236.005-.47.036-.702-.058-.13.033-.268.245-.392.15.074.2-.003.186-.335.35.49-.033.686.224 1.086.067.23.186-.162.138.05.28.265-.112.286-.23.207-.352.153-.055.3-.007.454-.107.006.26.42.14.635.095.157.176-.28.143-.337.35.244.04.257-.03.39-.15.08.066.26.227.628.255-.001-.106.224-.206.4-.308.075.135-.027.265.236.404.176-.114.34.02.512.013-.074.09.078.188.05.28.685-.06 1.363.03 2.04.133.397-.243.762.12 1.155-.048.654.43 1.65-.2 2.093.336.135-.143.26-.04.392-.15.162.156.33.167.498.252-.264.1-.47-.078-.586.183.12-.2-.152-.105-.374-.17-.166.164.08.126.246.165-.31.183-.6.066-.898.056-.112-.082.296-.122.387-.07-.098-.21-.765-.01-1.083-.07.14.156.3-.024.44.13-.586-.066-.816.125-1.352.16-.184-.098.428-.174.08-.276l-.265.152c-.552-.177-1.217-.058-1.603.075.377-.213-.235-.162-.564-.213-.042.102-.206.192.054.2-.455.3-.504-.172-.896.056-.178-.124-.08-.24-.047-.36-.174-.064-.464.196-.46.267-.267.09-.754-.278-.83.02-.114-.004-.54-.124-.438-.2-.253.183-.96.213-1.536.04.338-.08.3-.047.587-.263l-.628-.255c-.19.042.184.286-.073.197-.124.204.3.002.384.01.045.262-.71.42-1.03.133-.425-.028-.873.48-1.288.206l-.26.15c-.212-.084.016-.158.01-.238-.252-.072-.52.235-.77.06-.127-.154.248-.098.327-.2-.72.088-1.396.232-1.85-.088-.213.007-.425-.032-.644.143.147.07.182.136.056.2-.25-.2-.95.042-1.398-.195.152-.1.305-.192.45-.107-.124-.14-.802-.16-1.144-.19-.3.2.22.007.313.206-.22.127-.427-.003-.644.143.048.067.044.133-.07.196.165.116.234.02.25.165-.085.01-.17.018-.258.073-.316-.31-.41-.23-.815-.376.218-.19.42.125.64-.065-.144-.153-.295-.055-.44-.208.127.162-.462.277-.71.26-.063-.054.066-.104.132-.155-.164-.195-.34-.022-.505-.17-.1.077.172.162.12.24-.45.13-.9-.08-1.34.01-.006.2.324-.026.507.092.04.04-.002.08.06.12-.323-.085-.413.067-.768.14.013.225.324.16.447-.03.292.112-.287.235.12.242-.198.12-.64.15-.328.35.185.003.253-.1.07-.197.086-.038.168.043.252.086.242-.088.17-.182.326-.27.38.014.76.093 1.148-.052.455.413.932.067 1.396.19-.037.317-.717.1-.777.38.708-.11 1.128.18 1.916-.112.187.18.308.33.635.096.165.178.073.372-.207.43.102.113.214-.014.317.048-.12-.136.293-.258.016-.397.438.217.896-.067 1.34-.005l-1.097.33c.182.294.938-.096 1.346-.164.024.207.466.16.696.137.056-.052-.08-.108.006-.16.067-.023.13.003.194-.035.02.067-.086.13.056.2.53.02 1.068-.132 1.6-.156.038.04-.003.08.06.12-.57.07-.76.204-1.288.285.44.19.89.043 1.333.154.156-.14-.195-.05-.248-.165.11-.097.215-.073.323-.112.3.124.073.32.37.328.125-.063.062-.13.2-.193-.06-.04-.128.014-.192.034-.144-.095-.1-.4-.25-.165-.37-.225.083-.31.33-.27-.323.114.36.15.114.32.167.077.35-.2.517-.145.182.156-.278.25-.458.267-.162.1.148.215-.014.317.23.107.47-.07.7.058-.02.175-.26.117-.397.307.223.233.47-.067.695.137.12-.14-.284-.076-.37-.248.2.01.382-.015.57.055-.278-.17-.122-.258-.043-.438.064-.023.127.003.192-.035.28.087-.164.154.116.242.288-.252 1.77-.025 1.644.28.175-.14.4-.06.393-.23.33.128.102.24.3.365-.316-.05-.642.106-.956.015.184.18.923.218 1.33.154.12.082-.1.156.115.24.275-.116.56-.246.956-.015.044-.203.313-.17.148-.394.18.176.432-.076.76.1-.173-.294.53-.106.527-.304.457.132-.28.23.045.36.2-.157.392-.16.58-.104.02.094-.05.184-.077.276-.66.087-1.29-.08-1.792.1.14.155.3-.08.44.13.852-.43 1.643.296 2.5-.05.79.42 2.3.035 2.654.47l.76.1c.15-.3.578-.07.9-.134.02.067-.088.13.053.2.034-.207.49-.202.448-.027.714-.22 1.395.145 2.104.018-.195-.118.163-.18.27-.23.1.096-.274.178-.208.273.583.21 1.193-.028 1.787-.03-.03.3.683.333.822.142.117.15.25.054.37.17.34-.43 1.616.224 2.368-.133.54.457 1.612-.24 2.03.218-.187-.05-.383.007-.575.023.132.223.785-.07 1.275.037.2.043.913.305.953.067.134-.09.247.13.372.17.457-.145.894.007 1.35-.16.518.167 1.65.15 2.477.19 21.436 1.5 43.01 1.3 64.612 1.072.18.098.016.186-.088.276-1.596-.29-3.256.18-4.856-.072-.127.162-.21.14-.463.185-.06-.078.11-.032.202-.114-.248-.1-.53.192-.766-.024-.2.1.025.213-.155.314-.668-.395-1.765-.284-2.678-.083-.718-.07-1.433-.2-2.175.012-.082-.042-.094-.082-.055-.12-1.144.218-2.72-.093-3.47.212-.172-.1-.01-.147-.242-.167-.07.05.054.108.114.163-1.43-.277-2.604.213-4.082-.126-.146.26-.863.006-1.216.002-.59-.006-1.022.255-1.282.04-.524.164-1.037.168-1.53-.046-.29.07.144.163-.147.234-.066.09-.394-.135-.24-.166-.36.203-.683.01-1.034.128-.127-.057-.062-.108.013-.16-.463.203-.898.052-1.355.158-.03-.3-.032-.032-.37-.17-.01.103-.17.193-.334.19-.002-.067-.066-.135-.176-.204-.318.295-.92-.122-1.55.19-.108-.07-.108-.135-.05-.2-.753.082-2.5-.03-2.697.157-.387.037-.748-.233-1.154.045-.343-.195-.974-.314-1.142-.115-2.394-.18-4.6.007-7.082-.175-.125.05-.057.104-.14.155-.2-.12-.26-.078-.56-.216-1.34.234-3.173-.262-4.735.098-.117-.07-.046-.134-.176-.203-.6.03-1.202.128-1.79.026.02.115.148.46-.423.545-.16-.163-.012-.253-.36-.33-.087-.126.353-.275.455-.107.245-.187-.412-.286-.377-.09-.786-.318-1.626.1-2.41-.23-.194.27-.73.172-1.08-.072-.136.05-.078.104-.012.16-.712-.15-1.443-.062-2.156-.223-.066.064.003.133-.078.197-1.03-.16-2.477.092-3.237-.294-.062.038.024.08.055.12-1.14-.098-2.297.012-3.428-.257-.824.16-2.164-.04-3.186-.092-.25.085.04.186-.208.272-.087.015-.173.03-.255-.007.268-.432-.776-.222-1.125-.35-.13.213.285.048.37.17.104.172-.296.114-.392.147-.398-.525-1.27-.226-1.885-.452-.25.086.04.187-.2.272-.087.03-.165-.056-.254-.007-.063-.068.114-.13.203-.193-.184-.1-.376-.11-.576.023-.013.08.206.165-.015.237.122.083.26-.05.377.09-.222.156-.42-.07-.647.14-.196-.24-.417-.133-.626-.178-.045-.198.417.054.58-.102-.397-.276.18-.097.332-.2-.6-.3-.56.026-1.136-.192-.113.077.166.163.11.242-.066.035-.126-.022-.188-.046-.104.102-.045.145.118.162-.334.215-.647.12-.98.33-.19-.086-.302-.095-.24-.245-.276-.005-.574.316-.84.174-.144-.084.207-.153.27-.23-.204-.115-.392.08-.33.19-.2.116-.373-.172-.57-.056-.068-.08.156-.154-.113-.242-.306.296-1.286.344-1.278.043-.277.017-.545-.13-.834.097-.33-.328-.862.034-1.004-.267-.358.467-1.163-.282-1.725.072-.524-.12-1.06-.008-1.583-.163-.17-.116.326-.004.01-.158-.87.35-1.688-.187-2.55.008.1.08.2.04.31.128.05.055-.09.105-.01.16-.38-.046-.75-.248-1.132-.27-.072.098.102.08.184.124.107.147-.285-.04-.4.148-.015-.106-.077-.148-.245-.166-.35.444-1.004-.18-1.536.117-.224-.112-.218-.218.016-.318-.16-.148-.34-.007-.504-.093-.07.063.1.135.182.203-.18.164-.347.114-.52.145-.092-.082-.027-.16.14-.235-.452.14-.89-.008-1.338.003-.07-.08.154-.155-.114-.242-.27.406-1.617.086-2.053.263-.135-.2-.643-.16-.237-.325-.27-.05-.3.06-.327.19-.267.02-.318-.388-.688-.216.12.14.255.007.377.088-.086.038-.103.077-.068.118-.634-.03-1.257-.274-1.907.03.025-.22-.028-.193-.236-.403-.2.114.054.24.173.362-.353.316-.668-.2-1.018.054-.383-.156.17-.288-.044-.438-.238.138-.117.287-.2.43-.248.138-.245-.16-.377-.09-.064-.068.112-.13.2-.194-.22-.06-.57.046-.453.187-.436-.278-.435-.036-.748-.337-.422.147-.46.085-.9-.023-.06.104.17.216-.14.314l.3.207c.23.01.118-.205.38.01.134-.05.075-.104.007-.16.392.022 1.62-.037 1.38.353.122.096.26-.116.387-.15.212.167.032.295-.206.352.13.053.778.046.515-.145.277-.055.543.128.83-.098.112.096-.27.178-.203.273.214.165.875-.127.688.216.158.097.23-.117.134-.155.232-.003.464.016.692.137.063-.065-.006-.133.073-.197.152-.065.294.037.446-.028.01.066-.025.13-.073.197.558-.15 1.106-.12 1.653-.037.142.116-.197.01-.26.152.184.118.382-.054.565.134.418-.21.403.353.82.142-.125-.04-.253-.048-.377-.09.18-.205.336.058.517-.145.16.07.024.134-.074.197.105.018.215-.044.316.048.117-.27 1.208-.08 1.72.008.016.03.018.046.013.056.74-.02 1.475.003 2.206.125.063.068-.114.13-.2.193.262.207.477-.064.456-.186.38-.037-.01.234.364.328.358-.082-.243-.192-.048-.28.53.027 1.072-.2 1.586.084.206-.274.436-.14.778-.217.227.085.065.16.24.245.413-.16.813-.106 1.215-.086.087.152-.338.09-.453.107.258.17.742.068 1.087-.09.238.1-.062.184.175.283-.183.127-.452.015-.458.186.802.036 1.337-.058 2.054-.26.35.128-.238.232.04.36.68-.004 1.36-.036 2.025.214.35-.25.575-.028.762.023.13-.077-.08-.162.143-.235.48.277 1.655-.123 1.706.248.794-.023 1.892.245 2.486.032.39.235.808.005 1.192.313.29-.218.553-.01.846-.254.227.086.065.162.24.246 1.484.048 2.977-.01 4.444.286.036-.082.146-.155.054-.186 1.186.17 2.374.302 3.582.17.304-.092.58.208.88.184.057-.05-.077-.11.01-.16.375.092.854.205 1.4.042l.365.25c1.31-.177 2.597.008 3.884.155.042-.04.006-.08.072-.117 2.24.235 4.504.116 6.746.28.358-.24 1.892.026 2.87.046.53.01.953-.13 1.333.08l.268-.15c.24.3.835-.086 1.262.198 1.085-.255 2.615.122 3.903-.08l.243.166c1.658-.24 3.27.136 4.93-.128.702.264 1.457-.113 2.16.145.444-.223.846.068 1.287-.12 1.177.2 2.376.123 3.576.03 2.632.132 5.294-.122 7.926.005l.268-.15c.116-.038.112.07.054.12 1.41-.11 2.426-.073 3.853-.2l.24.166c.267-.02.118-.29.523-.143.06.078-.11.032-.2.113.17.053.45.018.456-.104 10.383.095 20.473-.616 30.832-.826l.202-.113c1.397.127 2.838-.264 4.225-.026.25-.047.477-.312.517-.063.2-.114.784-.192 1.156-.043l.27-.15c.49.02.973.08 1.478-.073 2.348.208 4.762-.305 7.093.107l.27-.15c.382.195 1.076.14 1.284-.04.116.07.044.134.173.205.185-.296.393-.11.578-.02.624-.244 1.368-.175 2.2-.17.107.07.106.137.046.2.193.04.233-.28.585-.1.064-.038-.02-.08-.052-.122.198-.07.376.08.585-.1.127.056.06.108-.016.158.227-.104.657-.218 1.043-.205.166.205-.22.104-.404.226.785-.183 1.56-.265 2.34-.403l.302.21c-.073.18.185-.095-.114-.163.364-.197.686-.144 1.177-.28.078.172.538.11.235.247.213.064.225-.23.637.02.307-.16-.15-.128-.24-.166.466-.203.896-.004 1.365-.235.06.055-.073.104-.142.154.123.05.264-.083.376.092-.106-.222.23-.085.47-.264 1.095.313 2.38-.507 3.332-.052.226-.357.91-.286 1.315-.356-.03.253-.558.062-.79.214.1.08.21.04.31.13-.373.103-.757.33-1.126.4.054-.413-.956-.01-1.155.042.73.206 1.948.077 2.65-.273.06.068-.12.13-.2.192.4-.047 1.22-.042 1.253-.398.248-.074.153.158.3.21.744-.247 1.207-.243 2.032-.532.98.012 1.963.012 2.98-.382.57.06 1.503-.12 1.89-.377 1.237.173 3.42-.82 5.015-.236-.378-.508.968-.276.9-.728.338.04.723-.422 1.037-.125 1.385-.436 2.732-.46 4.04-.07.18-.126.377-.253.293-.39.217-.045.424.023.623.18.2-.18.393-.092.586-.1.097-.217.275-.185.42-.385-.118-.108-.26.063-.383-.012.86-.27 2.245-.262 3.252.145.14-.3.51-.353.923-.288.827-.585 1.882-.896 2.923-1.1l.36.25c-.096-.258.577-.19.863-.33.023.054.05.107-.015.158.927-.105 1.794-.16 2.546-.514.973-.08 2.278-.198 3.074-.656.656.045 1.89-.417 2.427-.597.906-.303 1.712-.542 2.4-.956-.245-.005-.24-.14-.36-.25.183-.12.344-.02.527-.142-.31-.08-.455.068-.632-.1-.327.273-.85-.12-.977.168-.156.077-.283-.162-.426-.213a9.57 9.57 0 0 1-1.225.079c.38-.192.553-.2 1.075-.522-1.526.093-3.6.146-5.38.66-.176.045-.34-.01-.503-.096-.02.065.006.133.044.2-.192-.002-.39.058-.586.1-.26-.366-1.027.215-1.4.47-.178-.138.105-.262.294-.388-.182.046-.448-.07-.428-.213.326-.17.378-.017.6-.26-.137-.123-.322.25-.45.025-.24.07-.092.156-.278.23-.087.015-.173.03-.256-.008.01-.133.293-.256.294-.388.066-.023.127.004.195-.033-.16.24.395.06.638.02.117.07.045.134.173.204.57-.115.697-.524 1.21-.597.042.148-.45.278-.616.418.23.01.72-.07.6-.258.606.144 1.257-.19 1.894-.376-.37-.13-.786.177-1.18.28.25-.38 1.028-.49 1.435-.27.51-.205 1.02-.383 1.496-.23 1.566-.52 3.066-.344 4.623-.765-.322-.197-.676-.063-.99-.35-.37.073-.732.057-1.075-.155-.126.05-.06.104-.143.155-.25-.272-.553-.024-.817-.147-.123-.098.04-.184.217-.272-.325-.167-.686.02-1.022-.033-.253-.1.14-.18-.036-.28-.49-.126-.78.172-1.37.233-.15-.22.52-.38.752-.492-.105-.008-.208-.054-.308-.13-.065.037.02.08.054.12-.264.096-.4-.075-.528.142-.115-.07-.043-.135-.172-.205-.44.13-.862.083-1.285.037-.165.1-.176.206-.03.317-.138.1-.27.138-.4.147-.123-.164-.162-.325-.21-.485.518-.04 1.308-.34 1.474-.668.798-.08 1.6-.187 2.376-.042-.18-.32.404-.208.722-.176.08.17-.334-.015-.458.105.324.18.698-.16 1.045-.205.235.11-.162.193.172.205.093-.27.973-.266 1.43-.192.396-.245.834-.125 1.368-.234.064-.27-.46-.064-.63-.1.45-.154 1.55-.44 2.324-.163.555-.323 2.382.025 2.566-.672.465.1.662-.25 1.038-.125 0 .137-.257.1-.218.272 1.042-.264 2.077-.66 2.174-1.202-.234-.126-.658-.256-.533-.456z" fill="#d3d3d3" fill-opacity=".55"/></svg>