<svg xmlns="http://www.w3.org/2000/svg" width="218" height="20" fill="none" xmlns:v="https://vecta.io/nano"><path d="M212.858 3.812c.01-.1.38-.35.57-.227-.015.15-.37.24-.57.227h0zm-9.825-1.29c-.446-.31-.978.23-1.44.077-.23-.182.27-.088.162-.24-.223.09-.617.098-.61-.06.432-.088.482-.13.857-.382.14.182.31.086.48-.026.206.18.25.192.367.42.367-.152.135-.323.05-.488.552.102.476.492.135.698h0zm-1.296 4.082c-.005.12-.313.242-.487.107.246-.118.196-.286.487-.107zm-.886.013c-.167-.002-.272-.146-.248-.252.188.054.34-.23.44-.313.284.1.043.165.11.248a.2.2 0 0 1 .2.047c-.342.035-.633-.008-.503.27zm.606-4.022c-.19.075-.38.153-.544-.018.19-.093.373-.087.544.018zm-.055-.818c.167.136.238.138.273.01.295.142-.324.295-.424.15.1-.053.127-.106.15-.16zm-2.327.784c.34-.006.705-.237 1.03-.1-.353.12-.705.23-1.03.1zm-.872-.15c-.146-.124-.33.116-.472-.055.14-.175.6-.098.472.055zm-1.584 7.705l-.256-.17c.413-.078.922-.608 1.678-.438-.6.203-1.118.274-1.422.61h0zm6.44-.37c.19.114-.044.216-.032.326-.152-.066-.32.033-.464-.137.168-.092.32-.04.496-.19zm-6.983.352c-.457.03-.925.16-1.373.12.422-.15.838-.22 1.262-.37.108.085.166.168.11.25zm-2.125.137c-.33.1-.807.076-1.318.245-.065-.056-.194-.115-.12-.167.35-.195 1.07-.36 1.615-.48.208.142.04.273-.176.402zm-4.062-8.535c.443.018.59-.256.183-.485a.73.73 0 0 1 .353-.111c.33.2-.258.373.215.578-.253.028-.52.21-.75.018zm-5.543.89c.294-.21.564-.178.84-.22-.065.16-.586.314-.84.22zm-11.904.445l-.19-.128c.175-.162.323-.055.48-.027l-.29.155zm-1.222-.038c.355-.153.695-.152 1.015.072-.34-.024-.688.067-1.015-.072zm-.83.137c.23-.21.79-.226.75-.017-.235-.136-.51.117-.75.017zm-.337 13.377c.072-.052-.023-.1-.12-.166.146-.092.28-.088.407.012-.082.098-.15.167-.287.155zm-.224.197c-.172-.088-.377.158-.543-.016.21-.203.248-.175.448-.395.18.14.05.273.095.41h0zm-1.164.087c-.216-.182-.15-.194-.456-.218.065-.113.197-.4.503-.27-.653.273.66.096-.047.488h0zm-.678-.02c-.087-.045-.17-.13-.265-.1-.105.083.014.377-.302.318-.045-.096.13-.187-.04-.287.367-.028.353-.372.718-.386.066.15.194.305-.1.445h0zm-9.837-13.242c.265-.15.51-.123.752-.018-.263.14-.496-.052-.752.018zm-7.044.233c-.326-.088-.262.186-.55.065-.058-.095.66-.334.55-.065zm-1.3.083c-.228-.088.013-.162-.114-.25.215-.1.413-.045.615-.02-.006.14-.296.09-.5.27h0zm-6.812-.045c-.28-.207-.702.127-.593-.223.156.1.674.006.593.223zm-2.535.127l-.192-.128c.392-.08.33-.046.502-.27.176.068.362.027.53.18-.29.18-.563.196-.84.22zm-2.99-.09c-.107-.144-.57-.118-.45-.3.174.19.675.05.45.3zm-16.186-.4c.178.04.374-.1.538.098-.155.12-.635.068-.538-.098zm-.068 13.587c-.192-.112-.407.01-.605-.058.405-.254-.182-.163.03-.325.302.164.64-.052.95.028-.258.115-.45.23-.374.355h0zm-1.827-.096c.17-.113.332-.15.48-.026-.168.113-.33.15-.48.026zm-.343.03c-.15-.12-.086-.41.23-.278-.11.092-.042.19-.23.278zm-.885.014c.148-.103-.006-.206-.193-.13a.19.19 0 0 1-.021.245c-.13-.085-.277.05-.4-.094.35-.112.023-.245.372-.356.153.065.316.024.464.136-.105.046.045.29-.222.198h0zm-3.286.227l-.257-.17c.226-.183.583.055.257.17zm-1.413-.165c-.144-.17-.31-.07-.465-.136.237-.114.472-.2.686-.06-.076.066-.046.135-.22.197h0zm-.96-13.74c.14.07.082-.088.208-.035-.17.1.21.02.258.17-.133.127-.58-.02-.466-.136zm-2.22 13.52c.287.113.97-.233 1.014.07-.316-.032-.938.24-1.014-.07zm-4.534.516c-.18-.04-.37.072-.544-.016-.022-.255.807-.177.544.016zm-1.33.41c-.244-.156-.135-.303-.164-.454-.23.192-.625.254-.614.023.37-.07 1.103-.198 1.213.117-.48-.135-.222.2-.435.314h0zm-1.264-.323c-.17-.104-.418.044-.42.15-.117-.07-.184-.14-.185-.21.17-.08.686-.148.606.058h0zm-18.847.135c.19-.06.734-.173.678.02-.22-.07-.467.17-.678-.02zm-3.894.253a.57.57 0 0 0-.265-.089c.003-.108.248-.24.427-.233.235.116.054.22-.162.322h0zM57.9 17.146c.172.066.34-.032.33.132-.193.164-.525-.012-.33-.132zm-6.455.02c.288-.097.828-.16.878.066-.298.044-.596.093-.878-.066zm-3.104-.25c.19-.142.37-.137.54.014-.2.142-.363.002-.54-.014zm-2.11.063c-.392.102-.77.033-1.148-.073.2-.163.234-.053.43-.314.108.057.214.17.33.132.093-.052-.048-.1.012-.163.244.08.507-.13.737.142-.22.178-.68.013-.36.276h0zm-2.054.27c-.468-.327-.556-.302-1.056-.437.296-.138.7-.3 1.172-.253.05.096-.36.18-.088.283.375-.113.205-.24.364-.357.107.09.224.05.33.13-.225.302-.5.365-.723.632zm-2.68-.482c.004-.157.302-.212.476-.028-.163.056-.327.15-.476.028zm-2.97-.246c.2-.142.37-.105.547-.066-.187.094-.375.19-.547.066zm-3.073 1.3c.16-.054.336-.292.482-.11.094.128-.373.282-.482.11zm-7.08-.558c.26-.21.505-.14.746-.022-.045.182-.512.167-.746.022zm79.56-13.298c.354-.008.686-.115.702-.224.064.07.02.137.185.21-.307.144-.61.216-.887.015zm-1.854-.627c.312-.173.617-.295.903-.177-.157.28-.582.23-.903.177zm-.435.314c.377-.17.723.02 1.094-.05-.38.19-.74.156-1.094.05zm-.144.078c-.11-.052-.226-.01-.336-.052.093-.05-.048-.11.013-.162.066.025.136.017.208-.035.167.086.226.17.115.25h0zm-.852-.393c.196-.103.73-.095.673.102-.22-.092-.46.055-.673-.102zm-.802-.187c.034.042.125.085.057.124-.092-.058-.107-.112-.12-.167.206-.026.42-.118.615-.023-.198.19-.367.035-.55.065h0zm-1.59.238c.235-.095.452.02.68.02-.245.196-.682.222-.68-.02zm-.73-.226c-.087-.044-.17-.128-.265-.09.063.056-.042.107-.15.16l-.193-.128c.378-.168.313-.117.436-.314.137.072.062.138.187.2.072-.04.032-.08.078-.12.287.104.113.194-.093.283h0zm-1.797.273c.227-.102.075-.216.3-.318.266.077.544.016.8.106-.085.066.06.138.05.205-.4.163-.783.117-1.16.007h0zm-.157.24c-.085-.06-.175-.075-.264-.09.163-.145-.248-.307.106-.446.32.187.275.362.158.535h0zm.407-.763c-.04.04-.028.08.058.124.095-.042.188-.08.272.008-.367.034-.735.1-1.09-.033.39-.033.474-.106.76-.1zm-1.58.157c.105.1.22.05.33.133-.194.068-.493.113-.5.27-.137-.195-.205-.387-.224-.578.3.09.956-.05 1.01.152-.2-.065-.412.028-.616.022h0zm-2.476.254c.04-.026.074-.053.007-.082.21-.06.416-.086.608.06-.215.132-.417.096-.614.023h0zm-1.16.006c-.36-.047-.728-.01-1.08-.113.27-.083.37-.192.493-.2-.05.08.294.1.33.132.087-.066.016-.136.086-.202.36-.024.463.202.174.372h0zm-3.044-.293c.144.16.325-.082.466.136-.2.084-.682.024-.466-.136zm-.47-.912c.167.086.226.17.115.248-.087-.044-.17-.13-.264-.1-.07.02-.143.076-.208.034l.357-.193zm-.6.635c-.328-.136-.476-.098-.623.104-.195-.237.183-.245.436-.313.084.07.263.144.187.2h0zm-.514.434c-.378-.15-1.87.564-1.497-.045-.274-.01-.918.155-.945-.11.172-.154.947-.18 1.088.032.202-.312.326.001.544.016-.16-.22.187-.362.314-.48.32.187-.432.342-.113.527.076-.065.044-.135.222-.198.1 0 .518.153.388.257h0zM86.84 6.766c.285.114.27-.165.63-.185.377.252-.69.527-.63.185zm.703-3.487c-.235.093-.462.086-.68-.02.243-.178.46-.076.68.02zm1.688-.603c-.353.136-.692.105-1.03.092.35-.11.702-.237 1.03-.092zM83.13 7.148c.216-.137.42-.136.615-.023-.2.07-.423.163-.615.023zM81.88 6.58c-.108-.064-.233.065-.337-.05.267-.264.393-.097.58-.39.323.16-.03.298-.242.442zm-1.23.045c.087-.066.014-.135.085-.202.445-.015.29.303.615-.022.36.253-.483.404-.7.224zm-.744-.062c-.285-.1-.045-.165-.116-.248l-.358.194c-.32-.244.027-.356-.5-.423.323-.03.926-.072 1.01.153.255-.13.707.107.763-.182l.258.17c-.19.15-.34.04-.356.194-.382-.114-.584-.122-.693.142h0zm-.714.387c.154.066.328-.116.472.055-.136.175-.588.098-.472-.055zm-2.61-.606c.02-.15.428-.318.623-.104-.218.16-.423.163-.623.104zm-2.124.142c.198-.076.037-.162.29-.236.357.356.767.083 1.14.237-.245.246-.986.017-1.432-.001zm.168.454c.01-.13.36-.158.55-.066-.193.142-.372.105-.55.066zm-.376-3.764c.168-.113.33-.15.48-.027-.17.113-.33.15-.48.027zm-1.04 6.946c.413-.16.393-.173.44-.395.127.134.26.138.41.01.25.256-.477.532-.85.383zm.663-6.508c-.17.113-.33.15-.48.026.224-.066.007-.347.363-.275-.122.078.175.168.117.248zm-.92-.435c.53-.182.176-.878.805-.67-.036.064-.3.193-.234.36.166-.08.317.024.467.135-.35.1-.7.337-1.038.174h0zM74.9 6.092c.383.23.46-.296.894-.097-.38.13-.196.095-.363.275-.2.006-.75.043-.53-.18zM72.21 3.118c.23-.037.467-.165.687-.062-.245.21-.46.078-.687.062zm-.74 2.426c.414.22 1.224-.002 1.41.245-.41-.102-1.468.18-1.41-.245zm.757.756c.008-.122.36-.205.55-.066-.188.076-.373.123-.55.066zm.01-3.51c.173.107.374-.12.537.097-.15.12-.633.07-.537-.097zm-2.536 2.7c.35.185.74-.172 1.1.03-.32-.015-1.233.347-1.1-.03zm-.835 4.504c.213-.16.364-.29-.04-.368.234-.08.457-.035.673.1-.22.142-.258.45-.634.266zm-.816-3.45c.266.11.912-.096.94.19-.273-.022-.908.038-.94-.19zm.324-.643c.348.188.723.043 1.076.194-.403.177-1.14.053-1.29-.078.12.056.2-.055.214-.117h0zm.842-.3c-.13.064-.207.13-.22.196l-.13-.085c.14-.195-.045-.27-.382-.338.402-.177.462.027.732.226h0zm-2.876.16c-.06-.347-.282-.092-.66-.263.263-.153.464-.15.376-.44.42.462 1.246.11 1.885.3-.428.11-1.105.1-1.645.116.093.098.253.198.045.287zm-1.15 4.2l-.193-.128c.26-.126.523-.313.763-.182-.012.18-.355.116-.57.3zm-.542-.016c-.33-.124.164-.402.362-.275-.066.18-.41.018-.362.275zm-.408-4.376c-.47-.06-.493-.18-.686.06-.26-.004-.31-.145-.254-.252-.49.18-1.322.072-1.55-.247.564.2 1.24.106 1.64-.036-.095.107-.016.217.11.33.037-.175.062-.188.357-.194.148.072.032.137.05.205.156-.216.154-.067.416-.07-.184-.174.24-.2.414-.07-.005.14-.296.092-.5.272h0zm-.79 4.015c.172.102.34.06.188.2-.3-.006-.162-.178-.453-.3-.3.197-.58-.123-.893.097.18.04.363 0 .532.177-.146.112-.274.006-.42.152-.242-.067.08-.317-.253-.253-.205.09.196.196-.1.284-.14.024-.27-.02-.402-.093.025-.122.31-.236.232-.36-.16.022-.31-.082-.466-.136.956-.027 1.91-.045 2.848.163-.296.292-.533-.16-.823.058h0zm-1.45-4.12c.108.077.218.125.33.132l-.143.078c.035.028.067.057-.007.08-.364-.196-.107.173-.29.236-.154-.064-.32.034-.467-.135.33-.127.343-.263.576-.392h0zm-1.518-.655c.36-.118.54.067.76-.1.084.07.264.143.19.21-.312-.084-.648.144-.947-.11h0zm.098.492c.128-.078-.166-.168.02-.243.18.022.363-.007.543.015-.23.135-.247.3-.563.228zM60.4 2.288c-.204-.058-.77.01-.734-.225.298-.11.612-.323 1.037-.174-.17.15-.32.04-.493.2.172.102.34.06.2.21zm-1.084 2.54c.001-.09.305-.194.493-.2-.133.126.305.042.395.174-.305.136-.594.053-.888.015h0zm-.303.4c.117-.032.23-.025.337.05-.505.2-.73-.32-.993-.395l-.355.194c-.505-.258-1.028-.228-1.556-.166-.072.198-.28.35-.44.395-.014-.317-.26.103-.538-.097.448-.205.8-.323 1.067-.582.415.373 1.22-.006 1.776-.03-.068.08-.443.15-.29.236.258-.1.505-.057.765-.182-.088-.044-.274-.027-.196-.128.243.145.868-.106.875.147-.326-.12-.858.18-.575.392.055-.295.937-.105.952.027-.25-.015-.978-.156-.83.14h0zm-2.4 1.073l-.195-.128c.167-.113.33-.15.48-.027l-.285.155zm-1.708-.864c.173.1.26-.12.285-.155l.26.17c-.153.142-.64.183-.545-.015zm-.584-.385c.365-.196.293.144.67.182-.234.062-.66-.024-.67-.182zm-.118-.248c-.236-.116-.055-.22.16-.322.3.235.634.053.94.2-.2.16.04.303-.37.357-.316-.118-.06-.22-.11-.33-.207.043-.408-.015-.622.105h0zM53.12 2.898c.192-.142.372-.106.552-.066-.008.12-.362.204-.552.066zm-.21 1.91c.012-.095-.057-.192.227-.28.338.124.014.407-.227.28zm-.556.148c.194.18.77-.03.74.143-.24.014-.946.18-.74-.143zm.44-.396c-.067.107.096.22.1.33-.167.116-.318.01-.473-.054.187-.068.185-.342.363-.275h0zm.366-.357l-.284.154-.196-.128c.172-.16.323-.055.48-.026zm-1.122-1.42c.345-.045.684-.008 1.02.07-.328.072-.932.162-1.02-.07zm-.687.062c.232-.06.475-.28.693-.144-.237.126-.476.292-.693.144zm3.372 1.44c-.133-.05-.28.086-.402-.093.116-.21.533-.01.402.093zm.675.1c.2.072.41-.015.61.057-.172.11-.687.155-.61-.057zm1.247-1.148c-.17.114-.33.152-.48.028.168-.114.33-.15.48-.028zm.588 1.24c.2.05.414-.065.61.058-.168.028-.688.164-.61-.058zm1.418-2.49c.347.18.632-.205.837-.22.276.217-.145.178-.304.4-.123-.168-.274.01-.416.07-.17-.087-.226-.17-.117-.248zm2.402.72c-.002.108-.313.307-.492.2.163-.043.34-.28.492-.2zm.31-.48c-.1.052-.126.106-.15.16-.158-.085-.67-.055-.596-.22.24.125.51-.12.745.06h0zm.343-.03c.332.118.68.034 1.013.15-.416.085-.817-.03-1.227-.034l.214-.117zm1.564.086c-.116.064.14.14.052.205-.175-.09-.368.056-.538-.097.168-.102.333-.196.486-.108h0zm.496 1.523c-.277.052-.547.02-.824.058.03-.113.818-.26.824-.058zm.585 1.24c-.21.08-.42.12-.622.105.13-.06-.55-.043-.253-.252.288.082.584.092.875.147zm.205-2.605c-.24.157-.466.134-.687.063.23-.037.467-.165.687-.063zm-.637-.59c.36.06.737-.113 1.084.113-.36.03-.263.298-.57.3-.364-.096.036-.375-.248-.334-.108.092.056.192-.226.28-.186-.127-.08-.247-.04-.368h0zm1.6.616c-.028.08-.105.16-.29.237-.167-.2-.362-.026-.532-.18l.143-.077c.193.165.344-.03.68.02zm.035 3.02c-.194.04-.688.107-.467-.136.107.197.59-.094.467.136zm-16.524 5.893l-.13-.085c-.047.02-.093.04-.136-.004.128-.187.473-.3.762-.183-.2.175-.49.092-.495.272zm-1.714-1.72a1.14 1.14 0 0 1 .817.022c-.28.093-.55.086-.817-.022zm-4.98.148c-.208-.037-.264-.252-.598-.22.195-.2.364-.005.556-.148.252.13.35.255.042.37zm-2.53 1.153c.2-.102.034-.15.284-.155.305.134-.09.35-.284.155zm-1.937-1.522c.485-.125.958-.073 1.424.08a10.15 10.15 0 0 1-1.424-.08zm-2.703 5.797c.14-.264.752-.072 1.085.03-.37.103-.718-.09-1.085-.03zm-.55-5.03c.117-.05.237-.158.348-.112-.04.026-.073.052-.005.082a.4.4 0 0 1 .343-.032c-.234.123-.464.155-.685.063h0zm.114.33c-.13-.084-.275.052-.402-.093l.212-.117c.172.102.34.06.2.2h0zm-.6-1.24c.196-.133.734-.188.68.02-.218-.148-.463.134-.68-.02zm-.75 1.04c.2-.075.416-.08.62-.105-.12.164-.35.202-.62.105zm-1-.15c.318-.022.63.06.945.108-.296.165-1.11.196-.945-.108zm-.102 4.687c.2.046.414-.104.607.058-.175.273-.882-.107-.607-.058zm-1.394-4.726c-.288-.1-.266.163-.614.025.175-.164.7-.248.614-.025zm-.885.017c-.262-.164-.54-.083-.816-.02.1.138.12.276-.162.404-.2-.064-.402-.084-.6-.22.212-.13.4-.017.624-.187-.105-.167-.628-.092-.664-.262.11.038.225.037.343-.03l.326.212c.47-.183.575-.008 1.097-.133-.14.078.09.165-.15.24zm-1.915 4.516c.02-.166.41-.2.617-.106-.02.205-.406.14-.617.106zm.5-4.594c-.234.118-.458.074-.674-.1.233-.1.45.05.674.1zm-1.424-.08c-.17-.176-.35-.18-.544-.015l-.196-.127c.35-.136.684-.04 1.023-.014l-.283.155zm-1.166 4.66c.26-.163.497.016.742.06-.256.124-.5.043-.742-.06zm-.7-4.34c-.18-.018-.247-.062-.262-.17-.488.186-.945-.118-1.434.084-.213-.105.04-.358-.333-.132-.23-.125-.222-.453.155-.322-.078.052-.146.105-.01.163.075-.46.862-.298 1.32-.413l.327.213c.272-.013.56-.246.82-.06-.14.254-.766.286-1.103.215.065.06-.037.07-.14.078.226.02.443.197.67.18.354-.224.704-.39 1.033-.176-.548-.02-.414.167-.63.268.001-.21-.266-.083-.413.07h0zm-2.74 3.8c.265.115.546-.042.805.184-.236.096-.81.012-.805-.184zm-.24-4.043c-.247-.338-.247.03-.393-.255-.346.053-1.055.215-1.158.01.06.03.43.001.277-.074-.23.043-.456.012-.677-.1.2-.14.365-.033.54.096.218-.117.606-.047.628-.27.432.185.982-.192 1.213.196.05-.245.518-.226.756-.102-.657.038-.555.33-1.186.498zM19.85 9.86c-.108-.194.392-.183.155-.322.14-.067.277-.102.412-.07-.31.125-.127.52-.567.393zm.19-.972l.263.17c-.14.1-.28.136-.413.07.308-.073-.16-.167.15-.24h0zm6.113.324c-.207-.03-.768.015-.74-.142.207.001.77-.06.74.142zm-5.46 4.993c.235-.16.456-.057.677.017-.028.16-.46.148-.677-.017zm-1.07-2.72c.192-.114.73-.188.68.018-.226-.014-.46.116-.68-.018zm-8.073 1.18c.3-.206.505-.003.543.014-.182.008-.37.138-.543-.014zm-9.182-1.12c-.195-.264-.41.13-.605-.136.236-.214.813-.123.813.018-.142-.056-.077.06-.208.118h0zm16.65-2.644c-.12-.1.323-.254.416-.153.003.06-.247.342-.416.153zm40.686.628c.308.12-.1.36-.3.236.197-.075.035-.162.3-.236zM46.303 8.416c-.168-.086-.227-.17-.117-.248.3.066.603-.165.88.065-.26.154-.505.08-.764.182zm-.6-3.034c.46-.24.913.148.723.387-.2-.167-.15-.247-.723-.387zm-.25-.333c-.066-.057-.2-.114-.126-.166.15.125.34-.258.48-.027l-.354.194zm-1.63-.127c.087-.383.91-.186 1.37-.044-.466.148-.918.114-1.37.044zm.03.53c-.12-.07-.187-.14-.19-.2-.246.228-.82.103-.8-.104.26.178.556-.147.8.104a.56.56 0 0 1 .682.019c-.28.19-.352-.048-.492.19h0zm-1.735 2.36c.353-.176.69-.13 1.03-.094-.353.163-.69.133-1.03.094zM41.8 4.62c.214-.12.422-.16.622-.105-.205.008-.427.263-.622.105zm1.564.085c-.193.16-.367.04-.55.065.01-.188.36-.216.55-.065zm.57-.31c-.088-.045-.275-.027-.197-.128.42-.082.6.08.872.228-.076.066-.043.135-.22.198-.27-.102-.09-.192-.184-.3-.366.163-.516.17-.575.392-.247-.003-.16-.14-.254-.252.192-.142.37-.09.556-.147h0zm2.102.18c-.347.18-.242-.045-.534-.177.214-.183.544.054.534.177zm-4.97-.178c.135.017.267.063.396.174-.197.184-.602-.054-.396-.174zm-1.35.738c-.11-.16-.198-.227-.475-.055-.118-.072-.187-.14-.19-.21.19-.143.37-.09.555-.147.17.178.355.137.535.178-.298.074-.167.083-.426.233zm-2.3-.31c-.075.058-.043.146-.207.035.027-.08.103-.16.29-.236.352.17.73-.044 1.09.03-.243.29-.662.158-1.173.17h0zm-.174.567c.167-.115.323-.068.473.054-.167.115-.323.068-.473-.054zm.383-1.62c.294.08.17.352-.088.283.206-.1-.197-.196.088-.283zm.73.305c-.177-.09-.37.056-.54-.096.15-.128.63-.022.54.096zm-2.825 3.43c.123-.11-.187-.02-.125-.166.308-.162.956-.086 1.01.15-.278-.238-.6.02-.886.016zm-.508-3.643c.26-.113.503-.04.753-.02-.258.12-.513.188-.753.02zM33.79 7.05c.167-.116.323-.068.473.054-.167.115-.323.068-.473-.054zm-1.093-3.09c-.13-.12-.272-.022-.398-.174.32-.13.25-.093.495-.272.214.212.448.126.666.263-.26.142-.494-.096-.763.183h0zm-1.885-.458c.33.214.7-.082 1.017.15-.032.18-1.24.106-1.017-.15zM29.557 7.1c.168-.15.32-.04.5-.19.358.2-.284.307-.5.19zM25.44 4.097c-.544.225-.422.697-1 .545.402-.136.893-.613.25-.768.002-.148.235-.095.42-.152.107.245.503.085.81.185-.325.234.295.01.395.254-.302.082-.585-.107-.885-.064h0zm-.04.652c-.088-.053-.18-.01-.268-.09-.055-.182.52-.343.833-.223l-.565.312zm-.398.927c.22-.152.768.007.743.142-.247-.06-.5.012-.743-.142zM24.39 6.8c.238-.18.45.05.69-.145.12.07.188.14.193.208-.3.037-.6.135-.883-.064zm-1.394-1.83c.26-.2.504-.066.752-.02-.25.02-.506.087-.752.02h0zm-.36-2.007c-.287.237-.544-.054-.825.06-.194-.203-.328-.254-.67-.262-.115.065.143.14.057.205-.594-.238-.24-.4.042-.732.15.072.035.136.057.205.117-.064.223.095.34.05-.12-.07-.2-.14-.193-.21.255-.124.43.023.353-.194.16.007.322-.035.472.133-.096.085-.28.037-.213.117a2.94 2.94 0 0 1 .678.1c-.283.142.03.048.128.166-.17.162-.314-.086-.48.028.215.23.448.146.67.263.054.074.293.354-.085.283.15-.15-.26-.057-.33-.213h0zm-.25 1.95c-.15-.16-.32.025-.47-.135l.282-.156c.078.097.237.196.187.29zm-1.457 1.592c.302-.116.595-.06.883.064-.304.16-.6.145-.883-.064zm-.608-2.502c.092-.052-.052-.1.01-.164.355.166.732-.047 1.088.11-.363-.046-.744.244-1.097.053h0zm.175 1.717c-.164.102-.33.196-.483.11.08-.052.147-.105.01-.163-.254.075-.1.16-.287.237-.306-.157.155-.295.23-.442.247.043.066.26.263.17.124-.092-.04-.192.084-.284l.265.17c-.105.066-.255.13-.082.202h0zm-1.338-1.707c0-.108.243-.242.423-.234.3.1-.177.158.123.248a.54.54 0 0 1-.546-.014h0zm.266 1.352c-.097-.296-.45-.024-.744-.142.194-.362.953-.167.744.142zm-.04-1.713c-.165.115-.322.07-.475-.053l.282-.155c.14.07.066.137.192.21zm-1.2-.52c.118.07.115.14.057.205-.41-.01-.524-.083-.33-.213-.317.04-1.3.16-1.56-.245.33.12.25-.032.548.014-.04-.096.132-.187.22-.28a1.43 1.43 0 0 1 .547.014c.07.124-.045.244-.088.365.334-.283.648-.185.97-.22.276.294.548.255 1.005.393-.217.207-.943.024-1.367-.036h0zm.153.94c-.2-.095-.41-.01-.61-.137.173-.143.68-.042.61.137zm-.402 1.1c-.204-.037-.4-.15-.603-.22.297-.017.6-.132.898-.18-.134.065-.1.134.057.206l-.352.194zm-1.594.407l-.2-.127.212-.117c.127-.078-.17-.168.014-.244.126.185.28-.094.406.092-.214.13-.16.268-.43.397h0zm-1.095-.027c.206-.01.425-.264.622-.107-.21.12-.425.28-.622.107zm2.58-2.136c.157.063.318.023.473.135-.2.14-.685.04-.473-.135zm-.846.467c.07-.053-.028-.1-.127-.167.347-.1.674.174 1.022.067-.294.168-.483.123-.895.1h0zm-.34-.05c-.27-.126-.916.126-.95-.186l.133.084c.14-.118.1-.242.088-.364.133.084.278-.052.407.09-.565.275.49.152.323.375zm-1.24.133c-.068-.056-.2-.113-.13-.166.137.06.16-.2.41.01l-.282.157zm4.5-.903c.34.005-.008.172.325.294l-.353.194c-.075-.098-.48-.062-.33-.212.162-.04.316.064.476.054.095-.107-.437-.23-.118-.33zm.51 1.848c-.116.203-.243.313-.626.187.457.02.17-.232.626-.187zm.784-2.956c-.127.078.17.168-.014.244-.327.043-.307-.32.014-.244zm2.074.83c.136 0 .404.183.187.3-.173-.1-.332-.2-.187-.3zm-9.928 2.558l-.198-.127c.168-.162.322-.057.48-.03l-.282.156zM10.81 5.23c.238-.196.463-.136.684.017-.23.017-.464.16-.684-.017zM9.7 5.53c.455.038.917-.078 1.367.034-.436.2-1.17.122-1.367-.034zm-.37-.905c.184.044.612-.06.403.173-.096-.125-.536.045-.403-.173zm.888.062c.112.236.212.056.473.134-.114.066.146.14.06.205-.334-.03-.237-.18-.546-.014l-.2-.128c.075-.066.04-.135.215-.198h0zm3.405-.936c-.001-.21-.27-.083-.416.072-.234-.237.465-.51.773-.35-.005.155-.203.26-.357.277zm-2.3-.708c-.215-.12.034-.29-.33-.293.486-.28.542.222.948.267-.215.18-.403-.198-.62.026zM9.56 2.59c-.1-.286-.28.015-.545-.095-.033-.265 1.003-.128.545.095zm-1.78-.125c.074-.066.04-.135.215-.2.1.09.226.05.34.13-.2.12-.377.218-.554.068h0zm42.28.303l.426-.232c.188.24.415-.06.605.14-.352.127-.69.1-1.03.093zm-2.982-.327c.087-.066.014-.136.084-.2.148.16.32-.025.47.135-.19.076-.375.124-.553.067zm-1.903-.134c-.413-.293-1.233.06-1.418-.243.4.03 1.5-.196 1.418.243zm-.562.23c-.11-.045-.227-.026-.333-.13.305-.05.2-.192.485-.11-.14.078.088.165-.152.24h0zm-1.614-.37c-.092-.26-.334-.057-.6-.22.306-.145.587.06.894-.098a.65.65 0 0 0 .333.131c-.338.1-.397-.078-.628.187h0zm.137.942c-.087-.052-.18-.01-.267-.09l.355-.195c.194.1.02.192-.09.283zm-1.104-.806c-.31-.155-.156-.432.1-.445.143.153.126.302-.1.445zm-2.285-.552c.1-.175.468-.088.64-.35.37.106-.284.183-.088.283.175.088.376-.16.546.015-.377.18-.737.088-1.097.05h0zm.697.794c.005-.048.184-.283.355-.194-.032.107-.07.313-.355.194zm-2.03-.3c.192-.133.36.06.54.097-.197.207-.366.015-.54-.097zm-.53-.26a.72.72 0 0 1-.398-.174c.188-.093.37-.088.546.015a.27.27 0 0 0-.148.159zm.952-.912c-.347.064-.68-.043-1.02-.07.346-.08.692-.114 1.02.07zm-2.038.8c-.287-.044-.3-.285-.677-.1-.038.14.4.11.186.29-.27-.004-.428-.08-.53-.26.382-.22 1.113-.303 1.235-.048-.14-.056-.078.06-.214.116h0zm-3.034-.613c.18-.213.67.07.606.14-.207.012-.408-.035-.606-.14zm-.447.56c.105-.08.538-.074.425-.234-.13-.17-.632.04-.535-.178.25.003.505-.048.742.143-.135.064-.1.132.055.206-.234.1-.464.118-.687.063h0zM33.3.88c.284.116.146.22.388.336-.188.095-.37.058-.552.066.14-.132-.018-.272.164-.402zm-.714.47c-.1-.208-.27-.12-.53-.26.47-.03.86-.466 1.103-.133-.396.054-.375.226-.572.392h0zm-1.258.374c.26-.133.525-.344.767-.184-.26.135-.52.248-.767.184zM27.2 1.086c-.14-.067-.625-.098-.532-.26.147-.065.624.118.532.26zM25.305.7c.253.02.867-.056.882.146-.297-.001-.594.003-.882-.146h0zM21.41.485c-.306-.05-.247.065-.684-.018.1-.126.23-.224.425-.234-.134.173.277.085.208-.035.177.1.097.193.05.287h0zm196.022 1.96c-.574-.195-1.503-.147-1.64-.665-.286.223-.78.125-.86.38.088.044.186-.034.282-.072.123.16-.037.106-.225.197-.165-.16-.343-.204-.527-.18-.19-.1-.1-.194.096-.283-.174-.03-.34.004-.352.11-.408-.3-1.385-.05-2.057.098-.734-.382-1.558.135-2.36.416l-.13-.086c.343-.43 1.104-.442 1.508-.728-.126-.12-.272-.022-.393-.176-1.192.44-1.9.27-3.055.557-.038-.042.008-.082-.057-.124.417-.046 1.05-.24 1.274-.45-.17-.127-.365.016-.536-.098.07.173-.114.21-.352.11.052.1.04.22-.033.326-.39-.1-1.29.04-1.13.372-.174.127-.056-.256-.326-.132-.037-.084.275-.08.16-.24-.274-.032-.535.28-.45.394-.187.056-.137-.217-.312-.296-.37.11-.145.24-.375.355-.184.1-.226-.133-.12-.167-.28-.082-.23.178-.296.236-.083-.017-.355-.127-.384-.257.175-.15.328-.097.497-.19-.395-.15-.594.14-.577.31-.484.034-.92.043-1.265.368-.344-.12.056-.215-.104-.33.28-.06.556-.087.832-.137-.25-.17-.232-.333.05-.488-.17-.088-.34.005-.352.11-.022-.197-.323-.02-.383-.257-.4.214-.736.202-1.25.206-.1-.12.377-.205.48-.026.072-.025.042-.053.01-.08l.143-.077c-.258-.153-.545-.01-.824.055-.123-.167.04-.326-.086-.492-.156.17-.16.09-.433.23-.247-.103-.16-.196-.312-.296-.178.063-.146.132-.224.197-.185-.087-.008-.164-.247-.253-.418.087-.824.054-1.23.043-.168-.185.168-.1.367-.274-.193-.114-.423.13-.608-.06-.003.067-.16.13-.088.2-.983-.173-2.02.2-3.006.07-.075.052.055.11.12.167-.17.1-.338.192-.497.19-.22-.65-1.344.15-1.9.02.21-.578.933-.405 1.495-.647-.284-.135-.65.15-.735-.145l-.433.23c-.163-.073-.12-.14-.183-.2.18.01.38-.17.553-.064-.088-.183.177-.1.23-.28-.286-.325-.676.397-.96.052l-.952.664c-.264-.117-.113-.222.033-.326-.207-.212-.448-.065-.672-.103.038.1-.034.217-.305.317.132.05.282-.085.4.094-.236.093-.463.086-.68-.02l-.648.348c-.092-.242.142-.19-.32-.215-.315-.118.17-.212-.103-.33-.123.394-.492.265-.944.583-.402-.074-.81-.084-1.208-.2-.34.382-.74.45-1.223.656-.3-.118.245-.21.168-.32-.624.023-1.282.565-1.583.85.632.106.858-.433 1.278-.532.114.07.113.14.048.205.172.08.457-.17.297-.236.552.33 1.718-.626 2.47-.168-.5.47-1.545.48-2.222.42-.465.558-1.427.5-2.303.54.26-.245.4-.425.48-.72-.2.168-.372.085-.57.227-.58-.45-.855.225-1.415-.166-.65.185-.438.133-1.046.252.18.074-.047.135.048.206-.188.056-.366.004-.56.146-.3-.16.088-.247.294-.236-.052-.186-.847.036-.838.22-.27-.02-.56.137-.81-.108-.382-.03-.808.385-1.182.25-.235-.24.19-.457.408-.682-.495.02-.725.355-1.392.284-.232-.162-.1-.196-.392-.176-.235.147.42.064.185.2.202.02.403.05.614-.022.087.21.03.19.394.176.063.056-.08.106-.153.158-.19.07-.34-.227-.527-.18-.004.068-.16.13-.088.2-.234.06-.453-.028-.68-.02-.094-.1-.025-.15.15-.158.134-.04.054.07.19.128.043-.12.15-.24-.032-.368-.97.63-1.877.598-2.813.892-.098-.058-.194-.115-.12-.168-.083.13-.8.35-1.262.37-.048-.21.696-.306.655-.43.18.183.356.088.073-.038-.777.184-1.478.272-2.072.262-.207-.28.725-.17.727-.468-.265.007-.347-.08-.487.107-.884-.227-2.525.385-3.453.466-.194-.115.546-.2.168-.322-.137.23-.482.3-.785.343.2.046.4.116.61.06.038.04-.008.08.056.124-.422.14-.802-.163-1.24.124-.124-.072-.047-.137-.184-.2-.337.184-.64.048-.968.133-.112-.07-.112-.14-.048-.206-.153-.066-.33.116-.472-.056-.146.05-.086.107-.015.163-1.257-.055-2.106.01-3.35.1-.096-.086-.022-.164.16-.24-.203-.025-.416.067-.617.02-.336.1.128.222-.166.32-.303-.173-.625-.108-.96.052-.184-.088-.01-.164-.25-.253-.128.09.033.19-.096.283-.363-.24-.313.017-.823.056-.184-.087-.008-.164-.25-.252-.06.066-.065.134.05.206-.435.112-1.35-.174-1.32-.45-.65.144.5.25.09.493-.234-.01-.157-.118-.456-.218-.327.152-.697-.008-.847.3-.298-.002-.64.02-.73-.227l-.36.194c.236.222.1-.17.336.052-.202.3-1.19.07-1.798.27.106-.162.053-.3.374-.356-.458-.233-.57.304-1.054.335-.293-.266-.63-.042-.96.053-.363-.235-.76-.135-1.15-.077-.087-.18.36-.057.493-.19-.128-.126.205-.24.104-.364-.387.238-.928.27-1.277.532-.105-.08-.274-.012-.535-.098-.135-.24.816-.032.3-.317.22-.16.404.056.624-.103-.2-.197-.78.128-.736-.145-.23.14-.47.075-.84.22.036-.332-.392-.01-.728-.226-.432.233-.833.155-1.254.288-.017.167.32.295.53.18-.053.282-.644.11-.895.095-.057-.128.133-.255.23-.28-.042-.134-.238-.14-.242-.334-.043.366-.405.092-.782.344.138.218.32-.025.464.137-.228.015-.47.16-.68-.02-.063-.08.118-.033.216-.116-.094-.082-.288-.046-.192-.128-.246-.13-.107.263-.344.03.062.138.19.278-.038.407-.327-.006-.012-.137-.25-.252-.19.1-.126.186-.094.283-.115.01-.223-.058-.344.03-.345-.188.23-.347-.02-.53-.08.107-.207.21-.166.32-.244.177-.437-.19-.687.06-.248-.103-.16-.195-.313-.295-.31.16-.596.05-.89.013-.182.28-.682.19-1.038.172-.182-.088.363-.152.023-.245-.317.247-.65.113-1.103.13-.286.087.114.194-.094.283-.4.037-.058-.243-.378-.34-.18.008-.255.048-.286.155-.638-.466-1.384.212-2.04-.062-.25.27-.396.223-.853.383-.123.005-.198-.163-.465-.136-.063-.207.41-.1.567-.227-.414-.136-.736.026-1.04.172-.335-.078-.174-.17-.378-.338-.274.052-.425-.068-.56.146l-.257-.17c.107.222-.622.298-.887.014-.23.294-.416.163-.76.1-.285.14.028.05.123.167-.17.104-.32-.002-.48.026-.253-.2-.07-.197.03-.325-.295-.007-.586-.06-.858-.312.072-.05.142-.058.208-.034-.035-.156-.67-.09-.945-.1.708.132.567.396 1.25.486-.658.336-.718-.258-1.2-.2.01.177.508.37.43.544-.175-.16-.642-.14-.786-.35-.198.17-.214.347-.388.52.093-.3-.25-.28-.507-.424-.128-.113.3-.208.03-.326-.126.13-.19.13-.166.32-.18.005-.425-.152-.28.073-.203-.007-.397-.126-.593-.222-.003-.126.622-.001.502-.27-.372.138-2.028.46-1.703-.01-.203-.02-.425.17-.615.022-.3.382-1.018.063-1.542.442-.106-.272-.534-.106-.377-.338-.228-.068-.187.208-.5.27-.52-.032-1.032-.158-1.575.075-.046-.228-.497-.17-.544-.017-.185-.22-.402-.085-.594-.22.055.134.16.14.243.334-.265.02-.56-.15-.66-.265-.357-.047-.198.237-.678-.02-.032.067.073.138-.088.2.3-.047.59.02.873.148l-1.495-.044c-.04-.042.007-.08-.058-.124.236-.072.653.106.695-.142-.35-.135-.68.185-1.15-.075-.097.06-.193.116-.28.073-.06.066-.065.134.05.206-.308.134-.59-.023-.895.095-.24-.09-.065-.165-.25-.252-.27.097.133.207-.223.197-.25-.113.17-.197-.185-.21-.195.062.02.136-.086.2-1.03-.5-2.332-.047-3.178-.3-.108-.084.203-.157.157-.24-.377-.1-.796.272-1.152-.075-.06.066-.064.134.05.206-.15.144-.276.04-.422.15-.17-.073-.02-.137.087-.2-.195-.113-.4.01-.6-.06-.073.052.057.11.122.166-.148.136-.272-.007-.416.07-.018-.068.1-.133-.05-.205l-.287.154c-.184-.087-.01-.163-.25-.252l-1.982.063.192.128c-.18-.01-.38.17-.55.065-.17-.074-.02-.137.086-.202-.393-.107-1.12.09-1.3.165-.097-.172-.257-.215-.536-.098.34.166.028.163-.16.24.627-.066.88.175 1.56.088.076-.075-.063-.033-.128-.086.153-.177.262.11.416-.07.202.206.21.153.514.342-.783-.2-1.883.13-2.44-.155-.046.04-.007.082-.08.12-.267.077.07-.154-.185-.21-.437.323-.828.112-1.232.044-.128.222-.412.2-.694.143.108-.16.36-.316.18-.484.204-.046.545.026.56-.146-.264.022-.27-.017-.394-.175-.122.18-.3.136-.366.274-.232.058-.446-.103-.688.06-.254-.304-.87-.155-1.36-.04 0-.248-.243-.233-.61-.06-.048-.07-.04-.138.086-.2-.444-.126-.922.14-1.368.04-.128.077.164.168-.02.244-.146.1-.254-.216-.408-.012-.114-.072-.114-.14-.05-.206-.216-.042 0 .225-.35.113-.167-.087-.225-.17-.115-.248-.35.11-.958-.123-1.103.13-.185-.087-.008-.164-.25-.252-.017.252-.358.03-.343.03-.482.023-.654.344-1.167.088-.105.237-.663.1-.967.134-.02-.068.098-.132-.05-.205-.227.26-.543-.003-.91.258-.117.168.337.226.466.136.12.038-.324.18-.422.15-.14.19.304.055.4.093.066.07-.125.133-.222.197-.1.02-.372-.264-.68-.02-.17-.1-.327-.2-.18-.29-.238-.15-.505.06-.738-.144-.07.106-.004.248-.293.236.17-.298.696-.5 1.215-.658-.224-.033-.443-.13-.665-.183-.105.078-.144.243-.35.112-.072.065 0 .136-.085.2-.31.102-.168-.1-.458-.218.034.343-1.17.36-1.297.003-.012.202-.288-.008-.493.19.214.152.458-.05.672.102-.016.152-.586-.008-.815-.025-.03.08-.107.16-.293.236-.17.1-.15-.13.014-.163-.234-.068-.265.206-.093.283.164-.055.314.053.486-.108.06.083.06.165.117.248-.328.1-.625-.148-.952-.028-.062-.16.5-.445.04-.488.07.223-.102.1-.358.194-.026-.243.237-.102-.252-.252-.037.157-.065.21-.364.275-.095-.312-.516.096-.802-.186.824-.024 1.48-.263 2.39-.052-.322-.284.632-.1.514-.433-.106-.082-.223-.043-.328-.133-.143.264-.705.055-.81-.106.183.24-.33.205-.105.445-.18-.018-.373.11-.545-.016-.13-.135.546.028.086-.202.15-.178.264.11.415-.07-.125-.073-.048-.138-.187-.2-.413.26-.514.047-.603-.14-.03.34-.882.095-1.31.165-.152.15.016.108.187.2-.47.263-1.207-.01-1.453.242-.27-.103.05-.19-.045-.287.364 0 .732-.048 1.088.032.132-.105.14-.213.028-.326-.098.08-.186.04-.27-.008-.036.054-.072.107-.015.164-.366-.256-1.4-.033-1.653.196.193-.408-.482-.21-.64-.51a.4.4 0 0 1-.344.031c-.14.217.305.05.395.175.107.172-.293.275-.657.51-.3-.232.303-.226.306-.4-.332-.165-.27.013-.623.104.1.098.03.192.045.287-.165.057-.307-.136-.48.027.282.172.604-.16.874.148.354-.16.707-.295 1.045-.255.114.103-.314.06-.415.07-.115.12.204.147.266.066-.058.7-1.974.03-3.023.26.098.058.194.115.122.167.15.124.33-.117.473.055.03.116-.517.252-.688.06.13.196-.463.44-.7.225-.08-.046.416-.166.55-.066-.08-.243.16-.234.242-.442-.29-.1-.198-.158-.525-.26.492-.078.77.093 1.382-.205-.278-.2.036-.193-.38-.338.002.137.25.28-.17.404-.455-.008-.902-.105-1.362-.04.167.086.226.17.116.248.2.046.405.053.61.058-.02.115-.288.18-.43.233-.135-.06-.066-.112.013-.163-.384-.12-.114.23-.558.147-.02-.123.156-.24.1-.365-.498.295-1.403-.032-1.934.27-.092-.098.087-.188-.18-.29-.258.088-.498-.03-.767.182.174.086.237.17.254.252-.326.087-.638.004-.967.134-.146-.166.256-.465.564-.228-.147-.127.118-.24-.038-.368-.296.28-.602.16-1.187.332.146.172.325-.068.474.055-.025.2-.403.022-.63.185-.126-.07-.048-.137-.188-.21-.178.437-.796-.033-1.173.17-.175-.306.535-.203.578-.39-.065-.04-.138.014-.207.035-.298-.1.18-.158-.116-.248-.25.118-.61-.026-.493.2-.242.173-.447-.094-.68-.02-.048-.11.084-.26.285-.155-.036-.283-.9.206-.94-.2l-.428.232c.166.072.122.14.188.2-.27.09-.267-.064-.396-.175-.437.315-.83-.005-1.556-.167-.414.22-1.284-.137-1.912.026-.022.193.286.054.467.136-.1.213-.783.147-1.102.13-.104-.206.428.01.356-.194-.207-.098-.37-.162-.388-.255-.17.078-.482.318-.72.468-.314.052-.225-.22-.454-.3-.163-.03-.69.202-.61-.058-.54.208-1.057.134-1.575.076-.306-.13.267-.236-.04-.368-.4.1.1.248-.233.36-.313.112-.32-.216-.52-.342-.188.078-.36-.045-.545-.015.06-.107.004-.218-.245-.333-.013.06-.096.173-.215.116-.168.1.2.02.26.17-.193.142-.364.002-.544-.015-.15.103.248.155.33.132.017.096-.06.19-.09.283-.262.003-.26-.147-.415.07-.285-.192.08-.143.1-.283-.275-.12-.257.09-.356.194-.323.058-.634-.05-.954-.027-.013-.123.216-.24.234-.36-.3-.07-.564-.4-.935-.27-.254-.256-.308-.39-.922-.435.175.087.408.1.4.256-.214.1-.414.047-.617.023-.14.078.086.165-.154.24.263-.01.75.224.817.023.034.096.1.194-.09.283-.236.016-.15-.233-.48.027-.298-.1.18-.158-.116-.247.038.247-.334.23-.623.105-.178.15.077.195.26.17-.12.075-.23.03-.35.113-.072-.097-.468-.204-.32-.295-.12-.025-.598.21-.473-.054-.22-.082-.367.353-.7.225-.066-.07.125-.133.22-.198-.34-.035-.948-.277-1.1-.032-.102.03-.58-.053-.26-.17-.6.016-1.394.256-1.626.73-.16.01-.315-.04-.48.027-.26-.143.258-.264-.104-.4.332-.152.326-.043.543.015.328-.126.402-.26.168-.403-.067.04.025.082.06.125-.212.07-.423.163-.617.023-.15-.12.212-.008.285-.155-.17-.175-.373.103-.538-.097-.146.392-.882.095-1.356-.12-.23.14-.43.416.033.45-.1-.213.178-.133.416-.07.066.073-.12.072-.207.035.1.187.812.07 1.15.155-1.114.255-2.774-.005-4.106.128-.065-.057.075-.107.148-.16-.177-.065-.356-.102-.55.066-.095-.264-.273-.043-.534-.18-.195-.1.46-.177.09-.282-.263.26-.395.1-.89.015-.217.2-.483.33-.823.058-.24.18-.458.043-.7.224-.7-.582-2.015-.19-3.243-.497.02.18-.3.323-.416.07-.282.088-.213.185-.226.28-.092.015-.185.032-.272-.008.04-.122-.035-.246.23-.36-.385-.17-.12.337-.552.067-.125.287-.238.182-.628.187-.133-.1.038-.2.224-.28-.664.203-1.653-.013-2.15.47-.328.082-.32-.052-.54-.096-.18-.128.19-.24-.043-.37-.254.102-.208.212-.158.322-.332-.053-.252.08-.558.148-.19-.22.265-.487.58-.473-.137-.065-.068-.124.005-.08-.452-.245-1.09-.516-1.84-.092-.242-.115.33-.208.023-.325-.254.223-.913-.055-1.365-.038-.136.064-.07.134-.22.198-.02-.07.096-.133-.053-.206-.25.007-.086.053-.285.156-.054-.055.097-.106.01-.163-.284-.177-.59-.04-.558.148a.2.2 0 0 0-.202-.047c-.064-.056.075-.107.148-.16-.637-.026-1.615-.35-2.047-.056-.607-.24-.462.062-.814-.104-.367.31-.58.253-1.055.42.153.112.314.07.47.135-.215.138-.405-.083-.617.024-.066-.056.073-.107.146-.16-.43-.03-.852-.208-1.284-.24-.065-.056.075-.107.15-.16-.204-.023-.405-.087-.618.024-.242.44-1.578-.212-2.266.062l2.382.267c-.28.097-.548.002-.82-.02-.116.2.354.055.47.135l-.426.233c-.127-.07-.05-.137-.19-.21-.58.09-.57.47-1.253.293-.052-.144.46-.16.634-.27-.016-.096-.177-.194-.05-.287-.14.056-.508.55-1.05.34-.098-.084-.027-.164.153-.24-.276-.152-.554.337-.973.22-.28-.116.204-.213-.116-.33-.073.025-.04.053-.005.08.008.11-.367.01-.3.237-.12-.038-.575-.104-.485.1-.157-.037-.324.06-.476-.053-.007-.15.477-.286.37-.44l-.63.188c-.187-.087-.014-.164-.258-.252C26.61.678 26.202.61 25.79.6c-.136-.1.264-.043.355-.195-.52-.138-.662.42-1.17.092-.14.034-.29.25-.422.152-.166.11.21.02.263.17l-.212.116c-.4-.165-.82-.015-1.22-.195-.006-.21.557-.22.755-.02.19-.095.375-.162.558-.148-.223.008-.743-.306-1.096-.03-.272-.13.09-.242-.183-.37C23.14.454 22.33.41 21.7.4c-.15-.153.214-.043.283-.156C21.68.25 21.82.114 21.576 0c-.372.112-.73-.008-1.105.134-.493-.264-.498.042-1.25.293.3-.016.6-.106.892-.017.145-.05.083-.107.01-.163.186-.056.37-.05.547.015.157.074-.22.103-.28.074.087.133.745.522 1.08.274.21.247.975.25 1.43.16.156.122.07.22.34.05.69.286 1.394.364 2.108.26.01.28.745.08.527.34.115-.082.344-.066.625-.107-.1-.08-.227-.042-.335-.13.14-.035.276-.034.414-.07.05.07.045.137-.08.202.174.135.36.043.536.177.134-.05.06-.107.148-.16.152.122.305.226.476.054.1.064.217.18.335.13.185.086-.36.154-.016.244.284-.31 1.46-.138 1.707.086.243.1.088-.124.284-.156.07-.024.136.004.207-.036.252.1.07.193.323.294.46-.248 1.33-.001 1.98.093.17-.15.325-.098.49-.2-.334-.19-.278.14-.617.023.173-.124.123-.09-.048-.286.453-.253.836-.1.95.108-.19.143-.352-.197-.546-.015.304.013.435.25.18.372.432.01.857.14 1.287.158-.136.22-.07.13.257.252-.23.048-.455-.022-.672-.182-.127.078.167.167-.016.244.254-.052.496.076.747.06.174-.104-.08-.22-.25-.333.39-.047.766.09 1.167-.1.06-.107-.075-.22.022-.325.4-.05-.005.212.32.295.067.08-.116.032-.212.116.384.3 1.295.133 1.747.455.563-.246 1.096-.055 1.64-.036.175.214-.384.17-.437.396.407.173.53-.26.607.14.13-.132.14-.268.028-.407.484-.087.958-.03 1.428.08.165-.31.63-.18.967-.137.064.057-.075.107-.148.16-.117.04-.223-.074-.332-.132-.094.038-.113.08-.078.12l-.142.078c.243.1.51-.123.74.143-.167.105-.32-.001-.48.027-.097.217.395.115.535.178-.465.33.523.076.87.228-.02-.128.08-.36.365-.357-.198.204.164.21.174.453.072-.052.142-.06.207-.035-.114-.23.344-.19.438-.396.183.036.748.286 1.156.072.238.116.005.218-.023.327.376.113.733.137.936.27l.284-.155-.26-.17c-.267.224-.498-.05-.747-.06.33-.167.63.1.96-.055-.04.496.73.23 1.262.483-.2-.06-.412.052-.61-.057-.032.204.532.142.74.143.068-.108.05-.216.16-.322.373-.052.174.217.32.295.098-.082.185-.04.273.007.025-.254.348-.246.68.02-.2-.275.107-.087.432-.315.375.236-.498.185-.03.407.135-.298.388-.21.575-.39.323.2-.4.182-.297.317.33.012.402.01.628-.186.3.183-.232.1-.154.24.578.304.78-.03 1.374-.124.154.1.07.192.32.294.31-.18.6.007.894-.096.08.11-.068.215-.025.325-.097.075-.183.027-.278.074-.224-.088.022-.163.018-.244-.413.03-.548.172-1.03.093.29.074.575.226.877.147.224.122-.372.004-.15.16-.31-.087-.632-.056-.946-.11-.062.053.08.11-.01.163-.264.08-.072-.157-.326-.213-.12.07-.233.07-.343.03-.057.507-.657-.134-1.035.175-.24-.114.073-.246-.255-.25-.206.158.044.327-.17.485.173.126.365-.018.54.096.072-.052-.06-.11-.125-.166.237-.136.456-.02.68.02.033.15-.22.064-.3.236-.274.02-.54-.054-.822.06-.24-.114.072-.246-.255-.252-.473.585-1.934.118-2.807.127-.04-.1.282-.2.16-.322.813.084 1.62.25 2.44.23.134-.143-.297-.155-.408-.01-.2-.146-.48-.114-.185-.29l-.687.062c-.05-.11.205-.21-.113-.328-.228.228-.295.15-.622.105-.253-.102.07-.188-.183-.3-.475-.084-1.088.057-1.38.207.01-.068-.137-.14-.054-.206.2-.108.008.208.272.008-.397-.17-.817-.04-1.215-.197l-.498.272c-.13-.113-.132-.222-.386-.337-.294.27.16.272.245.415-.26.14-.48-.293-.747-.06-.3-.172.293-.32-.1-.492-.068.038.023.082.06.124-.532.13-1.046-.015-1.565-.084-.287.168.142.36.387.337-.256.07-.534.45-.77.263-.113-.157.285-.04.22-.198-.123-.186-.278.094-.403-.092-.163.153.014.213-.36.275-.155-.086-.15-.168.017-.244-.366-.175-.354.318-.694.144-.096-.124.387-.234.095-.364-.264.088-.192.185-.36.275-.093.016-.184.032-.272-.008-.007-.132.373-.124.295-.318-.347.01-.26-.118-.595-.302-.63-.166-1.315.026-1.776.032.403-.285-1.086-.196-1.55-.328.04-.216.632.05.9-.18-.544-.215-1.052.196-1.43-.08-.072.053.06.11.126.166-.195.19-.364.005-.556.148-.488-.415-1.184-.055-1.48-.367-.634.17-.997-.06-1.517.204.248.02.077.058.262.17-.767.245-.96-.218-.99-.556-.18.16-.047.325-.168.485-.293-.056-.6-.04-.88-.146-.1-.103.294-.1.454-.17-.184.008-1.018-.185-1.188-.133-.16-.042-.145-.262.01-.163.001-.196-.274-.01-.4-.01-.073.052.06.1.125.166-.56.001-1.4-.51-2.17-.302l-.33-.213c-.142.077-.27-.066-.415.07-.567-.448-1.185-.03-1.753-.454-.627.195-1.233.02-1.834-.252.38-.12.406-.21.703-.308-.68-.005-1.387.26-1.712-.004.003.346-.494.496-.325.888-.34-.054-.675-.17-1.013-.23.016.363 1.245.164 1.197.602-.142.09-.265-.133-.4-.173-.064.254-.557.002-.834.222.05-.134.09-.27-.25-.414.02.198-.198.236-.498.354-.206-.162-.587-.376-.61-.138-.243-.115-.105-.252-.396-.255-.132-.158.03-.106.217-.2-.295-.042-.6-.09-.892.017-.23-.142.262-.265.022-.407-.125.06-.233.385-.5.192-.045.094-.22.184.054.287-.392.083-.33.048-.496.273-.145.136-.263-.228-.408-.092-.32.148.165.166.262.25-.184.03-.36-.09-.55-.014-.134-.11.296-.2.018-.325-.09.174-.5.065-.34-.05-.424.308-1.122.14-1.7-.164-.025.094-.196.185-.22.28.29.1.157.092.4.255.182-.063.04-.135-.058-.205.574-.05 1.134.21 1.7.326-.49.134-.953-.205-1.44-.076.25.054.498.1.744.222-.28.09-.543-.13-.83.143-.135-.112.12-.214-.12-.33-.118.075-.23.03-.35.113-.175-.07-.026-.136.078-.2-.132-.084-.277.053-.406-.092-.078.232-.52.08-.566.312-.366-.144.02-.27-.254-.413-.284.12-.9-.048-.953-.186-.43.14-.42-.117-.824-.02-.154-.152.215-.042.282-.156-.382-.183-.778-.014-1.162-.15-.154.123-.185.165-.222.36-.228-.046-.668.02-.698.228-.303-.09.177-.158-.126-.247-.204-.055-.416.092-.617-.056-.263.1-.092.2-.35.195-.22-.14.33-.263.293-.4.165-.117.308.274.478.052-.06-.19-.602-.18-.89-.062-.247-.088-.074-.165-.264-.25-.35.134-1.063.28-1.172.093-.12-.045-.13.065-.074.12-.253.024-.507.07-.75-.14-.167.15-.323.042-.49.192.302-.128.584.295.89.063.196.208-.095.282.395.418-.404.266-.513-.033-.616-.056-.278.193.27.153.262.332.142-.126.28-.124.41.01.185-.15.343-.042.352-.196-.225-.097-.418.007-.335-.21.162-.07.313.178.478.052.115.16-.194.208.195.3-.133-.282.305.015.548.014.033.038-.01.194-.117.213.217.056.574.25.857.17.245.356.678.136.872.47.354-.065.316-.24.696-.227.07.07-.12.133-.214.198.285.266.59.116.882.226.11-.104.044-.15-.13-.167.198-.198.486.012.49-.192.02.038.082.26.267.17.132.158-.03.106-.215.198.358.155.733-.034 1.084.27.143-.426.5.21.83-.142-.08.253.287.107.33.293-.252.024-.505.07-.747-.14-.237.335-.873.045-1.296-.155-.03.122-.06.243-.36.36.675-.373 1.94.623 2.6-.1.432.05.87.002 1.294.154.1-.105.046-.15-.128-.166l.423-.235c.138-.024.273.018.407.092-.212.126-.4-.022-.627.19.2.113.406.105.606.22l.283-.156a1.09 1.09 0 0 1 .34.049c.134.098-.035.19-.22.28.507.085.29-.388.835-.224.058-.067.06-.135-.058-.206.142-.067.28-.102.416-.07-.286.35.77.473 1.128.64-.405.09-1.4-.18-1.374.128-.41-.004-.814-.155-1.228-.112-.052.23.494.08.676.18-.33.102-.327.012-.56.23-.153-.358-.398-.05-.526-.42-.35.14-.198.293-.09.445-.266.067-.262-.2-.398-.254-.164.092-.322.042-.49.19-.247-.087-.073-.165-.26-.25-.312.193-.177.004-.477-.053-.325.12-.64.008-.966.14-.275-.1.045-.19-.054-.287.337-.06.946.148.9-.182-.18-.03-.372.12-.556.15-.015-.055-.034-.1-.128-.167-.305.172-.37.184-.618.026-.396.14.033.3-.363.44-.07.024-.137-.004-.208.036-.242-.115-.01-.218.016-.326-.173-.2-.365-.024-.54-.176-.143.05-.08.107-.007.163-.414.09-.81-.303-1.236.05-.74-.158-1.3.008-1.906-.29-.237.2-.46.04-.69.065-.088.196.008.24-.22.36.315.187.32.134.534.34.157-.196.03-.147.287-.32.3-.05.59.103.895-.1.17.154-.304.292-.36.44.16.11.68-.02.607.218.453.074.923-.21 1.364.115-.278.12-.55.037-.828.142.18.04.366-.001.54.177.08-.17.144-.17.272.007.538-.28 1.042.174 1.57.08.27.09-.04.163-.147.242.174.15.364.007.542.095-.113-.15-.11-.298-.457-.46-.012-.068.027-.135.077-.202.16-.01.32.035.477.053.074.083-.163.16.125.247.175-.063.14-.132.216-.198.09-.032.18.057.273.006.16.18-.15.092-.15.242-.21.102-.402-.153-.616.025l6.326.605c.155-.333.828-.14.95.107.15-.173-.06-.355.098-.527.396-.074.346.254.744.14.065.056-.073.107-.146.16.34.057.69-.125 1.024-.013-.43.43.8.264 1.33.605.278-.074-.022-.164-.122-.247.55.03.304.07.808.184.087-.066-.172-.14-.056-.205.137-.024.272.018.404.092.026-.08.102-.16.287-.237.308-.12.2.22.546.014.1.084.028.164-.15.24.81.142.676.26 1.696.167.05.07.045.137-.08.202.65-.222 1.27.026 1.916-.113.027.055.056.11-.01.164.25.015.507-.11.767-.266.213.087.207.168-.015.244.823-.076 1.612.4 2.457-.017.253.102-.07.188.185.29-.14.076-.27-.066-.414.07.642-.05 1.456-.272 2.254-.063.114-.176-.528-.14-.113-.33.348.18.63.325.935.27.22-.253-.283-.027-.468-.135.26-.174.504-.063.758-.102-.001.136-.073.27-.165.403.69-.042 1.208-.33 1.987-.15.054.055-.096.106-.01.163.107.08.224.042.33.13.26-.15.13-.16.425-.233.017.082.083.166.256.252.346-.076.683-.018 1.023-.012.152.11-.22.137-.278.074.245.257.837-.022 1.04-.257.346.118.026.218-.158.322.476.013.975-.312 1.442-.164.134.058-.134.194-.24.122.098.14.328.2.625.214-.105.01-.41.044-.146.16-.14.042-.266-.1-.413.07.215.156.453.01.673.1-.08-.11.115-.312.354-.194.077-.076-.11-.04-.195-.128.278-.068.55-.08.84-.303.317.118-.164.213.112.33.208-.126.555-.118.567-.31.575.066 1.233.196 1.627.127.01-.095-.058-.192.223-.28.205.24-.192.35.38.418-.193.16-.366.04-.55.066.012.21.634-.017.88.065.03-.068-.076-.138.083-.202.213.09.366.035.526.26.264-.09.096-.19.36-.276.203-.02.373.37.744.062.187.086.01.163.255.252-.167.104-.322.056-.48.028.99.432 2.63.083 3.867.228.005.1-.122.214-.296.318.245.058.504-.067.745.062.188-.1.122-.187.087-.282.6.01 1.685.428 2.324-.097.19.2-.244.138-.224.28.437.02.535.01.88.066.07-.066-.003-.136.083-.202.45-.067 1.173.42 1.424.08.154.1.07.193.318.295.208-.043.426-.23.616-.023.34-.418 1.16.13 1.714-.155-.06.08.24.17.117.248.347-.08.698-.22 1.017.07.145-.104.283-.142.42-.15.014.055.03.11.123.166.072-.128.44-.117.273.008.22-.11.575-.074.95.027-.075-.178.108-.187.356-.193.065.056-.075.107-.148.158.335.073.68-.003 1.015.07-.28.2-.35-.05-.49.2.2.046.4.115.61.058.064.07-.125.133-.22.198-.25-.01-.478-.282-.744-.06.303-.045.153.28.46.217.073.185-.19.197-.427.233-.113-.1.06-.19.1-.283-.257-.118-.36.086-.49.2-.227-.008-.46.057-.674-.1.5.053.392-.25.763-.182.137-.145-.428-.083.02-.245.27-.124-.075.252.194.128.367-.164.05-.095-.117-.248.092-.015.184-.032.273.008-.284-.158-1.183.055-1.697-.09.126.24-.26.04-.29.237.32-.002.638-.02.965-.136.126.547-.977.347-1.332.492-.49-.218.002-.407-.295-.62-.04.268-.446-.085-.7.144.213-.036.806.074.59.302-.36-.278-.364.133-.88-.066-.268-.13.092-.243-.175-.372l-.356.194c.1.058.196.114.125.167-.65.184-1.28.09-1.922.2.19.2.405.057.603.14-.392.127-1.08.217-1.216-.116.178.035.36.003.555-.147.087-.152-.323-.06-.19-.2-.43.03-.814.346-1.088-.032-.17.162-.322.056-.48.027-.001.068-.155.13-.083.202-.488-.153-1.37.114-1.62-.21-.296.01-.595.073-.893.096-.008-.068.03-.135.083-.2-.25-.092-.19.15-.354.194-.266-.144-.095-.275.03-.408-.305-.08-.696-.001-.798-.267-.1.16.15.33-.17.485.417.134.18-.352.7-.144.078.164-.033.258-.295.318-.527.062-1.02-.35-1.548-.246-.18-.23.233-.128.426-.234-.218-.123-.454.005-.686.062a.24.24 0 0 0 .125.167c-.182.042-.243-.1-.278.074-.373-.176-.8.242-1.147-.154-.055.184-.63.197-.68-.018-.245.345-.887.31-1.305.168-.134.05-.06.107-.15.16-.345-.146-.75-.034-.727-.306l-.496.272c-.454-.15.157-.268-.107-.412-.307.16-.598.118-.887.016-.05.134-.343.263-.437.396-.177-.168.35-.316.034-.49-.028.397-.9.352-1.306.168-.353.07-.325.317-.696.225.024-.144.292-.305-.12-.248-.063-.124.132-.24.364-.357-.042-.043-.09-.025-.136-.004l-.13-.086c-.224.102-.07.215-.294.318-.357.11-.288-.215-.658-.345-.26.153-.493-.084-.75.02.256.238.532.188.81.104-.005.095.15.195.32.295-.29-.05-.267.135-.608-.058-.3.073.156.168-.153.24-.283-.208-.922-.175-1.414-.243-.1.104.393.14.54.096.072.32-.594.26-.898.18-.2-.2.477-.001.284-.155-.332-.22-.278.138-.615.024.422-.38-1.045.03-1.474-.367-.167.164-.682.245-1.05.42.057-.358-1.062-.07-1.23.048-.1-.057-.198-.114-.126-.167-.117.123-.393-.027-.7.145-.2-.304-.473-.016-.958.056-.095-.097.083-.187-.185-.3-.86.194-1.303-.008-2.186.105-.094-.108.084-.2-.192-.21-.03.327-.48.124-.674-.1.128.252-.326.418-.7.307-.106-.206.428.01.353-.194-.11-.08-.225-.042-.333-.13-.107.103.058.205-.216.198-.078-.07.187-.13.08-.202-.427-.117-.573.001-.554.15-.342.062.015-.257-.328-.213.035.2-.266.26-.564.31-.108-.245-.21-.01-.463-.216-.01.176-.354.15-.55.066-.02-.098.145-.045.08-.2-.12.253-1.168-.056-1.042.34-.243-.12-.513.235-.754.102-.186-.184.23-.12.427-.314-.246-.072-.5.01-.746-.06-.138.51-1.052.244-1.313.332.03-.153.363-.207.493-.272.136.058.068.1-.01.162.294.1.218-.115.554-.148-.45-.063-.564-.01-.934-.35-.283.087.024.2-.084.283C20.2 8.513 18.6 8.79 18 8.67c-.1.025-.57.145-.355.275-.36.172-.664-.188-.69.146-.198-.114.033-.217.018-.326.117-.04.223.075.334.132.22-.156-.15-.263.29-.32-.35-.013-.4.102-.83.222-.017-.054-.034-.11-.128-.166-.232.134.14.104.053.287-.208.072-.405-.08-.62.107 1.033.223 2.075.27 3.116.325.298.1-.178.16.122.248.257.006.184-.092.35-.194.266.17-.183.32-.435.478-.577-.027-1.21-.41-1.965-.174-.204.003-.4-.17-.606-.138.184.187.128.16-.276.075-.24.076-.01.163-.15.24-.498-.324-.627-.088-1.083-.108-.187-.087-.016-.163-.26-.25.02.18-.198.293-.486.192-.186-.086.356-.154.012-.244-.096.082-.184.04-.272-.006-.012.067-.087.133-.215.198-.583-.108-.87-.147-1.344-.36-.13.345-.447-.095-.753.104-.135-.157.262-.043.35-.195-.25.005-.5.037-.746-.06-.138.034-.285.252-.417.152.078.216-.003.19-.357.358.523-.034.73.23 1.155.07.244.19-.172.14.054.287.282-.115.304-.237.22-.36.163-.057.32-.007.483-.1.006.268.446.145.676.097.167.18-.297.147-.358.36.26.04.273-.03.416-.153.083.068.278.233.668.26-.001-.11.238-.21.424-.316.08.138-.028.27.25.414.188-.117.362.022.544.013-.08.094.083.193.053.286.73-.06 1.45.03 2.17.137.422-.25.81.123 1.228-.05.696.44 1.756-.205 2.225.345.144-.146.275-.04.417-.152.173.16.352.17.53.258-.28.092-.5-.08-.623.188.127-.216-.16-.107-.397-.173-.177.17.085.13.262.17-.328.187-.64.068-.955.057-.12-.084.314-.126.41-.07-.104-.214-.814-.01-1.152-.072.15.16.318-.025.47.135-.623-.068-.867.128-1.438.165-.196-.1.456-.178.085-.283l-.28.156c-.587-.18-1.294-.06-1.705.078.4-.22-.25-.167-.6-.22-.045.104-.22.197.057.205-.484.298-.536-.177-.953.058-.19-.127-.085-.246-.05-.368-.185-.066-.493.2-.49.274-.284.093-.802-.285-.883.02-.12-.004-.573-.127-.465-.215-.27.188-1.02.22-1.633.04.36-.083.32-.048.625-.27l-.668-.26c-.2.044.196.294-.078.202-.132.21.308.002.408.01.048.268-.754.43-1.094.136-.45-.028-.928.493-1.37.21l-.278.155c-.226-.086.017-.162.01-.243-.268-.074-.554.24-.818.06-.135-.158.263-.1.348-.195-.767.09-1.484.238-1.968-.1-.227.007-.452-.033-.685.147.156.072.193.14.06.204-.267-.206-1.01.043-1.487-.2.16-.103.324-.197.48-.1-.132-.143-.853-.164-1.216-.194-.32.195.235.007.333.212-.233.13-.455-.004-.685.147.05.07.047.137-.076.2.175.12.25.02.265.17-.1.01-.182.02-.274.075-.336-.317-.437-.236-.867-.385.232-.196.447.128.68-.067-.153-.157-.314-.056-.467-.213.136.166-.49.284-.756.268-.067-.056.07-.107.14-.16-.174-.2-.36-.023-.537-.175-.117.08.183.167.127.247-.478.134-.946-.083-1.424.01-.007.215.345-.026.54.094.04.042-.002.08.064.124-.343-.087-.44.07-.817.145.014.23.344.164.475-.03.3.115-.305.242.13.248-.2.122-.68.154-.35.36.197.003.27-.092.074-.202.09-.04.18.044.268.088.258-.1.182-.187.346-.278.405.015.81.095 1.22-.054.484.423.99.07 1.484.196-.04.325-.762.1-.826.39.753-.114 1.2.186 2.037-.115.198.184.328.34.675.1.176.182.077.382-.22.443.108.116.227-.014.337.05-.128-.14.31-.264.017-.407.466.223.952-.07 1.425-.006l-1.167.338c.193.3.997-.1 1.43-.168.025.212.496.163.74.14.06-.053-.084-.11.006-.163.07-.023.137.003.206-.036.02.068-.092.133.06.205.564.02 1.136-.135 1.702-.16.04.04-.003.08.063.123-.607.07-.81.2-1.37.292.467.196.948.045 1.417.157.166-.144-.207-.053-.264-.17.118-.1.23-.075.344-.114.308.127.078.33.392.336.133-.065.066-.134.21-.198-.065-.04-.136.014-.204.035-.153-.098-.105-.42-.265-.17-.392-.23.09-.316.352-.276-.344.117.383.154.12.328.178.08.37-.205.55-.15.193.16-.296.257-.487.274-.173.104.157.22-.015.325.244.1.5-.072.743.06-.02.18-.276.12-.422.315.237.24.5-.07.74.14.128-.145-.303-.078-.394-.255.202.01.406-.016.607.056-.296-.173-.13-.264-.046-.45.068-.024.135.003.205-.036.3.09-.175.158.123.248.307-.26 1.883-.025 1.748.288.186-.145.415-.06.418-.235.35.132.11.247.32.375-.336-.05-.683.11-1.017.016.196.185.982.224 1.414.158.13.084-.107.16.122.247.293-.12.596-.252 1.016-.015.047-.208.332-.174.157-.404.193.18.46-.078.808.103-.184-.302.562-.11.56-.31.486.135-.297.237.047.368a.65.65 0 0 1 .617-.106c.02.096-.054.19-.082.283-.702.09-1.37-.083-1.906.113.15.16.32-.082.468.134.906-.442 1.748.303 2.648-.052.84.43 2.435.036 2.823.483l.81.103c.16-.307.614-.072.957-.138.022.07-.094.134.056.205.036-.212.52-.208.477-.028.76-.227 1.483.15 2.237.018-.208-.12.173-.184.286-.237.118.098-.29.183-.22.28.62.216 1.268-.03 1.9-.03-.032.306.726.342.874.145.125.152.266.055.395.173.363-.44 1.718.23 2.518-.136.573.47 1.715-.246 2.158.223-.2-.05-.408.008-.612.024.14.228.835-.072 1.356.038.213.044.97.313 1.013.068.142-.09.263.133.396.174.485-.148.95.007 1.437-.164.55.17 1.754.155 2.634.196 22.795 1.55 45.74 1.332 68.71 1.1.19.1.017.19-.093.283-1.697-.3-3.463.184-5.164-.074-.135.166-.225.143-.492.19-.064-.08.116-.032.215-.116-.264-.103-.563.197-.815-.024-.212.103.027.22-.164.322-.7-.406-1.877-.29-2.848-.085-.764-.073-1.524-.205-2.313.012-.087-.043-.1-.083-.058-.124-1.217.224-2.892-.096-3.69.217-.183-.113-.01-.15-.257-.17-.073.052.057.1.122.167-1.52-.284-2.77.22-4.34-.13-.155.266-.918.006-1.293.002-.63-.006-1.087.26-1.363.04-.558.17-1.103.173-1.628-.047-.3.073.154.167-.156.24-.07.093-.42-.138-.257-.17-.38.208-.726.01-1.1.13-.135-.06-.066-.11.014-.163-.493.208-.955.053-1.44.162-.032-.307-.034-.033-.393-.175-.01.106-.18.198-.355.194-.002-.068-.07-.138-.187-.2-.338.303-.98-.125-1.647.196-.114-.07-.114-.14-.052-.205-.8.084-2.66-.03-2.868.16-.41.038-.796-.24-1.227.046-.365-.2-1.035-.322-1.214-.118-2.546-.184-4.89.007-7.53-.18-.133.05-.06.106-.148.16-.202-.123-.277-.08-.594-.22-1.425.24-3.374-.27-5.035.1-.124-.07-.05-.137-.187-.21-.637.03-1.278.13-1.904.026.02.118.157.472-.45.56-.172-.167-.013-.26-.382-.337-.093-.13.376-.282.484-.11.26-.19-.438-.293-.4-.093-.836-.326-1.73.104-2.564-.236-.207.278-.777.176-1.15-.074-.145.05-.083.107-.013.163-.757-.153-1.535-.064-2.292-.228-.07.066.003.136-.083.202-1.096-.163-2.634.095-3.442-.302-.066.038.025.082.058.123-1.214-.1-2.443.012-3.646-.264-.876.164-2.3-.04-3.39-.094-.265.088.044.19-.222.28-.093.016-.184.032-.272-.008.285-.443-.826-.228-1.196-.36-.138.218.303.05.395.175.1.176-.315.117-.417.15-.423-.538-1.35-.232-2.005-.463-.265.088.043.192-.223.28-.093.032-.176-.058-.27-.007-.067-.07.122-.133.216-.198-.195-.113-.4-.114-.613.024-.014.08.22.17-.016.243.13.085.276-.05.4.093-.237.16-.447-.07-.688.145-.21-.245-.443-.136-.666-.182-.048-.203.443.055.617-.104-.422-.283.193-.1.353-.195-.638-.31-.594.026-1.208-.197-.12.08.177.167.118.248-.07.036-.134-.022-.2-.047-.1.104-.048.15.126.166-.355.22-.688.124-1.04.338-.204-.088-.32-.098-.255-.25-.293-.005-.6.324-.894.178-.153-.086.22-.157.287-.236-.218-.118-.417.084-.352.194-.212.12-.396-.177-.607-.058-.072-.083.166-.158-.12-.248-.326.303-1.367.352-1.36.044-.294.018-.58-.134-.887.1-.35-.337-.917.035-1.067-.274-.38.48-1.237-.29-1.835.073-.557-.122-1.13-.008-1.684-.168-.182-.12.346-.004.01-.162-.926.36-1.795-.192-2.712.01.108.08.224.042.33.13.053.056-.095.107-.01.163-.404-.047-.798-.254-1.204-.277-.076.1.11.083.195.128.114.15-.303-.04-.415.152-.016-.108-.082-.152-.26-.17-.374.455-1.067-.186-1.634.12-.238-.115-.23-.223.017-.326-.17-.152-.36-.007-.536-.095-.074.065.107.138.193.208-.19.168-.37.117-.552.15-.098-.084-.03-.164.15-.24-.48.144-.948-.008-1.423.003-.073-.083.164-.16-.122-.248-.288.416-1.72.088-2.183.27-.144-.204-.684-.164-.252-.333-.288-.05-.318.06-.348.196-.284.02-.338-.398-.732-.222.128.143.27.007.4.1-.09.04-.1.08-.073.12-.675-.03-1.337-.28-2.028.03.027-.226-.03-.198-.25-.413-.212.117.057.246.184.37-.375.324-.7-.215-1.083.055-.407-.16.182-.295-.047-.45-.253.142-.125.295-.224.442-.264.14-.26-.163-.4-.092-.068-.07.12-.132.212-.198-.234-.062-.608.047-.48.192-.464-.285-.463-.037-.796-.346-.45.15-.488.087-.946-.023-.063.107.18.222-.15.322l.33.213c.246.012.125-.2.405.01.142-.05.08-.107.008-.163.417.023 1.723-.038 1.47.362.13.098.276-.12.412-.152.225.17.034.302-.22.36.14.054.828.048.548-.15.295-.056.578.13.882-.1.12.098-.287.183-.216.28.228.17.93-.13.732.222.167.1.245-.12.143-.16.247-.003.494.016.735.14.068-.067-.006-.137.078-.202.16-.067.313.038.474-.03.01.068-.027.135-.078.202.593-.154 1.176-.122 1.758-.038.15.12-.2.01-.278.156.196.12.407-.056.6.138.444-.216.43.362.872.145-.133-.043-.27-.05-.4-.09.192-.2.357.06.55-.15.17.073.025.137-.08.202.112.018.23-.046.336.05.125-.276 1.284-.084 1.828.008.017.03.02.047.014.058.786-.02 1.57.003 2.346.128.067.07-.12.133-.214.198.28.212.508-.066.485-.19.406-.038-.012.24.387.336.38-.084-.258-.197-.05-.287.563.028 1.14-.207 1.687.087.22-.28.464-.142.827-.223.242.087.07.165.255.252.44-.164.865-.108 1.292-.088.093.156-.36.094-.48.11.274.174.8.07 1.156-.09.254.102-.066.19.186.3-.195.13-.48.015-.487.19.853.037 1.422-.06 2.184-.268.372.132-.253.238.044.368.722-.004 1.447-.037 2.153.22.373-.257.612-.03.81.023.14-.08-.087-.166.152-.24.5.284 1.76-.126 1.814.254.844-.024 2.012.252 2.643.033.413.24.86.005 1.267.32.3-.224.588-.01.9-.26.242.088.07.166.254.253 1.578.05 3.166-.01 4.726.294.038-.084.155-.16.058-.2 1.26.173 2.525.31 3.81.176.323-.095.617.213.935.19.06-.053-.082-.11.01-.163.4.095.908.2 1.5.043l.388.256c1.394-.182 2.76.008 4.13.16.045-.04.006-.08.077-.12 2.38.24 4.79.12 7.174.287.38-.246 2.012.027 3.052.047.564.01 1.013-.135 1.418.082l.285-.155c.257.307.888-.088 1.342.203 1.154-.26 2.78.126 4.15-.083l.26.17c1.763-.247 3.477.14 5.242-.132.747.27 1.55-.116 2.297.148.472-.23.9.07 1.37-.124 1.252.195 2.526.126 3.802.03 2.8.135 5.63-.125 8.43.006l.285-.155c.123-.04.12.072.057.124 1.498-.114 2.58-.075 4.097-.204l.256.17c.284-.02.126-.297.556-.147.065.08-.116.033-.213.115.182.054.48.02.485-.107 11.042.097 21.772-.632 32.788-.847l.215-.116c1.485.13 3.017-.27 4.492-.027.267-.048.508-.32.55-.065.214-.117.834-.197 1.23-.044l.286-.155c.52.02 1.035.083 1.572-.075 2.496.213 5.064-.313 7.542.11l.287-.154c.405.2 1.143.144 1.364-.04.124.073.048.138.185.2.197-.304.418-.112.615-.022.663-.25 1.454-.18 2.328-.173.114.072.113.14.05.206.205.04.248-.287.622-.103.07-.04-.022-.083-.056-.125.21-.07.4.083.623-.103.135.058.063.11-.017.162.24-.106.7-.223 1.11-.2.177.2-.234.106-.43.23.834-.187 1.66-.272 2.488-.414l.32.214c-.077.184.197-.098-.12-.167.387-.202.73-.148 1.252-.288.083.177.57.113.25.253.227.066.24-.237.678.02.326-.163-.16-.132-.256-.17.497-.208.954-.005 1.452-.24.062.056-.077.107-.15.158.13.05.28-.085.4.094-.112-.228.244-.087.5-.27 1.164.32 2.53-.52 3.543-.053.24-.366.967-.293 1.398-.365-.03.26-.592.064-.838.22.106.08.222.043.328.132-.396.105-.805.34-1.197.41.057-.424-1.017-.01-1.23.043.778.21 2.07.08 2.817-.28.065.07-.126.132-.223.197.424-.048 1.297-.043 1.332-.408.264-.076.163.162.32.215.79-.254 1.283-.25 2.16-.546 1.042.012 2.087.013 3.17-.392.606.063 1.597-.122 2-.387 1.316.177 3.637-.842 5.333-.242-.4-.52 1.03-.283.958-.746.36.042.768-.433 1.102-.128 1.473-.447 2.905-.472 4.296-.07.192-.13.4-.26.31-.398.23-.046.45.023.662.184.224-.186.418-.095.624-.103.103-.223.292-.2.447-.394-.126-.11-.278.064-.408-.012.913-.278 2.387-.27 3.458.15.148-.297.54-.362.982-.296.88-.6 2-.92 3.108-1.128l.384.258c-.102-.264.613-.194.918-.338.024.055.05.1-.017.162.986-.108 1.908-.164 2.71-.527 1.034-.08 2.422-.203 3.268-.672.698.047 2.01-.428 2.58-.613.963-.31 1.82-.556 2.55-.98-.26-.005-.255-.145-.383-.257.195-.124.366-.022.56-.146-.33-.083-.483.07-.67-.103-.348.28-.905-.124-1.04.172-.166.08-.3-.166-.454-.218a10.53 10.53 0 0 1-1.302.081c.405-.197.588-.205 1.143-.535-1.622.095-3.83.15-5.722.677-.187.047-.362-.012-.535-.098-.02.067.006.136.047.205-.204-.002-.414.06-.624.103-.277-.375-1.092.22-1.478.483-.188-.14.112-.268.313-.398-.193.047-.476-.07-.455-.218.347-.173.402-.018.64-.266-.147-.126-.344.256-.48.026-.257.073-.098.16-.296.236-.093.015-.184.032-.273-.01.01-.136.312-.263.314-.398.07-.024.135.004.207-.034-.17.247.42.06.678.02.125.072.05.138.185.2.605-.118.74-.537 1.287-.613.045.152-.478.285-.655.428.245.01.766-.07.638-.265.644.148 1.337-.194 2.015-.386-.395-.134-.836.182-1.254.287.266-.4 1.093-.5 1.525-.278.543-.2 1.085-.393 1.59-.235 1.666-.534 3.26-.353 4.917-.785-.344-.202-.72-.064-1.054-.36-.394.075-.778.06-1.144-.16-.134.05-.063.107-.152.16-.267-.28-.588-.025-.87-.15-.13-.1.043-.19.23-.28-.346-.17-.73.02-1.087-.034-.268-.104.15-.186-.038-.287-.522-.13-.83.177-1.456.24-.16-.227.552-.39.8-.504-.113-.01-.222-.056-.33-.133-.068.038.023.082.058.124-.28.1-.425-.077-.56.146-.123-.072-.046-.138-.183-.2-.468.134-.918.085-1.367.038-.175.103-.187.21-.032.325-.147.104-.288.142-.425.15-.13-.168-.172-.333-.222-.497.55-.042 1.4-.35 1.568-.685.848-.08 1.7-.192 2.526-.043-.193-.33.43-.213.768-.18.086.174-.355-.015-.488.107.345.185.743-.164 1.11-.2.25.114-.17.198.183.2.1-.277 1.035-.273 1.52-.197.42-.25.886-.128 1.454-.24.068-.277-.488-.066-.67-.103.477-.158 1.648-.453 2.47-.167.6-.332 2.533.025 2.73-.69.495.102.704-.258 1.104-.13 0 .14-.274.092-.232.28 1.108-.27 2.21-.678 2.312-1.233-.25-.13-.7-.262-.567-.467" fill="#0f7dc2" fill-opacity=".2"/></svg>