<svg xmlns="http://www.w3.org/2000/svg" xmlns:xlink="http://www.w3.org/1999/xlink" width="425" height="333" fill="none" xmlns:v="https://vecta.io/nano"><style><![CDATA[.B{fill:#fff}.C{fill:#3d3c3b}.D{fill:#212637}.E{fill:#0f7dc2}.F{fill:#d6d2cb}.G{fill:#4d4d84}.H{fill:#71cbcd}.I{fill:#efecf7}.J{fill:#56548c}.K{fill:#5c5c8e}.L{fill:#e3dcd5}.M{fill:#eea886}.N{fill:#3d3d6b}.O{fill:#f8bd8c}.P{fill:#f89a78}]]></style><path d="M425 332.88H.827c24.94-33.364 75.147-26.203 109.115-24.224 13.546.792 27.115 1.236 40.7 1.39l4.268.04 6.253.025 4.147-.002c32.653-.104 65.33-1.756 97.88-4.154 46.265-3.416 96.022-9.768 139.157 12.12 1.143.58 2.282 1.18 3.42 1.804 6.59 3.604 13.016 7.9 19.243 13z" fill="#7979b2"/><path d="M290.228 67.302H134.046c-3.4 0-6.16 3.216-6.16 7.182v125.258c0 3.967 2.758 7.183 6.16 7.183h58.267v19.736h39.648v-19.736h58.267c3.403 0 6.16-3.216 6.16-7.183V74.484c0-3.967-2.758-7.182-6.16-7.182z" class="D"/><path d="M296.39 74.482v125.26c0 3.966-2.457 7.182-5.488 7.182h-4.44c3.036 0 5.49-3.216 5.49-7.182V74.482c0-3.967-2.455-7.18-5.49-7.18h4.44c3.03 0 5.488 3.213 5.488 7.18z" class="H"/><path d="M283.807 84.688v105.27c0 3.73-2.592 6.75-5.79 6.75H146.26c-3.2 0-5.792-3.022-5.792-6.75V84.688c0-3.73 2.592-6.75 5.792-6.75h131.755c3.2 0 5.79 3.02 5.79 6.75z" class="I"/><path d="M277.78 86.286v102.932c0 1.432-1.438 2.602-3.193 2.602H148.37c-1.755 0-3.192-1.17-3.192-2.602V86.286c0-1.43 1.437-2.605 3.192-2.605h126.215c1.755 0 3.193 1.173 3.193 2.605z" fill="#d3d3d3"/><path d="M234.02 226.6h-3.107v-19.736h3.107V226.6z" class="H"/><path d="M211.85 171.9z" fill="#242c37"/><path d="M241.063 235.383h-55.34c-1.205 0-2.185-1.14-2.185-2.548v-4.554c0-1.407.98-2.548 2.185-2.548h55.34c1.207 0 2.185 1.14 2.185 2.548v4.554c0 1.407-.978 2.548-2.185 2.548z" class="H"/><path d="M238.235 235.65h-54.05c-1.208 0-2.186-1.14-2.186-2.548v-4.554c0-1.407.978-2.548 2.186-2.548h54.05c1.207 0 2.186 1.14 2.186 2.548v4.554c0 1.407-.98 2.548-2.186 2.548z" class="D"/><path d="M219.636 245.01c0 .62-.432 1.123-.963 1.123s-.963-.504-.963-1.123.43-1.123.963-1.123.963.502.963 1.123z" class="B"/><path d="M263.212 302.012h-98.156c-6.484-7.346-7.185-16.75 0-22.283h98.156v2.667h-3.1v16.632h3.1v2.984z" class="G"/><path d="M260.102 299.028h-93.21c-4.49-3.684-4.62-13.255 0-16.632h93.21v16.632z" class="B"/><path d="M166.96 299.028h-.067c-2.26-1.856-3.418-5.21-3.416-8.51.002-3.25 1.124-6.45 3.416-8.123h93.21v3.1H169.26c-3.622 2.646-4.325 9.09-2.3 13.532z" class="F"/><path d="M256.25 321.118h3.11v2.982h-98.157c-4.494-5.093-6.2-11.17-4.447-16.263.78-2.256 2.24-4.32 4.447-6.02h98.157v2.666h-3.11v16.634z" fill="#383860"/><path d="M271.096 324.1H172.94c-6.483-7.346-7.184-16.75 0-22.283h98.157v2.667l-3.1.002v16.632h3.1v2.982z" class="J"/><path d="M267.985 321.118h-93.207c-4.5-3.686-4.62-13.258 0-16.632h93.207v16.632z" class="B"/><path d="M174.843 321.118h-.065c-2.262-1.858-3.42-5.21-3.418-8.51.002-3.25 1.124-6.45 3.418-8.123h93.208v3.098h-90.842c-3.62 2.646-4.324 9.093-2.3 13.534z" class="F"/><path d="M259.36 257.615h-98.157c-6.483-7.345-7.184-16.75 0-22.28h98.157V238h-3.11v16.632h3.11v2.982z" class="G"/><path d="M271.096 257.616H172.94c-6.483-7.345-7.184-16.75 0-22.282h98.157V238h-3.1v16.632h3.1v2.983z" class="K"/><path d="M267.985 254.633h-93.207c-4.5-3.684-4.62-13.257 0-16.632h93.207v16.632z" class="B"/><path d="M174.843 254.633h-.065c-2.262-1.856-3.42-5.21-3.418-8.51.002-3.25 1.124-6.45 3.418-8.123h93.208v3.1h-90.842c-3.62 2.644-4.324 9.09-2.3 13.532z" class="F"/><path d="M268.034 279.86h-101.47c-2.625 0-4.75-2.48-4.75-5.538v-11.488c0-3.06 2.126-5.538 4.75-5.538h101.364c.808 0 1.46.764 1.46 1.705v19.28c0 .873-.606 1.58-1.354 1.58z" fill="#383860"/><path d="M187.685 279.86h-9.23v-22.564h9.23v22.564z" class="J"/><path d="M254.923 318.15h-64.6c-.3 0-.56-.294-.56-.653v-.347c0-.36.252-.654.56-.654h64.6c.308 0 .56.294.56.654v.347c0 .36-.252.653-.56.653zm-9.208-4.458h-64.6c-.308 0-.56-.294-.56-.654v-.472c0-.36.253-.655.56-.655h64.6c.308 0 .56.294.56.655v.472c0 .36-.253.654-.56.654zm6.263-63.956h-64.6c-.308 0-.56-.294-.56-.653v-.474c0-.36.25-.653.56-.653h64.6c.308 0 .56.294.56.653v.474c0 .36-.25.653-.56.653zm1.438 41.084h-64.608c-.307 0-.56-.294-.56-.653v-.474c0-.36.253-.653.56-.653h64.608c.3 0 .562.294.562.653v.474c0 .36-.252.653-.562.653z" class="L"/><path d="M123.954 0l44.63 4.05c3.025 0 5.48 2.86 5.48 6.388l-3.475 25.495c0 3.527-2.454 6.386-5.48 6.386l-2.106.152s-1.25 5.498 1.203 8.356c0 0-7.306-2.058-8.486-7.833l-28.292 2.027c-3.025 0-5.478-2.86-5.478-6.385l-3.476-32.248c0-3.527 2.453-6.388 5.48-6.388z" class="E"/><path d="M129.343 16.984c0 .723.504 1.3 1.124 1.3h31.606c.62 0 1.122-.587 1.122-1.3s-.5-1.3-1.122-1.3h-31.606c-.62 0-1.124.587-1.124 1.3zm0 5.526c0 .724.503 1.312 1.123 1.312h31.607c.62 0 1.122-.588 1.122-1.312s-.502-1.3-1.122-1.3h-31.607c-.62 0-1.123.588-1.123 1.3zm0 5.526c0 .725.504 1.312 1.124 1.312h31.605c.62 0 1.124-.587 1.124-1.312s-.503-1.3-1.124-1.3h-31.605c-.62 0-1.124.587-1.124 1.3z" class="I"/><path d="M101.248 245.562l8.924 19.683-12.06-1.125 3.136-18.558z" fill="#6f5dc6"/><path d="M82.873 211.925c-.095.008-.193.002-.29.006-.262.014-.522.047-.78.094a8.06 8.06 0 0 0-1.135.298 7.97 7.97 0 0 0-1.352.619 8.09 8.09 0 0 0-1.431 1.055c-.5.47-.97 1.01-1.373 1.605a11.56 11.56 0 0 0-1.177 2.275c-.38.976-.653 2.007-.843 3.055-.235 1.3-.345 2.63-.372 3.957l.014 1.45c.003.278.014.547-.057.813-.113.423-.298.82-.532 1.17a3.57 3.57 0 0 1-1.259 1.146c-1.626.882-6.92 2.6-7.373 10.7s-.756 10.05-3.327 11.637-1.815 5.818.756 7.756 42.497-1.056 42.497-1.056 4.084-8.023-1.512-14.194-2.42-7.756-3.403-12.693-4.688-5.29-4.764-7.67S94.86 211 82.873 211.925z" class="C"/><path d="M93.523 233.466c-1.244 5.08-4.76 4.304-8.965 2.8s-6.608-6.838-5.364-11.92 5.66-7.984 9.864-6.48 5.706 10.518 4.464 15.6z" class="M"/><path d="M85.56 215.64s3.144 6.24-2.406 9.56-4 8.68-4 8.68-3.05-1.497-2.407-7.482-.963-7.673 2.89-9.356 5.924-1.403 5.924-1.403z" class="C"/><path d="M89.243 235.38s-1.048 4.068.36 5.2-6.327.9-6.327.9-.625-4.85.67-7.06c1.297-2.218 5.3.98 5.3.98zm-8.323-4.024c0 .768-.534 1.4-1.192 1.4s-1.192-.62-1.192-1.4.534-1.4 1.192-1.4 1.192.623 1.192 1.4z" class="M"/><path d="M85.495 227.907c0 .433-.3.784-.672.784s-.672-.35-.672-.784.3-.784.672-.784.672.35.672.784zm6.285-3.947c0 .413-.288.75-.644.75s-.644-.337-.644-.75.288-.75.644-.75.644.335.644.75zm-6.56 1.836c.002.03-.872.323-.956.36-.5.2-1.025.44-1.395.917-.16.206-.26.458-.35.717-.085.24-.155.574-.307.762-.02-.08-.012-.174-.006-.258.03-.46.055-.945.18-1.382.172-.6.703-1.135 1.16-1.432s1.62-.688 1.677.317zm3.914-2.163c.023.017.673-.724.74-.792.405-.404.835-.82 1.373-.96.232-.06.47-.038.708-.002.222.03.505.127.72.064-.05-.06-.124-.098-.2-.133-.358-.198-.73-.412-1.12-.504-.54-.125-1.193.153-1.64.47s-1.314 1.3-.593 1.858zm-14.01-3.44l-.968 4.03-.352 2.05-.075.518-.036.258-.06.283c-.1.376-.337.676-.582.905s-.52.408-.796.562a7.01 7.01 0 0 1-.842.4l-.852.355-.425.172-.4.192c-.535.286-1.032.674-1.497 1.105a11.74 11.74 0 0 0-1.302 1.427h-.002c-.024.03-.064.033-.1.006s-.028-.075-.006-.104a11.85 11.85 0 0 1 1.285-1.495c.462-.457.968-.86 1.52-1.172l.424-.2.423-.18.84-.37.814-.417a3.71 3.71 0 0 0 .735-.537c.217-.212.397-.466.477-.76l.044-.228.036-.26.074-.52.35-2.07.448-2.046.544-2c.026-.1.1-.137.186-.107s.117.125.093.215z" class="C"/><path d="M82.876 238.906c1.67.467 4.996 1.35 6.942 1.513.532.045.94.563.94 1.184v.778s9.513 1.027 10.5 3.18 2.18 37.46 2.18 37.46h-32.61l2.283-37.46s3.8-1.7 8.573-2.234l.135-3.485c.025-.635.538-1.085 1.068-.937z" fill="#755ccd"/><path d="M85.348 275.374l-3.153 6.142c-.264.518-7.518-1.695-11.118-2.787l-1.887-.56-6.5-1.672c-1.663-.43-3.63-.646-5.03-1.87-.826-.727-1.432-1.88-1.365-3.09.055-1.026.57-1.93 1.068-2.782 4.838-8.34 10.675-15.033 15.736-23.193l-1.105 18.144c-.855 1.168-3.257 4.584-3.44 4.582l3.08 1.31 13.714 5.775z" fill="#6f5dc6"/><path d="M89.43 281.14h-6.985l-.004-.104 2.573-5.015.052.01c1.865.47 3.645 1.374 3.942 2.922l.422 2.187z" class="M"/><g fill-rule="evenodd"><path d="M119.753 283.02H89.347c-.87 0-1.394-.827-1.168-1.84l5.123-22.96c.226-1.013 1.12-1.84 2-1.84h30.406c.868 0 1.394.827 1.168 1.84l-5.123 22.96c-.226 1.013-1.12 1.84-1.99 1.84z" fill="url(#A)"/><path d="M91.978 283.02H78.11c-.716 0-1.3-.68-1.3-1.515s.584-1.514 1.3-1.514h13.87c.716 0 1.3.68 1.3 1.514s-.585 1.515-1.3 1.515z" fill="url(#B)"/><path d="M120.565 283.02H91.057c-.87 0-1.395-.827-1.17-1.84L95 258.22c.226-1.013 1.122-1.84 2-1.84h29.51c.87 0 1.394.827 1.168 1.84l-5.122 22.96c-.226 1.013-1.122 1.84-2 1.84z" class="N"/></g><path d="M89.116 229.8c-.03 0-.063-.016-.084-.045-.04-.055-.033-.138.013-.183.06-.056.122-.105.183-.154a1.38 1.38 0 0 0 .2-.177c.147-.166.143-.317-.012-.503l-.22-.257c-.25-.282-.374-.425-.97-1.417-.035-.057-.023-.137.027-.178s.118-.028.154.03c.585.972.705 1.1.944 1.38l.225.262c.238.284.24.6.008.866-.073.083-.154.145-.233.208l-.163.135c-.02.022-.046.032-.07.032zm.177 3.856c-.72 0-1.273-.25-1.283-.254-.064-.032-.095-.116-.07-.2s.098-.1.162-.08c.02.008 1.9.864 3.17-.737.047-.06.126-.064.177-.01s.054.147.008.205c-.667.847-1.5 1.066-2.165 1.066zm10.697 1.58a9.31 9.31 0 0 0 .425 2.244 8.49 8.49 0 0 0 .96 2.012c.806 1.23 1.897 2.197 3.087 2.922.084.05.117.17.073.27s-.145.135-.228.088c-1.237-.717-2.4-1.693-3.266-2.977-.436-.64-.797-1.354-1.06-2.118a9.92 9.92 0 0 1-.495-2.39c-.014-.163.088-.306.226-.322s.262.102.276.263zm-15.167-17.46s8.552 2.307 9.328 10.306c0 0 .847-13.208-9.328-10.306z" class="C"/><path d="M132.974 310.322h-96.17c-6.352-9.79-7.04-22.32 0-29.696h96.17v3.555h-3.047v22.167h3.047v3.974z" class="G"/><path d="M144.474 310.322h-96.17c-6.353-9.79-7.04-22.32 0-29.696h96.17v3.555h-3.048v22.167h3.048v3.974z" class="K"/><path d="M141.427 306.348H50.105c-4.4-4.91-4.528-17.67 0-22.167h91.322v22.167z" class="B"/><path d="M50.17 306.348h-.065c-2.217-2.476-3.35-6.942-3.348-11.34.002-4.33 1.102-8.594 3.348-10.826h91.32v4.13H52.422c-3.547 3.526-4.235 12.117-2.252 18.036z" class="F"/><path d="M129.513 296.25H66.02c-.44 0-.798-.42-.798-.93v-.392c0-.5.36-.93.798-.93h63.493c.44 0 .798.42.798.93v.392c0 .512-.36.93-.798.93zm-9.56 7.144H56.46c-.44 0-.798-.417-.798-.93v-.392c0-.513.36-.93.798-.93h63.493c.44 0 .798.417.798.93v.392c0 .512-.36.93-.798.93z" class="L"/><path d="M107.047 172.914l-20.394 1.85c-1.383 0-2.503 1.308-2.503 2.92l1.588 11.65c0 1.613 1.12 2.918 2.503 2.918l.962.07s.57 2.513-.55 3.818c0 0 3.338-.94 3.877-3.58l12.928.926c1.383 0 2.504-1.307 2.504-2.918l1.588-14.735c0-1.612-1.12-2.92-2.504-2.92z" class="E"/><path d="M93.332 183.825c0 .874-.608 1.582-1.358 1.582s-1.358-.708-1.358-1.582.608-1.583 1.358-1.583 1.358.7 1.358 1.583zm4.293-.22c0 .874-.608 1.583-1.358 1.583s-1.358-.7-1.358-1.583.608-1.584 1.358-1.584 1.358.7 1.358 1.584zm4.292-.22c0 .874-.607 1.584-1.357 1.584s-1.358-.7-1.358-1.584.608-1.583 1.358-1.583 1.357.7 1.357 1.583z" class="B"/><g class="C"><path d="M357.655 226.24c-3.5-6.357-6.988-20.15-6.988-20.15l-5.67-.655v-.33l-.518.165-.52-.165v.33l-9.137 2.767s-.304 12-3.797 18.355c-3.45 6.283-.972 14.13 13.453 12.973 14.427 1.156 16.626-7 13.177-13.29z"/><path d="M351.084 209.154c0 5.468-3.65 9.9-8.15 9.9s-8.15-4.433-8.15-9.9 3.65-9.185 8.15-9.185 8.15 3.72 8.15 9.185z"/></g><path d="M342.662 203.183c-7.045-.14-6.437 7.12-6.437 7.12s-.273 3.84.705 7.096c.494 1.64 1.126 2.523 3.103 4.118l-.42 6.482a18.7 18.7 0 0 0 .029 2.566s2.455.127 6.482-.12l-.087-1.156-.62-1.505-.017-2.414-.144-3.718.315-.327c1.436-1.24 2.434-2.573 2.94-3.9.637-1.662.772-4.247.772-7.122 0 0 .42-6.98-6.62-7.12z" class="O"/><g class="C"><path d="M337.034 203.224s2.45 5.787 13.04 6.076c0 0 1.145-5.478-4.282-7.655s-8.757 1.58-8.757 1.58z"/><path d="M335.53 210.263s3.268-1.118 3.7-7.413c0 0-3.3.588-3.7 7.413zm5.178.997c-.007.025-.8-.1-.888-.106-.472-.04-.97-.072-1.415.15-.192.096-.352.253-.504.415-.14.153-.298.385-.48.47.007-.073.044-.14.074-.204.162-.347.328-.712.562-1.003.323-.404.915-.598 1.378-.645s1.53.117 1.274.923zm4.126.04c.01.026.8-.158.88-.17.47-.073.964-.143 1.42.045.198.08.363.225.525.376.15.143.318.363.505.433-.012-.07-.05-.137-.085-.198-.182-.333-.366-.686-.615-.958-.342-.38-.945-.53-1.4-.543s-1.52.23-1.223 1.015z"/></g><path d="M337.372 214.438c0 .696-.483 1.258-1.078 1.258s-1.08-.562-1.08-1.258.483-1.258 1.08-1.258 1.078.564 1.078 1.258zm12.942 0c0 .696-.484 1.258-1.078 1.258s-1.08-.562-1.08-1.258.484-1.258 1.08-1.258 1.078.564 1.078 1.258z" class="O"/><path d="M339.248 213.618a1.95 1.95 0 0 1-1.222-.472c-.1-.082-.104-.235-.032-.337s.2-.12.3-.037c.037.035.903.817 1.912-.01.092-.077.22-.05.286.06s.044.258-.048.335c-.423.347-.83.462-1.187.462zm6.798.002c-.712 0-1.216-.465-1.225-.473-.087-.082-.1-.235-.03-.337s.203-.12.3-.037c.037.033.905.82 1.914-.01.094-.076.22-.05.286.06s.045.26-.05.335c-.423.347-.83.463-1.185.463z" class="C"/><path d="M388.382 299.344H284.26c-6.88-7.794-7.622-17.77 0-23.638h104.123v2.83h-3.3v17.644h3.3v3.165z" class="G"/><path d="M400.83 299.344H296.707c-6.878-7.794-7.623-17.77 0-23.638H400.83v2.83h-3.3v17.643h3.3v3.165z" class="K"/><path d="M397.533 296.178H298.66c-4.76-3.91-4.903-14.063 0-17.643h98.874v17.643z" class="B"/><path d="M298.728 296.178h-.07c-2.398-1.97-3.627-5.526-3.624-9.026 0-3.447 1.194-6.84 3.624-8.617h98.874v3.29H301.17c-3.843 2.804-4.588 9.643-2.442 14.354z" class="F"/><path d="M397.58 322.938H289.943c-2.783 0-5.038-2.63-5.038-5.873v-12.187c0-3.243 2.255-5.874 5.038-5.874h107.525c.857 0 1.55.8 1.55 1.807v20.452c0 .925-.644 1.675-1.44 1.675z" fill="#f14957"/><path d="M312.353 322.938h-9.79v-23.934h9.79v23.934z" fill="#df313a"/><path d="M387.302 291.793H307.3c-.307 0-.56-.294-.56-.653v-.737c0-.358.252-.652.56-.652h80.002c.307 0 .56.294.56.652v.737c0 .36-.252.653-.56.653z" class="L"/><path d="M331.424 228.918c-3.634.606-12.34 24.432-9.74 29.884s16.887 11.8 16.887 11.8l-.78-9.4s-9.786-4.847-9.007-7.874 6.4-14.337 6.4-14.337l-3.768-10.095zM365.53 258.8c-2.6 5.45-16.9 11.8-16.9 11.8l.78-9.4s9.785-4.846 9.007-7.874c-.24-.937-.944-2.665-1.804-4.605-1.918-4.335-4.604-9.732-4.604-9.732l3.76-10.093c.208.034.434.146.674.326 3.928 2.955 11.525 24.416 9.077 29.556z" fill="#df313a"/><path d="M363.704 276.464h-37.866c-1.116 0-2.018-1.052-2.018-2.35v-23.017c0-1.298.902-2.352 2.018-2.352h35.85c1.115 0 2.017 1.054 2.017 2.352v25.368zm-22.6 14.8s-.707.782-2.782 1.8c-2.136 1.046-6.36 2.994-5.727 5.14.85 2.9 3.83 2.68 5.805 1.985 4.28-1.5 8.737-5.018 8.737-5.018l-6.033-3.908z" class="N"/><path d="M346.212 283.717c7.243-6.16 11.025-10.714 19.152-16.47 1.936-1.37 3.26-1.78 6.615-.245 2.856 1.307 2.55 7.035.99 9.422-4.677 7.167-22.698 17.06-26.34 18.562-1.57.645-7.124-4.807-4.87-7.415 1.11-1.286 2.492-2.187 4.45-3.853z" fill="#9794d3"/><path d="M342.875 295.585s1.764 2.72 3.818 4.572c2.456 2.212 4.147 2.943 6.14 1.863 2.89-1.564.233-4.87-2.01-7.488-3.323-3.874-5.702-5.48-5.702-5.48l-2.244 6.534z" class="N"/><path d="M343.243 287.493l3.088 2.975s1.072 1.015 1.615 2.195c1.01 2.193-2.472 6.643-4.732 4.027l-4.276-5.438 4.305-3.76z" class="O"/><path d="M334.032 292.193c-8.414-4.94-13.575-6.714-18.985-15.6-1.375-2.263-1.93-6.008-1.394-7.854.66-2.277 3.512-3.64 6.865-2.706 2.817.784 21.72 18.048 24.672 21.3 1.27 1.402-2.604 8.417-5.778 7.208-1.565-.594-3.102-1.013-5.38-2.35z" fill="#9794d3"/><g fill="#f14957"><path d="M357.348 248.744h-26.67l.748-19.824h24.354c.208.033.435.145.673.325l.896 19.5z"/><path d="M345.186 224.513c.47 0 .698-.028.87.48.193.563.42 1.62 1.796 1.915 2.377.51 6.652.7 8.415 2.338.178.166.243.446.173.7l-1.042 3.767c-.073.262-.277.443-.518.45l-21.95.67c-.272.007-.508-.212-.563-.522l-.797-4.532c-.063-.353.13-.696.433-.77 1.255-.305 4.39-1.487 6.6-2.09.23-.062.36-.23.386-.505l.228-1.32c.034-.33.272-.578.556-.578h5.415z"/></g><path d="M334.182 217.27c.113.098.097.168.082.237l-.046.203-.104.404-.243.782-.555 1.513-1.17 2.985-.66 1.454-.373.707-.393.678c-.504.898-.985 1.85-1.124 2.906h0c-.01.053-.052.1-.098.08s-.075-.053-.07-.104c.04-.56.188-1.1.38-1.607s.42-.992.666-1.462l.38-.7.345-.698.623-1.454 1.133-2.982.538-1.5.23-.757.095-.382.043-.192c.007-.065.018-.127.157-.163h.005c.06-.015.115.002.16.04zm8.725 1.745a2.77 2.77 0 0 1-1.11-.237c-.073-.035-.108-.133-.075-.217s.114-.126.187-.1c.063.032 1.574.755 2.6-.6a.13.13 0 0 1 .203-.016c.06.06.063.165.012.236-.558.74-1.245.934-1.815.934zm-.307-4.335c-.06-.01-.1-.06-.086-.116a8.18 8.18 0 0 0 .088-1.58c-.002-.055.035-.098.084-.1s.084.04.084.096c.016.72-.02 1.125-.1 1.617-.007.047-.042.082-.08.082z" class="C"/><path d="M349.812 173.438c0-4.415-3.2-7.958-7.045-7.65-3.206.258-5.82 3.254-6.086 6.987-.15 2.063.402 3.972 1.4 5.442 1 1.46 1.588 3.247 1.588 5.12v1.687c0 1.027.715 1.858 1.593 1.858h3.923c.88 0 1.593-.83 1.593-1.858v-1.69a9.07 9.07 0 0 1 1.585-5.113c.902-1.31 1.44-2.973 1.44-4.784z" class="E"/><path d="M345.855 190.982h-5.24c-.32 0-.58-.304-.58-.678v-1.807c0-.374.26-.676.58-.676h5.24c.32 0 .582.302.582.676v1.807c0 .374-.26.678-.582.678z" class="J"/><path d="M343.513 170.09h-.002.002zm.05 13.73c-.1 0-.193-.05-.256-.14-.652-.894-1.315-2.828-.864-4.13.147-.427.406-.767.637-1.064.206-.267.4-.52.502-.804.332-.933-.173-2.058-.62-3.05l-.306-.71c-.207-.526-.478-1.32-.403-2.154.063-.745.464-1.613 1.214-1.868.084-.03.175-.017.254.033s.136.134.16.234a.43.43 0 0 1-.028.298c-.042.092-.114.158-.2.188-.375.127-.684.63-.733 1.193-.056.645.17 1.303.348 1.744l.292.678c.514 1.145 1.093 2.444.64 3.714-.145.4-.397.737-.62 1.027-.203.264-.413.535-.516.835-.33.948.227 2.604.752 3.33.058.08.09.18.08.285s-.05.2-.116.268c-.06.06-.138.092-.218.092z" class="I"/><g class="P"><path d="M255.687 136.31s2.746-4.992 3.736-7.686 4.97-12.03 6.24-11.052-2.294 8.812-2.294 8.812 3.144-9.805 4.843-9.262-2.904 9.676-2.904 9.676 3.787-8.607 4.78-7.777.2 2.748-3.048 9.118c0 0 2.78-5.468 3.83-4.187s-2.338 6.3-3.568 7.485-7.044 6.193-8.435 8.306c0 0-3.117-1.178-3.18-3.433z"/><path d="M261.284 129.878s4.17-2.57 5.332-1.576-.01 2.034-4.333 3.547c0 0-1.527 2.102-2.5 2.267 0 0-1.203-2.883 1.5-4.238z"/></g><path d="M261.49 138.94l-6.33-4.965s-11.716 20.055-12.39 19.447-6.263-21.707-10.503-23.86c0 0-2.143 1.663-3.367 6.53-.865 3.444-.99 8.994-.805 14.466 0 0 11.04 17.735 14.945 17.152s18.45-28.77 18.45-28.77z" class="E"/><path d="M174.764 132.004s-1.616-3.48-1.616-4.497.472-2.11.505-3.498 1.75-4.6 1.38-5.513-1.414-.694-2.424 1.497-.674 3.542-1.482 2.92-2.794-3.322-3.433-4.453-2.66-3.36-3.2-2.994-.7.95 2.888 6.422c0 0-4.052-6.588-5.244-5.4-.834.83 3.124 5.653 3.696 6.42 0 0-3.665-4.986-4.757-3.8-1.026 1.106 4.015 5.258 4.015 5.258s-3.763-3.232-4.268-2.282 1.684 3.048 3.84 4.362 2.708 1.66 3.256 2.538 1.895 4.38 1.895 4.38 3.433.912 4.948-1.35z" class="P"/><path d="M220.1 109.452l-7.662 1.267s-.438 15.516-6.498 16.758c0 0-2.155 25.41 5.858 23.293s12.322-24.17 12.322-24.17-7.064-2.12-4.02-17.148z" fill="#f57e5d"/><path d="M220.698 97.89s-8.267-3.69-11.55-1.45-3.013 9.97-3.502 13.514c-.765 5.537 1.436 10.942 2.773 11.47s11.672-2.505 13.313-10.614.91-11.536-1.034-12.92z" class="P"/><path d="M219.21 111.98s-2.963 1.78-4.878 1.928-3.095-2.315-5.8-1.682l-3.04.74s-1.428 10.484 2.22 10.187 9.848-4.45 12.036-7.267c0 0 2.28 0 3.74-2.422s3.418-9.938 2.142-14.487-6.93-6.328-9.3-4.202c0 0-1.808-1.63-5.243-1.434s-4.146 2.175-5.605 3.362-2.887 1.186-3.373.164c0 0-1.034 1.88.82 5.11s3.993 2.736 6.882 2 6.473-3.823 6.473-3.823-.152 6.46 1.338 8.834c0 0 .546.264.76 0s.06-3.626 1.732-2.868.578 4.58-.91 5.85z" class="D"/><g class="B"><path d="M207.902 115.094s2.19.824 4.56.23c0 0-1.345 1.92-2.828 1.65-1.663-.306-1.732-1.88-1.732-1.88z"/><use xlink:href="#C"/></g><use xlink:href="#C" fill="#6b8ea1"/><path d="M213.397 133.173s-3.807 22.353-3.485 22.78c.21-.286 2.527 6.062 3.866 0 1.04-4.716 1.168-22.267 1.335-22.48 0 0 1.988-2.32 3.15-3.464a51.32 51.32 0 0 0 2.211-2.313 13.53 13.53 0 0 0 .522-1.128l-.31.8a19.2 19.2 0 0 1 1.498-2.605c-.112-.187-.233-.355-.365-.5l-7.088 4.16-5.512-3.588s-.163.538-.398 1.478c.58.876 1.103 1.76 1.556 2.61.58 1.087 3.02 4.25 3.02 4.25z" class="D"/><path d="M209.218 124.835s-7.656 1.607-10.618 2.672c0 0 .942 19.175-2.02 23.993l-1.346 41.767s16.765-.22 17.304-22.855l.505-23.658-3.825-21.92z" class="E"/><path d="M211.588 149.366c-.006.386-.3.692-.656.686s-.638-.326-.63-.7.3-.693.656-.686.637.326.63.7zm-.41 6.857c-.007.385-.3.693-.656.685s-.638-.325-.63-.7.3-.692.655-.685.64.326.632.7zm-.41 6.857c-.006.385-.3.7-.655.685s-.64-.326-.632-.7.3-.693.655-.685.638.325.632.7zm-.41 6.856c-.006.386-.3.692-.655.686s-.638-.326-.632-.7.3-.693.656-.686.638.326.63.7z" class="D"/><path d="M232.267 129.564l-10.45-5.3-8.775 22.5-1.866 26.272s.217 23.093 18.396 20.24l-1.478-42.372s-.138-15.52 4.172-21.33zm-57.18 0l-7.166 3.098s9.807 38.435 15.463 35.062 13.17-15.348 13.17-15.348 2.1-3.756 2.9-9.565c.724-5.134.276-12.172-.86-15.304 0 0-4.983 3.3-9.157 12.326s-5.45 11.626-5.823 11.062-8.534-21.33-8.534-21.33z" class="E"/><path d="M214.73 127.842l-4.93-4.076-1.19 1.2 1.91 7.32 4.212-3.42 3.793 3.846 3.66-8.262-1.838-2.082-5.615 5.475z" class="B"/><path d="M214.893 160.427l9.004 30.282 1.407-.56-9.004-30.283-1.407.56z" class="D"/><defs><linearGradient id="A" x1="126.917" y1="269.701" x2="88.126" y2="269.701" gradientUnits="userSpaceOnUse"><stop stop-color="#1b1464"/><stop offset="1" stop-color="#1b1464"/></linearGradient><linearGradient id="B" x1="93.279" y1="281.506" x2="76.809" y2="281.506" gradientUnits="userSpaceOnUse"><stop stop-color="#1b1464"/><stop offset="1" stop-color="#1b1464"/></linearGradient><path id="C" d="M221.818 124.265l-7.088 4.158-5.512-3.588s-2.807 9.14-2 19.51 2.356 17.816 8.82 8.178 8.864-24.9 5.78-28.257z"/></defs></svg>