<svg xmlns="http://www.w3.org/2000/svg" width="103" height="91" fill="none" xmlns:v="https://vecta.io/nano"><g filter="url(#A)"><path d="M97.5 43.347c0 21.943-20.526 39.848-46 39.848S5.5 65.3 5.5 43.347 26.026 3.5 51.5 3.5s46 17.905 46 39.847z" fill="#fff" fill-opacity=".96" stroke="#000"/></g><path d="M74.143 38.034c1.59 1.013 2.667 2.516 3.003 4.196s-.09 3.407-1.196 4.822c-.487.625-1.1 1.17-1.808 1.612L46.19 66.027c-.78.486-1.667.83-2.606 1.014s-1.912.2-2.86.048-1.85-.465-2.65-.925-1.487-1.055-2.015-1.75c-.853-1.095-1.307-2.383-1.306-3.702v-34.73c-.032-1.7.716-3.322 2.08-4.536s3.23-1.913 5.19-1.94c1.492.002 2.945.41 4.154 1.163l27.966 17.364z" fill="url(#B)"/><defs><filter id="A" x="0" y="0" width="103" height="90.695" filterUnits="userSpaceOnUse" color-interpolation-filters="sRGB"><feFlood flood-opacity="0" result="A"/><feColorMatrix in="SourceAlpha" values="0 0 0 0 0 0 0 0 0 0 0 0 0 0 0 0 0 0 127 0"/><feOffset dy="2"/><feGaussianBlur stdDeviation="2.5"/><feColorMatrix values="0 0 0 0 0 0 0 0 0 0 0 0 0 0 0 0 0 0 0.2 0"/><feBlend in2="A"/><feBlend in="SourceGraphic"/></filter><linearGradient id="B" x1="34.752" y1="67.191" x2="34.752" y2="19.506" gradientUnits="userSpaceOnUse"><stop stop-color="#9752ff"/><stop offset="1" stop-color="#5e93ff"/></linearGradient></defs></svg>